<?xml version="1.0" standalone="no"?>
<!DOCTYPE svg PUBLIC "-//W3C//DTD SVG 1.1//EN" "http://www.w3.org/Graphics/SVG/1.1/DTD/svg11.dtd" >
<svg>
<metadata>
Created by FontForge 20090914 at Mon Dec  1 15:27:48 2014
 By www-data
Copyright (c) Anatole &#38; Alexandra Gophmann, 2006. All rights reserved.
</metadata>
<defs>
<font id="Geisha" horiz-adv-x="1390" >
  <font-face 
    font-family="Geisha"
    font-weight="400"
    font-stretch="normal"
    units-per-em="2048"
    panose-1="2 11 6 3 5 3 2 2 2 4"
    ascent="1638"
    descent="-410"
    x-height="953"
    cap-height="1938"
    bbox="-74 -1303 2537 2082"
    underline-thickness="0"
    underline-position="0"
    unicode-range="U+0020-U+2116"
  />
<missing-glyph horiz-adv-x="1536" 
d="M256 0v1280h1024v-1280h-1024zM1248 32v1216h-960v-1216h960z" />
    <glyph glyph-name=".notdef" horiz-adv-x="1536" 
d="M256 0v1280h1024v-1280h-1024zM1248 32v1216h-960v-1216h960z" />
    <glyph glyph-name="space" unicode=" " horiz-adv-x="1024" 
 />
    <glyph glyph-name="exclam" unicode="!" horiz-adv-x="357" 
d="M113 1823h197l-55 -1476h-87zM91 256h249v-249h-249v249z" />
    <glyph glyph-name="quotedbl" unicode="&#x22;" horiz-adv-x="378" 
d="M98 1554h87v-482h-87v482zM273 1554h87v-482h-87v482z" />
    <glyph glyph-name="numbersign" unicode="#" horiz-adv-x="969" 
d="M585 857h-198l-11 -206h199zM410 1296l-17 -358h196l21 358h95l-20 -358h235l-3 -81h-236l-11 -206h253l-3 -81h-254l-19 -357h-96l21 357h-201l-21 -357h-94l19 357h-243l4 81h242l14 206h-263l2 81h263l22 358h94z" />
    <glyph glyph-name="dollar" unicode="$" horiz-adv-x="1504" 
d="M719 973c90.667 -33.333 160.001 -91.334 208.001 -174.001c34 -60.667 51 -125.667 51 -195c0 -15.333 -1 -31 -3 -47c-10 -87.333 -44.333 -166 -103 -236c-59.333 -73.333 -134.666 -119.666 -225.999 -138.999v-180h-87v173h-89v-173h-87v173h-284v232h284v564l-27 8
c-8.66699 2.66699 -17 5.66699 -25 9c-94.667 32.667 -165.334 85.334 -212.001 158.001c-38.667 58.667 -58 124 -58 196c0 6.66699 0.333008 13.667 1 21c4 80.667 35.667 154.667 95 222c24.667 31.333 57.5 57.666 98.5 78.999s83.5 36.333 127.5 45v158h87v-149h89v149
h87v-149h240v-232h-240v-492c23.333 -6 47.666 -13 72.999 -21zM559.001 1486l-89 0.000976562v-457c13.333 -2.66699 27.5 -5.33398 42.5 -8.00098l46.5 -8v473zM646.001 905v-493c78 12 135.667 40.333 173 85s56 94 56 148c0 122.667 -61.333 205.667 -184 249
c-2 0 -17 3.66699 -45 11zM559.001 407v518c-14 2.66699 -28.5 6 -43.5 10l-45.5 12v-540h89zM383.001 1479c-72.667 -13.333 -126.333 -38.832 -161 -76.499s-52 -78.5 -52 -122.5c0 -44.667 21 -87.834 63 -129.501s90 -74.5 144 -98.5c2.66699 -1.33301 4.66699 -2 6 -2
v429z" />
    <glyph glyph-name="percent" unicode="%" horiz-adv-x="1309" 
d="M997 1785h109l-792 -1788h-110zM964 657c-82 0 -149.167 -31.333 -201.5 -94s-79.5 -132 -81.5 -208v-18c0 -82.667 21.333 -155 64 -217c46 -67.333 119 -101 219 -101c94 0 164.667 31.167 212 93.5s71 137.5 71 225.5s-27.667 163.167 -83 225.5s-122 93.5 -200 93.5z
M968 593c58.667 0 109.167 -23.333 151.5 -70s63.5 -99 63.5 -157s-21.167 -104.667 -63.5 -140s-92.833 -53 -151.5 -53c-60 0 -111 17.667 -153 53s-63 82 -63 140s21 110.333 63 157s93 70 153 70zM349 1765c78 0 144.833 -31.167 200.5 -93.5s83.5 -137.5 83.5 -225.5
s-23.667 -163.167 -71 -225.5s-118.333 -93.5 -213 -93.5c-100 0 -172.667 33.667 -218 101c-42.667 62 -64 134.333 -64 217v18c2 76 29 145.333 81 208s119 94 201 94zM353 1701c-59.333 0 -110 -23.5 -152 -70.5s-63 -99.167 -63 -156.5c0 -58 21 -104.667 63 -140
s92.667 -53 152 -53s110.166 17.667 152.499 53s63.5 82 63.5 140c0 57.333 -21.167 109.5 -63.5 156.5s-93.166 70.5 -152.499 70.5z" />
    <glyph glyph-name="ampersand" unicode="&#x26;" horiz-adv-x="1209" 
d="M869 1253c0 -109.333 -30.833 -193.666 -92.5 -252.999s-132.5 -109.666 -212.5 -150.999l350 -471c22 13.333 47 30 75 50l123 -208l-26 -20l-25 -19l91 -114l-70 -52l-95 119c-120 -69.333 -249.333 -112.333 -388 -129c-30.667 -4 -60.334 -6 -89.001 -6
c-100 0 -185.667 22.667 -257 68c-118.667 57.333 -183.667 155 -195 293c-2 22 -3 43.667 -3 65c0 110 26.333 206.667 79 290c36 42.667 79 78.667 129 108s101 55.666 153 78.999l-67 89h-4c-65.333 66.667 -99.333 147.667 -102 243v22
c0 89.333 23.333 168.666 70 237.999c50.667 74.667 131.334 112 242.001 112c104.667 0 183.167 -34.667 235.5 -104s78.5 -152.333 78.5 -249zM458 991l39.999 -54.001c80 34 146.333 72.167 199 114.5s79 101.5 79 177.5c0 137.333 -72 206 -216 206
c-68 0 -118.833 -16.167 -152.5 -48.5s-54.5 -65.833 -62.5 -100.5c-4 -15.333 -6 -30.666 -6 -45.999c0 -31.333 7.66699 -63 23 -95c22.667 -48 52.334 -96 89.001 -144c4 -2.66699 10 -6 18 -10h-11zM837.999 333.999l-353 475l-86 -42.5
c-28 -14.333 -54.667 -29.5 -80 -45.5c-76 -47.333 -114 -109 -114 -185v-6c1.33301 -78.667 20.333 -145 57 -199c48 -58 123 -89.333 225 -94c7.33301 -0.666992 14.666 -1 21.999 -1c96.667 0 206.334 32.667 329.001 98z" />
    <glyph glyph-name="parenleft" unicode="(" horiz-adv-x="352" 
d="M336 1653c-132.667 -267.333 -198.999 -540.332 -198.999 -818.999v-20c2.66699 -273.333 69 -553.333 199 -840l-69 -32c-134.667 297.333 -203.334 587.666 -206.001 870.999v28c0 286 68.667 568 206 846z" />
    <glyph glyph-name="parenright" unicode=")" horiz-adv-x="359" 
d="M61 1653l69 33.998c137.333 -279.333 206 -562.666 206 -849.999v-24c-3.33301 -283.333 -72 -573.666 -206 -870.999l-70 32c130 286 196.667 566 200 840v16c0 280 -66.333 554.333 -199 823z" />
    <glyph glyph-name="asterisk" unicode="*" horiz-adv-x="697" 
d="M75 1565l43 75l208 -120v240h87v-240l208 120l43 -75l-208 -120l208 -120l-43 -76l-208 120v-240h-87v240l-208 -120l-43 76l207 120z" />
    <glyph glyph-name="plus" unicode="+" horiz-adv-x="812" 
d="M89 597v87h299v299h87v-299h299v-87h-299v-299h-87v299h-299z" />
    <glyph glyph-name="comma" unicode="," horiz-adv-x="350" 
d="M85 256h249v-249h-1v-520h-87v520h-161v249z" />
    <glyph glyph-name="hyphen" unicode="-" horiz-adv-x="634" 
d="M95 597v87h509v-87h-509z" />
    <glyph glyph-name="period" unicode="." horiz-adv-x="349" 
d="M84 7v249h249v-249h-249z" />
    <glyph glyph-name="slash" unicode="/" horiz-adv-x="1127" 
d="M954 1960h120l-870 -1963h-120z" />
    <glyph glyph-name="zero" unicode="0" horiz-adv-x="958" 
d="M494 1554c57.333 0 111.5 -28.5 162.5 -85.5s95.5 -130.5 133.5 -220.5s68 -190.667 90 -302s33 -221.333 33 -330c0 -217.333 -32.333 -373.833 -97 -469.5s-172 -143.5 -322 -143.5s-257.333 47.833 -322 143.5s-97 252.167 -97 469.5
c0 108.667 10.833 218.667 32.5 330s51.5 212 89.5 302s82.5 163.5 133.5 220.5s105.5 85.5 163.5 85.5zM494 1459c-49.333 0 -93.166 -28.833 -131.499 -86.5s-70.833 -129.667 -97.5 -216s-46.834 -179.833 -60.501 -280.5s-20.5 -194 -20.5 -280
c0 -174 27.167 -278 81.5 -312s130.5 -51 228.5 -51s174.333 17 229 51s82 138 82 312c0 86 -7.16699 179.333 -21.5 280s-34.666 194.167 -60.999 280.5s-58.833 158.333 -97.5 216s-82.334 86.5 -131.001 86.5z" />
    <glyph glyph-name="one" unicode="1" horiz-adv-x="589" 
d="M78 3v256h188v911h-181v252h181v133h103v-1296h192v-256h-483z" />
    <glyph glyph-name="two" unicode="2" horiz-adv-x="960" 
d="M707 1153l0.000976562 8c0 38.667 -14.333 72.667 -43 102c-30.667 31.333 -79.667 47 -147 47h-432v249h375c13.333 0.666992 26.333 1 39 1c144 0 239 -41.333 285 -124c49.333 -90 74.666 -183.667 75.999 -281c0 -122.667 -58.333 -264.834 -175 -426.501
l-329 -472.5h559v-257l-900 -1l428 577c67.333 91.333 126.833 184.833 178.5 280.5s80.167 194.834 85.5 297.501z" />
    <glyph glyph-name="three" unicode="3" horiz-adv-x="908" 
d="M132 1554l710.002 1.00293l-353 -707c90 -50 162.667 -106.833 218 -170.5s95.666 -127.834 120.999 -192.501c22 -60.667 33 -119.334 33 -176.001v-18c-2.66699 -64 -18.334 -119 -47.001 -165c-48 -80.667 -117.667 -121 -209 -121c-11.333 0 -23 0.666992 -35 2h-484
v244h497c88 0 137 30.333 147 91c4.66699 27.333 7 51.666 7 72.999c0 25.333 -3.33301 46.333 -10 63c-28 68 -65 125 -111 171c-36 34 -73.667 63.167 -113 87.5s-81 47.5 -125 69.5l241 484h-487v264z" />
    <glyph glyph-name="four" unicode="4" horiz-adv-x="874" 
d="M349 3v256h188v163v150h-482l482 983h103v-720h150v-263h-150v-313h193v-256h-484zM537 1352l-261 -517h261v281v236z" />
    <glyph glyph-name="five" unicode="5" horiz-adv-x="1029" 
d="M700 721c-59.333 36.667 -135.668 57.333 -229.001 62c-93.333 4 -176 6 -248 6v768l632 -1v-277h-518v-390h126l-2 -2c68 -2 134.5 -12.833 199.5 -32.5s121.5 -49.834 169.5 -90.501c91.333 -77.333 137 -186.333 137 -327c0 -13.333 -0.333008 -26.666 -1 -39.999
c-9.33301 -160 -76 -270 -200 -330c-80 -38 -169 -57 -267 -57c-31.333 0 -63.333 2 -96 6c-136 16 -267.667 64.667 -395 146l124 208c191.333 -90.667 338.333 -136 441 -136c8.66699 0 17 0.333008 25 1c104 7.33301 176 40.333 216 99c24 36.667 36 78.667 36 126
c0 22.667 -2.66699 46.667 -8 72c-17.333 77.333 -64.666 140.333 -141.999 189z" />
    <glyph glyph-name="six" unicode="6" horiz-adv-x="942" 
d="M472 968c117.333 0 217.667 -46.834 301 -140.501s125 -206.5 125 -338.5s-35.5 -244.667 -106.5 -338s-177.5 -140 -319.5 -140c-100.667 0 -182.167 25.167 -244.5 75.5s-106.833 113.5 -133.5 189.5c-21.333 60 -32 124 -32 192c0 18.667 0.666992 37.334 2 56.001
c6.66699 89.333 29 173 67 251l422 859l78 -39l-328 -666c54 26 110.333 39 169 39zM478.001 870.999c-88.667 0 -162.5 -35 -221.5 -105s-88.5 -148.333 -88.5 -235s29.5 -156.5 88.5 -209.5s132.833 -79.5 221.5 -79.5s164.667 26.5 228 79.5s95 122.833 95 209.5
s-31.667 165 -95 235s-139.333 105 -228 105z" />
    <glyph glyph-name="seven" unicode="7" horiz-adv-x="862" 
d="M80 1560l741 1l-229 -718h94v-81h-120l-243 -755h-79l241 755h-114v81h140l152 477h-583v240z" />
    <glyph glyph-name="eight" unicode="8" horiz-adv-x="983" 
d="M670 835c78 -34 142 -88.5 192 -163.5s75 -159.5 75 -253.5c0 -124.667 -36.833 -223 -110.5 -295s-182.167 -108 -325.5 -108s-249.666 36 -318.999 108s-104 170.333 -104 295c0 94 24.833 178.5 74.5 253.5s113.5 129.5 191.5 163.5c-64 27.333 -116.333 70 -157 128
s-61 125.667 -61 203c0 106.667 31.667 198.167 95 274.5s158.666 114.5 285.999 114.5s222.833 -38.167 286.5 -114.5s95.5 -167.833 95.5 -274.5c0 -77.333 -20.5 -145 -61.5 -203s-93.5 -100.667 -157.5 -128zM514 778c-90 0 -166.833 -33.167 -230.5 -99.5
s-95.5 -140.166 -95.5 -221.499c0 -82 31.833 -142.833 95.5 -182.5s140.5 -59.5 230.5 -59.5c89.333 0 165.833 19.833 229.5 59.5s95.5 100.5 95.5 182.5c0 81.333 -31.833 155.166 -95.5 221.499s-140.167 99.5 -229.5 99.5zM513 880c79.333 0 147.333 24.5 204 73.5
s85 108.5 85 178.5s-28.333 123.667 -85 161s-124.667 56 -204 56c-80 0 -148.167 -18.667 -204.5 -56s-84.5 -91 -84.5 -161s28.167 -129.5 84.5 -178.5s124.5 -73.5 204.5 -73.5z" />
    <glyph glyph-name="nine" unicode="9" horiz-adv-x="972" 
d="M507 617c-117.333 0 -217.499 46.666 -300.499 139.999s-124.5 206 -124.5 338c0 131.333 35.333 243.833 106 337.5s177 140.5 319 140.5c100.667 0 182.167 -25.333 244.5 -76s107.166 -114 134.499 -190c21.333 -60.667 32 -125.667 32 -195
c0 -17.333 -0.666992 -35 -2 -53c-7.33301 -89.333 -30 -172.666 -68 -249.999l-422 -858l-77 39l327 666c-54.667 -26 -111 -39 -169 -39zM501.001 712.999c88.667 0 162.667 35 222 105s89 148.333 89 235s-29.667 156.5 -89 209.5s-133.333 79.5 -222 79.5
c-89.333 0 -165.5 -26.5 -228.5 -79.5s-94.5 -122.833 -94.5 -209.5s31.5 -165 94.5 -235s139.167 -105 228.5 -105z" />
    <glyph glyph-name="colon" unicode=":" horiz-adv-x="352" 
d="M87 958h249v-250h-249v250zM87 256h249v-249h-249v249z" />
    <glyph glyph-name="semicolon" unicode=";" horiz-adv-x="349" 
d="M83 256h250v-249h-2v-520h-87v520h-161v249zM79 962h249v-249h-249v249z" />
    <glyph glyph-name="equal" unicode="=" horiz-adv-x="803" 
d="M80 683v87h685v-87h-685zM80 493v87h685v-87h-685z" />
    <glyph glyph-name="question" unicode="?" horiz-adv-x="1194" 
d="M404 256h250v-249h-250v249zM571 1005c35.333 4 77.498 10.5 126.498 19.5s87.5 21.167 115.5 36.5c94 52 155 118 183 198c10.667 30.667 16 59.667 16 87c0 44.667 -13.667 85.334 -41 122.001c-48 64 -138.333 101 -271 111c-10.667 0.666992 -21.667 1 -33 1
c-130.667 0 -312 -54.667 -544 -164l-149 251c154 98.667 314 158.334 480 179.001c40 4.66699 79 7 117 7c118.667 0 226.334 -23.333 323.001 -70c142.667 -70 219 -176 229 -318c1.33301 -16.667 2 -33 2 -49c0 -122.667 -33.333 -231.334 -100 -326.001
c-45.333 -62.667 -106 -110.667 -182 -144h1l-273 -48v-550h-87v538v27c0 37.333 2.33301 61.666 7 72.999c4.66699 12.667 27.334 19 68.001 19h12z" />
    <glyph glyph-name="at" unicode="@" horiz-adv-x="1504" 
d="M706 1057c114 0 198.669 -39.334 254.002 -118.001v118h65v-358v-29c-0.666992 -11.333 -1 -22.333 -1 -33c0 -73.333 22 -120.666 66 -141.999c16 -7.33301 33.667 -11 53 -11c11.333 0 23.666 1.33301 36.999 4c34.667 6.66699 63.667 17.334 87 32.001
c46 28 81.667 77 107 147c14 38.667 21 78.334 21 119.001c0 32.667 -4.33301 65.667 -13 99c-36.667 133.333 -108.834 238.833 -216.501 316.5s-237.167 116.5 -388.5 116.5c-180 0 -333.833 -60.833 -461.5 -182.5s-191.5 -267.834 -191.5 -438.501
s63.833 -316.667 191.5 -438s281.5 -182 461.5 -182c100 0 193.333 19.833 280 59.5s160 93.5 220 161.5h112c-67.333 -92.667 -154.5 -166.834 -261.5 -222.501s-223.833 -83.5 -350.5 -83.5c-204.667 0 -379.667 68.833 -525 206.5s-218 303.834 -218 498.501
c0 194 72.667 360.167 218 498.5s320.333 207.5 525 207.5c169.333 0 315 -43 437 -129s205.333 -203 250 -351c12.667 -42 19 -84.333 19 -127c0 -58.667 -12 -118 -36 -178c-42 -104.667 -103.667 -181.667 -185 -231c-38.667 -22.667 -80.334 -34 -125.001 -34
c-52 0 -108 15 -168 45c-22 -3.33301 -40.167 -10.333 -54.5 -21s-33.833 -19.334 -58.5 -26.001c-19.333 -6 -43.666 -9 -72.999 -9c-30 -0.666992 -58 -1 -84 -1h-14c-96.667 0 -170 34.333 -220 103c-52 72 -78 157 -78 255s31.167 182.167 93.5 252.5
s137.5 105.5 225.5 105.5zM925.002 569.999c17.333 18 26.333 42.001 27 72.001s1 59.333 1 88c0 86 -23.833 150 -71.5 192s-104.5 63 -170.5 63c-66.667 0 -123.667 -26.333 -171 -79s-71 -111.334 -71 -176.001c0 -78 24 -131.667 72 -161s102.333 -46 163 -50
c13.333 -1.33301 27.333 -2 42 -2c23.333 0 48.333 1.66699 75 5c43.333 4.66699 78 20.667 104 48z" />
    <glyph glyph-name="A" unicode="A" horiz-adv-x="1302" 
d="M739 1953l850 -3117l-106 -28l-479 1752h-706l-181 -558h-115l630 1956zM924 853l-243 887l-288 -887h531zM688 1729l-8 24z" />
    <glyph glyph-name="B" unicode="B" horiz-adv-x="1370" 
d="M1186 1955l-717.997 -745c71.333 22 142.666 33 213.999 33c24 0 48 -1.33301 72 -4c97.333 -10 188.166 -42.667 272.499 -98s151.166 -135 200.499 -239c42 -91.333 63 -189.333 63 -294c0 -24 -1 -48.333 -3 -73c-12 -132 -55 -246 -129 -342
c-43.333 -55.333 -98.833 -100.833 -166.5 -136.5s-136.5 -53.5 -206.5 -53.5h-702v1952h1103zM186.003 1064l565 589h-565v-589zM186.003 911v-606h606c126.667 3.33301 220 41.5 280 114.5s90 155.5 90 247.5c0 104 -34 203.833 -102 299.5s-159 150.834 -273 165.501
c-28 3.33301 -56.667 5 -86 5c-68 0 -139 -9.66699 -213 -29c-105.333 -28.667 -206 -94.334 -302 -197.001z" />
    <glyph glyph-name="C" unicode="C" horiz-adv-x="1227" 
d="M1117 -52c-105.333 16.667 -246.671 71.498 -424.004 164.498s-309.666 193.167 -396.999 300.5c-85.333 104 -148 223.333 -188 358c-31.333 106 -47 212 -47 318c0 28 1 56 3 84c11.333 142 53 275.333 125 400s178 222.334 318 293.001c106 53.333 215.667 82 329 86
c32.667 1.33301 64.667 2 96 2c79.333 0 156.333 -3.66699 231 -11h3h3v-292h-3h-3c-97.333 0 -215.666 -3.83301 -354.999 -11.5s-260.666 -52.5 -363.999 -134.5c-61.333 -48.667 -108.833 -108.334 -142.5 -179.001s-54.167 -145.667 -61.5 -225
c-2.66699 -29.333 -4 -58.666 -4 -87.999c0 -79.333 10 -158.666 30 -237.999c27.333 -108.667 71 -201 131 -277c74 -95.333 178.833 -179 314.5 -251s270.834 -128.667 405.501 -170v-129z" />
    <glyph glyph-name="D" unicode="D" horiz-adv-x="1258" 
d="M176 -23l-95 2.00098l3 1972c74.667 7.33301 151.667 11 231 11c31.333 0 63.333 -0.666992 96 -2c113.333 -4.66699 223 -33.334 329 -86.001c139.333 -71.333 245 -169.333 317 -294s114 -258 126 -400c2 -28 3 -56 3 -84c0 -106 -15.667 -212 -47 -318
c-40 -134 -102.667 -253.333 -188 -358c-87.333 -107.333 -212 -204 -374 -290s-295.667 -137 -401 -153zM184 102.001c126.667 42 251.999 97.333 375.999 166s221 147.667 291 237c60 76 103.667 168.333 131 277c19.333 79.333 29 158.666 29 237.999
c0 29.333 -1.33301 59 -4 89c-8 79.333 -28.667 154.333 -62 225s-80.666 130.334 -141.999 179.001c-87.333 68.667 -188.5 110.167 -303.5 124.5s-220.167 21.5 -315.5 21.5v-1557z" />
    <glyph glyph-name="E" unicode="E" horiz-adv-x="1124" 
d="M81 1948h990v-302h-888v-598h790v-103h-790v-641h888v-302h-990v1946z" />
    <glyph glyph-name="F" unicode="F" horiz-adv-x="1126" 
d="M186 1031h670v-102h-670v-2199h-103v3222h990v-302h-887v-619z" />
    <glyph glyph-name="G" unicode="G" horiz-adv-x="1266" 
d="M1104 83l0.00195312 317.001h-275v302h377v-2005h-102v1257c-106 16.667 -247.333 71.5 -424 164.5s-308.334 193.167 -395.001 300.5c-86 104 -149 223 -189 357c-31.333 104.667 -47 209.334 -47 314.001c0 29.333 1.33301 58.666 4 87.999
c11.333 142 53 275.333 125 400s178 222.334 318 293.001c105.333 54 214.666 83 327.999 87c32.667 1.33301 64.667 2 96 2c79.333 0 156.666 -3.66699 231.999 -11l1.5 -0.5c1 -0.333008 2.16699 -0.5 3.5 -0.5v-291h-3h-2c-98 0 -216.5 -3.83301 -355.5 -11.5
s-260.167 -52.5 -363.5 -134.5c-62 -48.667 -109.667 -108.334 -143 -179.001s-53.666 -145.667 -60.999 -225c-2.66699 -30.667 -4 -61.334 -4 -92.001c0 -78.667 9.66699 -157 29 -235c27.333 -108.667 71 -201 131 -277c74 -94.667 178.833 -178 314.5 -250
s270.5 -128.667 404.5 -170z" />
    <glyph glyph-name="H" unicode="H" horiz-adv-x="1325" 
d="M1160 1958h102v-3183h-102v1799h-972v-1799h-103v3183h103v-1082h972v1082z" />
    <glyph glyph-name="I" unicode="I" horiz-adv-x="316" 
d="M142 1957h102v-1955h-102v1955z" />
    <glyph glyph-name="J" unicode="J" horiz-adv-x="733" 
d="M641 1955v-2755c0 -124 -17 -225.333 -51 -304s-122 -122 -264 -130c-11.333 -0.666992 -22.333 -1 -33 -1c-131.333 0 -216 44 -254 132c-42 95.333 -63 207.666 -63 336.999v180h101v-146c0 -51.333 24 -92.333 72 -123c46.667 -30 98.334 -45 155.001 -45h4
c57.333 0.666992 110.166 19.167 158.499 55.5s72.5 95.166 72.5 176.499v2623h102z" />
    <glyph glyph-name="K" unicode="K" horiz-adv-x="1340" 
d="M85 1955h103v-992l932 1014l78 -67l-585 -637l664 -1263h-316l-564 1029l-209 -228v-2040h-103v3184z" />
    <glyph glyph-name="L" unicode="L" horiz-adv-x="1127" 
d="M84 1v1962h102v-1660h888v-302h-990z" />
    <glyph glyph-name="M" unicode="M" horiz-adv-x="1828" 
d="M87 1954h102l725 -962l726 962h101v-3185h-102v2682l-718 -951h-14l-717 951v-2682h-103v3185z" />
    <glyph glyph-name="N" unicode="N" horiz-adv-x="1342" 
d="M186 1954l990 -1428v1428h103v-1959h-103l-990 1429v-2653h-103v3183h103z" />
    <glyph glyph-name="O" unicode="O" horiz-adv-x="1355" 
d="M665 1969c86 0 166.999 -36.167 242.999 -108.5s142.333 -165.666 199 -279.999s101.5 -242 134.5 -383s49.5 -280.167 49.5 -417.5c0 -276 -48.333 -474.5 -145 -595.5s-257 -181.5 -481 -181.5s-384.333 60.5 -481 181.5s-145 319.5 -145 595.5
c0 137.333 16.333 276.5 49 417.5s77.334 268.667 134.001 383s123 207.666 199 279.999s157.333 108.5 244 108.5zM664.999 1848c-73.333 0 -142.332 -36.5 -206.999 -109.5s-121.167 -164.167 -169.5 -273.5s-86.333 -227.833 -114 -355.5s-41.5 -246.167 -41.5 -355.5
c0 -220 52 -351.5 156 -394.5s229.333 -64.5 376 -64.5c146 0 271.167 21.5 375.5 64.5s156.5 174.5 156.5 394.5c0 109.333 -14 227.833 -42 355.5s-66.167 246.167 -114.5 355.5s-104.833 200.5 -169.5 273.5s-133.334 109.5 -206.001 109.5z" />
    <glyph glyph-name="P" unicode="P" horiz-adv-x="1391" 
d="M183 1646l0.000976562 -538h721c71.333 0 133.166 28 185.499 84s85.5 117.667 99.5 185c4 18.667 6 37 6 55c0 46 -12.333 89.333 -37 130c-34 56 -101.333 84 -202 84h-773zM887.001 1006l-704.001 -0.000976562v-2245h-102v2885h-1v302h773
c144 0 255.333 -49.167 334 -147.5s121.334 -206.166 128.001 -323.499c0.666992 -10.667 1 -21 1 -31c0 -106 -31.667 -203.667 -95 -293c-70 -98 -181.333 -147 -334 -147z" />
    <glyph glyph-name="Q" unicode="Q" 
d="M688 1952c86 0 166.998 -36.167 242.998 -108.5s142.5 -165.666 199.5 -279.999s102 -242 135 -383s49.5 -280.167 49.5 -417.5c0 -246 -38 -429.667 -114 -551l280 -425l-85 -56l-263 397c-97.333 -94 -245.666 -141 -444.999 -141c-224 0 -384.333 60.5 -481 181.5
s-145 319.167 -145 594.5c0 137.333 16.333 276.5 49 417.5s77.334 268.667 134.001 383s123 207.666 199 279.999s157.333 108.5 244 108.5zM753.998 703l86 56l258 -392c38 32 67.833 77.5 89.5 136.5s32.5 136.833 32.5 233.5c0 110 -14 228.833 -42 356.5
s-66.167 246.167 -114.5 355.5s-104.833 200.5 -169.5 273.5s-133.334 109.5 -206.001 109.5c-73.333 0 -142.333 -36.5 -207 -109.5s-121.167 -164.167 -169.5 -273.5s-86.333 -227.833 -114 -355.5s-41.5 -246.5 -41.5 -356.5c0 -220 52 -351.5 156 -394.5
s229.333 -64.5 376 -64.5c60 0 117.333 2 172 6s104.334 14.667 149.001 32z" />
    <glyph glyph-name="R" unicode="R" 
d="M181 1654v-538h721c71.333 0 133 28 185 84s85 117.667 99 185c4 18.667 6 37 6 55c0 46 -12.333 89.333 -37 130c-34 56 -101.333 84 -202 84h-772zM808 1013h-627.001v-1010h-103v1651v302h773c141.333 0 251.333 -47.833 330 -143.5s122.334 -201.5 131.001 -317.5
c1.33301 -14 2 -27.667 2 -41c0 -100 -28.667 -193.667 -86 -281c-64.667 -99.333 -169.667 -152.333 -315 -159l485 -2256h-242z" />
    <glyph glyph-name="S" unicode="S" 
d="M891 1012c115.333 -40.667 202.666 -114.001 261.999 -220.001c42 -76 63 -157.667 63 -245c0 -20 -1 -40.333 -3 -61c-12 -110.667 -55 -210 -129 -298c-42.667 -54 -98 -98.333 -166 -133s-136.667 -52 -206 -52h-605v293h612c126.667 4 219.834 36.167 279.501 96.5
s89.5 128.833 89.5 205.5c0 154.667 -77.333 259.667 -232 315c-10 3.33301 -68.5 16.833 -175.5 40.5s-200.5 49.834 -280.5 78.501c-119.333 41.333 -208.666 108 -267.999 200c-48.667 73.333 -73 156.333 -73 249c0 8 0.333008 16.333 1 25
c4.66699 102.667 44.667 196.334 120 281.001c42 53.333 100.667 94.833 176 124.5s148 44.5 218 44.5h528v-293h-535c-127.333 -4 -220.833 -32.167 -280.5 -84.5s-89.5 -111.5 -89.5 -177.5c0 -56 26.667 -110.333 80 -163s114 -94.334 182 -125.001
c35.333 -16 95.166 -29.5 179.499 -40.5s168.5 -31.167 252.5 -60.5z" />
    <glyph glyph-name="T" unicode="T" 
d="M88 1958h1299v-302h-598v-2910h-103v2910h-598v302z" />
    <glyph glyph-name="U" unicode="U" horiz-adv-x="1295" 
d="M82 771v1180h103v-1188c0 -38 0.666992 -87.667 2 -149c1.33301 -62 11.666 -120 30.999 -174c29.333 -84.667 85.5 -134.334 168.5 -149.001s172.5 -22 268.5 -22c110 0 206.167 12 288.5 36s138.833 97.333 169.5 220c12 50.667 18.333 104 19 160s1 110 1 162l-1 1104
h102v-1167c0 -80 -4.33301 -161.333 -13 -244s-26 -162 -52 -238c-76.667 -216 -248 -324 -514 -324c-175.333 0 -307.666 43.5 -396.999 130.5s-144.333 228.5 -165 424.5c-4.66699 40 -7.66699 79.667 -9 119s-2 79 -2 119z" />
    <glyph glyph-name="V" unicode="V" horiz-adv-x="1282" 
d="M1221 1959l-530 -1979l-110 2l-555 1971h302l404 -1436l386 1440z" />
    <glyph glyph-name="W" unicode="W" horiz-adv-x="2006" 
d="M1046 1598l72 -1l303 -1075l387 1440l103 2l-531 -1979l-110 2l-283 1007l-271 -1009l-110 2l-554 1971h302l403 -1436z" />
    <glyph glyph-name="X" unicode="X" horiz-adv-x="1365" 
d="M1118 1958h102l-440 -803l586 -1150h-301l-441 865l-475 -867h-103l528 964l-506 993h302l361 -708z" />
    <glyph glyph-name="Y" unicode="Y" horiz-adv-x="1517" 
d="M931 874l0.000976562 -474c0 -124.667 -17.167 -226 -51.5 -304s-122.5 -121 -264.5 -129c-12 -0.666992 -23.667 -1 -35 -1c-130 0 -214.333 43.667 -253 131c-42 94.667 -63 207 -63 337v180h103v-146c0 -52 24 -93.333 72 -124c46.667 -30 98 -45 154 -45h4
c57.333 0.666992 110.166 19 158.499 55s72.5 95 72.5 177v266l-784 1157l368 -5l550 -813l465 819l116 -4z" />
    <glyph glyph-name="Z" unicode="Z" horiz-adv-x="1517" 
d="M77 1954h979l74 1l-455 -903h141v-102h-192l-327 -649h762v-301h-989h-27l478 950h-159v102h211l302 600h-798v302z" />
    <glyph glyph-name="bracketleft" unicode="[" horiz-adv-x="373" 
d="M85 1674h271v-255h-169v-1221h169v-253h-271v1729z" />
    <glyph glyph-name="backslash" unicode="\" horiz-adv-x="1127" 
d="M204 1960l870 -1963h-120l-870 1963h120z" />
    <glyph glyph-name="bracketright" unicode="]" horiz-adv-x="373" 
d="M356 -55h-271v253h169v1221h-169v255h271v-1729z" />
    <glyph glyph-name="asciicircum" unicode="^" horiz-adv-x="517" 
d="M86 1666v24l203 155l204 -155v-24h-113l-91 69l-90 -69h-113z" />
    <glyph glyph-name="underscore" unicode="_" horiz-adv-x="1302" 
d="M3 -100v87h1191v-87h-1191z" />
    <glyph glyph-name="grave" unicode="`" horiz-adv-x="384" 
d="M98 1510h87l181 -482h-87z" />
    <glyph glyph-name="a" unicode="a" horiz-adv-x="998" 
d="M482 953c151.333 0 264.335 -52.667 339.002 -158v158h87v-478v-40c-2 -30 -3 -55.333 -3 -76c0 -44 4.66699 -67.333 14 -70c14 -4 24.667 -23 32 -57v-247l-89 18l-29 40c-18 -2.66699 -32.5 -8.5 -43.5 -17.5s-24.833 -14.833 -41.5 -17.5
c-42.667 -6 -88.334 -9 -137.001 -9c-49.333 0 -95.333 -0.666992 -138 -2h-14c-132 0 -231.667 46.333 -299 139c-69.333 95.333 -104 208.333 -104 339c0 131.333 41.667 243.833 125 337.5s183.666 140.5 300.999 140.5zM775.002 302c22.667 24 34.333 56.333 35 97
c0.666992 40 1 79 1 117c0 114.667 -31.667 200.167 -95 256.5s-139.333 84.5 -228 84.5c-89.333 0 -165.5 -35.167 -228.5 -105.5s-94.5 -148.833 -94.5 -235.5c0 -104 32.167 -175.5 96.5 -214.5s136.833 -61.5 217.5 -67.5c17.333 -1.33301 35.333 -2 54 -2
c32 0 66.333 2 103 6c58.667 6.66699 105 28 139 64z" />
    <glyph glyph-name="b" unicode="b" horiz-adv-x="917" 
d="M95 1916h87.001v-965c189.333 -42 336.5 -108 441.5 -198s176.167 -183 213.5 -279c22.667 -59.333 34 -119.333 34 -180v-14c-3.33301 -64 -19 -119 -47 -165c-48.667 -80 -117.334 -120 -206.001 -120c-12.667 0 -25.667 0.666992 -39 2h-484v1919zM182.001 862
l-0.000976562 -617.001h410c88 0 137.333 29.333 148 88c4.66699 26.667 7 50.334 7 71.001c0 25.333 -3.33301 46.333 -10 63c-29.333 68.667 -66.666 125.667 -111.999 171c-48 47.333 -108.667 90.5 -182 129.5s-160.333 70.5 -261 94.5z" />
    <glyph glyph-name="c" unicode="c" horiz-adv-x="973" 
d="M687 911c43.333 -21.333 80.332 -53.9971 110.999 -97.9971c24.667 -36 37 -73.333 37 -112c0 -8.66699 -0.666992 -17.334 -2 -26.001c-8 -51.333 -24.333 -89 -49 -113c-33.333 -30.667 -75.333 -46 -126 -46c-8.66699 0 -17.667 0.333008 -27 1
c-64 5.33301 -116 30.666 -156 75.999l12 35c37.333 -4 70.666 -7 99.999 -9h14c22 -0.666992 39.667 3.33301 53 12c27.333 15.333 41 38.666 41 69.999v10c-4 36 -17.333 66.667 -40 92c-37.333 38 -86.666 57 -147.999 57c-89.333 0 -165.5 -35.333 -228.5 -106
s-94.5 -149.667 -94.5 -237s31.5 -157.5 94.5 -210.5s139.167 -79.5 228.5 -79.5c82 0 153.5 22.833 214.5 68.5s96.5 107.167 106.5 184.5h99v-3v-2c0 -132.667 -35.5 -245.834 -106.5 -339.501s-177.5 -140.5 -319.5 -140.5s-248.5 46.833 -319.5 140.5
s-106.5 206.834 -106.5 339.501c0 108 28.333 204 85 288s128.334 141.333 215.001 172c40.667 14 82 21 124 21c61.333 0 124 -15 188 -45z" />
    <glyph glyph-name="d" unicode="d" horiz-adv-x="1019" 
d="M502 953c152 0 264.668 -52.6641 338.001 -157.997v158v963h87v-963v-478v-20c0.666992 -6.66699 0.666992 -13.334 0 -20.001v-106c4 -30.667 10.833 -48.334 20.5 -53.001s17.5 -19.334 23.5 -44.001v-247l-90 18l-28 40c-18 -2.66699 -32.5 -8.5 -43.5 -17.5
s-25.167 -14.833 -42.5 -17.5c-42.667 -6 -88.334 -9 -137.001 -9c-49.333 0 -95.333 -0.666992 -138 -2h-14c-132 0 -231.333 46.333 -298 139c-69.333 95.333 -104 208.333 -104 339c0 131.333 41.5 243.833 124.5 337.5s183.5 140.5 301.5 140.5zM794.001 302.003
c22.667 24 34.667 56.333 36 97c0.666992 40 1 79 1 117c0 114.667 -31.833 200.167 -95.5 256.5s-139.5 84.5 -227.5 84.5c-89.333 0 -165.5 -35.167 -228.5 -105.5s-94.5 -148.833 -94.5 -235.5c0 -104 32 -175.5 96 -214.5s136.333 -61.5 217 -67.5
c17.333 -1.33301 35.333 -2 54 -2c32 0 66.333 2 103 6c58.667 6.66699 105 28 139 64z" />
    <glyph glyph-name="e" unicode="e" horiz-adv-x="951" 
d="M481 965c112 0 208.833 -43.001 290.5 -129.001s126.5 -190.667 134.5 -314h-46v-2h-695c2 -84.667 34.333 -152.5 97 -203.5s137.667 -76.5 225 -76.5c73.333 0 138.5 18.333 195.5 55s95.5 86.334 115.5 149.001h108c-8 -122 -47.333 -225.167 -118 -309.5
s-173 -126.5 -307 -126.5c-142 0 -248.333 46.833 -319 140.5s-106 206.5 -106 338.5s41.5 244.667 124.5 338s183.167 140 300.5 140zM801 606.999c-18 70.667 -56 132 -114 184s-124.667 78 -200 78s-141.833 -26 -199.5 -78s-95.5 -113.333 -113.5 -184h627z" />
    <glyph glyph-name="f" unicode="f" horiz-adv-x="601" 
d="M187 -4l0.000976562 1355h-139v87h139v271c0 44.667 13.167 90.167 39.5 136.5s66.166 69.5 119.499 69.5h227v-249h-244c-16 0 -29.167 -9.16699 -39.5 -27.5s-15.5 -35.5 -15.5 -51.5v-149h161v-87h-161v-1355h-87z" />
    <glyph glyph-name="g" unicode="g" horiz-adv-x="942" 
d="M811 956h87v-2156h-1v-29h-665l491 1295c-64 -38.667 -139 -58 -225 -58c-142 0 -248.5 46.833 -319.5 140.5s-106.5 206.5 -106.5 338.5s41.5 244.667 124.5 338s183.5 140 301.5 140c124 0 228.333 -51.333 313 -154v145zM422 -986h388v1022zM504 869
c-89.333 0 -165.501 -35.166 -228.501 -105.499s-94.5 -148.5 -94.5 -234.5c0 -87.333 31.5 -157.333 94.5 -210s139.167 -79 228.5 -79c106 0 182.833 27.667 230.5 83s72.834 120 75.501 194v10c0 79.333 -25 155.666 -75 228.999c-52 75.333 -129 113 -231 113z" />
    <glyph glyph-name="h" unicode="h" horiz-adv-x="969" 
d="M86 1930l87 -0.000976562v-1115l527 140c18.667 4.66699 39.667 7 63 7c23.333 0.666992 49 -1.66602 77 -6.99902c55.333 -10.667 83 -35.667 83 -75v-883h-87v635c0 28 -17.333 51.333 -52 70c-24 13.333 -46.333 20 -67 20c-8.66699 0 -17 -1.33301 -25 -4l-519 -152
v-569h-87v1933z" />
    <glyph glyph-name="i" unicode="i" horiz-adv-x="265" 
d="M93 962h87v-965h-87v965zM93 1224h87v-134h-87v134z" />
    <glyph glyph-name="j" unicode="j" horiz-adv-x="379" 
d="M310 955l0.000976562 -1712c0 -44.667 -13.333 -90.167 -40 -136.5s-66.334 -69.5 -119.001 -69.5h-225v248h242c16 0 29.167 9.16699 39.5 27.5s15.5 35.5 15.5 51.5v1591h87zM223.001 1224h87v-134h-87v134z" />
    <glyph glyph-name="k" unicode="k" horiz-adv-x="1096" 
d="M87 1923h87v-1496l719 528l150 3l-493 -363l494 -596h-267l-393 474l-210 -154v-322h-87v1926z" />
    <glyph glyph-name="l" unicode="l" horiz-adv-x="252" 
d="M79 1916h87v-1919h-87v1919z" />
    <glyph glyph-name="m" unicode="m" horiz-adv-x="1753" 
d="M84 953l87.001 -0.00195312v-138l527 140c18.667 4.66699 39.667 7 63 7c24 0.666992 50 -1.66602 78 -6.99902c55.333 -10.667 83 -35.667 83 -75v-64l524 139c18.667 4.66699 39.667 7 63 7c24 0.666992 50 -1.66602 78 -6.99902c55.333 -10.667 83 -35.667 83 -75
v-883h-87v635c0 28 -17.333 51.333 -52 70c-24.667 13.333 -47 20 -67 20c-8.66699 0 -17 -1.33301 -25 -4l-517 -151v-570h-87v635c0 28 -17.333 51.333 -52 70c-24.667 13.333 -47.334 20 -68.001 20c-8.66699 0 -17 -1.33301 -25 -4l-519 -152v-569h-87v956z" />
    <glyph glyph-name="n" unicode="n" horiz-adv-x="964" 
d="M82 953l87 -0.000976562v-138l526 140c18.667 4.66699 39.667 7 63 7c24 0.666992 50 -1.66602 78 -6.99902c55.333 -10.667 83 -35.667 83 -75v-883h-87v635c0 28 -17.333 51.333 -52 70c-24.667 13.333 -47 20 -67 20c-8.66699 0 -17 -1.33301 -25 -4l-519 -152v-569
h-87v956z" />
    <glyph glyph-name="o" unicode="o" horiz-adv-x="982" 
d="M510 954c116.667 0 216.833 -46.834 300.5 -140.501s125.5 -206.167 125.5 -337.5c0 -132 -35.5 -244.667 -106.5 -338s-177.5 -140 -319.5 -140c-150 0 -259 50.333 -327 151c-64.667 94.667 -97 204.667 -97 330v22c4 114.667 45 218.834 123 312.501
s178.333 140.5 301 140.5zM515.999 857.999c-89.333 0 -165.5 -35.167 -228.5 -105.5s-94.5 -148.833 -94.5 -235.5s31.5 -156.5 94.5 -209.5s139.167 -79.5 228.5 -79.5c88.667 0 164.667 26.5 228 79.5s95 122.833 95 209.5s-31.667 165.167 -95 235.5
s-139.333 105.5 -228 105.5z" />
    <glyph glyph-name="p" unicode="p" horiz-adv-x="904" 
d="M82 956l87 -2c189.333 -41.333 336.5 -107.666 441.5 -198.999s176.167 -185 213.5 -281c22 -58.667 33 -117.334 33 -176.001v-18c-2 -61.333 -17.333 -116.333 -46 -165c-50 -80 -119.333 -120 -208 -120c-12 0 -24.333 0.666992 -37 2h-397v-1262h-87v2221zM169 862
l-0.000976562 -617.001h410c88 0 137.333 29.333 148 88c4.66699 26.667 7 50.334 7 71.001c0 25.333 -3.33301 46.333 -10 63c-29.333 68.667 -66.666 125.667 -111.999 171c-48.667 47.333 -109.5 90.5 -182.5 129.5s-159.833 70.5 -260.5 94.5z" />
    <glyph glyph-name="q" unicode="q" horiz-adv-x="958" 
d="M826 956h87v-2221h-87v1406c-77.333 -88.667 -181.666 -133 -312.999 -133c-142.667 0 -249.334 46.833 -320.001 140.5s-106 206.5 -106 338.5s41.5 244.667 124.5 338s183.5 140 301.5 140c124 0 228.333 -51.333 313 -154v145zM519 869
c-89.333 0 -165.5 -35.166 -228.5 -105.499s-94.5 -148.5 -94.5 -234.5c0 -87.333 31.5 -157.333 94.5 -210s139.167 -79 228.5 -79c105.333 0 182 27.667 230 83s73.333 120 76 194v10c0 79.333 -25 155.666 -75 228.999c-52 75.333 -129 113 -231 113z" />
    <glyph glyph-name="r" unicode="r" horiz-adv-x="668" 
d="M84 953l87 -0.000976562v-138l242 140c19.333 11.333 42.333 17 69 17c20.667 0 43.667 -3.33301 69 -10c57.333 -15.333 86 -42.666 86 -81.999v-231l-87 -3c-3.33301 48 -22.333 75.667 -57 83c-11.333 2.66699 -22.333 4 -33 4c-20.667 0 -38.667 -5 -54 -15
l-235 -152v-569h-87v956z" />
    <glyph glyph-name="s" unicode="s" horiz-adv-x="862" 
d="M776 708l-431 -0.00292969c-40.667 0 -64.834 -3.33301 -72.501 -10s-16.167 -15 -25.5 -25c-13.333 -13.333 -20 -27.666 -20 -42.999c0 -4 0.333008 -8 1 -12c3.33301 -20 26.333 -37.667 69 -53l317 -117c42.667 -16 87.834 -44 135.501 -84s71.5 -87.333 71.5 -142
c0 -91.333 -32.333 -151.666 -97 -180.999s-129.334 -44 -194.001 -44h-432v247h445c102.667 0 154 15.667 154 47v4c-6 33.333 -42.667 62.333 -110 87l-311 113c-58 21.333 -108.667 47 -152 77c-40 27.333 -60.333 66.333 -61 117c0 4.66699 0.333008 9.33398 1 14.001
c6 91.333 37.333 156.333 94 195s123.334 58 200.001 58h418v-248z" />
    <glyph glyph-name="t" unicode="t" horiz-adv-x="561" 
d="M149 1910h87.001v-470h148v-87h-148v-1035c0 -16 5.16699 -33 15.5 -51s23.5 -27 39.5 -27h244v-248h-227c-52.667 0 -92.334 22.833 -119.001 68.5s-40 91.167 -40 136.5v1156h-129v87h129v470z" />
    <glyph glyph-name="u" unicode="u" horiz-adv-x="964" 
d="M82 953h86.999v-472c8.66699 -78 33.5 -138.833 74.5 -182.5s127.167 -65.5 258.5 -65.5c148.667 0 240.834 30.5 276.501 91.5s53.5 113.167 53.5 156.5v472h87v-956h-87v103c-65.333 -69.333 -177.333 -104 -336 -104c-194 0 -311.5 34.833 -352.5 104.5
s-61.5 196.5 -61.5 380.5v472z" />
    <glyph glyph-name="v" unicode="v" horiz-adv-x="975" 
d="M580 -4h-51l-476 975l241 -1l323 -661l233 659h79z" />
    <glyph glyph-name="w" unicode="w" horiz-adv-x="1443" 
d="M581 -21h-51l-476 974h241l323 -662l86 244l-204 418h241l64 -132l46 129h79l-80 -221l214 -438l232 659h79l-348 -971h-52l-227 465z" />
    <glyph glyph-name="x" unicode="x" horiz-adv-x="1166" 
d="M863 -9l-318 388l-316 -390h-132l382 471l-403 494h248l279 -341l276 341h132l-342 -422l442 -541h-248z" />
    <glyph glyph-name="y" unicode="y" horiz-adv-x="1193" 
d="M774 197l0.000976562 -1281c0 -44 -13.333 -89.333 -40 -136s-66.334 -70 -119.001 -70h-227v249h244c16 0 29.167 9.16699 39.5 27.5s15.5 35.5 15.5 51.5v964l-630 959h298l398 -606l287 603h97z" />
    <glyph glyph-name="z" unicode="z" horiz-adv-x="1069" 
d="M251 238l768 3v-247h-938v243l763 469h-763v248h938v-243z" />
    <glyph glyph-name="braceleft" unicode="{" horiz-adv-x="477" 
d="M455 1671v-240.998l-100 -1c-16 -0.666992 -32.5 -7.66699 -49.5 -21s-25.5 -27.333 -25.5 -42v-486c0 -12.667 -6.66699 -25.334 -20 -38.001s-26 -24 -38 -34l38 -35c13.333 -12.667 20 -25.334 20 -38.001v-490c0 -15.333 8.5 -29.5 25.5 -42.5s33.5 -19.5 49.5 -19.5
l100 -1v-240c-86.667 5.33301 -154.667 10.5 -204 15.5s-74 63.5 -74 175.5v557c0 40 -15.333 69.667 -46 89c-30.667 18 -46 27.667 -46 29v0v0c0 0.666992 15.333 12.667 46 36s46 49 46 77v557c0 112 24.667 170.667 74 176s117.333 11 204 17z" />
    <glyph glyph-name="bar" unicode="|" horiz-adv-x="179" 
d="M84 1971h87v-3158h-87v3158z" />
    <glyph glyph-name="braceright" unicode="}" horiz-adv-x="477" 
d="M85 1671c86 -6 153.667 -11.6699 203 -17.0029s74 -64 74 -176v-557c0 -28 15.5 -53.833 46.5 -77.5l46.5 -35.5c0 -0.666992 -15.5 -10.5 -46.5 -29.5s-46.5 -48.5 -46.5 -88.5v-557c0 -112 -24.667 -170.5 -74 -175.5s-117 -10.167 -203 -15.5v240l100 1
c15.333 0 31.666 6.5 48.999 19.5s26 27.167 26 42.5v490c0 12.667 6.5 25.334 19.5 38.001s25.833 24.334 38.5 35.001c-12.667 10 -25.5 21.333 -38.5 34s-19.5 25.334 -19.5 38.001v486c0 14.667 -8.66699 28.667 -26 42s-33.666 20.333 -48.999 21l-100 1v241z" />
    <glyph glyph-name="asciitilde" unicode="~" horiz-adv-x="1066" 
d="M110 564l-0.00195312 87c71.333 64 142.333 96 213 96h12c74 -4.66699 148.5 -18.167 223.5 -40.5s150.5 -40.5 226.5 -54.5c16.667 -3.33301 33.334 -5 50.001 -5c59.333 0 119.666 19.667 180.999 59v-87c-60.667 -34.667 -121 -52 -181 -52
c-15.333 0 -30.666 1 -45.999 3c-75.333 11.333 -150.833 26.5 -226.5 45.5s-151.167 30.167 -226.5 33.5h-12c-71.333 0 -142.666 -28.333 -213.999 -85z" />
    <glyph glyph-name="copyright" unicode="&#xa9;" horiz-adv-x="1601" 
d="M976 1097c38 -18.667 70.333 -47 97 -85c21.333 -31.333 32 -63.666 32 -96.999c0 -8 -0.666992 -16 -2 -24c-6.66699 -45.333 -21 -78 -43 -98c-30 -28 -67.667 -42 -113 -42c-6.66699 0 -13.667 0.333008 -21 1c-55.333 4.66699 -100.666 27 -135.999 67l11 31
c32.667 -4 61.667 -6.66699 87 -8h10c20.667 0 37 3.66699 49 11c24 13.333 36 33.333 36 60c0 3.33301 -0.333008 6.66602 -1 9.99902c-3.33301 30.667 -15 57 -35 79c-30.667 33.333 -73.334 50 -128.001 50c-78 0 -144.5 -30.833 -199.5 -92.5s-82.5 -130.5 -82.5 -206.5
s27.5 -137.333 82.5 -184s121.5 -70 199.5 -70c72 0 134.5 20.167 187.5 60.5s83.833 93.833 92.5 160.5h86v-2v-1c0 -116 -31 -215.167 -93 -297.5s-155 -123.5 -279 -123.5s-217 41.167 -279 123.5s-93 181.5 -93 297.5c0 94 24.667 177.667 74 251s112 123.333 188 150
c35.333 12.667 71.333 19 108 19c54 0 109 -13.333 165 -40zM801 1444c199.333 0 369.833 -70.833 511.5 -212.5s212.5 -311.834 212.5 -510.501c0 -200 -70.833 -370.5 -212.5 -511.5s-312.167 -211.5 -511.5 -211.5s-369.833 70.5 -511.5 211.5s-212.5 311.5 -212.5 511.5
c0 198.667 70.833 368.834 212.5 510.501s312.167 212.5 511.5 212.5zM801 1324c-166 0 -308 -59 -426 -177s-177 -260 -177 -426c0 -166.667 59 -309 177 -427s260 -177 426 -177s308.167 59 426.5 177s177.5 260.333 177.5 427c0 166 -59.167 308 -177.5 426
s-260.5 177 -426.5 177z" />
    <glyph glyph-name="guillemotleft" unicode="&#xab;" horiz-adv-x="1137" 
d="M906 212l-378 378l177 176l1 -1l228 228l61 -61l-228 -228l316 -316zM466 177l-378 378l176 177l1 -1l228 228l62 -62l-228 -228l315 -315z" />
    <glyph glyph-name="registered" unicode="&#xae;" horiz-adv-x="1566" 
d="M555 998v-277.999h374c36.667 0 68.5 14.333 95.5 43s44.167 60.667 51.5 96c2 9.33301 3 18.666 3 27.999c0 24 -6.33301 46.667 -19 68c-18 28.667 -53 43 -105 43h-400zM880 667.001l-325 -0.000976562v-326h-53v657v157h400c72.667 0 129.5 -24.833 170.5 -74.5
s63.833 -104.5 68.5 -164.5c0.666992 -6.66699 1 -13 1 -19c0 -52.667 -15 -102 -45 -148c-34 -51.333 -88.333 -78.666 -163 -81.999l174 -335h-125zM768 1444c199.333 0 369.833 -70.833 511.5 -212.5s212.5 -311.834 212.5 -510.501c0 -200 -70.833 -370.5 -212.5 -511.5
s-312.167 -211.5 -511.5 -211.5s-369.833 70.5 -511.5 211.5s-212.5 311.5 -212.5 511.5c0 198.667 70.833 368.834 212.5 510.501s312.167 212.5 511.5 212.5zM768 1324c-166 0 -308 -59 -426 -177s-177 -260 -177 -426c0 -166.667 59 -309 177 -427s260 -177 426 -177
s308.167 59 426.5 177s177.5 260.333 177.5 427c0 166 -59.167 308 -177.5 426s-260.5 177 -426.5 177z" />
    <glyph glyph-name="degree" unicode="&#xb0;" horiz-adv-x="676" 
d="M360 1765c78 0 144.833 -31.167 200.5 -93.5s83.5 -137.5 83.5 -225.5s-23.667 -163.167 -71 -225.5s-118.333 -93.5 -213 -93.5c-100 0 -172.667 33.667 -218 101c-42.667 62 -64 134.333 -64 217v18c2 76 29 145.333 81 208s119 94 201 94zM364 1701
c-59.333 0 -110 -23.5 -152 -70.5s-63 -99.167 -63 -156.5c0 -58 21 -104.667 63 -140s92.667 -53 152 -53s110.166 17.667 152.499 53s63.5 82 63.5 140c0 57.333 -21.167 109.5 -63.5 156.5s-93.166 70.5 -152.499 70.5z" />
    <glyph glyph-name="plusminus" unicode="&#xb1;" horiz-adv-x="808" 
d="M87 309v87h683v-87h-683zM82 593v87h298v140h87v-140h299v-87h-299v-141h-87v141h-298z" />
    <glyph glyph-name="guillemotright" unicode="&#xbb;" horiz-adv-x="1137" 
d="M264 959l378 -378l-176 -177l-1 1l-228 -228l-61 62l227 228l-315 315zM705 993l378 -378l-177 -177l-1 2l-228 -228l-61 61l228 228l-316 316z" />
    <glyph glyph-name="afii10023" unicode="&#x401;" horiz-adv-x="1128" 
d="M85 1948h990v-302h-888v-598h790v-103h-790v-641h888v-302h-990v1946zM419 2082h87v-103h-87v103zM659 2082h87v-103h-87v103z" />
    <glyph glyph-name="afii10017" unicode="&#x410;" horiz-adv-x="1302" 
d="M739 1953l850 -3117l-106 -28l-479 1752h-706l-181 -558h-115l630 1956zM924 853l-243 887l-288 -887h531zM688 1729l-8 24z" />
    <glyph glyph-name="afii10018" unicode="&#x411;" horiz-adv-x="1340" 
d="M86 1955h990.001v-302h-887v-600c80 70 170.333 121 271 153c76 24.667 151.667 37 227 37c23.333 0 46.666 -1.33301 69.999 -4c98 -10 189 -42.667 273 -98s150.667 -135 200 -239c42 -91.333 63 -189.333 63 -294c0 -24 -1 -48.333 -3 -73
c-12 -132 -55 -246 -129 -342c-43.333 -55.333 -98.833 -100.833 -166.5 -136.5s-136.5 -53.5 -206.5 -53.5h-702v1952zM189.001 911l-0.000976562 -606h607c126.667 3.33301 219.834 41.5 279.501 114.5s89.5 155.5 89.5 247.5c0 104 -34 203.833 -102 299.5
s-158.667 150.834 -272 165.501c-28 3.33301 -56.667 5 -86 5c-68 0 -139 -9.66699 -213 -29c-106 -28.667 -207 -94.334 -303 -197.001z" />
    <glyph glyph-name="afii10019" unicode="&#x412;" horiz-adv-x="1362" 
d="M1179 1955l-717.997 -745c71.333 22 142.666 33 213.999 33c24 0 48 -1.33301 72 -4c97.333 -10 188.166 -42.667 272.499 -98s151.166 -135 200.499 -239c42 -91.333 63 -189.333 63 -294c0 -24 -1 -48.333 -3 -73c-12 -132 -55 -246 -129 -342
c-43.333 -55.333 -98.833 -100.833 -166.5 -136.5s-136.167 -53.5 -205.5 -53.5h-703v1952h1103zM179.003 1064l565 589h-565v-589zM179.003 911l-0.000976562 -606h607c126.667 3.33301 219.834 41.5 279.501 114.5s89.5 155.5 89.5 247.5c0 104 -34 203.833 -102 299.5
s-159 150.834 -273 165.501c-28 3.33301 -56.667 5 -86 5c-68 0 -139 -9.66699 -213 -29c-105.333 -28.667 -206 -94.334 -302 -197.001z" />
    <glyph glyph-name="afii10020" unicode="&#x413;" horiz-adv-x="1126" 
d="M83 1955h990v-302h-887v-2920h-103v3222z" />
    <glyph glyph-name="afii10021" unicode="&#x414;" horiz-adv-x="1459" 
d="M14 311h225.001c16 74 34 172.833 54 296.5s38 258.167 54 403.5c11.333 105.333 21.166 213 29.499 323s13.5 216.667 15.5 320v301h791v-1644h207v-7v-1160h-103v865h-1170v-865h-103v1160v7zM344.001 311l736 0.000976562v1342h-585
c-2 -104.667 -7.16699 -212.834 -15.5 -324.501s-18.5 -221.167 -30.5 -328.5c-16 -140 -33.5 -270.667 -52.5 -392s-36.5 -220.333 -52.5 -297z" />
    <glyph glyph-name="afii10022" unicode="&#x415;" horiz-adv-x="1119" 
d="M76 1948h990v-302h-888v-598h790v-103h-790v-641h888v-302h-990v1946z" />
    <glyph glyph-name="afii10024" unicode="&#x416;" horiz-adv-x="2381" 
d="M1111 1955h102v-992l933 1014l78 -67l-586 -637l630 -1263h-315l-530 1029l-210 -228v-2040h-102v2049l-202 219l-530 -1029h-315l630 1263l-586 637l78 67l925 -1006v984z" />
    <glyph glyph-name="afii10025" unicode="&#x417;" horiz-adv-x="1312" 
d="M392 1102c62 0 142.999 1.33008 242.999 3.99707c100 2 185.333 22.667 256 62c94 52 154.667 118.333 182 199c10.667 30.667 16 60 16 88c0 44 -13.333 84.333 -40 121c-48 63.333 -138.333 100 -271 110c-10.667 0.666992 -21.667 1 -33 1
c-130.667 0 -312 -54.667 -544 -164l-150 252c154.667 98 315 157.333 481 178c41.333 5.33301 81.333 8 120 8c117.333 0 224 -23.333 320 -70c142.667 -70 219 -176 229 -318c1.33301 -16.667 2 -33 2 -49c0 -122.667 -33.667 -231.334 -101 -326.001
c-44 -63.333 -104.667 -111.666 -182 -144.999h1c92 -35.333 159.5 -79.166 202.5 -131.499s72.167 -108.5 87.5 -168.5c10 -40.667 15 -84.334 15 -131.001c0 -72 -12 -150.333 -36 -235c-16 -53.333 -40.333 -111.166 -73 -173.499s-63 -114.5 -91 -156.5
c-13.333 -20.667 -32 -47.667 -56 -81c-78.667 -113.333 -137 -220.333 -175 -321c-22.667 -60.667 -34 -146 -34 -256c0 -73.333 5 -157.666 15 -252.999l-101 -11c-10.667 101.333 -16 191 -16 269c0 101.333 9 182.666 27 243.999c32 108.667 83.333 215 154 319
c70.667 104.667 115.334 214.334 134.001 329.001c11.333 70 17 137 17 201c0 40.667 -2.33301 80.334 -7 119.001c-18 138 -52.5 233.833 -103.5 287.5s-123.5 85.167 -217.5 94.5c-36 3.33301 -79.667 5 -131 5c-52 0 -98.667 -0.333008 -140 -1v100z" />
    <glyph glyph-name="afii10026" unicode="&#x418;" horiz-adv-x="1345" 
d="M1178 1955h103v-3184h-103v2654l-990 -1429h-102v1959h102v-1428z" />
    <glyph glyph-name="afii10027" unicode="&#x419;" horiz-adv-x="1345" 
d="M1178 1955h103v-3184h-103v2654l-990 -1429h-102v1959h102v-1428zM422 1869v87h365v-87h-365z" />
    <glyph glyph-name="afii10028" unicode="&#x41a;" horiz-adv-x="1346" 
d="M90 1955h103v-992l932 1014l78 -67l-585 -637l664 -1263h-316l-564 1029l-209 -228v-2040h-103v3184z" />
    <glyph glyph-name="afii10029" unicode="&#x41b;" horiz-adv-x="1557" 
d="M1483 1938v-3183h-102v2881h-589v-1217c0 -124.667 -17 -226 -51 -304s-122 -121 -264 -129c-12 -0.666992 -23.667 -1 -35 -1c-130 0 -214.333 43.667 -253 131c-42 94.667 -63 207 -63 337v180h102v-146c0 -52 24 -93.333 72 -124c46.667 -30 98.334 -45 155.001 -45h4
c57.333 0.666992 110.166 19 158.499 55s72.5 95 72.5 177v1388h793z" />
    <glyph glyph-name="afii10030" unicode="&#x41c;" horiz-adv-x="1828" 
d="M87 1954h102l725 -962l726 962h101v-3185h-102v2682l-718 -951h-14l-717 951v-2682h-103v3185z" />
    <glyph glyph-name="afii10031" unicode="&#x41d;" horiz-adv-x="1325" 
d="M1160 1958h102v-3183h-102v1799h-972v-1799h-103v3183h103v-1082h972v1082z" />
    <glyph glyph-name="afii10032" unicode="&#x41e;" horiz-adv-x="1398" 
d="M706 1969c86 0 167 -36.167 243 -108.5s142.333 -165.666 199 -279.999s101.5 -242 134.5 -383s49.5 -280.167 49.5 -417.5c0 -276 -48.333 -474.5 -145 -595.5s-257 -181.5 -481 -181.5s-384.5 60.5 -481.5 181.5s-145.5 319.5 -145.5 595.5
c0 137.333 16.333 276.5 49 417.5s77.5 268.667 134.5 383s123.5 207.666 199.5 279.999s157.333 108.5 244 108.5zM706 1848c-73.333 0 -142.332 -36.5 -206.999 -109.5s-121.167 -164.167 -169.5 -273.5s-86.5 -227.833 -114.5 -355.5s-42 -246.167 -42 -355.5
c0 -220 52.167 -351.5 156.5 -394.5s229.833 -64.5 376.5 -64.5c146 0 271.167 21.5 375.5 64.5s156.5 174.5 156.5 394.5c0 109.333 -14 227.833 -42 355.5s-66.167 246.167 -114.5 355.5s-104.833 200.5 -169.5 273.5s-133.334 109.5 -206.001 109.5z" />
    <glyph glyph-name="afii10033" unicode="&#x41f;" horiz-adv-x="1299" 
d="M1238 1938v-3183h-102v2881h-947v-1652h-103v1954h1152z" />
    <glyph glyph-name="afii10034" unicode="&#x420;" horiz-adv-x="1401" 
d="M193 1646l0.000976562 -538h721c71.333 0 133.166 28 185.499 84s85.5 117.667 99.5 185c4 18.667 6 37 6 55c0 46 -12.333 89.333 -37 130c-34 56 -101.333 84 -202 84h-773zM897.001 1006l-704.001 -0.000976562v-2245h-102v2885v302h772
c144 0 255.333 -49.167 334 -147.5s121.334 -206.166 128.001 -323.499c0.666992 -10.667 1 -21 1 -31c0 -106 -31.667 -203.667 -95 -293c-70 -98 -181.333 -147 -334 -147z" />
    <glyph glyph-name="afii10035" unicode="&#x421;" horiz-adv-x="1248" 
d="M1137 -52c-105.333 16.667 -246.664 71.501 -423.997 164.501s-309.333 193.167 -396 300.5c-86 104 -149 223.333 -189 358c-31.333 104.667 -47 209.334 -47 314.001c0 29.333 1.33301 58.666 4 87.999c11.333 142 53 275.333 125 400s178 222.334 318 293.001
c105.333 53.333 214.666 82 327.999 86c32.667 1.33301 64.667 2 96 2c79.333 0 156.666 -3.66699 231.999 -11h2h3v-292h-3h-75.5c-49 0 -143 -3.83301 -282 -11.5s-260.5 -52.5 -364.5 -134.5c-61.333 -48.667 -108.833 -108.334 -142.5 -179.001
s-53.834 -145.667 -60.501 -225c-2.66699 -30.667 -4 -61.334 -4 -92.001c0 -78 9.66699 -156 29 -234c27.333 -108.667 71 -201 131 -277c74 -95.333 179 -179 315 -251s271 -128.667 405 -170v-129z" />
    <glyph glyph-name="afii10036" unicode="&#x422;" horiz-adv-x="1461" 
d="M92 1958h1300v-302h-599v-2910h-102v2910h-599v302z" />
    <glyph glyph-name="afii10037" unicode="&#x423;" horiz-adv-x="1554" 
d="M943 874l0.000976562 -474c0 -124.667 -17 -226 -51 -304s-122 -121 -264 -129c-12 -0.666992 -23.667 -1 -35 -1c-130 0 -214.333 43.667 -253 131c-42.667 94.667 -64 207 -64 337v180h103v-146c0 -52 24 -93.333 72 -124c46.667 -30 98 -45 154 -45h4
c57.333 0.666992 110.166 19 158.499 55s72.5 95 72.5 177v266l-783 1157l367 -5l550 -813l465 819l116 -4z" />
    <glyph glyph-name="afii10038" unicode="&#x424;" horiz-adv-x="2116" 
d="M974 1952l102 -0.000976562v-533c42 126 102.5 219.833 181.5 281.5s165.5 92.5 259.5 92.5c137.333 0 254.833 -84.5 352.5 -253.5s146.5 -354.5 146.5 -556.5s-28.833 -360 -86.5 -474s-180.167 -173 -367.5 -177h-34c-112 0 -204 15 -276 45
c-79.333 32.667 -138 99.667 -176 201l46 -1810h-209l61 1818c-39.333 -97.333 -98.333 -161.666 -177 -192.999c-71.333 -28.667 -161.333 -43 -270 -43h-35c-187.333 4 -309.666 63 -366.999 177s-86 272 -86 474s48.667 387.5 146 556.5s214.666 253.5 351.999 253.5
c92 0 177 -30 255 -90s138.667 -150.667 182 -272v503zM546 1696c-116.667 0 -210.334 -60.667 -281.001 -182s-106 -262.666 -106 -423.999c0 -162 33.833 -279.5 101.5 -352.5s159.834 -109.5 276.501 -109.5s213.5 24.5 290.5 73.5s115.5 154.5 115.5 316.5
c0 161.333 -37 314.666 -111 459.999s-169.333 218 -286 218zM1508 1678c-116.667 0 -212 -72.6689 -286 -218.002s-111 -298.666 -111 -459.999c0 -162 38.5 -267.667 115.5 -317s173.833 -74 290.5 -74c116 0 208.167 36.667 276.5 110s102.5 191 102.5 353
c0 160.667 -35.667 301.834 -107 423.501s-165 182.5 -281 182.5z" />
    <glyph glyph-name="afii10039" unicode="&#x425;" horiz-adv-x="1454" 
d="M1136 1958h103l-440 -803l586 -1150h-302l-440 865l-475 -867h-103l528 964l-506 993h302l361 -708z" />
    <glyph glyph-name="afii10040" unicode="&#x426;" horiz-adv-x="1572" 
d="M1136 1967h103v-1653h259v-1152h-102v850h-157h-103h-952h-103v1955h103v-1653h952v1653z" />
    <glyph glyph-name="afii10041" unicode="&#x427;" horiz-adv-x="1330" 
d="M1164 1955h103v-3183h-103v1791h-978v-1h-102v1378h102v-1075h978v1090z" />
    <glyph glyph-name="afii10042" unicode="&#x428;" horiz-adv-x="2384" 
d="M2168 1960h103v-1955h-103h-934h-103h-942h-103v1955h103v-1653h942v1653h103v-1653h934v1653z" />
    <glyph glyph-name="afii10043" unicode="&#x429;" horiz-adv-x="2663" 
d="M2175 1960h102v-1653h260v-1151h-103v849h-157h-102h-935h-102h-943h-102v1955h102v-1653h943v1653h102v-1653h935v1653z" />
    <glyph glyph-name="afii10044" unicode="&#x42a;" horiz-adv-x="1475" 
d="M285 1956l0.00292969 -901.999c80.667 70 171.334 121.333 272.001 154c76 24.667 151.667 37 227 37c23.333 0 46.666 -1.33301 69.999 -4c97.333 -10.667 188.166 -43.667 272.499 -99s151.166 -135 200.499 -239c42 -90.667 63 -188.334 63 -293.001
c0 -24 -1 -48.333 -3 -73c-12 -132 -55.333 -246.333 -130 -343c-42.667 -55.333 -97.834 -100.833 -165.501 -136.5s-136.5 -53.5 -206.5 -53.5h-702v1646h-253v306h355zM285.003 913.001v-607h607c126.667 4 220 42.333 280 115s90 155 90 247
c-0.666992 104 -35 203.833 -103 299.5s-158.667 151.167 -272 166.5c-28 3.33301 -56.333 5 -85 5c-68.667 0 -140 -10 -214 -30c-106 -28.667 -207 -94 -303 -196z" />
    <glyph glyph-name="afii10045" unicode="&#x42b;" horiz-adv-x="1711" 
d="M80 1956l103.004 0.000976562v-902c80 70 170.333 121.333 271 154c76 24.667 151.667 37 227 37c23.333 0 46.666 -1.33301 69.999 -4c97.333 -10.667 188.166 -43.667 272.499 -99s151.166 -135 200.499 -239c42 -90.667 63 -188.334 63 -293.001
c0 -24 -1 -48.333 -3 -73c-12 -132 -55.333 -246.333 -130 -343c-42.667 -55.333 -97.834 -100.833 -165.501 -136.5s-136.167 -53.5 -205.5 -53.5h-703v1952zM183.004 913.001v-607h607c126 4 219 42.333 279 115s90 155 90 247c0 104 -34 203.833 -102 299.5
s-159 151.167 -273 166.5c-28 3.33301 -56.333 5 -85 5c-68.667 0 -140 -10 -214 -30c-105.333 -28.667 -206 -94 -302 -196zM1527 1963h103v-1955h-103v1955z" />
    <glyph glyph-name="afii10046" unicode="&#x42c;" horiz-adv-x="1368" 
d="M82 1956l102.001 0.000976562v-902c80 70 170.333 121.333 271 154c76 24.667 151.667 37 227 37c23.333 0 46.666 -1.33301 69.999 -4c98 -10.667 189 -43.667 273 -99s150.667 -135 200 -239c42 -90.667 63 -188.334 63 -293.001c0 -24 -1 -48.333 -3 -73
c-12 -132 -55 -246.333 -129 -343c-43.333 -55.333 -98.833 -100.833 -166.5 -136.5s-136.167 -53.5 -205.5 -53.5h-702v1952zM184.001 913.001l-0.000976562 -607h607c126.667 4 219.834 42.333 279.501 115s89.5 155 89.5 247c0 104 -34 203.833 -102 299.5
s-158.667 151.167 -272 166.5c-28 3.33301 -56.333 5 -85 5c-68.667 0 -140 -10 -214 -30c-106 -28.667 -207 -94 -303 -196z" />
    <glyph glyph-name="afii10047" unicode="&#x42d;" horiz-adv-x="1270" 
d="M98 -48l-0.000976562 128.997c134 41.333 276.333 101.5 427 180.5s263 166.167 337 261.5c94 120 147 271.667 159 455h-767v103h768c-1.33301 20 -2.66602 35.333 -3.99902 46c-7.33301 79.333 -27.833 154.333 -61.5 225s-80.834 130.334 -141.501 179.001
c-104 82 -225.667 126.833 -365 134.5s-257.666 11.5 -354.999 11.5h-2h-3v292h3h2c74.667 7.33301 151.667 11 231 11c32 0 64.333 -0.666992 97 -2c113.333 -4 223 -32.667 329 -86c139.333 -71.333 244.833 -169.333 316.5 -294s113.5 -258 125.5 -400c2 -28 3 -56 3 -84
c0 -106 -15.667 -212 -47 -318c-40 -134 -102.333 -253 -187 -357c-44 -54 -103.833 -108.167 -179.5 -162.5s-155.5 -104.166 -239.5 -149.499s-166.167 -83.666 -246.5 -114.999s-146.833 -51.333 -199.5 -60z" />
    <glyph glyph-name="afii10048" unicode="&#x42e;" horiz-adv-x="1982" 
d="M1261 1998c172 0 319.499 -99.833 442.499 -299.5s184.5 -469.5 184.5 -809.5c0 -341.333 -50 -577.833 -150 -709.5s-262 -197.5 -486 -197.5s-387 56.333 -489 169c-97.333 108 -146 324.333 -146 649v45c0.666992 32 2.33398 76.333 5.00098 133h-430v-2212h-103v3184
h103v-870h440c31.333 282 106 505.5 224 670.5s253 247.5 405 247.5zM1261 1878c-146.667 0 -272.999 -99.001 -378.999 -297.001c-102 -190.667 -153 -418.667 -153 -684v-35c2 -140.667 17.167 -248.667 45.5 -324s66.166 -130.166 113.499 -164.499s103 -54 167 -59
s132.667 -7.5 206 -7.5c72.667 0 142.334 0.666992 209.001 2c66 0.666992 123.667 17.334 173 50.001s87.666 88.667 114.999 168c24 69.333 36 167.666 36 294.999c0 18.667 -0.333008 38 -1 58c-8.66699 311.333 -63 555.5 -163 732.5s-223 265.5 -369 265.5z" />
    <glyph glyph-name="afii10049" unicode="&#x42f;" horiz-adv-x="1397" 
d="M1229 1650h-772.999c-101.333 0 -169 -28 -203 -84c-24 -40 -36 -82.667 -36 -128c0 -18.667 2 -37.667 6 -57c13.333 -67.333 46.166 -129 98.499 -185s114.5 -84 186.5 -84h721v538zM602.001 1010l-369.001 -2243h-240l504 2244
c-145.333 6.66699 -250.333 59.667 -315 159c-58 87.333 -87 181.333 -87 282c0 13.333 0.666992 26.666 2 39.999c8.66699 115.333 52.334 220.833 131.001 316.5s189 143.5 331 143.5h772v-302v-1649h-102v1009h-627z" />
    <glyph glyph-name="afii10065" unicode="&#x430;" horiz-adv-x="1004" 
d="M487 953c152.667 0 265.668 -52.667 339.001 -158v158h87v-478c0 -26.667 -0.5 -47.5 -1.5 -62.5s-1.5 -32.833 -1.5 -53.5c0 -44 4.66699 -67.333 14 -70c14 -4 25 -23 33 -57v-247l-90 18l-29 40c-17.333 -2.66699 -31.5 -8.5 -42.5 -17.5s-25.167 -14.833 -42.5 -17.5
c-42.667 -6 -88.334 -9 -137.001 -9c-49.333 0 -95.333 -0.666992 -138 -2h-14c-132 0 -231.333 46.333 -298 139c-69.333 95.333 -104 208.333 -104 339c0 131.333 41.5 243.833 124.5 337.5s183.167 140.5 300.5 140.5zM780.001 302c22.667 24 34.667 56.333 36 97
c0.666992 40 1 79 1 117c0 114.667 -31.667 200.167 -95 256.5s-139.333 84.5 -228 84.5c-89.333 0 -165.5 -35.167 -228.5 -105.5s-94.5 -148.833 -94.5 -235.5c0 -104 32 -175.5 96 -214.5s136.333 -61.5 217 -67.5c17.333 -1.33301 35.333 -2 54 -2c32 0 66.333 2 103 6
c58.667 6.66699 105 28 139 64z" />
    <glyph glyph-name="afii10066" unicode="&#x431;" horiz-adv-x="935" 
d="M466 952c116.667 0 216.665 -47.002 299.998 -141.002s125 -206.667 125 -338c0 -132 -35.333 -244.667 -106 -338s-177 -140 -319 -140c-106.667 0 -190 27.167 -250 81.5s-101 124.5 -123 210.5c-21.333 78.667 -32 171 -32 277c0 14.667 0.333008 29.667 1 45
c2.66699 125.333 19 243.333 49 354c18 66 41.5 125.167 70.5 177.5s58.833 97.5 89.5 135.5l184 237c50 66.667 75 176 75 328c0 22.667 -0.666992 46.334 -2 71.001h249c-1.33301 -110 -15.5 -199 -42.5 -267s-61 -124.667 -102 -170s-86.167 -84.666 -135.5 -117.999
s-96.666 -70.333 -141.999 -111c-53.333 -48 -99.5 -108.167 -138.5 -180.5s-61.833 -172.5 -68.5 -300.5c34 56 78.333 101.167 133 135.5s116.334 51.5 185.001 51.5zM471.998 854.998c-89.333 0 -163.333 -34.167 -222 -102.5s-88 -145.5 -88 -231.5
c0 -86.667 29.333 -157.5 88 -212.5s132.667 -82.5 222 -82.5c88.667 0 164.667 26.333 228 79s95 122.667 95 210c0 86 -31.667 164.167 -95 234.5s-139.333 105.5 -228 105.5z" />
    <glyph glyph-name="afii10067" unicode="&#x432;" horiz-adv-x="911" 
d="M754 1916l-547.999 -971.999c180 -44 320.167 -109.833 420.5 -197.5s168.5 -178.5 204.5 -272.5c22 -60.667 33 -119.334 33 -176.001v-18c-2.66699 -63.333 -18 -118.333 -46 -165c-48.667 -80 -117.334 -120 -206.001 -120c-12.667 0 -25.667 0.666992 -39 2h-484
v1919h665zM528.001 1674h-352v-629zM176.001 862.001l-0.000976562 -617.001h410c88 0 137.333 29.333 148 88c4.66699 26.667 7 50.334 7 71.001c0 25.333 -3.33301 46.333 -10 63c-29.333 68.667 -66.666 125.667 -111.999 171c-48.667 47.333 -109.5 90.5 -182.5 129.5
s-159.833 70.5 -260.5 94.5z" />
    <glyph glyph-name="afii10068" unicode="&#x433;" horiz-adv-x="590" 
d="M83 953h479v-248h-392v-708h-87v956z" />
    <glyph glyph-name="afii10069" unicode="&#x434;" horiz-adv-x="1057" 
d="M339 953l512 0.000976562v-712h156v-247h-1v-507h-87v507h-765v-507h-87v750h2v4h151c50 115.333 82.333 232.666 97 351.999s22 239.333 22 360zM309 241.001h455v464h-345c-11.333 -167.333 -48 -322 -110 -464z" />
    <glyph glyph-name="afii10070" unicode="&#x435;" horiz-adv-x="952" 
d="M482 965c112 0 208.834 -43.001 290.501 -129.001s126.5 -190.667 134.5 -314h-46v-2h-696c2 -84.667 34.5 -152.5 97.5 -203.5s138.167 -76.5 225.5 -76.5c73.333 0 138.5 18.333 195.5 55s95.5 86.334 115.5 149.001h107c-7.33301 -122 -46.333 -225.167 -117 -309.5
s-173 -126.5 -307 -126.5c-142 0 -248.5 46.833 -319.5 140.5s-106.5 206.5 -106.5 338.5s41.667 244.667 125 338s183.666 140 300.999 140zM801.001 606.999c-18 70.667 -55.833 132 -113.5 184s-124.167 78 -199.5 78s-142 -26 -200 -78s-95.667 -113.333 -113 -184h626z
" />
    <glyph glyph-name="afii10072" unicode="&#x436;" horiz-adv-x="1718" 
d="M1637 955l-462 -362l462 -596l-250 -1l-368 475l-97 -76h-25v-401h-87v401h-25l-97 76l-369 -475l-249 1l462 596l-462 362l141 -2l599 -470v467h87v-467l599 470z" />
    <glyph glyph-name="afii10073" unicode="&#x437;" horiz-adv-x="877" 
d="M265 407l0.000976562 87.002h249c12 0 46 9.66699 102 29c54.667 18.667 82 51.667 82 99v2c0 28 -12.667 55.833 -38 83.5s-95 41.5 -209 41.5c-48 0 -98.667 -9.66699 -152 -29s-95.333 -42 -126 -68l-121 147c80 110.667 199.667 166 359 166
c144.667 0 248.5 -25.667 311.5 -77s96.5 -109.333 100.5 -174v-14c0.666992 -45.333 -12.666 -89.333 -39.999 -132c-30.667 -47.333 -83.334 -85.666 -158.001 -114.999v-13l14 1c126.667 -56.667 191.667 -130.334 195 -221.001v-6c0 -58 -19.333 -120 -58 -186
c-40.667 -68.667 -84.334 -131.667 -131.001 -189l-151.5 -186.5c-45 -56.333 -67.5 -108.5 -67.5 -156.5v-154h-87v167c0 68.667 31.167 138.167 93.5 208.5s117.5 142.833 165.5 217.5c18 29.333 33 69.333 45 120c10 40.667 15 81.667 15 123
c0 9.33301 -0.333008 18.666 -1 27.999c-3.33301 53.333 -22.5 100.166 -57.5 140.499s-79.5 60.5 -133.5 60.5h-201z" />
    <glyph glyph-name="afii10074" unicode="&#x438;" horiz-adv-x="949" 
d="M80 953h88v-614l649 601v13h15h72v-956h-87v600l-649 -599v-1h-1l-11 -10v10h-76v956z" />
    <glyph glyph-name="afii10075" unicode="&#x439;" horiz-adv-x="949" 
d="M80 953h88v-614l649 601v13h15h72v-956h-87v600l-649 -599v-1h-1l-11 -10v10h-76v956zM273 869v87h365v-87h-365z" />
    <glyph glyph-name="afii10076" unicode="&#x43a;" horiz-adv-x="1090" 
d="M82 953h87v-526l719 528l151 3l-494 -363l494 -596h-266l-394 474l-210 -154v-322h-87v956z" />
    <glyph glyph-name="afii10077" unicode="&#x43b;" horiz-adv-x="899" 
d="M342 953l515.003 -0.000976562v-956h-92v708h-341c0 -110 -6 -225.5 -18 -346.5s-42 -235.5 -90 -343.5c-5.33301 -10.667 -24 -17.667 -56 -21l-200 -3v247h178c3.33301 -0.666992 6.66602 -1 9.99902 -1c15.333 0 27.666 9 36.999 27
c11.333 22 18.666 40.667 21.999 56c23.333 124.667 35 262.334 35 413.001v220z" />
    <glyph glyph-name="afii10078" unicode="&#x43c;" horiz-adv-x="1159" 
d="M1104 956v-2216h-87v1875l-429 -417l-413 403v-608h-87v963h87l413 -414l430 414h86z" />
    <glyph glyph-name="afii10079" unicode="&#x43d;" horiz-adv-x="972" 
d="M89 953h87v-274h663v274h87v-956h-87v433h-663v-433h-87v956z" />
    <glyph glyph-name="afii10080" unicode="&#x43e;" horiz-adv-x="980" 
d="M509 954c116.667 0 216.668 -46.834 300.001 -140.501s125 -206.167 125 -337.5c0 -132 -35.333 -244.667 -106 -338s-177 -140 -319 -140c-150 0 -259.333 50.333 -328 151c-64 93.333 -96 202 -96 326v26c3.33301 114.667 44.166 218.834 122.499 312.501
s178.833 140.5 301.5 140.5zM515.001 857.999c-89.333 0 -165.5 -35.167 -228.5 -105.5s-94.5 -148.833 -94.5 -235.5s31.5 -156.5 94.5 -209.5s139.167 -79.5 228.5 -79.5c88 0 163.833 26.5 227.5 79.5s95.5 122.833 95.5 209.5s-31.833 165.167 -95.5 235.5
s-139.5 105.5 -227.5 105.5z" />
    <glyph glyph-name="afii10081" unicode="&#x43f;" horiz-adv-x="970" 
d="M87 953h837v-956h-87v708h-663v-708h-87v956z" />
    <glyph glyph-name="afii10082" unicode="&#x440;" horiz-adv-x="918" 
d="M96 956l87.001 -2.00098c190 -41.333 337.333 -107.666 442 -198.999s175.667 -185 213 -281c22.667 -59.333 34 -119.333 34 -180v-14c-3.33301 -64 -19 -119 -47 -165c-48.667 -80 -117.334 -120 -206.001 -120c-12.667 0 -25.667 0.666992 -39 2h-397v-1233h-87v2192z
M183.001 861.999l-0.000976562 -617.001h410c88 0 137.333 29.333 148 88c4.66699 26.667 7 50.334 7 71.001c0 25.333 -3.33301 46.333 -10 63c-27.333 67.333 -64.666 124.333 -111.999 171c-48 47.333 -108.667 90.5 -182 129.5s-160.333 70.5 -261 94.5z" />
    <glyph glyph-name="afii10083" unicode="&#x441;" horiz-adv-x="970" 
d="M684 911c43.333 -21.333 80.334 -53.9971 111.001 -97.9971c24.667 -36 37 -73.333 37 -112c0 -8.66699 -0.666992 -17.334 -2 -26.001c-8 -51.333 -24.667 -89 -50 -113c-32.667 -30.667 -74.334 -46 -125.001 -46c-8.66699 0 -17.667 0.333008 -27 1
c-64 5.33301 -116 30.666 -156 75.999l12 35c38 -4 71.333 -7 100 -9h14c22 -0.666992 39.667 3.33301 53 12c28 15.333 42 38.666 42 69.999v10c-4 36 -18 66.667 -42 92c-36 38 -85 57 -147 57c-89.333 0 -165.5 -35.333 -228.5 -106s-94.5 -149.667 -94.5 -237
s31.5 -157.5 94.5 -210.5s139.167 -79.5 228.5 -79.5c82 0 153.5 22.833 214.5 68.5s96.5 107.167 106.5 184.5h99v-3v-2c0 -132.667 -35.5 -245.834 -106.5 -339.501s-177.5 -140.5 -319.5 -140.5s-248.5 46.833 -319.5 140.5s-106.5 206.834 -106.5 339.501
c0 108 28.333 204 85 288s128.334 141.333 215.001 172c41.333 14 83 21 125 21c61.333 0 123.666 -15 186.999 -45z" />
    <glyph glyph-name="afii10084" unicode="&#x442;" horiz-adv-x="938" 
d="M79 953h815v-248h-364v-708h-87v708h-364v248z" />
    <glyph glyph-name="afii10085" unicode="&#x443;" horiz-adv-x="1178" 
d="M759 197v-1224c0 -44.667 -13.5 -90.167 -40.5 -136.5s-66.833 -69.5 -119.5 -69.5h-226v249h244c16 0 29.167 9.16699 39.5 27.5s15.5 35.5 15.5 51.5v907l-630 959h297l398 -606l287 603h98z" />
    <glyph glyph-name="afii10086" unicode="&#x444;" horiz-adv-x="1645" 
d="M770 1922h87v-1086c82 82 177 123 285 123c116.667 0 216.667 -46.833 300 -140.5s125 -206.5 125 -338.5s-35.333 -244.667 -106 -338s-177 -140 -319 -140c-116.667 0 -211.667 34.333 -285 103v-1336h-87v1336c-73.333 -68.667 -168 -103 -284 -103
c-142 0 -248.5 46.667 -319.5 140s-106.5 206 -106.5 338s41.5 244.833 124.5 338.5s183.5 140.5 301.5 140.5c108 0 202.667 -41 284 -123v1086zM857 573c0 -70.667 9.5 -126.667 28.5 -168s42.5 -73 70.5 -95c66 -51.333 130 -77 192 -77c88.667 0 164.667 26.5 228 79.5
s95 122.833 95 209.5c0 86 -31.667 164.167 -95 234.5s-139.333 105.5 -228 105.5c-90.667 0 -169.667 -30 -237 -90c-36 -32 -54 -98.333 -54 -199zM770 568c0 114.667 -28 192.333 -84 233c-58 40.667 -122.667 61 -194 61c-89.333 0 -165.5 -35.167 -228.5 -105.5
s-94.5 -148.5 -94.5 -234.5c0 -86.667 31.5 -156.5 94.5 -209.5s139.167 -79.5 228.5 -79.5c55.333 0 113.333 19.667 174 59c69.333 45.333 104 137.333 104 276z" />
    <glyph glyph-name="afii10087" unicode="&#x445;" horiz-adv-x="1150" 
d="M848 -9l-318 388l-316 -390h-132l382 471l-403 494h248l279 -341l276 341h132l-342 -422l442 -541h-248z" />
    <glyph glyph-name="afii10088" unicode="&#x446;" horiz-adv-x="1105" 
d="M815 971h87v-709h151v-248h-1v-506h-87v506h-873v957h87v-709h636v709z" />
    <glyph glyph-name="afii10089" unicode="&#x447;" horiz-adv-x="948" 
d="M816 951h87v-1463h-87v856h-723v607h87v-358h636v358z" />
    <glyph glyph-name="afii10090" unicode="&#x448;" horiz-adv-x="1698" 
d="M173 252h636v708h87v-708h635v708h87v-957h-1532v957h87v-708z" />
    <glyph glyph-name="afii10091" unicode="&#x449;" horiz-adv-x="1898" 
d="M78 960h87v-708h636v708h87v-708h635v708h87v-708h198v-249h-1v-506h-87v506h-1642v957z" />
    <glyph glyph-name="afii10092" unicode="&#x44a;" horiz-adv-x="908" 
d="M173 951c190 -42 337.334 -108 442.001 -198s175.667 -183 213 -279c22.667 -59.333 34 -119.333 34 -180v-14c-3.33301 -64 -19 -119 -47 -165c-48.667 -80 -117.334 -120 -206.001 -120c-12.667 0 -25.667 0.666992 -39 2h-484v1678h-152v249h239v-973zM173.001 862
l-0.000976562 -617.001h410c88 0 137.333 29.333 148 88c4.66699 26.667 7 50.334 7 71.001c0 25.333 -3.33301 46.333 -10 63c-29.333 68.667 -66.666 125.667 -111.999 171c-48 47.333 -108.667 90.5 -182 129.5s-160.333 70.5 -261 94.5z" />
    <glyph glyph-name="afii10093" unicode="&#x44b;" horiz-adv-x="1107" 
d="M88 1916l87.001 0.000976562v-965c190 -42 337.5 -108 442.5 -198s176.167 -183 213.5 -279c22 -60.667 33 -119.334 33 -176.001v-18c-2 -62 -17.667 -117 -47 -165c-48.667 -80 -117.334 -120 -206.001 -120c-12 0 -24.667 0.666992 -38 2h-485v1919zM175.001 862.001
v-617.001h411c88 0 137 29.333 147 88c4.66699 26.667 7 50.334 7 71.001c0 25.333 -3.33301 46.333 -10 63c-26.667 66.667 -63.667 123.667 -111 171c-48.667 47.333 -109.5 90.5 -182.5 129.5s-160.167 70.5 -261.5 94.5zM968.001 953h87v-956h-87v956z" />
    <glyph glyph-name="afii10094" unicode="&#x44c;" horiz-adv-x="905" 
d="M82 1916l87.001 0.000976562v-965c190 -42 337.5 -108 442.5 -198s176.167 -183 213.5 -279c22 -60.667 33 -119.334 33 -176.001v-18c-3.33301 -64 -19 -119 -47 -165c-48.667 -80 -117.334 -120 -206.001 -120c-12.667 0 -25.667 0.666992 -39 2h-484v1919z
M169.001 862.001v-617.001h410c88 0 137.333 29.333 148 88c4.66699 26.667 7 50.334 7 71.001c0 25.333 -3.33301 46.333 -10 63c-26.667 66.667 -63.667 123.667 -111 171c-48.667 47.333 -109.5 90.5 -182.5 129.5s-160.167 70.5 -261.5 94.5z" />
    <glyph glyph-name="afii10095" unicode="&#x44d;" horiz-adv-x="900" 
d="M241 460v86.999h464c-3.33301 42 -19 78.667 -47 110s-75.667 47 -143 47h-431v249h374c132 0 231.333 -43 298 -129s100.667 -177.667 102 -275c0 -69.333 -17.833 -136.666 -53.5 -201.999s-81.167 -123 -136.5 -173c-90 -82 -182.5 -131.667 -277.5 -149
s-200.167 -27 -315.5 -29l3 96c46 3.33301 93.5 7.83301 142.5 13.5s96.167 14.5 141.5 26.5c86 20.667 158.833 58 218.5 112s99.167 126 118.5 216h-458z" />
    <glyph glyph-name="afii10096" unicode="&#x44e;" horiz-adv-x="1304" 
d="M816 965c117.333 0 217.667 -46.667 301 -140s125 -206 125 -338s-35.5 -244.833 -106.5 -338.5s-177.5 -140.5 -319.5 -140.5c-137.333 0 -241.5 43.833 -312.5 131.5s-108.5 194.5 -112.5 320.5h-215v-463h-87v956h87v-406h218
c12.667 117.333 59.167 216.333 139.5 297s174.5 121 282.5 121zM822.001 869c-88.667 0 -164.5 -35.167 -227.5 -105.5s-94.5 -148.5 -94.5 -234.5c0 -87.333 31.5 -157.333 94.5 -210s138.833 -79 227.5 -79s164.667 26.333 228 79s95 122.667 95 210
c0 86 -31.667 164.167 -95 234.5s-139.333 105.5 -228 105.5z" />
    <glyph glyph-name="afii10097" unicode="&#x44f;" horiz-adv-x="893" 
d="M764 952h57h30v-956h-87v440h-352l-198 -1640h-157l267 1641c-86 6 -149.333 36.333 -190 91c-38.667 51.333 -58 106 -58 164v12c2 62.667 25.5 119.667 70.5 171s110.5 77 196.5 77h421zM309 523h455v180h-455c-77.333 0 -116 -26.667 -116 -80v-10
c4 -60 42.667 -90 116 -90z" />
    <glyph glyph-name="afii10071" unicode="&#x451;" horiz-adv-x="974" 
d="M503 965c112 0 208.833 -43.001 290.5 -129.001s126.5 -190.667 134.5 -314h-46v-2h-695c2 -84.667 34.333 -152.5 97 -203.5s138 -76.5 226 -76.5c72.667 0 137.5 18.333 194.5 55s95.5 86.334 115.5 149.001h108c-8 -122 -47.333 -225.167 -118 -309.5
s-173 -126.5 -307 -126.5c-142 0 -248.333 46.833 -319 140.5s-106 206.5 -106 338.5s41.5 244.667 124.5 338s183.167 140 300.5 140zM823 606.999c-18 70.667 -56 132 -114 184s-124.333 78 -199 78c-76 0 -142.833 -26 -200.5 -78s-95.5 -113.333 -113.5 -184h627z
M322 1145h87v-103h-87v103zM562 1145h87v-103h-87v103z" />
    <glyph glyph-name="endash" unicode="&#x2013;" horiz-adv-x="806" 
d="M84 597v87h684v-87h-684z" />
    <glyph glyph-name="emdash" unicode="&#x2014;" horiz-adv-x="1036" 
d="M80 597v87h907v-87h-907z" />
    <glyph glyph-name="quoteleft" unicode="&#x2018;" horiz-adv-x="367" 
d="M334 1060h-249v249l196 253l69 -54l-155 -199h139v-249z" />
    <glyph glyph-name="quoteright" unicode="&#x2019;" horiz-adv-x="349" 
d="M84 1309h249v-249l-196 -252l-69 53l155 198h-139v250z" />
    <glyph glyph-name="quotesinglbase" unicode="&#x201a;" horiz-adv-x="349" 
d="M84 256h249v-249l-196 -252l-69 54l155 198h-139v249z" />
    <glyph glyph-name="quotedblleft" unicode="&#x201c;" horiz-adv-x="697" 
d="M648 1060h-249v249l197 253l68 -54l-155 -199h139v-249zM340 1060h-250v249l197 253l69 -54l-155 -199h139v-249z" />
    <glyph glyph-name="quotedblright" unicode="&#x201d;" horiz-adv-x="678" 
d="M88 1309h250v-249l-197 -252l-69 53l155 198h-139v250zM396 1309h250v-249l-197 -252l-68 53l154 198h-139v250z" />
    <glyph glyph-name="quotedblbase" unicode="&#x201e;" horiz-adv-x="678" 
d="M88 256h250v-249l-197 -252l-69 54l155 198h-139v249zM396 256h250v-249l-197 -252l-68 54l154 198h-139v249z" />
    <glyph glyph-name="perthousand" unicode="&#x2030;" horiz-adv-x="1989" 
d="M1008 1785h109l-792 -1788h-110zM974 657c-82 0 -149 -31.333 -201 -94s-79 -132 -81 -208v-18c0 -82.667 21.333 -155 64 -217c45.333 -67.333 118 -101 218 -101c94.667 0 165.667 31.167 213 93.5s71 137.5 71 225.5s-27.833 163.167 -83.5 225.5
s-122.5 93.5 -200.5 93.5zM979 593c58.667 0 109.167 -23.333 151.5 -70s63.5 -99 63.5 -157s-21.167 -104.667 -63.5 -140s-92.833 -53 -151.5 -53c-60 0 -111 17.667 -153 53s-63 82 -63 140s21 110.333 63 157s93 70 153 70zM360 1765c78 0 144.833 -31.167 200.5 -93.5
s83.5 -137.5 83.5 -225.5s-23.667 -163.167 -71 -225.5s-118.333 -93.5 -213 -93.5c-100 0 -172.667 33.667 -218 101c-42.667 62 -64 134.333 -64 217v18c2 76 29 145.333 81 208s119 94 201 94zM364 1701c-59.333 0 -110 -23.5 -152 -70.5s-63 -99.167 -63 -156.5
c0 -58 21 -104.667 63 -140s92.667 -53 152 -53s110.166 17.667 152.499 53s63.5 82 63.5 140c0 57.333 -21.167 109.5 -63.5 156.5s-93.166 70.5 -152.499 70.5zM1611 646c78 0 144.833 -31.167 200.5 -93.5s83.5 -137.5 83.5 -225.5s-23.833 -163.167 -71.5 -225.5
s-118.5 -93.5 -212.5 -93.5c-100 0 -173 33.667 -219 101c-42.667 62 -64 134.333 -64 217v18c2 76 29.167 145.333 81.5 208s119.5 94 201.5 94zM1615 582c-60 0 -111 -23.333 -153 -70s-63 -99 -63 -157s21 -104.667 63 -140s93 -53 153 -53
c58.667 0 109.167 17.667 151.5 53s63.5 82 63.5 140s-21.167 110.333 -63.5 157s-92.833 70 -151.5 70z" />
    <glyph glyph-name="guilsinglleft" unicode="&#x2039;" horiz-adv-x="665" 
d="M457 177l-378 378l177 177l1 -1l228 228l61 -62l-228 -228l316 -315z" />
    <glyph glyph-name="guilsinglright" unicode="&#x203a;" horiz-adv-x="665" 
d="M256 959l378 -378l-177 -177l-1 1l-228 -228l-61 62l228 228l-316 315z" />
    <glyph glyph-name="afii61352" unicode="&#x2116;" horiz-adv-x="1712" 
d="M227 1560l665 -1135v1135h40v1l340 -1v-235h-280v-1323h-100l-665 1137v-1137h-100v1558h100zM1122 151v87h448v-87h-448zM1122 309v87h448v-87h-448zM1347 1102c78 0 144.833 -31.334 200.5 -94.001s83.5 -137.667 83.5 -225c0 -88 -23.667 -163.333 -71 -226
s-118.333 -94 -213 -94c-100 0 -172.667 33.667 -218 101c-42.667 62.667 -64 135.334 -64 218.001v18c2 76 29 145.333 81 208s119 94 201 94zM1351 1038c-59.333 0 -110 -23.5 -152 -70.5s-63 -99.167 -63 -156.5c0 -58 21 -104.667 63 -140s92.667 -53 152 -53
s110.166 17.667 152.499 53s63.5 82 63.5 140c0 57.333 -21.167 109.5 -63.5 156.5s-93.166 70.5 -152.499 70.5z" />
    <glyph glyph-name="NULL" horiz-adv-x="0" 
 />
    <glyph glyph-name="nonmarkingreturn" horiz-adv-x="2048" 
 />
  </font>
</defs>
</svg>
