<?xml version="1.0" standalone="no"?>
<!DOCTYPE svg PUBLIC "-//W3C//DTD SVG 1.1//EN" "http://www.w3.org/Graphics/SVG/1.1/DTD/svg11.dtd" >
<svg>
<metadata>
Created by FontForge 20090914 at Mon Dec  1 15:28:05 2014
 By www-data
Copyright (C) 1994; TypeMarket Ltd. Moscow, 119136, Box 20; phone:(095)2071022; Created by S.Shanovich
</metadata>
<defs>
<font id="Opium" horiz-adv-x="582" >
  <font-face 
    font-family="Opium"
    font-weight="400"
    font-stretch="normal"
    units-per-em="1000"
    panose-1="0 0 0 0 0 0 0 0 0 0"
    ascent="800"
    descent="-200"
    x-height="499.999"
    cap-height="725"
    bbox="-57 -294.002 1164 928.999"
    underline-thickness="47"
    underline-position="-113"
    unicode-range="U+0020-U+2122"
  />
<missing-glyph horiz-adv-x="706" 
d="M44 0v706h618v-706h-618zM618 44v618h-530v-618h530z" />
    <glyph glyph-name=".notdef" horiz-adv-x="706" 
d="M44 0v706h618v-706h-618zM618 44v618h-530v-618h530z" />
    <glyph glyph-name="space" unicode=" " horiz-adv-x="274" 
 />
    <glyph glyph-name="exclam" unicode="!" horiz-adv-x="348" 
d="M116 50c0 16.667 5.66699 30.667 17 42s25.333 17 42 17c16 0 29.667 -5.66699 41 -17s17 -25.333 17 -42c0 -16 -5.66699 -29.667 -17 -41s-25 -17 -41 -17c-16.667 0 -30.667 5.33301 -42 16s-17 24.667 -17 42zM184 176h-21l-38 462l-2 44c0 37.333 16.667 56 50 56
c34 0 51 -18.667 51 -56l-3 -57z" />
    <glyph glyph-name="quotedbl" unicode="&#x22;" horiz-adv-x="294" 
d="M103 742v-286h-52v286h52zM244 742v-286h-52v286h52z" />
    <glyph glyph-name="numbersign" unicode="#" horiz-adv-x="815" 
d="M475 752l-87 -250h137l89 250h65l-88 -250h164l-19 -55h-165l-51 -144h176l-19 -55h-176l-88 -248h-66l89 248h-139l-89 -248h-66l88 248h-170l21 55h168l52 144h-182l18 55h183l89 250h66zM505 447h-138l-50 -144h138z" />
    <glyph glyph-name="dollar" unicode="$" horiz-adv-x="581" 
d="M264 -107l1.99902 81.999v25c-70.667 0 -133 16.667 -187 50c12 26.667 21.667 54.334 29 83.001c43.333 -62 95.333 -93 156 -93l3 288c-65.333 16 -112.666 38 -141.999 66s-44 65.667 -44 113s16 87.333 48 120s76.333 53 133 61v20l-2 56c4 -2 11 -3 21 -3l25 3
l-2 -72c60.667 0 113.334 -15.333 158.001 -46c-16 -22 -29.667 -44.333 -41 -67c-17.333 46 -56.333 72 -117 78v-256l24 -5c116 -26 174 -87 174 -183c0 -54.667 -16.833 -100.5 -50.5 -137.5s-81.5 -61.167 -143.5 -72.5v-26l2 -84c-9.33301 2.66699 -17 4 -23 4
c-3.33301 0 -7.33301 -0.5 -12 -1.5s-8.33398 -1.83301 -11.001 -2.5zM266.999 411.999v242.001c-34.667 0 -63.167 -11.5 -85.5 -34.5s-33.5 -50.5 -33.5 -82.5c0 -60.667 39.667 -102.334 119 -125.001zM303.999 43c37.333 4.66699 67 19.668 89 45.001
s33 57.666 33 96.999c0 36 -9.16699 63.833 -27.5 83.5s-49.833 36.5 -94.5 50.5v-276z" />
    <glyph glyph-name="percent" unicode="%" horiz-adv-x="815" 
d="M201 689c46 0 84 -15.667 114 -47s45 -72.666 45 -123.999c0 -54.667 -15.667 -97.334 -47 -128.001s-72.333 -46 -123 -46c-46 0 -83 15.667 -111 47s-42 73.333 -42 126c0 50 15.5 91.167 46.5 123.5s70.167 48.5 117.5 48.5zM185 -99h-49l497 886h47zM622 339
c46 0 84 -15.667 114 -47s45 -72.666 45 -123.999c0 -54.667 -15.667 -97.334 -47 -128.001s-72.333 -46 -123 -46c-46 0 -83 15.667 -111 47s-42 73.333 -42 126c0 50 15.5 91.167 46.5 123.5s70.167 48.5 117.5 48.5zM200 657c-26.667 0 -47.5 -12.168 -62.5 -36.501
s-22.5 -57.833 -22.5 -100.5c0 -51.333 6.66699 -88.166 20 -110.499s35 -33.5 65 -33.5c54.667 0 82 45.333 82 136c0 51.333 -6.16699 88.333 -18.5 111s-33.5 34 -63.5 34zM621 306.999c-26.667 0 -47.5 -12.168 -62.5 -36.501s-22.5 -57.833 -22.5 -100.5
c0 -51.333 6.66699 -88.166 20 -110.499s35 -33.5 65 -33.5c54.667 0 82 45.333 82 136c0 51.333 -6.16699 88.333 -18.5 111s-33.5 34 -63.5 34z" />
    <glyph glyph-name="ampersand" unicode="&#x26;" horiz-adv-x="754" 
d="M478 120l-97 120l-102 132c-42 -24 -72.833 -50.5 -92.5 -79.5s-29.5 -62.5 -29.5 -100.5c0 -44.667 14.833 -82.5 44.5 -113.5s66.5 -46.5 110.5 -46.5c33.333 0 64.333 7.66699 93 23s53 37 73 65zM569 0c-22 33.333 -45.333 63.668 -70 91.001
c-64 -70 -140.333 -105 -229 -105c-60 0 -107.833 16.167 -143.5 48.5s-53.5 75.166 -53.5 128.499c0 48.667 15 91 45 127s77.667 71.667 143 107c-48 58 -72 113.667 -72 167c0 49.333 14.667 88.666 44 117.999s69 44 119 44c41.333 0 74.166 -10.833 98.499 -32.5
s36.5 -51.5 36.5 -89.5c0 -30 -12 -61.833 -36 -95.5s-58.333 -64.167 -103 -91.5c58.667 -82.667 121.334 -159.667 188.001 -231c21.333 28 42 60.333 62 97s37.667 74.667 53 114l43 -41c-22.667 -37.333 -44.5 -71.166 -65.5 -101.499s-44.833 -61.833 -71.5 -94.5
c40 -48 71.333 -84.333 94 -109c16 -17.333 33 -34.333 51 -51c-18 2.66699 -40.333 4 -67 4h-30c-8.66699 0 -20.667 -1.33301 -36 -4zM331 441.002c68 49.333 102.001 102.666 102.001 159.999c0 28.667 -7.33301 51.667 -22 69s-34.334 26 -59.001 26
c-28.667 0 -51.5 -9.16699 -68.5 -27.5s-25.5 -43.166 -25.5 -74.499c0 -44 24.333 -95 73 -153z" />
    <glyph glyph-name="quotesingle" unicode="'" horiz-adv-x="152" 
d="M103 742v-286h-52v286h52z" />
    <glyph glyph-name="parenleft" unicode="(" horiz-adv-x="291" 
d="M236 -135c-56.667 60 -98.334 125.501 -125.001 196.501s-40 150.5 -40 238.5c0 173.333 54.667 318.666 164 435.999l22 -19c-43.333 -58.667 -74.166 -120.667 -92.499 -186s-27.5 -141 -27.5 -227c0 -91.333 9.33301 -170.5 28 -237.5s49 -125.833 91 -176.5z" />
    <glyph glyph-name="parenright" unicode=")" horiz-adv-x="291" 
d="M56 738c55.333 -58 96.999 -122.332 124.999 -192.999s42 -148.334 42 -233.001c0 -90.667 -13.667 -172.5 -41 -245.5s-68.666 -139.5 -123.999 -199.5l-22 19c42.667 56.667 73.5 118.167 92.5 184.5s28.5 142.5 28.5 228.5c0 91.333 -9.33301 169.833 -28 235.5
s-49.667 125.167 -93 178.5z" />
    <glyph glyph-name="asterisk" unicode="*" horiz-adv-x="524" 
d="M276 525c0 -27.333 2.33301 -55.6689 7 -85.002c2.66699 -16 8 -41.667 16 -77c-10.667 2.66699 -22.667 4 -36 4c-12 0 -23.333 -1.33301 -34 -4c6 34.667 10.333 63.5 13 86.5s4 48.167 4 75.5c-46.667 -32 -89 -65 -127 -99c-8 22 -19.333 41.333 -34 58l74.5 32.5
c23.667 10.333 47.834 21.833 72.501 34.5c-24.667 12 -50.167 23.333 -76.5 34s-50.833 19.334 -73.5 26.001c13.333 16 25 36.333 35 61l130 -96c0 26 -1.66699 50.833 -5 74.5s-9 52.834 -17 87.501c10.667 -2.66699 22 -4 34 -4c12.667 0 24 1.33301 34 4
c-4.66699 -33.333 -8.33398 -62.166 -11.001 -86.499s-4 -49.5 -4 -75.5c24 16.667 45.833 32.5 65.5 47.5s40.167 32.5 61.5 52.5c8 -19.333 19.333 -39 34 -59c-22.667 -8.66699 -47.667 -19.334 -75 -32.001l-72 -35c49.333 -22 99.333 -42 150 -60
c-15.333 -18.667 -27 -38.667 -35 -60z" />
    <glyph glyph-name="plus" unicode="+" horiz-adv-x="883" 
d="M467 632v-291h285v-50h-285v-291h-50v291h-286v50h286v291h50z" />
    <glyph glyph-name="comma" unicode="," horiz-adv-x="290" 
d="M63 -192l-17 8l75 253c10 32.667 26 49 48 49c26 0 39 -13.333 39 -40c0 -11.333 -4.33301 -25 -13 -41z" />
    <glyph glyph-name="hyphen" unicode="-" horiz-adv-x="883" 
d="M131 341h621v-50h-621v50z" />
    <glyph glyph-name="period" unicode="." horiz-adv-x="290" 
d="M86 49c0 16.667 5.66699 30.667 17 42s25.333 17 42 17c16 0 29.667 -5.66699 41 -17s17 -25.333 17 -42c0 -16 -5.66699 -29.667 -17 -41s-25 -17 -41 -17c-16.667 0 -30.667 5.33301 -42 16s-17 24.667 -17 42z" />
    <glyph glyph-name="slash" unicode="/" horiz-adv-x="298" 
d="M-23 -98l291 893h47l-291 -893h-47z" />
    <glyph glyph-name="zero" unicode="0" horiz-adv-x="581" 
d="M132 347c0 -113.333 12 -196.167 36 -248.5s65 -78.5 123 -78.5c60.667 0 102.667 27.667 126 83c21.333 50 32 135.667 32 257c0 107.333 -12.5 186.5 -37.5 237.5s-65.167 76.5 -120.5 76.5c-58 0 -99 -26 -123 -78s-36 -135 -36 -249zM43 345.999
c0 241.333 82.333 362.001 247 362.001c165.333 0 248 -120.667 248 -362c0 -118.667 -21 -208.334 -63 -269.001s-103.667 -91 -185 -91c-164.667 0 -247 120 -247 360z" />
    <glyph glyph-name="one" unicode="1" 
d="M264 0c0 63.333 1.16992 140.5 3.50293 231.5s3.5 139.5 3.5 145.5c0 38 -0.333008 81 -1 129s-1.33398 92.667 -2.00098 134l-161 -94c-5.33301 12 -10.333 21.333 -15 28s-11 13.667 -19 21c43.333 16 88.333 35 135 57c37.333 17.333 88.666 43 153.999 77
c0 -16.667 -1.16699 -69.5 -3.5 -158.5s-3.5 -171.5 -3.5 -247.5c0 -6.66699 1.66699 -74.667 5 -204c1.33301 -51.333 2 -91 2 -119c-6.66699 1.33301 -15 2.33301 -25 3s-19.333 1 -28 1h-19c-4.66699 0 -13.334 -1.33301 -26.001 -4z" />
    <glyph glyph-name="two" unicode="2" 
d="M50 0l-0.00488281 17.9961c81.333 80 142.333 142.667 183 188c54.667 61.333 93.334 113.333 116.001 156c26.667 50.667 40 100.667 40 150c0 48.667 -11.167 86.834 -33.5 114.501s-52.5 41.5 -90.5 41.5c-65.333 0 -110.666 -41.667 -135.999 -125
c-14 22.667 -28 42.334 -42 59.001c46.667 70.667 112 106 196 106c62.667 0 111.5 -17.167 146.5 -51.5s52.5 -81.5 52.5 -141.5c0 -34 -6.66699 -66.167 -20 -96.5s-34.333 -62.166 -63 -95.499c-11.333 -13.333 -30.666 -34.166 -57.999 -62.499l-80 -83.5l-97 -105
l104 -2c78 0 151.667 3.33301 221 10l-2 -32l3 -48c-23.333 0 -64.166 0.666992 -122.499 2s-90.166 2 -95.499 2c-26 0 -65 -0.666992 -117 -2s-87 -2 -105 -2z" />
    <glyph glyph-name="three" unicode="3" 
d="M130 578c-14.667 24 -28.665 43.666 -41.998 58.999c23.333 22.667 49.666 40.167 78.999 52.5s61.333 18.5 96 18.5c58 0 103.833 -15.167 137.5 -45.5s50.5 -71.5 50.5 -123.5c0 -77.333 -49 -134.666 -147 -171.999c60.667 0 106.167 -14.5 136.5 -43.5
s45.5 -70.5 45.5 -124.5c0 -64 -23.5 -115.5 -70.5 -154.5s-109.833 -58.5 -188.5 -58.5c-66 0 -119.667 12 -161 36c4 12.667 7.66699 26.667 11 42s5 29.666 5 42.999c14.667 -26 35.167 -46.5 61.5 -61.5s56.166 -22.5 89.499 -22.5c50.667 0 89.5 15.167 116.5 45.5
s40.5 75.5 40.5 135.5c0 45.333 -11.5 80.5 -34.5 105.5s-55.5 37.5 -97.5 37.5c-16.667 0 -36.667 -2 -60 -6l2 21l-2 23l23 -2c93.333 0 140 50.667 140 152c0 42 -10.167 75.167 -30.5 99.5s-47.833 36.5 -82.5 36.5c-26.667 0 -50.5 -8.16699 -71.5 -24.5
s-36.5 -39.166 -46.5 -68.499z" />
    <glyph glyph-name="four" unicode="4" 
d="M344 0c3.33301 34.667 4.99805 79.667 4.99805 135c0 10.667 -0.166992 21.167 -0.5 31.5s-1.16602 20.5 -2.49902 30.5l-157 2c-30.667 0 -60.167 -0.333008 -88.5 -1s-55.166 -1.33398 -80.499 -2.00098v16l116 160l114 164l111 167h68
c0 -18 -0.833008 -64.167 -2.5 -138.5s-2.5 -132.166 -2.5 -173.499c0 -22.667 0.333008 -45 1 -67l2 -63l33 -2l61 2v-64l-95 2l-2 -70c0 -14.667 0.333008 -35.5 1 -62.5s2 -49.167 4 -66.5c-12 2 -19.833 3.16699 -23.5 3.5s-9.83398 0.5 -18.501 0.5
c-15.333 0 -29.666 -1.33301 -42.999 -4zM105.998 259h243v349c-19.333 -22 -48.333 -60.667 -87 -116z" />
    <glyph glyph-name="five" unicode="5" 
d="M141 339l-13 3c4 36 6 75.667 6 119c0 89.333 -3 165 -9 227c21.333 -2.66699 42.333 -4.33398 63 -5.00098s46.334 -1 77.001 -1c25.333 0 45.666 0.333008 60.999 1c77.333 3.33301 124 5 140 5l-3 -41l2 -32c-15.333 2 -35.833 3.33301 -61.5 4s-41.167 1 -46.5 1
h-174c-5.33301 -60 -8 -126 -8 -198v-34c23.333 16 63 24 119 24c60 0 107.167 -17.167 141.5 -51.5s51.5 -82.166 51.5 -143.499c0 -70 -23.667 -126 -71 -168s-112 -63 -194 -63c-62.667 0 -114.667 12.667 -156 38c8 28 14.333 57.333 19 88
c32 -59.333 82.333 -89 151 -89c48.667 0 87.667 16.667 117 50s44 80 44 140c0 50 -12.833 88.833 -38.5 116.5s-61.5 41.5 -107.5 41.5c-41.333 0 -78 -10.667 -110 -32z" />
    <glyph glyph-name="six" unicode="6" 
d="M150 327c47.333 60 107 90 179 90c60 0 107.667 -17.667 143 -53s53 -83 53 -143c0 -71.333 -21 -128.333 -63 -171s-98.333 -64 -169 -64c-72.667 0 -129.5 25.833 -170.5 77.5s-61.5 124.834 -61.5 219.501c0 127.333 30.333 230.666 91 309.999
c58.667 76.667 133.667 115 225 115c22.667 0 46 -3.33301 70 -10l-2 -26l3 -24c-21.333 15.333 -48.333 23 -81 23c-59.333 0 -109.333 -29 -150 -87c-44.667 -64 -67 -149.667 -67 -257zM157 203c0 -54.667 13 -98.833 39 -132.5s58.667 -50.5 98 -50.5
c42.667 0 76.667 16.167 102 48.5s38 77.833 38 136.5c0 115.333 -44.667 173 -134 173c-41.333 0 -75.5 -16 -102.5 -48s-40.5 -74.333 -40.5 -127z" />
    <glyph glyph-name="seven" unicode="7" 
d="M90 0c13.333 20 36.333 57 69 111l121 203l169 295h-196c-66.667 0 -120 -2.33301 -160 -7l2 41l-3 45c16 0 58.5 -0.833008 127.5 -2.5s122.5 -2.5 160.5 -2.5h20h17h15h13c14 0 28.333 0.333008 43 1s28.667 2 42 4v-26l-247 -435c-60 -110 -98.667 -185.667 -116 -227
c-5.33301 1.33301 -11.833 2.33301 -19.5 3s-14.167 1 -19.5 1c-6 0 -11.667 -0.333008 -17 -1s-12.333 -1.66699 -21 -3z" />
    <glyph glyph-name="eight" unicode="8" horiz-adv-x="581" 
d="M219 391c-84 26.667 -126 74.998 -126 144.998c0 52 18 93.667 54 125s84 47 144 47c63.333 0 112 -14 146 -42s51 -67 51 -117c0 -78 -41.333 -129.667 -124 -155c106.667 -26.667 160 -89.667 160 -189c0 -67.333 -21 -120.666 -63 -159.999s-98.667 -59 -170 -59
c-74 0 -131.5 17.833 -172.5 53.5s-61.5 85.834 -61.5 150.501c0 50 13 91 39 123s67 58 123 78zM151 190.998c0 -55.333 12.167 -97.168 36.5 -125.501s58.833 -42.5 103.5 -42.5c43.333 0 77 14.333 101 43s36 70.334 36 125.001c0 121.333 -44 182 -132 182
c-96.667 0 -145 -60.667 -145 -182zM184 538.996c0 -88.667 35.667 -132.999 107 -132.999c36 0 63.833 11.167 83.5 33.5s29.5 54.5 29.5 96.5c0 90 -36.667 135 -110 135c-34.667 0 -61.667 -11.333 -81 -34s-29 -55.334 -29 -98.001z" />
    <glyph glyph-name="nine" unicode="9" 
d="M250 278c-58.667 0 -106 18.332 -142 54.999s-54 86 -54 148c0 66.667 21.833 121.167 65.5 163.5s100.5 63.5 170.5 63.5c72.667 0 129.167 -25.5 169.5 -76.5s60.5 -124.167 60.5 -219.5c0 -130 -28.333 -233.5 -85 -310.5s-130.334 -115.5 -221.001 -115.5
c-18 0 -35.167 1.33301 -51.5 4s-33.166 7.33398 -50.499 14.001l2 23l-3 35c35.333 -27.333 72.333 -41 111 -41c64.667 0 116 34.333 154 103c34 61.333 51 135 51 221l-2 27c-34.667 -62.667 -93 -94 -175 -94zM284 673.999c-42.667 0 -77.501 -17.667 -104.501 -53
s-40.5 -82 -40.5 -140c0 -50 12.667 -89.333 38 -118s60 -43 104 -43c44.667 0 79.334 15.333 104.001 46s37 75 37 133c0 56.667 -12 100 -36 130s-58 45 -102 45z" />
    <glyph glyph-name="colon" unicode=":" horiz-adv-x="346" 
d="M115 49c0 16.667 5.66699 30.667 17 42s25.333 17 42 17c16 0 29.667 -5.66699 41 -17s17 -25.333 17 -42c0 -16 -5.66699 -29.667 -17 -41s-25 -17 -41 -17c-16.667 0 -30.667 5.33301 -42 16s-17 24.667 -17 42zM115 417c0 16.667 5.66699 30.667 17 42
s25.333 17 42 17c16 0 29.667 -5.66699 41 -17s17 -25.333 17 -42c0 -16 -5.66699 -29.667 -17 -41s-25 -17 -41 -17c-16.667 0 -30.667 5.33301 -42 16s-17 24.667 -17 42z" />
    <glyph glyph-name="semicolon" unicode=";" horiz-adv-x="346" 
d="M121 418c0 16.667 5.66699 30.667 17 42s25.333 17 42 17c16 0 29.667 -5.66699 41 -17s17 -25.333 17 -42c0 -16 -5.66699 -29.667 -17 -41s-25 -17 -41 -17c-16.667 0 -30.667 5.33301 -42 16s-17 24.667 -17 42zM88 -192l-17 8l75 253c10 32.667 26 49 48 49
c26 0 39 -13.333 39 -40c0 -11.333 -4.33301 -25 -13 -41z" />
    <glyph glyph-name="less" unicode="&#x3c;" horiz-adv-x="883" 
d="M746 531l-529 -215l529 -214v-56l-609 249v42l609 250v-56z" />
    <glyph glyph-name="equal" unicode="=" horiz-adv-x="883" 
d="M752 438v-51h-621v51h621zM752 245v-51h-621v51h621z" />
    <glyph glyph-name="greater" unicode="&#x3e;" horiz-adv-x="883" 
d="M746 337v-42l-609 -249v56l529 214l-529 215v56z" />
    <glyph glyph-name="question" unicode="?" horiz-adv-x="408" 
d="M158 49c0 16.667 5.66699 30.667 17 42s25.333 17 42 17c16 0 29.667 -5.66699 41 -17s17 -25.333 17 -42c0 -16 -5.66699 -29.667 -17 -41s-25 -17 -41 -17c-16.667 0 -30.667 5.33301 -42 16s-17 24.667 -17 42zM277 221l-9 -31.001
c-11.333 -3.33301 -23.333 -5 -36 -5c-38 0 -67.667 11.333 -89 34s-32 53 -32 91c0 22.667 5.33301 43.667 16 63s27.334 41 50.001 65l70 73c16 16.667 28 32.334 36 47.001s12 32 12 52c0 28 -8 50.333 -24 67s-37.667 25 -65 25c-49.333 0 -83.666 -22.333 -102.999 -67
l-11 65c43.333 25.333 84.666 38 123.999 38c46 0 82.833 -13.5 110.5 -40.5s41.5 -63.833 41.5 -110.5s-22 -93 -66 -139l-59 -63c-22.667 -24.667 -38.667 -44 -48 -58c-11.333 -17.333 -17 -34.333 -17 -51c0 -18.667 5.5 -33.5 16.5 -44.5s26.167 -16.5 45.5 -16.5
c9.33301 0 21.666 2 36.999 6z" />
    <glyph glyph-name="at" unicode="@" horiz-adv-x="1060" 
d="M626 243l31.999 128.001c-6 31.333 -19 56.333 -39 75s-44 28 -72 28c-53.333 0 -97.166 -23.167 -131.499 -69.5s-51.5 -104.5 -51.5 -174.5c0 -38.667 9.33301 -68.667 28 -90s45 -32 79 -32c36.667 0 69.167 12.167 97.5 36.5s47.5 57.166 57.5 98.499z
M671.999 432.001l31.001 64.998h49l-73 -290c-2 -8 -3.83301 -17 -5.5 -27s-2.5 -17 -2.5 -21c0 -34 18 -51 54 -51c62 0 114 31 156 93c40 58.667 60 127 60 205c0 86.667 -33.667 158.334 -101 215.001s-155.333 85 -264 85c-132 0 -241 -42 -327 -126
s-129 -189 -129 -315c0 -110.667 38.333 -199.667 115 -267s174.667 -101 294 -101c59.333 0 117.166 8.66699 173.499 26s108.166 42 155.499 74l20 -29c-102 -76 -214.667 -114 -338 -114c-142 0 -256.667 37.333 -344 112c-90.667 77.333 -136 181.333 -136 312
c0 133.333 50.167 245.833 150.5 337.5s222.5 137.5 366.5 137.5c120 0 220.333 -32.5 301 -97.5s121 -149.167 121 -252.5c0 -91.333 -26 -169.666 -78 -234.999c-54.667 -68.667 -124 -103 -208 -103c-66 0 -99 26 -99 78l1 15c-35.333 -62 -86.333 -93 -153 -93
c-53.333 0 -93.666 14.333 -120.999 43s-41 70.667 -41 126c0 80.667 23.333 148 70 202s103.667 81 171 81c65.333 0 109 -28.333 131 -85z" />
    <glyph glyph-name="A" unicode="A" horiz-adv-x="656" 
d="M-5 0l327.998 738.001h20l103 -254l103 -246l102 -238c-15.333 2.66699 -32.666 4 -51.999 4h-22.5c-5.66699 0 -16.167 -1.33301 -31.5 -4c-14 42.667 -27.333 80.667 -40 114c-16.667 44 -33.667 86.333 -51 127l-18 42l-130 2l-131 -2
c-9.33301 -20.667 -23.666 -55.334 -42.999 -104.001c-22.667 -57.333 -45 -117 -67 -179c-4 1.33301 -9.16699 2.33301 -15.5 3s-12.833 1 -19.5 1c-10 0 -17.833 -0.666992 -23.5 -2s-9.5 -2 -11.5 -2zM305.998 593.001l-113 -261l80 -2l142 2l-18 44z" />
    <glyph glyph-name="B" unicode="B" horiz-adv-x="632" 
d="M187 361l-0.00195312 -104.998c0 -48 0.333008 -87.333 1 -118s2.33398 -60.334 5.00098 -89.001c27.333 -6 51.333 -9 72 -9c62.667 0 111.834 14.667 147.501 44s53.5 70 53.5 122c0 55.333 -16.667 95.666 -50 120.999s-85 38 -155 38zM277.998 725.002
c83.333 0 145.831 -12.832 187.498 -38.499s62.5 -67.167 62.5 -124.5c0 -46 -13.5 -83.667 -40.5 -113s-68.167 -49.333 -123.5 -60c132 -14 198 -72.333 198 -175c0 -70.667 -24 -124.667 -72 -162s-119.333 -56 -214 -56c-16 0 -38.667 0.666992 -68 2s-48.333 2 -57 2
c-9.33301 0 -18.166 -0.166992 -26.499 -0.5s-17.166 -1.5 -26.499 -3.5c2 23.333 3.66699 73.5 5 150.5s2 149.833 2 218.5c0 54 -0.166992 116.167 -0.5 186.5s-2.5 128.166 -6.5 173.499l52 -4c6 0 23.333 0.666992 52 2s54 2 76 2zM186.996 407.003l3 -0.999023
c8.66699 -1.33301 18.5 -2.33301 29.5 -3s21.167 -1 30.5 -1c63.333 0 109.5 12.833 138.5 38.5s43.5 64.167 43.5 115.5c0 44.667 -12.333 77.667 -37 99c-26.667 23.333 -68 35 -124 35c-20.667 0 -35 -0.333008 -43 -1c-15.333 -2.66699 -26.333 -4.33398 -33 -5.00098
c-2 -10 -3.83301 -32.333 -5.5 -67s-2.5 -57.667 -2.5 -69v-141z" />
    <glyph glyph-name="C" unicode="C" horiz-adv-x="695" 
d="M651 45c-54 -39.333 -133.333 -58.999 -238 -58.999c-117.333 0 -208.333 32.667 -273 98s-97 157.666 -97 276.999c0 114 35.333 205.333 106 274s166.667 103 288 103c82.667 0 158.667 -17.333 228 -52c-11.333 -35.333 -17 -69 -17 -101
c-49.333 75.333 -121 113 -215 113c-88 0 -156.667 -29.333 -206 -88s-74 -142 -74 -250c0 -104 24.5 -185.667 73.5 -245s115.5 -89 199.5 -89c80.667 0 157.667 29.667 231 89z" />
    <glyph glyph-name="D" unicode="D" horiz-adv-x="800" 
d="M95 725c8 0 22.001 -0.666016 42.001 -1.99902s32.333 -2 37 -2c12.667 0 46.667 0.666992 102 2s102.666 2 141.999 2c107.333 0 189.833 -29.833 247.5 -89.5s86.5 -143.834 86.5 -252.501c0 -125.333 -35.5 -221.166 -106.5 -287.499s-174.833 -99.5 -311.5 -99.5
c-20 0 -50.333 0.666992 -91 2s-62 2 -64 2h-39c-10.667 0 -25.667 -1.33301 -45 -4c2 23.333 3.66699 73.5 5 150.5s2 149.833 2 218.5c0 54 -0.166992 116.167 -0.5 186.5s-2.5 128.166 -6.5 173.499zM190.001 45.001c18 0 40.499 -0.833984 67.499 -2.50098
s41.5 -2.5 43.5 -2.5c232 0 348 107.667 348 323c0 114 -23.5 196.167 -70.5 246.5s-123.5 75.5 -229.5 75.5c-15.333 0 -41.333 -1 -78 -3s-64 -3 -82 -3c-1.33301 -36 -2.16602 -82.667 -2.49902 -140s-0.5 -107.666 -0.5 -150.999c0 -44 0.333008 -96.167 1 -156.5
s1.66699 -122.5 3 -186.5z" />
    <glyph glyph-name="E" unicode="E" horiz-adv-x="525" 
d="M189 362l0.00292969 -52c0 -23.333 1 -68.333 3 -135s3 -108.667 3 -126h22c29.333 0 68.333 1 117 3s94.667 5 138 9l-1 -32l1 -33c-13.333 1.33301 -38.5 2.33301 -75.5 3s-72.5 1 -106.5 1h-192c2 23.333 3.66699 73.333 5 150s2 149 2 217
c0 143.333 -0.333008 229.833 -1 259.5s-2.66699 62.5 -6 98.5c16 0 40.333 -0.833008 73 -2.5s55 -2.5 67 -2.5c25.333 0 68.166 0.833008 128.499 2.5s95.833 2.5 106.5 2.5l-2 -36l2 -34c-52.667 10.667 -138 16 -256 16h-25c0 -16.667 -0.333008 -36.667 -1 -60
s-1.33398 -45.333 -2.00098 -66v-138h84c14.667 0 43.667 1 87 3s74.666 3 93.999 3l-2 -30l2 -30c-62.667 6 -123 9 -181 9h-84z" />
    <glyph glyph-name="F" unicode="F" horiz-adv-x="522" 
d="M190 362l0.00292969 -243.999c0 -34 0.5 -60 1.5 -78s2.83301 -31.333 5.5 -40c-14.667 2.66699 -31 4 -49 4s-34.333 -1.33301 -49 -4c2 23.333 3.66699 73 5 149s2 148 2 216c0 54 -0.166992 116.167 -0.5 186.5s-2.5 128.166 -6.5 173.499
c16 0 40.333 -0.833008 73 -2.5s55 -2.5 67 -2.5c25.333 0 68.166 0.833008 128.499 2.5s95.833 2.5 106.5 2.5l-2 -36l2 -34c-52.667 10.667 -138 16 -256 16h-25c0 -16.667 -0.333008 -36.667 -1 -60s-1.33398 -45.333 -2.00098 -66v-138h84c14.667 0 43.667 1 87 3
s74.666 3 93.999 3l-2 -30l2 -30c-62.667 6 -123 9 -181 9h-84z" />
    <glyph glyph-name="G" unicode="G" horiz-adv-x="774" 
d="M721 32c-52 -14.667 -101.331 -25.998 -147.998 -33.998s-91.334 -12 -134.001 -12c-121.333 0 -217.333 33 -288 99s-106 154.667 -106 266c0 117.333 37.833 211.166 113.5 281.499s177.5 105.5 305.5 105.5c103.333 0 190.333 -22.667 261 -68
c-6 -18 -10.833 -33.833 -14.5 -47.5s-7.16699 -28.834 -10.5 -45.501c-55.333 80.667 -139.333 121 -252 121c-89.333 0 -161.333 -30.333 -216 -91s-82 -142.667 -82 -246c0 -102.667 28.5 -184.167 85.5 -244.5s131.833 -90.5 224.5 -90.5c57.333 0 114 12 170 36
c1.33301 14.667 2.16602 33.834 2.49902 57.501s0.5 39.5 0.5 47.5c0 22 -0.833008 45.333 -2.5 70l-4.5 65c6 -1.33301 13.833 -2.33301 23.5 -3s18.167 -1 25.5 -1h24c12 2 20.333 3.33301 25 4c0 -14 -1.16699 -41.833 -3.5 -83.5s-3.5 -69.167 -3.5 -82.5
c0 -40.667 1.33301 -75.334 4 -104.001z" />
    <glyph glyph-name="H" unicode="H" horiz-adv-x="812" 
d="M195 725c-2 -14.667 -3.66699 -48.666 -5 -101.999s-2 -109.666 -2 -168.999v-39c7.33301 -0.666992 30.833 -1.33398 70.5 -2.00098s89.5 -1 149.5 -1l218 2v40c0 30 -0.666992 63 -2 99c-3.33301 89.333 -5 146.666 -5 171.999c14.667 -2.66699 31 -4 49 -4
s34.333 1.33301 49 4c-2 -23.333 -3.66699 -72.166 -5 -146.499s-2 -145.5 -2 -213.5c0 -54.667 0.166992 -117.834 0.5 -189.501s2.5 -130.167 6.5 -175.5c-14.667 2.66699 -31 4 -49 4s-34.333 -1.33301 -49 -4l5 168.5c1.33301 47 2 96.167 2 147.5v50
c-8.66699 0.666992 -37.334 1.33398 -86.001 2.00098s-92.667 1 -132 1c-41.333 0 -79.666 -0.5 -114.999 -1.5s-70.333 -1.83301 -105 -2.5v-48c0 -52.667 0.166992 -111 0.5 -175s2.5 -111.333 6.5 -142c-14.667 2.66699 -31 4 -49 4s-34.333 -1.33301 -49 -4
c2 23.333 3.66699 73 5 149s2 148 2 216c0 54 -0.166992 116.167 -0.5 186.5s-2.5 128.166 -6.5 173.499c14.667 -2.66699 31 -4 49 -4s34.333 1.33301 49 4z" />
    <glyph glyph-name="I" unicode="I" horiz-adv-x="291" 
d="M195 725c-2 -23.333 -3.66699 -72.165 -5 -146.498s-2 -145.5 -2 -213.5c0 -54.667 0.166992 -117.834 0.5 -189.501s2.5 -130.167 6.5 -175.5c-14.667 2.66699 -31 4 -49 4s-34.333 -1.33301 -49 -4c2 23.333 3.66699 73 5 149s2 148 2 216
c0 54 -0.166992 116.167 -0.5 186.5s-2.5 128.166 -6.5 173.499c14.667 -2.66699 31 -4 49 -4s34.333 1.33301 49 4z" />
    <glyph glyph-name="J" unicode="J" horiz-adv-x="292" 
d="M201 725c-2 -23.333 -3.66699 -72.166 -5 -146.499s-2 -145.5 -2 -213.5v-268c0 -80.667 -16 -139.667 -48 -177s-87.333 -60 -166 -68l-6 31c57.333 7.33301 95 30 113 68c15.333 32 23 92.333 23 181v233c0 54 -0.166992 116.167 -0.5 186.5s-2.5 128.166 -6.5 173.499
c14.667 -2.66699 31 -4 49 -4s34.333 1.33301 49 4z" />
    <glyph glyph-name="K" unicode="K" horiz-adv-x="634" 
d="M191 386c32.667 0 143.333 113 332 339c13.333 -2.66699 29 -4 47 -4c21.333 0 37.333 1.33301 48 4c-23.333 -18 -56.666 -48.333 -99.999 -91l-79 -79l-155 -154c26.667 -34 60 -74.333 100 -121l116 -133l128 -147c-18.667 2.66699 -39.334 4 -62.001 4h-26
c-6.66699 0 -18 -1.33301 -34 -4c-42.667 59.333 -84 114 -124 164l-122 150c-28 34.667 -52.667 52 -74 52v-126c0 -28 1.16699 -70 3.5 -126s3.5 -94 3.5 -114c-14.667 2.66699 -31 4 -49 4s-34.333 -1.33301 -49 -4c2 23.333 3.66699 73 5 149s2 148 2 216
c0 54 -0.166992 116.167 -0.5 186.5s-2.5 128.166 -6.5 173.499c14.667 -2.66699 31 -4 49 -4s34.333 1.33301 49 4c-2 -22.667 -3.66699 -48.5 -5 -77.5s-2 -60.833 -2 -95.5v-162c0 -1.33301 1.66699 -2.66602 5 -3.99902z" />
    <glyph glyph-name="L" unicode="L" horiz-adv-x="520" 
d="M190 725c-2 -23.333 -3.66602 -72.165 -4.99902 -146.498s-2 -145.5 -2 -213.5c0 -21.333 1.33301 -69.333 4 -144s4 -131.334 4 -170.001l72 -2c90.667 0 162.667 5.66699 216 17l-2 -34l2 -32l-246 4c-24.667 0 -50.334 -0.5 -77.001 -1.5s-48 -1.83301 -64 -2.5
c2 23.333 3.66699 73 5 149s2 148 2 216c0 54 -0.166992 116.167 -0.5 186.5s-2.5 128.166 -6.5 173.499c14.667 -2.66699 31 -4 49 -4s34.333 1.33301 49 4z" />
    <glyph glyph-name="M" unicode="M" horiz-adv-x="930" 
d="M37 0c13.333 57.333 29.667 152.001 49 284.001s39.666 283.333 60.999 454h18l150 -298l147 -278l314 576h14l24 -232l28 -246l32 -260c-6.66699 1.33301 -14.334 2.33301 -23.001 3s-17 1 -25 1c-18 0 -34 -1.33301 -48 -4c0 86 -3.33301 164.333 -10 235
s-14.667 133.667 -24 189c-2 12.667 -9 47.667 -21 105c-46.667 -78 -91 -156.333 -133 -235c-32 -60 -61.667 -119.333 -89 -178c-23.333 -50.667 -39.666 -89.334 -48.999 -116.001h-15c-8.66699 31.333 -22 66 -40 104c-15.333 33.333 -35.666 73 -60.999 119l-165 305
c-16 -111.333 -28.667 -217 -38 -317s-14 -170.333 -14 -211c-11.333 2.66699 -24.333 4 -39 4h-26c-8 -2 -13.667 -3.33301 -17 -4z" />
    <glyph glyph-name="N" unicode="N" horiz-adv-x="790" 
d="M93 0c2 20.667 3.66699 97.999 5 231.999s2 265 2 393v113h20l183 -206l175 -185l163 -167l2 93c0 72.667 -0.833008 145.834 -2.5 219.501s-3.16699 151.167 -4.5 232.5c10 -2.66699 21 -4 33 -4s22.333 1.33301 31 4c0 -52 -1.16699 -134.833 -3.5 -248.5
s-3.5 -197.167 -3.5 -250.5l2 -240h-14c-32 40.667 -71.667 87 -119 139l-152 164l-257 270l-3 -138c0 -2 1.66699 -79 5 -231c1.33301 -60.667 2 -124 2 -190c-10.667 2.66699 -22 4 -34 4c-11.333 0 -21.333 -1.33301 -30 -4z" />
    <glyph glyph-name="O" unicode="O" horiz-adv-x="870" 
d="M435 -14c-121.333 0 -216.833 33.5 -286.5 100.5s-104.5 158.5 -104.5 274.5c0 114 35.667 205.333 107 274s166 103 284 103c120.667 0 215.834 -33.833 285.501 -101.5s104.5 -159.5 104.5 -275.5c0 -112 -35.833 -202.5 -107.5 -271.5
s-165.834 -103.5 -282.501 -103.5zM435 26c90.667 0 160.832 29 210.499 87s74.5 141 74.5 249c0 110 -24.167 193.5 -72.5 250.5s-119.166 85.5 -212.499 85.5c-90.667 0 -161 -29.333 -211 -88s-75 -142.667 -75 -252c0 -106.667 24.667 -188.667 74 -246s120 -86 212 -86
z" />
    <glyph glyph-name="P" unicode="P" horiz-adv-x="583" 
d="M184 328l0.000976562 -149.001c0 -3.33301 1.66699 -36.666 5 -99.999c1.33301 -25.333 2 -51.666 2 -78.999c-14.667 2.66699 -31 4 -49 4s-34.333 -1.33301 -49 -4c2 23.333 3.66699 73 5 149s2 148 2 216c0 54 -0.166992 116.167 -0.5 186.5
s-2.5 128.166 -6.5 173.499l52 -4c18 0 49.667 0.666992 95 2s72.333 2 81 2c76.667 0 135.667 -16 177 -48s62 -77.333 62 -136c0 -68 -25.333 -120.833 -76 -158.5s-123.334 -56.5 -218.001 -56.5zM184.001 367.999l48 -1.99902c152 0 228 55.333 228 166
c0 55.333 -16.333 94.666 -49 117.999s-84.667 35 -156 35l-66 -3c0 -29.333 -0.833008 -70 -2.5 -122s-2.5 -84 -2.5 -96v-96z" />
    <glyph glyph-name="Q" unicode="Q" horiz-adv-x="870" 
d="M480 -11l-62.001 -2.99707c-110.667 0 -200.667 34.667 -270 104s-104 159.666 -104 270.999c0 114 35.667 205.333 107 274s166 103 284 103c120.667 0 215.834 -33.833 285.501 -101.5s104.5 -159.5 104.5 -275.5c0 -89.333 -22.667 -165 -68 -227
s-111 -106.333 -197 -133c76.667 -58.667 162.667 -120.334 258 -185.001c-14.667 -4.66699 -28 -10.667 -40 -18s-25.333 -17 -40 -29c-85.333 81.333 -171.333 154.666 -258 219.999zM434.999 26.0029c90.667 0 160.832 29 210.499 87s74.5 141 74.5 249
c0 110 -24.167 193.5 -72.5 250.5s-119.166 85.5 -212.499 85.5c-90.667 0 -161 -29.333 -211 -88s-75 -142.667 -75 -252c0 -106.667 24.667 -188.667 74 -246s120 -86 212 -86z" />
    <glyph glyph-name="R" unicode="R" horiz-adv-x="630" 
d="M189 353v-194c0 -52 2.33301 -105 7 -159c-14.667 2.66699 -31 4 -49 4s-34.333 -1.33301 -49 -4c2 23.333 3.66699 73 5 149s2 148 2 216c0 54 -0.166992 116.167 -0.5 186.5s-2.5 128.166 -6.5 173.499l47 -4c15.333 0 44.5 0.666992 87.5 2s70.167 2 81.5 2
c159.333 0 239 -57.333 239 -172c0 -105.333 -70.667 -170.666 -212 -195.999l91 -118l102.5 -128.5l88.5 -110.5c-7.33301 1.33301 -17 2.33301 -29 3s-23 1 -33 1l-62 -4l-82.5 117l-49.5 66l-115 148c-12 16 -26.333 24 -43 24zM189 386l35 -2c158 0 237 52 237 156
c0 96.667 -61 145 -183 145l-82 -3c-2.66699 -19.333 -4.5 -37 -5.5 -53s-1.5 -35 -1.5 -57v-186z" />
    <glyph glyph-name="S" unicode="S" horiz-adv-x="520" 
d="M45 42c8.66699 27.333 13.999 45.3359 15.999 54.0029c4.66699 19.333 7 38.666 7 57.999c16 -40 39.333 -71 70 -93s65.667 -33 105 -33c45.333 0 82 14 110 42s42 66 42 114c0 34 -8.33301 60.833 -25 80.5s-44 37.5 -82 53.5l-86 36
c-48 19.333 -83.5 43.166 -106.5 71.499s-34.5 63.833 -34.5 106.5c0 60 20.667 109.333 62 148s95 58 161 58c58 0 111.667 -13 161 -39c-11.333 -24.667 -21 -52 -29 -82c-37.333 54.667 -86 82 -146 82c-38.667 0 -69.5 -12.167 -92.5 -36.5s-34.5 -56.833 -34.5 -97.5
c0 -31.333 8.16699 -56.5 24.5 -75.5s43.5 -36.833 81.5 -53.5l86 -37c50.667 -21.333 86.834 -45.5 108.501 -72.5s32.5 -63.5 32.5 -109.5c0 -68.667 -23 -124.334 -69 -167.001s-107.333 -64 -184 -64c-70 0 -129.333 18.667 -178 56z" />
    <glyph glyph-name="T" unicode="T" horiz-adv-x="577" 
d="M331 675v-315c0 -54 0.166992 -116.167 0.5 -186.5s2.5 -128.166 6.5 -173.499c-14.667 2.66699 -31 4 -49 4s-34.333 -1.33301 -49 -4c2 23.333 3.66699 72.166 5 146.499s2 145.5 2 213.5v315h-31c-81.333 0 -146.333 -4.33301 -195 -13l2 30l-2 33
c22.667 0 71.667 -0.666992 147 -2s115.333 -2 120 -2c32 0 71.667 0.333008 119 1s97 1.66699 149 3l-3 -31c0 -13.333 1 -24 3 -32c-24 4.66699 -52.167 8 -84.5 10s-66.5 3 -102.5 3h-38z" />
    <glyph glyph-name="U" unicode="U" horiz-adv-x="795" 
d="M636 725c4.66699 -1.33301 10.332 -2.33203 16.999 -2.99902s12.667 -1 18 -1h19c8.66699 2 14.667 3.33301 18 4c0 -20 -0.666992 -43.333 -2 -70c-3.33301 -66 -5 -107.333 -5 -124v-127c0 -88.667 -4 -154 -12 -196c-13.333 -69.333 -40 -122 -80 -158
c-47.333 -42.667 -117.333 -64 -210 -64c-105.333 0 -182 25.667 -230 77s-72 132 -72 242c2 48 3.83301 96.333 5.5 145s2.5 86.667 2.5 114c0 25.333 -0.833008 52.666 -2.5 81.999l-4.5 79c6 -1.33301 14 -2.33301 24 -3s18.333 -1 25 -1c16.667 0 33 1.33301 49 4
c-2 -90 -3.66699 -168 -5 -234s-2 -125 -2 -177c0 -84 14.667 -148.667 44 -194c36.667 -56.667 97.667 -85 183 -85c74.667 0 130.334 21.667 167.001 65c40 47.333 60 122.333 60 225v203c0 48.667 -0.666992 88.167 -2 118.5s-3 56.5 -5 78.5z" />
    <glyph glyph-name="V" unicode="V" horiz-adv-x="656" 
d="M295 0l-145.999 374.999l-142 350c6.66699 -1.33301 14.667 -2.33301 24 -3s18.333 -1 27 -1c18.667 0 36 1.33301 52 4c32.667 -92 58 -161.333 76 -208l80 -208c6.66699 -17.333 34.667 -85.666 84 -204.999l84 211l78.5 208.5l72.5 201.5c10 -2.66699 21.667 -4 35 -4
c6 0 11.667 0.166992 17 0.5s11.333 1.5 18 3.5l-100 -243l-96 -242l-94 -240c-10.667 2.66699 -22.334 4 -35.001 4h-14.5c-3.66699 0 -10.5 -1.33301 -20.5 -4z" />
    <glyph glyph-name="W" unicode="W" horiz-adv-x="1041" 
d="M245 0l-227.001 725c15.333 -2.66699 32.333 -4 51 -4h31c9.33301 2 16 3.33301 20 4l85.5 -306c28.333 -96.667 61.166 -203 98.499 -319c70 191.333 136.333 399.666 199 624.999c10 -2.66699 21.333 -4 34 -4h20c6.66699 2 11.334 3.33301 14.001 4l63 -198l68 -207
l73 -209c36 102.667 68.667 202.834 98 300.501s58.333 202.167 87 313.5c10 -2.66699 21.333 -4 34 -4h21c7.33301 2 12.333 3.33301 15 4l-242 -725c-11.333 2.66699 -23.666 4 -36.999 4c-16 0 -28.667 -2 -38 -6c-57.333 194 -122.333 392 -195 594l-90.5 -272.5
l-65.5 -196.5l-43 -123c-10.667 2.66699 -23 4 -37 4h-15c-4 0 -11.333 -1.33301 -22 -4z" />
    <glyph glyph-name="X" unicode="X" horiz-adv-x="593" 
d="M22 0l212.995 321.001l26 38l-19 34l-197 332c15.333 -2.66699 34 -4 56 -4c6.66699 0 14 0.166992 22 0.5s19 1.5 33 3.5c62 -120.667 107.333 -204 136 -250l24 -38l25 37c36.667 54 85.334 137.667 146.001 251c10.667 -2.66699 23.334 -4 38.001 -4
c4 0 9 0.166992 15 0.5s14 1.5 24 3.5l-97 -141c-36 -48 -59.667 -83 -71 -105l-38 -58l-18 -27l23 -37l216 -357c-8 1.33301 -17 2.33301 -27 3s-20 1 -30 1h-25c-6.66699 0 -18 -1.33301 -34 -4c-27.333 55.333 -52.666 103.666 -75.999 144.999l-75 129l-26 42l-25 -37
c-17.333 -24.667 -38.666 -58.667 -63.999 -102c-28 -48 -60.333 -107 -97 -177c-5.33301 1.33301 -11.5 2.33301 -18.5 3s-13.5 1 -19.5 1c-15.333 0 -28.666 -1.33301 -39.999 -4z" />
    <glyph glyph-name="Y" unicode="Y" horiz-adv-x="588" 
d="M252 0c0 18 1.16602 44.667 3.49902 80s3.5 59 3.5 71c0 20.667 -0.833008 48.5 -2.5 83.5s-2.5 55.5 -2.5 61.5l-85 147l-84 142.5l-82 139.5c6.66699 -1.33301 15.334 -2.33301 26.001 -3s21.334 -1 32.001 -1h35c10 2 17.333 3.33301 22 4
c17.333 -40 36.833 -81 58.5 -123s43.5 -81.667 65.5 -119s47 -77 75 -119c73.333 119.333 137 239.666 191 360.999c5.33301 -1.33301 11.666 -2.33301 18.999 -3s14 -1 20 -1c14 0 27.333 1.33301 40 4c-88.667 -143.333 -169 -280.666 -241 -411.999l-3 -111
c0 -33.333 0.5 -64.833 1.5 -94.5s2.5 -65.5 4.5 -107.5c-6.66699 1.33301 -14.167 2.33301 -22.5 3s-16.5 1 -24.5 1h-31c-8.66699 -2 -15 -3.33301 -19 -4z" />
    <glyph glyph-name="Z" unicode="Z" horiz-adv-x="635" 
d="M9 0l233.002 337.001l221 336l-83 3c-30 0 -68.333 -1.33301 -115 -4c-104.667 -6 -172.334 -9 -203.001 -9l2 31l-2 31c21.333 0 70.166 -0.666992 146.499 -2s120.833 -2 133.5 -2c34 0 75.333 0.333008 124 1s100.667 1.66699 156 3
c-172 -228.667 -327.333 -452.334 -466 -671.001l126 -2c39.333 0 96 1.83301 170 5.5s124.333 5.5 151 5.5l-2 -32l2 -31c-6.66699 0 -51.334 0.5 -134.001 1.5l-205 2.5c-42 0 -87.667 -0.5 -137 -1.5s-88.666 -1.83301 -117.999 -2.5z" />
    <glyph glyph-name="bracketleft" unicode="[" horiz-adv-x="292" 
d="M80 -116c0 9.33301 0.666992 36.332 2 80.999s2 84.667 2 120v437c0 32.667 -0.5 65.334 -1.5 98.001s-1.83301 67 -2.5 103h157v-36c-12.667 2.66699 -26.334 4 -41.001 4h-49c0 -25.333 -0.833008 -68 -2.5 -128s-2.5 -103 -2.5 -129v-332
c0 -85.333 1.66699 -147.333 5 -186h49c4.66699 0 10.334 0.166992 17.001 0.5s14.667 1.5 24 3.5v-36h-157z" />
    <glyph glyph-name="backslash" unicode="\" horiz-adv-x="298" 
d="M-23 795h47l291 -893h-47z" />
    <glyph glyph-name="bracketright" unicode="]" horiz-adv-x="292" 
d="M236 -116c0 9.33301 -0.667969 36.332 -2.00098 80.999s-2 84.667 -2 120v437c0 32.667 0.333008 65.334 1 98.001s1.66699 67 3 103h-157v-36c12.667 2.66699 26.334 4 41.001 4h49c0 -25.333 0.833008 -68 2.5 -128s2.5 -103 2.5 -129v-332
c0 -85.333 -1.66699 -147.333 -5 -186h-49h-24c-8 2 -13.667 3.33301 -17 4v-36h157z" />
    <glyph glyph-name="asciicircum" unicode="^" horiz-adv-x="1060" 
d="M566 755l275 -288h-75l-236 235l-237 -235h-75l276 288h72z" />
    <glyph glyph-name="underscore" unicode="_" horiz-adv-x="530" 
d="M530 -198v-52h-530v52h530z" />
    <glyph glyph-name="grave" unicode="`" horiz-adv-x="530" 
d="M356 568h-35l-171 106c-21.333 12.667 -32 26.667 -32 42c0 10.667 3.5 19.5 10.5 26.5s16.167 10.5 27.5 10.5c8 0 15.833 -2.5 23.5 -7.5s16.5 -12.5 26.5 -22.5z" />
    <glyph glyph-name="a" unicode="a" horiz-adv-x="510" 
d="M341 61c-45.333 -47.333 -97.665 -71 -156.998 -71c-97.333 0 -146 44 -146 132c0 73.333 40.667 119 122 137l138 27c20 5.33301 35 12.333 45 21v23c0 48.667 -8.66699 84.167 -26 106.5s-47.333 33.5 -90 33.5c-57.333 0 -103 -25.667 -137 -77h-8l2 56
c48 40.667 105 61 171 61c59.333 0 101.833 -14.5 127.5 -43.5s38.5 -74.167 38.5 -135.5v-224c0 -28 2.33301 -46.667 7 -56s16.667 -14 36 -14l18 2l5 -22c-6 -2 -17.833 -5.33301 -35.5 -10s-34.834 -7 -51.501 -7c-32.667 -0 -52.334 20.333 -59.001 61zM343.001 263
c-83.333 -14 -139 -28 -167 -42c-34.667 -18 -52 -46.667 -52 -86c0 -32.667 8.33301 -58 25 -76s40 -27 70 -27c26 0 52.333 8.66699 79 26c30 20 45 42.667 45 68v137z" />
    <glyph glyph-name="b" unicode="b" 
d="M164 794c0 -40.667 -0.332031 -74.001 -0.999023 -100.001c-2.66699 -104 -4 -163.667 -4 -179l2 -102c42.667 64.667 99 97 169 97c66 0 117.833 -21.5 155.5 -64.5s56.5 -101.833 56.5 -176.5c0 -84 -21.167 -151.5 -63.5 -202.5s-98.5 -76.5 -168.5 -76.5
c-56 0 -108.333 22 -157 66c-18 -14 -36.667 -32.667 -56 -56h-21c0 18.667 0.833008 78.334 2.5 179.001s2.5 195.334 2.5 284.001c0 72.667 -0.666992 135.667 -2 189s-2.33301 100.666 -3 141.999c6.66699 -1.33301 13.167 -2.33301 19.5 -3s14.166 -1 23.499 -1
c7.33301 0 14 0.333008 20 1s14.333 1.66699 25 3zM307.001 469.999c-50 0 -88.333 -20.668 -115 -62.001s-40 -101.666 -40 -180.999c0 -133.333 48.333 -200 145 -200c50 0 89 20.5 117 61.5s42 99.833 42 176.5c0 67.333 -12.667 118.333 -38 153s-62.333 52 -111 52z
" />
    <glyph glyph-name="c" unicode="c" horiz-adv-x="490" 
d="M466 42c-24 -18.667 -50.5 -31.999 -79.5 -39.999s-62.833 -12 -101.5 -12c-74 0 -133.833 23.5 -179.5 70.5s-68.5 109.833 -68.5 188.5c0 79.333 24 142.666 72 189.999s111.667 71 191 71c60 0 117.333 -14.333 172 -43c-12 -28.667 -21.333 -59 -28 -91
c-30 66.667 -78 100 -144 100c-56 0 -99.5 -19.833 -130.5 -59.5s-46.5 -95.167 -46.5 -166.5c0 -69.333 16.833 -123.833 50.5 -163.5s78.5 -59.5 134.5 -59.5s109 25.333 159 76l-3 -39z" />
    <glyph glyph-name="d" unicode="d" horiz-adv-x="594" 
d="M430 0c3.33301 18 5.00195 38.6689 5.00195 62.002l-3 41c-39.333 -75.333 -100 -113 -182 -113c-64 0 -115.5 22.833 -154.5 68.5s-58.5 106.5 -58.5 182.5c0 80.667 21.167 145.667 63.5 195s96.166 74 161.499 74c72.667 0 128.667 -32.667 168 -98
c2 18 3.33301 52.5 4 103.5s1 80.5 1 88.5c0 30 -0.833008 68.333 -2.5 115s-2.5 71.667 -2.5 75c6.66699 -1.33301 13.167 -2.33301 19.5 -3s14.166 -1 23.499 -1c7.33301 0 14 0.333008 20 1s14.333 1.66699 25 3c0 -40.667 -0.833008 -99.834 -2.5 -177.501
s-2.5 -127.167 -2.5 -148.5c0 -100 0.5 -187.833 1.5 -263.5s2.16699 -143.834 3.5 -204.501c-14 2.66699 -29 4 -45 4c-8 0 -15 -0.333008 -21 -1s-13.333 -1.66699 -22 -3zM283.002 470.002c-50 0 -88.333 -20.668 -115 -62.001s-40 -101.666 -40 -180.999
c0 -133.333 48.333 -200 145 -200c50 0 89 20.5 117 61.5s42 99.833 42 176.5c0 67.333 -12.667 118.333 -38 153s-62.333 52 -111 52z" />
    <glyph glyph-name="e" unicode="e" horiz-adv-x="536" 
d="M131 293l278.998 -0.000976562v18c0 52.667 -11.667 93.334 -35 122.001s-55.666 43 -96.999 43s-76.166 -16.5 -104.499 -49.5s-42.5 -77.5 -42.5 -133.5zM467.998 50.999c-54.667 -40.667 -114.669 -60.999 -180.002 -60.999c-74.667 0 -135 24 -181 72
s-69 110.333 -69 187c0 79.333 22.333 142.666 67 189.999s103.667 71 177 71c68 0 120.333 -19.667 157 -59s55 -96 55 -170v-25h-365c0 -73.333 15.333 -129 46 -167s74.667 -57 132 -57c60.667 0 115.334 24 164.001 72c-1.33301 -8 -2.16602 -18.167 -2.49902 -30.5
s-0.5 -19.833 -0.5 -22.5z" />
    <glyph glyph-name="f" unicode="f" horiz-adv-x="293" 
d="M318 792l-10.002 -81c-18 8 -38.333 12 -61 12c-60 0 -90 -32.667 -90 -98c0 -44 3 -88.333 9 -133h35l74 2v-44l-106 5v-192c0 -40.667 0.833008 -92.5 2.5 -155.5s2.5 -98.833 2.5 -107.5c-5.33301 1.33301 -12.166 2.33301 -20.499 3s-16.5 1 -24.5 1
c-16 0 -30.333 -1.33301 -43 -4c0 37.333 0.833008 87.333 2.5 150s2.5 100.334 2.5 113.001v192l-71 -2v42c9.33301 -0.666992 21.833 -1.33398 37.5 -2.00098s26.834 -1 33.501 -1c0 90 19.333 162.833 58 218.5s88 83.5 148 83.5z" />
    <glyph glyph-name="g" unicode="g" horiz-adv-x="485" 
d="M150 192c-70.667 22 -106.003 69.333 -106.003 142c0 54 18.833 96.833 56.5 128.5s89.167 47.5 154.5 47.5c18.667 0 41.667 -1.66699 69 -5s45.666 -5 54.999 -5c16 0 32 0.666992 48 2c22.667 3.33301 41 5.66602 55 6.99902v-47l-66 3h-21
c26.667 -36 40 -76.333 40 -121c0 -52.667 -17 -94 -51 -124s-80.667 -45 -140 -45c-9.33301 0 -20.333 0.666992 -33 2s-21 2 -25 2c-33.333 0 -50 -16.667 -50 -50c0 -20.667 6.5 -35.334 19.5 -44.001s34.167 -13 63.5 -13h59c74.667 0 128.834 -10.167 162.501 -30.5
s50.5 -58.166 50.5 -113.499c0 -64.667 -24.667 -117.5 -74 -158.5s-114.666 -61.5 -195.999 -61.5c-59.333 0 -106.166 13.833 -140.499 41.5s-51.5 64.834 -51.5 111.501c0 70 39.333 117.667 118 143c-25.333 6 -45.166 16.833 -59.499 32.5s-21.5 34.5 -21.5 56.5
c0 36.667 28 69.667 84 99zM217.997 0c-38.667 0 -69.332 -12 -91.999 -36s-34 -54 -34 -90c0 -40 13.333 -72.333 40 -97s62 -37 106 -37c53.333 0 96.666 14 129.999 42s50 63.333 50 106c0 46.667 -16 77.667 -48 93c-26 12.667 -76.667 19 -152 19zM355.999 342
c0 92 -36.667 138.001 -110 138.001c-36 0 -64.667 -12.333 -86 -37s-32 -58.334 -32 -101.001c0 -44.667 10.333 -79 31 -103s49.667 -36 87 -36c73.333 0 110 46.333 110 139z" />
    <glyph glyph-name="h" unicode="h" horiz-adv-x="578" 
d="M167 794c0 -39.333 -0.832031 -97.6689 -2.49902 -175.002s-2.5 -116.666 -2.5 -117.999c0 -21.333 0.333008 -38.333 1 -51l2 -37c22.667 33.333 47 57.833 73 73.5s56.333 23.5 91 23.5c60 0 101.667 -15.667 125 -47c27.333 -36.667 41 -103.334 41 -200.001
c0 -40.667 0.833008 -92.5 2.5 -155.5s2.5 -98.833 2.5 -107.5c-5.33301 1.33301 -12.166 2.33301 -20.499 3s-16.5 1 -24.5 1c-16 0 -30.333 -1.33301 -43 -4c0 37.333 0.833008 87.333 2.5 150s2.5 100.334 2.5 113.001c0 67.333 -8.33301 115.333 -25 144
c-18.667 32 -50.334 48 -95.001 48c-46.667 0 -81.667 -19.667 -105 -59c-20 -34 -30 -78.333 -30 -133c0 -46 0.5 -91.833 1.5 -137.5s2.16699 -87.5 3.5 -125.5c-14 2.66699 -29 4 -45 4c-8 0 -15 -0.333008 -21 -1s-13.333 -1.66699 -22 -3
c0 18.667 0.833008 78.334 2.5 179.001s2.5 195.334 2.5 284.001c0 72.667 -0.666992 135.667 -2 189s-2.33301 100.666 -3 141.999c6.66699 -1.33301 13.167 -2.33301 19.5 -3s14.166 -1 23.499 -1c7.33301 0 14 0.333008 20 1s14.333 1.66699 25 3z" />
    <glyph glyph-name="i" unicode="i" horiz-adv-x="262" 
d="M77 685c0 15.333 5 28.001 15 38.001s22.667 15 38 15c14.667 0 27.334 -5 38.001 -15s16 -22.667 16 -38c0 -14.667 -5.33301 -27.334 -16 -38.001s-23.334 -16 -38.001 -16c-15.333 0 -28 5 -38 15s-15 23 -15 39zM176 500.001
c0 -33.333 -0.833984 -78.001 -2.50098 -134.001s-2.5 -90.333 -2.5 -103c0 -40.667 0.833008 -92.5 2.5 -155.5s2.5 -98.833 2.5 -107.5c-5.33301 1.33301 -12.166 2.33301 -20.499 3s-16.5 1 -24.5 1c-16 0 -30.333 -1.33301 -43 -4c0 37.333 0.833008 87.333 2.5 150
s2.5 100.334 2.5 113.001c0 37.333 -0.333008 67.333 -1 90c-2.66699 91.333 -4 140.333 -4 147c12.667 -2.66699 27 -4 43 -4h23c10.667 2 18 3.33301 22 4z" />
    <glyph glyph-name="j" unicode="j" horiz-adv-x="262" 
d="M-13 -289l-7 22.001c50 6 82 31 96 75c10.667 33.333 16 101.666 16 204.999v250c0 37.333 -0.333008 67.333 -1 90c-2.66699 91.333 -4 140.333 -4 147c12.667 -2.66699 27 -4 43 -4h23c10.667 2 18 3.33301 22 4c0 -33.333 -0.833008 -78 -2.5 -134
s-2.5 -90.333 -2.5 -103c0 -25.333 0.833008 -80 2.5 -164s2.5 -132 2.5 -144c0 -81.333 -13.5 -140.5 -40.5 -177.5s-76.167 -59.167 -147.5 -66.5zM75 685.001c0 15.333 5 28.001 15 38.001s22.667 15 38 15c14.667 0 27.334 -5 38.001 -15s16 -22.667 16 -38
c0 -14.667 -5.33301 -27.334 -16 -38.001s-23.334 -16 -38.001 -16c-15.333 0 -28 5 -38 15s-15 23 -15 39z" />
    <glyph glyph-name="k" unicode="k" horiz-adv-x="515" 
d="M170 794c0 -36 -0.832031 -89.167 -2.49902 -159.5s-2.5 -119.833 -2.5 -148.5v-184c0 -12 6 -18 18 -18c34 0 107.667 72 221 216c13.333 -2.66699 29 -4 47 -4h26c9.33301 2 16 3.33301 20 4c-17.333 -12 -37.333 -28 -60 -48c-20 -17.333 -45.667 -41 -77 -71l-96 -90
l249 -291c-8 1.33301 -17.5 2.33301 -28.5 3s-21.167 1 -30.5 1c-20.667 0 -39 -1.33301 -55 -4c-129.333 174.667 -204 262 -224 262c-6.66699 0 -10 -4.66699 -10 -14c0 -43.333 0.833008 -93.333 2.5 -150s2.5 -89.334 2.5 -98.001c-14 2.66699 -29 4 -45 4
c-8 0 -15 -0.333008 -21 -1s-13.333 -1.66699 -22 -3c0 18.667 0.833008 78.334 2.5 179.001s2.5 195.334 2.5 284.001c0 72.667 -0.666992 135.667 -2 189s-2.33301 100.666 -3 141.999c6.66699 -1.33301 13.167 -2.33301 19.5 -3s14.166 -1 23.499 -1
c7.33301 0 14 0.333008 20 1s14.333 1.66699 25 3z" />
    <glyph glyph-name="l" unicode="l" horiz-adv-x="247" 
d="M167 794c0 -40.667 -0.832031 -99.833 -2.49902 -177.5s-2.5 -127.167 -2.5 -148.5c0 -100 0.5 -187.833 1.5 -263.5s2.16699 -143.834 3.5 -204.501c-14 2.66699 -29 4 -45 4c-8 0 -15 -0.333008 -21 -1s-13.333 -1.66699 -22 -3c0 18.667 0.833008 78.334 2.5 179.001
s2.5 195.334 2.5 284.001c0 72.667 -0.666992 135.667 -2 189s-2.33301 100.666 -3 141.999c6.66699 -1.33301 13.167 -2.33301 19.5 -3s14.166 -1 23.499 -1c7.33301 0 14 0.333008 20 1s14.333 1.66699 25 3z" />
    <glyph glyph-name="m" unicode="m" horiz-adv-x="877" 
d="M170 500c-2.66699 -28 -4.16797 -47.5039 -4.50098 -58.5039s-0.5 -19.833 -0.5 -26.5c25.333 33.333 51.333 57.5 78 72.5s56 22.5 88 22.5c33.333 0 61.666 -9.33301 84.999 -28s39.666 -44.667 48.999 -78c20 34 45.167 60.167 75.5 78.5s63.166 27.5 98.499 27.5
c65.333 0 108.333 -16.5 129 -49.5s31 -98.833 31 -197.5c0 -40.667 0.833008 -92.5 2.5 -155.5s2.5 -98.833 2.5 -107.5c-5.33301 1.33301 -12.166 2.33301 -20.499 3s-16.5 1 -24.5 1c-16 0 -30.333 -1.33301 -43 -4c0 37.333 0.833008 87.333 2.5 150
s2.5 100.334 2.5 113.001c0 70.667 -9 120.334 -27 149.001s-49 43 -93 43c-47.333 0 -80.333 -21 -99 -63c-13.333 -29.333 -20 -72.333 -20 -129c0 -40.667 0.833008 -92.5 2.5 -155.5s2.5 -98.833 2.5 -107.5c-5.33301 1.33301 -12.166 2.33301 -20.499 3
s-16.5 1 -24.5 1c-16 0 -30.333 -1.33301 -43 -4c0 37.333 0.833008 87.333 2.5 150s2.5 100.334 2.5 113.001c0 69.333 -7.83301 118.666 -23.5 147.999s-43.5 44 -83.5 44c-45.333 0 -78.666 -16.667 -99.999 -50s-32 -80.666 -32 -141.999
c0 -40.667 0.833008 -92.5 2.5 -155.5s2.5 -98.833 2.5 -107.5c-5.33301 1.33301 -12.166 2.33301 -20.499 3s-16.5 1 -24.5 1c-16 0 -30.333 -1.33301 -43 -4c0 37.333 0.833008 87.333 2.5 150s2.5 100.334 2.5 113.001c0 37.333 -0.333008 67.333 -1 90
c-2.66699 91.333 -4 140.333 -4 147c12.667 -2.66699 27 -4 43 -4h23c10.667 2 18 3.33301 22 4z" />
    <glyph glyph-name="n" unicode="n" horiz-adv-x="560" 
d="M170 500c-2.66699 -28 -4.1709 -47.502 -4.50391 -58.502s-0.5 -19.833 -0.5 -26.5c25.333 33.333 51.333 57.5 78 72.5s56 22.5 88 22.5c42.667 0 76.334 -14.667 101.001 -44c33.333 -40 50 -107.667 50 -203c0 -40.667 0.833008 -92.5 2.5 -155.5
s2.5 -98.833 2.5 -107.5c-5.33301 1.33301 -12.166 2.33301 -20.499 3s-16.5 1 -24.5 1c-16 0 -30.333 -1.33301 -43 -4c0 37.333 0.833008 87.333 2.5 150s2.5 100.334 2.5 113.001c0 69.333 -7.83301 118.666 -23.5 147.999s-43.5 44 -83.5 44
c-45.333 0 -78.666 -16.667 -99.999 -50s-32 -80.666 -32 -141.999c0 -40.667 0.833008 -92.5 2.5 -155.5s2.5 -98.833 2.5 -107.5c-5.33301 1.33301 -12.166 2.33301 -20.499 3s-16.5 1 -24.5 1c-16 0 -30.333 -1.33301 -43 -4c0 37.333 0.833008 87.333 2.5 150
s2.5 100.334 2.5 113.001c0 37.333 -0.333008 67.333 -1 90c-2.66699 91.333 -4 140.333 -4 147c12.667 -2.66699 27 -4 43 -4h23c10.667 2 18 3.33301 22 4z" />
    <glyph glyph-name="o" unicode="o" horiz-adv-x="578" 
d="M289 -10c-73.333 0 -133.5 24.167 -180.5 72.5s-70.5 110.833 -70.5 187.5s23.833 139.167 71.5 187.5s107.5 72.5 179.5 72.5c74 0 134.333 -24 181 -72s70 -110.667 70 -188c0 -78 -23.5 -140.833 -70.5 -188.5s-107.167 -71.5 -180.5 -71.5zM289 24
c52 0 91.832 18.5 119.499 55.5s41.5 91.833 41.5 164.5c0 76 -13.667 133.667 -41 173s-67.666 59 -120.999 59c-106.667 0 -160 -75 -160 -225c0 -151.333 53.667 -227 161 -227z" />
    <glyph glyph-name="p" unicode="p" horiz-adv-x="592" 
d="M169 500c-2.66699 -26.667 -4.16309 -45.834 -4.49609 -57.501s-0.5 -21.834 -0.5 -30.501c22 34 46.667 58.833 74 74.5s60.666 23.5 99.999 23.5c68.667 0 121.5 -22.167 158.5 -66.5s55.5 -109.166 55.5 -194.499c0 -80.667 -20.333 -144 -61 -190
s-94.334 -69 -161.001 -69c-72.667 0 -128 29 -166 87v-137c0 -18.667 0.833008 -55.5 2.5 -110.5s2.5 -96.167 2.5 -123.5c-12.667 2.66699 -27.334 4 -44.001 4c-16 0 -30.667 -1.33301 -44 -4c0 18.667 0.833008 78.334 2.5 179.001s2.5 195.334 2.5 284.001
c0 72.667 -0.666992 135.667 -2 189s-2.33301 100.666 -3 141.999c6.66699 -1.33301 13.167 -2.33301 19.5 -3s14.166 -1 23.499 -1c7.33301 0 14 0.333008 20 1s14.333 1.66699 25 3zM313.004 470c-50 0 -88.333 -20.668 -115 -62.001s-40 -101.666 -40 -180.999
c0 -133.333 48.333 -200 145 -200c50 0 89 20.5 117 61.5s42 99.833 42 176.5c0 67.333 -12.667 118.333 -38 153s-62.333 52 -111 52z" />
    <glyph glyph-name="q" unicode="q" horiz-adv-x="592" 
d="M463 500c2.66699 -26.667 4.16309 -45.0029 4.49609 -55.0029s0.5 -21 0.5 -33c-22 34 -46.667 58.833 -74 74.5s-60.666 23.5 -99.999 23.5c-68.667 0 -121.5 -22.167 -158.5 -66.5s-55.5 -109.166 -55.5 -194.499c0 -80.667 20.333 -144 61 -190
s94.334 -69 161.001 -69c72.667 0 128 29 166 87v-137c0 -18.667 -0.833008 -55.667 -2.5 -111s-2.5 -96.333 -2.5 -123c10.667 2.66699 25.334 4 44.001 4h20c5.33301 0 13.333 -1.33301 24 -4c0 18.667 -0.833008 78.334 -2.5 179.001s-2.5 195.334 -2.5 284.001
c0 72 0.5 131 1.5 177l3.5 154c-6.66699 -1.33301 -13.167 -2.33301 -19.5 -3s-14.166 -1 -23.499 -1c-7.33301 0 -14 0.333008 -20 1s-14.333 1.66699 -25 3zM318.996 469.997c50 0 88.333 -20.668 115 -62.001s40 -101.666 40 -180.999c0 -133.333 -48.333 -200 -145 -200
c-50 0 -89 20.5 -117 61.5s-42 99.833 -42 176.5c0 67.333 12.667 118.333 38 153s62.333 52 111 52z" />
    <glyph glyph-name="r" unicode="r" horiz-adv-x="348" 
d="M164 500c-2 -16.667 -3.33008 -39.001 -3.99707 -67.001s-1 -44.667 -1 -50c39.333 81.333 84.666 122 135.999 122c4.66699 0 10.5 -0.333008 17.5 -1s14.5 -2 22.5 -4c-2 -10.667 -3.33301 -26 -4 -46s-1 -31.667 -1 -35l-9 -5c-16.667 9.33301 -33.334 14 -50.001 14
c-34.667 0 -62 -15 -82 -45s-30 -70 -30 -120c0 -40.667 0.833008 -92.5 2.5 -155.5s2.5 -98.833 2.5 -107.5c-2.66699 0.666992 -8.83398 1.5 -18.501 2.5s-18.5 1.5 -26.5 1.5c-16 0 -30.333 -1.33301 -43 -4c0 37.333 0.833008 87.333 2.5 150s2.5 100.334 2.5 113.001
c0 37.333 -0.333008 67.333 -1 90c-2.66699 91.333 -4 140.333 -4 147c12.667 -2.66699 27 -4 43 -4h23c10.667 2 18 3.33301 22 4z" />
    <glyph glyph-name="s" unicode="s" horiz-adv-x="378" 
d="M350 157c0 -48 -17.167 -87.8359 -51.5 -119.503s-79.5 -47.5 -135.5 -47.5c-54.667 0 -100.334 12.667 -137.001 38c4.66699 12.667 9.33398 26.334 14.001 41.001s8.33398 28.334 11.001 41.001c34.667 -53.333 78 -80 130 -80c31.333 0 56.166 8.5 74.499 25.5
s27.5 40.5 27.5 70.5c0 24 -6.5 42.333 -19.5 55s-34.167 23.334 -63.5 32.001l-49 14c-40.667 11.333 -70 27.5 -88 48.5s-27 50.167 -27 87.5c0 42.667 14.833 77.834 44.5 105.501s69.167 41.5 118.5 41.5c24.667 0 48.167 -3 70.5 -9s42.833 -14.667 61.5 -26
c-11.333 -26 -18.666 -48.333 -21.999 -67c-40 46.667 -81 70 -123 70c-26.667 0 -48.334 -8 -65.001 -24s-25 -37.667 -25 -65c0 -24 6.16699 -42.667 18.5 -56s32.833 -24.333 61.5 -33l72 -21c36 -10.667 62 -25.334 78 -44.001s24 -44.667 24 -78z" />
    <glyph glyph-name="t" unicode="t" horiz-adv-x="307" 
d="M13 456l3 21.999l-2 22c6 -1.33301 15.5 -2.33301 28.5 -3s25.5 -1 37.5 -1v37l-3 88c34.667 5.33301 64 14.333 88 27c-2 -12.667 -3.66699 -32.167 -5 -58.5s-2 -47.833 -2 -64.5v-29c14 0 39.833 0.666992 77.5 2s58.834 2 63.501 2c-2 -10 -3 -25 -3 -45
c-8.66699 1.33301 -27 2.33301 -55 3s-54.667 1 -80 1l-3 -53c0 -28 -0.833008 -71.167 -2.5 -129.5s-2.5 -97.166 -2.5 -116.499c0 -47.333 6.83301 -81.333 20.5 -102s37.167 -31 70.5 -31c19.333 0 43.666 7.33301 72.999 22l8 -24c-35.333 -23.333 -74 -35 -116 -35
c-48 0 -82.333 11.333 -103 34s-31 59.667 -31 111c0 19.333 0.833008 63.333 2.5 132s2.5 120.667 2.5 156v36h-12z" />
    <glyph glyph-name="u" unicode="u" 
d="M414 0c1.33301 4 2.5 10.1689 3.5 18.502s1.5 17.166 1.5 26.499v18c-2 11.333 -3 18.666 -3 21.999c-34.667 -63.333 -91.334 -95 -170.001 -95c-111.333 0 -167 57.667 -167 173v100c0 37.333 -0.333008 67.333 -1 90c-2.66699 91.333 -4 140.333 -4 147
c12.667 -2.66699 27 -4 43 -4h23c10.667 2 18 3.33301 22 4c0 -33.333 -0.833008 -78 -2.5 -134s-2.5 -90.333 -2.5 -103c0 -92 8.66699 -152.333 26 -181s49 -43 95 -43c60 0 100.333 24.667 121 74c13.333 31.333 20 81.333 20 150c0 41.333 -0.333008 86.833 -1 136.5
s-2 83.167 -4 100.5c12.667 -2.66699 27 -4 43 -4h23c10.667 2 18 3.33301 22 4c0 -33.333 -0.833008 -78 -2.5 -134s-2.5 -90.333 -2.5 -103c0 -40.667 0.833008 -92.5 2.5 -155.5s2.5 -98.833 2.5 -107.5c-5.33301 1.33301 -12.166 2.33301 -20.499 3s-16.5 1 -24.5 1
c-16 0 -30.333 -1.33301 -43 -4z" />
    <glyph glyph-name="v" unicode="v" horiz-adv-x="485" 
d="M211 0c-10.667 33.333 -25.834 75.666 -45.501 126.999s-42.167 106.5 -67.5 165.5l-91 207.5c13.333 -2.66699 29 -4 47 -4h30c9.33301 2 16 3.33301 20 4c22.667 -85.333 74.667 -219.333 156 -402c34 66.667 64 132.667 90 198s48.333 133.333 67 204
c10 -2.66699 21.333 -4 34 -4s23.334 1.33301 32.001 4l-106 -242c-27.333 -63.333 -49.833 -117.666 -67.5 -162.999s-29.5 -77 -35.5 -95l-33 4c-9.33301 0 -16 -0.333008 -20 -1c-4.66699 -2 -8 -3 -10 -3z" />
    <glyph glyph-name="w" unicode="w" horiz-adv-x="783" 
d="M193 0c-20 82.667 -81.667 249.333 -185 500c6.66699 -1.33301 14.167 -2.33301 22.5 -3s16.5 -1 24.5 -1c18 0 34 1.33301 48 4c21.333 -86 65.333 -215.333 132 -388c52.667 116.667 99 246 139 388c4.66699 -1.33301 9.33398 -2.33301 14.001 -3s10.667 -1 18 -1l30 4
c23.333 -86.667 47.666 -166 72.999 -238c22 -63.333 42 -113 60 -149c22 46 48.667 111 80 195l67 192c12 -2.66699 23 -4 33 -4c9.33301 0 20 1.33301 32 4c-54.667 -122.667 -98 -223.334 -130 -302.001c-36 -88 -60 -154 -72 -198c-8.66699 2.66699 -19 4 -31 4
c-12.667 0 -23 -1.33301 -31 -4c-6 40 -49.333 167.333 -130 382c-32 -76.667 -59.5 -148.167 -82.5 -214.5s-40.167 -122.166 -51.5 -167.499c-8.66699 2.66699 -18.667 4 -30 4c-12.667 0 -22.667 -1.33301 -30 -4z" />
    <glyph glyph-name="x" unicode="x" horiz-adv-x="498" 
d="M232 210l-75.002 -95.001c-31.333 -39.333 -56 -77.666 -74 -114.999c-5.33301 1.33301 -11.5 2.33301 -18.5 3s-13.5 1 -19.5 1c-14 0 -27.333 -1.33301 -40 -4c28 29.333 53.333 57.666 76 84.999c12 14.667 30.333 38.334 55 71.001l70 91l-50 70l-66 89l-73 94
c16 -2.66699 34 -4 54 -4h33c10 2 17 3.33301 21 4l47 -70l86 -123l63 82c20 25.333 36.5 47.166 49.5 65.499s22.5 33.5 28.5 45.5c6.66699 -1.33301 12.667 -2.33301 18 -3s12 -1 20 -1c6.66699 0 13 0.333008 19 1s12.667 1.66699 20 3
c-53.333 -59.333 -96.666 -109.666 -129.999 -150.999l-63 -78l99 -138l29 -40c20.667 -27.333 45.334 -58.333 74.001 -93c-18 2.66699 -37 4 -57 4h-22.5c-5.66699 0 -16.167 -1.33301 -31.5 -4c-12 20.667 -27.333 45 -46 73l-57 83z" />
    <glyph glyph-name="y" unicode="y" horiz-adv-x="495" 
d="M220 3l-43.999 116.999l-50 120l-116 260c15.333 -2.66699 32.666 -4 51.999 -4h31c9.33301 2 16 3.33301 20 4c10.667 -38 24 -78.5 40 -121.5s40.667 -104.833 74 -185.5l37 -91l38 88c52 119.333 91.667 222.666 119 309.999c10 -2.66699 22 -4 36 -4h17
c8 2 14 3.33301 18 4c-16 -30.667 -32 -63.5 -48 -98.5l-53 -119.5l-142 -321c-28 -63.333 -47.667 -109.333 -59 -138c-17.333 -43.333 -30 -80.666 -38 -111.999c-10 2 -16.5 3.16699 -19.5 3.5s-8.5 0.5 -16.5 0.5l-37 -4c20 34 38 67 54 99
c8.66699 16.667 29.667 62.334 63 137.001z" />
    <glyph glyph-name="z" unicode="z" horiz-adv-x="477" 
d="M-2 0l0.00195312 22l190 239c61.333 78.667 109.666 143.667 144.999 195h-42c-71.333 0 -150 -4.66699 -236 -14l2 27l-4 31c13.333 -1.33301 38.333 -2.33301 75 -3s71.334 -1 104.001 -1c26 0 67.833 0.666992 125.5 2s87.5 2 89.5 2v-21l-121 -154l-109 -145
c-40.667 -54.667 -73.334 -100 -98.001 -136c72.667 0 134.167 1.5 184.5 4.5s96.166 6.83301 137.499 11.5l-2 -24l3 -36c-17.333 0 -53.666 0.5 -108.999 1.5s-100 1.83301 -134 2.5c-24 0 -62.833 -0.666992 -116.5 -2s-81.834 -2 -84.501 -2z" />
    <glyph glyph-name="braceleft" unicode="{" horiz-adv-x="530" 
d="M442 710l-19 -0.000976562c-47.333 0 -78.333 -9 -93 -27s-22 -53 -22 -105v-125c0 -54.667 -6.33301 -94 -19 -118c-14.667 -28.667 -42.334 -48.667 -83.001 -60c40 -11.333 67 -30.333 81 -57s21 -67 21 -121v-125c0 -52 6.83301 -87 20.5 -105s43.834 -27 90.501 -27
h23v-54h-24c-71.333 0 -118.166 13 -140.499 39s-33.5 76.667 -33.5 152v126c0 52.667 -9.83301 90.167 -29.5 112.5s-53.5 33.5 -101.5 33.5l-23 -2v58l23 -2c48 0 81.833 10.833 101.5 32.5s29.5 59.167 29.5 112.5v125c0 74.667 11.167 125.334 33.5 152.001
s69.166 40 140.499 40h24v-55z" />
    <glyph glyph-name="bar" unicode="|" horiz-adv-x="530" 
d="M293 810v-1060h-56v1060h56z" />
    <glyph glyph-name="braceright" unicode="}" horiz-adv-x="530" 
d="M90 710l19 -0.000976562c47.333 0 78.333 -9 93 -27s22 -53 22 -105v-125c0 -54.667 6.83301 -95.167 20.5 -121.5s40.834 -45.166 81.501 -56.499c-40 -11.333 -67 -30.333 -81 -57s-21 -67 -21 -121v-125c0 -52 -6.33301 -86.333 -19 -103
c-14.667 -19.333 -45.334 -29 -92.001 -29h-23v-54h24c71.333 0 118.666 13.667 141.999 41c21.333 24.667 32 74.667 32 150v126c0 52.667 9.83301 90.167 29.5 112.5s53.5 33.5 101.5 33.5l23 -2v58l-23 -2c-48 0 -81.833 10.833 -101.5 32.5s-29.5 59.167 -29.5 112.5
v125c0 74.667 -10.667 124.667 -32 150c-23.333 28 -70.666 42 -141.999 42h-24v-55z" />
    <glyph glyph-name="asciitilde" unicode="~" horiz-adv-x="883" 
d="M792 330c-69.333 -49.333 -136.335 -74 -201.002 -74c-38.667 0 -89.667 11.833 -153 35.5s-111.666 35.5 -144.999 35.5c-31.333 0 -62.5 -6.66699 -93.5 -20s-66.833 -34.333 -107.5 -63v58c72 50 139 75 201 75c38 0 89.167 -11.833 153.5 -35.5
s112.5 -35.5 144.5 -35.5c30.667 0 62.334 6.83301 95.001 20.5s68 34.167 106 61.5v-58z" />
    <glyph glyph-name="c141" horiz-adv-x="909" 
d="M164 303c0 26.667 1.66602 84.334 4.99902 173.001c1.33301 35.333 2 67.333 2 96l-2 89l-102 -53c-4.66699 11.333 -11.667 20.333 -21 27c52.667 18.667 113.667 44 183 76c0 -32.667 -0.833008 -85.334 -2.5 -158.001s-2.5 -122 -2.5 -148l1 -102
c-4.66699 1.33301 -10 2 -16 2h-14c-13.333 0 -23.666 -0.666992 -30.999 -2zM667.999 787h52l-481 -886h-49zM758.999 0l3 38c0.666992 8.66699 1 22.667 1 42l-1 30l-98 1l-107 -1v8c34.667 40.667 71 85.667 109 135l106 140l21 -1l21 1
c0 -25.333 -0.333008 -53.5 -1 -84.5l-2 -89.5l1 -74l21 -1l39 2v-36l-60 2l-1 -66l2 -46l-26 1zM610.999 145h153v195c-22.667 -22 -73.667 -87 -153 -195z" />
    <glyph glyph-name="c142" horiz-adv-x="909" 
d="M164 303c0 32.667 1 79 3 139s3 103.333 3 130l-2 89l-102 -53c-5.33301 12 -12.333 21 -21 27c26 9.33301 54.333 20.333 85 33l99 43c0 -42 -0.333008 -75 -1 -99c-3.33301 -120.667 -5 -189.667 -5 -207l1 -102c-4.66699 1.33301 -10 2 -16 2h-13
c-14 0 -24.333 -0.666992 -31 -2zM667 787h52l-481 -886h-49zM575 0l0.00195312 10c52 46 90.333 81 115 105c28 27.333 52.333 56.666 73 87.999c16.667 28 25 55.667 25 83c0 28 -7 49.667 -21 65s-33 23 -57 23c-40 0 -68.333 -23.333 -85 -70l-14 17.5
c-6 7.66699 -10.333 12.834 -13 15.501c29.333 38.667 70.333 58 123 58c40 0 71.167 -9.5 93.5 -28.5s33.5 -45.167 33.5 -78.5c0 -34.667 -17.333 -70.334 -52 -107.001c-7.33301 -7.33301 -28 -26.666 -62 -57.999l-88 -83l66 -1c19.333 0 45.666 0.833008 78.999 2.5
s53.666 2.5 60.999 2.5l-1 -18c0 -12 0.666992 -20.667 2 -26l-138 1z" />
    <glyph glyph-name="c143" horiz-adv-x="911" 
d="M41 313c2.66699 6.66699 4.83496 14.001 6.50195 22.001s3.16699 16.667 4.5 26c18.667 -31.333 50 -47 94 -47c66.667 0 100 34.333 100 103c0 25.333 -7.5 45.166 -22.5 59.499s-35.5 21.5 -61.5 21.5c-12.667 0 -25.334 -1.66699 -38.001 -5l1 13l-1 12h15
c58.667 0 88 28.333 88 85c0 24 -6.33301 42.667 -19 56s-30 20 -52 20c-36.667 0 -61.334 -17.333 -74.001 -52c-4 6 -8.16699 11.5 -12.5 16.5l-14.5 16.5c29.333 25.333 66.333 38 111 38c37.333 0 66.333 -8.33301 87 -25s31 -39.334 31 -68.001
c0 -43.333 -31 -75.666 -93 -96.999c37.333 0 65.833 -8.16699 85.5 -24.5s29.5 -39.5 29.5 -69.5c0 -35.333 -14.833 -64.333 -44.5 -87s-69.167 -34 -118.5 -34c-21.333 0 -39.833 1.66699 -55.5 5s-31.167 8.33301 -46.5 15zM668.001 787.001h52l-481 -886h-49z
M759.001 0.000976562l3 38c0.666992 8.66699 1 22.667 1 42l-1 30l-98 1l-107 -1v8c34.667 40.667 71 85.667 109 135l106 140l21 -1l21 1c0 -25.333 -0.333008 -53.5 -1 -84.5l-2 -89.5l1 -74l21 -1l40 2v-36l-61 2l-1 -66l2 -46l-26 1zM611.001 145.001h153v195
c-22.667 -22 -73.667 -87 -153 -195z" />
    <glyph glyph-name="nonbreakingspace" unicode="&#xa0;" horiz-adv-x="500" 
 />
    <glyph glyph-name="exclamdown" unicode="&#xa1;" horiz-adv-x="709" 
d="M609 725c12 -2.66699 24.332 -4.00195 36.999 -4.00195l37 4c-11.333 -19.333 -45 -82.666 -101 -189.999l-159 -310c-55.333 -110 -92 -185 -110 -225l-38 4l-42 -4l70 115l25 45c-7.33301 16 -32.666 66.667 -75.999 152l-130 250
c-48 89.333 -79.667 143.666 -95 162.999l63 -4l59 4l74 -162l65.5 -133.5l83.5 -167.5l8 -3c9.33301 16.667 29 54.334 59 113.001l95 189c34 70.667 59 125.334 75 164.001zM589.999 928.998c-17.333 -76.667 -60.666 -115.001 -129.999 -115.001
c-18.667 0 -51.334 5.33301 -98.001 16c-23.333 5.33301 -42 8 -56 8c-18.667 0 -32.5 -3.66699 -41.5 -11s-16.833 -20.666 -23.5 -39.999h-34c15.333 80 59 120 131 120c11.333 0 37.333 -4.66699 78 -14s65.667 -14 75 -14c16 0 29 4 39 12s18.333 20.667 25 38h35z" />
    <glyph glyph-name="cent" unicode="&#xa2;" horiz-adv-x="495" 
d="M220 3l-43.999 116.999l-50 120l-116 260c15.333 -2.66699 32.666 -4 51.999 -4h31c9.33301 2 16 3.33301 20 4c10.667 -38 24 -78.5 40 -121.5s40.667 -104.833 74 -185.5l37 -91l38 88c52 119.333 91.667 222.666 119 309.999c10 -2.66699 22 -4 36 -4h17
c8 2 14 3.33301 18 4c-16 -30.667 -32 -63.5 -48 -98.5l-53 -119.5l-142 -321c-28 -63.333 -47.667 -109.333 -59 -138c-17.333 -43.333 -30 -80.666 -38 -111.999c-10 2 -16.5 3.16699 -19.5 3.5s-8.5 0.5 -16.5 0.5l-37 -4c20 34 38 67 54 99
c8.66699 16.667 29.667 62.334 63 137.001zM128.001 557.999c12.667 70.667 45.999 106 99.999 106c14.667 0 31 -2.33301 49 -7c41.333 -10.667 65 -16 71 -16c14.667 0 25.334 3.16699 32.001 9.5s12.667 18.833 18 37.5h26c-12 -73.333 -45.667 -110 -101 -110
c-12 0 -27 2.33301 -45 7c-46 12 -70.667 18 -74 18c-22.667 0 -39 -15 -49 -45h-27z" />
    <glyph glyph-name="sterling" unicode="&#xa3;" 
d="M54 0l2.99902 33.998l-3 35c60.667 0 101.667 12.667 123 38s32 71.333 32 138v13v12c0 14 -0.333008 27.833 -1 41.5s-2 26.834 -4 39.501c-28.667 0 -64 -3.33301 -106 -10v46c20.667 -2.66699 46.334 -4 77.001 -4h26l-6 94c0 73.333 18.167 129.833 54.5 169.5
s88.166 59.5 155.499 59.5c55.333 0 99 -18.333 131 -55l-51 -63c-9.33301 55.333 -41.333 83 -96 83c-78 0 -117 -51.667 -117 -155c0 -36 3 -80.333 9 -133h33h12c13.333 0 27 0.333008 41 1s28.333 2 43 4v-43c-26 2.66699 -46 4.33398 -60 5.00098s-29.333 1 -46 1h-18
v-24c0 -58.667 -8.16699 -109.5 -24.5 -152.5s-42.166 -78.167 -77.499 -105.5c32 0 107 3.33301 225 10c58.667 3.33301 105.667 5 141 5l-2 -41l2 -43c-31.333 0 -75.333 1 -132 3s-97 3 -121 3c-24.667 0 -64 -1 -118 -3s-95.667 -3 -125 -3z" />
    <glyph glyph-name="currency" unicode="&#xa4;" horiz-adv-x="642" 
d="M186 627c42 30.667 86.999 46.001 134.999 46.001c50 0 95.333 -15.333 136 -46l106 106l34 -34l-106 -106c30 -42.667 45 -87.667 45 -135c0 -25.333 -3.66699 -48.5 -11 -69.5s-18.666 -42.5 -33.999 -64.5l106 -107l-34 -34l-106 106
c-42 -30.667 -87.333 -46 -136 -46c-47.333 0 -92.333 15.333 -135 46l-106 -106l-34 34l106 107c-14.667 20.667 -26 42 -34 64s-12 45.333 -12 70c0 24 4 47.167 12 69.5s19.333 44.166 34 65.499l-106 106l34 34zM487.999 459.001c0 45.333 -16.001 84.333 -48.001 117
s-71.333 49 -118 49c-45.333 0 -84.666 -16.333 -117.999 -49s-50 -71.667 -50 -117c0 -46 16.5 -85.5 49.5 -118.5s72.5 -49.5 118.5 -49.5s85.167 16.5 117.5 49.5s48.5 72.5 48.5 118.5z" />
    <glyph glyph-name="yen" unicode="&#xa5;" 
d="M323 331l-0.000976562 -89.999h67c23.333 0 48.666 0.5 75.999 1.5s49.333 1.83301 66 2.5v-46c-23.333 0 -54.833 0.333008 -94.5 1l-114.5 2v-35c0 -24 0.833008 -56 2.5 -96s2.5 -63.667 2.5 -71c-15.333 2.66699 -28.666 4 -39.999 4h-22
c-8.66699 -2 -15 -3.33301 -19 -4c0 18 0.666992 52.333 2 103s2 83.667 2 99h-55c-27.333 0 -53.166 -0.333008 -77.499 -1l-70.5 -2v46c16.667 0 46.667 -0.666992 90 -2s68.333 -2 75 -2h38v90c-42.667 0 -80.334 -0.333008 -113.001 -1s-62.667 -1.33398 -90 -2.00098
v47c20.667 0 52.667 -0.833008 96 -2.5s70.333 -2.5 81 -2.5l-59 100.5l-61 105.5l-70 114c15.333 -4 31.666 -6 48.999 -6l49 4c22 -53.333 45 -102 69 -146c27.333 -49.333 60.666 -103 99.999 -161c33.333 54 65 109.667 95 167c26.667 52 49.334 99.333 68.001 142
l36 -6c10.667 0 25 2 43 6c-75.333 -112.667 -142 -219.334 -200 -320.001c48 0 86.167 0.5 114.5 1.5s52.833 2.16699 73.5 3.5v-47c-41.333 0 -79.666 0.333008 -114.999 1s-66.666 1.33398 -93.999 2.00098z" />
    <glyph glyph-name="brokenbar" unicode="&#xa6;" horiz-adv-x="530" 
d="M293 741v-392h-56v392h56zM293 211v-392h-56v392h56z" />
    <glyph glyph-name="section" unicode="&#xa7;" horiz-adv-x="524" 
d="M71 -88c3.33301 12.667 6.33105 26.335 8.99805 41.002s5.33398 32 8.00098 52c42 -58 95 -87 159 -87c40.667 0 74 11.667 100 35s39 52.333 39 87c0 26.667 -8.5 48 -25.5 64s-44.5 31.333 -82.5 46l-77 30c-53.333 20 -91 40.667 -113 62
c-24 23.333 -36 52.666 -36 87.999c0 50.667 26.333 96.667 79 138c-20.667 24.667 -31 56.334 -31 95.001c0 51.333 16.833 93.5 50.5 126.5s78.167 49.5 133.5 49.5c32 0 60.5 -4.33301 85.5 -13s46.167 -21.334 63.5 -38.001
c-7.33301 -11.333 -14.166 -22.833 -20.499 -34.5s-11.833 -22.834 -16.5 -33.501c-26.667 56.667 -68 85 -124 85c-35.333 0 -64 -10.667 -86 -32s-33 -48.333 -33 -81c0 -25.333 8.33301 -46.333 25 -63c14.667 -14.667 41 -30 79 -46l81 -34c48 -20 81 -39 99 -57
c22 -22 33 -51 33 -87c0 -42 -23 -85.333 -69 -130c27.333 -22 41 -56 41 -102c0 -58 -20.5 -105.5 -61.5 -142.5s-94.833 -55.5 -161.5 -55.5c-32 0 -60.667 3.16699 -86 9.5s-46 15.5 -62 27.5zM383.998 190.001c10 14.667 17.833 28.6689 23.5 42.002s8.5 25.333 8.5 36
c0 23.333 -8.66699 42.666 -26 57.999c-13.333 12 -42 28 -86 48l-75 35c-30.667 14 -57 28.333 -79 43c-30 -20.667 -45 -48 -45 -82c0 -40.667 45 -79.334 135 -116.001l67 -27c32 -12.667 57.667 -25 77 -37z" />
    <glyph glyph-name="dieresis" unicode="&#xa8;" horiz-adv-x="525" 
d="M189 362l0.00292969 -52c0 -23.333 1 -68.333 3 -135s3 -108.667 3 -126h22c29.333 0 68.333 1 117 3s94.667 5 138 9l-1 -32l1 -33c-13.333 1.33301 -38.5 2.33301 -75.5 3s-72.5 1 -106.5 1h-192c2 23.333 3.66699 73.333 5 150s2 149 2 217
c0 143.333 -0.333008 229.833 -1 259.5s-2.66699 62.5 -6 98.5c16 0 40.333 -0.833008 73 -2.5s55 -2.5 67 -2.5c25.333 0 68.166 0.833008 128.499 2.5s95.833 2.5 106.5 2.5l-2 -36l2 -34c-52.667 10.667 -138 16 -256 16h-25c0 -16.667 -0.333008 -36.667 -1 -60
s-1.33398 -45.333 -2.00098 -66v-138h84c14.667 0 43.667 1 87 3s74.666 3 93.999 3l-2 -30l2 -30c-62.667 6 -123 9 -181 9h-84zM147.003 868c0 15.333 5 28.001 15 38.001s22.667 15 38 15c14.667 0 27.334 -5 38.001 -15s16 -22.667 16 -38
c0 -14.667 -5.33301 -27.334 -16 -38.001s-23.334 -16 -38.001 -16c-15.333 0 -28 5 -38 15s-15 23 -15 39zM309.003 868.001c0 15.333 5 28.001 15 38.001s22.667 15 38 15c14.667 0 27.334 -5 38.001 -15s16 -22.667 16 -38c0 -14.667 -5.33301 -27.334 -16 -38.001
s-23.334 -16 -38.001 -16c-15.333 0 -28 5 -38 15s-15 23 -15 39z" />
    <glyph glyph-name="copyright" unicode="&#xa9;" horiz-adv-x="883" 
d="M441 753c110 0 200.668 -36.833 272.001 -110.5s107 -163.167 107 -268.5c0 -106 -37.333 -195.667 -112 -269s-163.667 -110 -267 -110c-102.667 0 -191.334 37 -266.001 111s-112 163.333 -112 268c0 102 35.333 190 106 264c73.333 76.667 164 115 272 115z
M779.001 374c0 97.333 -34 178.667 -102 244c-65.333 62.667 -144 94 -236 94c-92.667 0 -172 -33.667 -238 -101s-99 -146.333 -99 -237s33.5 -169.5 100.5 -236.5s145.833 -100.5 236.5 -100.5c89.333 0 167.333 31.333 234 94c69.333 65.333 104 146.333 104 243z
M555.001 474.001c-6 27.333 -18.667 48.6689 -38 64.002s-44 23 -74 23c-42 0 -74.667 -16 -98 -48s-35 -78.667 -35 -140c0 -58 12 -103 36 -135s56.333 -48 97 -48c30.667 0 56.667 8.66699 78 26s35 41 41 71h59c0 -42.667 -17.5 -77.834 -52.5 -105.501
s-77.833 -41.5 -128.5 -41.5c-60 0 -107.833 20.833 -143.5 62.5s-53.5 99.5 -53.5 173.5c0 70.667 18.5 127.167 55.5 169.5s85.833 63.5 146.5 63.5c46.667 0 85.667 -12.333 117 -37s49.333 -57.334 54 -98.001h-61z" />
    <glyph glyph-name="ordfeminine" unicode="&#xaa;" horiz-adv-x="709" 
d="M144 407c0 74 26.668 140.002 80.001 198.002c57.333 62 128 93 212 93c47.333 0 93 -12.667 137 -38c29.333 -16.667 51.333 -34.334 66 -53.001l7 1c5.33301 30.667 12.666 58 21.999 82c-73.333 32 -149.333 48 -228 48c-117.333 0 -212.333 -32.333 -285 -97
c-76.667 -68 -115 -160.333 -115 -277s33.167 -208.834 99.5 -276.501s157.5 -101.5 273.5 -101.5c44 0 87.333 5 130 15s77.667 25.333 105 46c-2.66699 10 -5.5 22.5 -8.5 37.5s-5.16699 27.167 -6.5 36.5c-22 -24 -46.333 -43.667 -73 -59
c-42.667 -24 -88.667 -36 -138 -36c-84 0 -151.333 30.167 -202 90.5s-76 141.5 -76 243.5h231c24.667 0 51.5 -0.666992 80.5 -2s55.167 -2.33301 78.5 -3c-2 7.33301 -3 17 -3 29l3 28c-12.667 -1.33301 -32.667 -2.5 -60 -3.5s-60.333 -1.5 -99 -1.5h-231z" />
    <glyph glyph-name="guillemotleft" unicode="&#xab;" horiz-adv-x="449" 
d="M231 28l-22 -28l-171 250l171 250l22 -28l-125 -222zM429 28l-21 -28l-172 250l172 250l21 -28l-125 -222z" />
    <glyph glyph-name="logicalnot" unicode="&#xac;" horiz-adv-x="883" 
d="M752 444v-259h-50v207h-571v52h621z" />
    <glyph glyph-name="minus" unicode="&#xad;" horiz-adv-x="883" 
d="M752 341v-50h-621v50h621z" />
    <glyph glyph-name="registered" unicode="&#xae;" horiz-adv-x="883" 
d="M441 753c108.667 0 198.999 -37.001 270.999 -111.001s108 -163.333 108 -268c0 -105.333 -37.5 -194.833 -112.5 -268.5s-163.833 -110.5 -266.5 -110.5c-103.333 0 -192.166 36.833 -266.499 110.5s-111.5 163.167 -111.5 268.5c0 100.667 35.667 188.334 107 263.001
c74 77.333 164.333 116 271 116zM778.999 372.999c0 96.667 -33 177.333 -99 242s-145.667 97 -239 97c-92.667 0 -172 -33.667 -238 -101s-99 -146.333 -99 -237s33.5 -169.5 100.5 -236.5s145.833 -100.5 236.5 -100.5c90 0 168 31.333 234 94
c69.333 65.333 104 146 104 242zM452.999 598.998c120 0 180 -40.3311 180 -120.998c0 -30.667 -9.16699 -56.334 -27.5 -77.001s-43.5 -33.334 -75.5 -38.001l98 -201h-76l-92 192h-101v-192h-66v437h160zM358.999 554v-157h81c44.667 0 76.667 5.5 96 16.5
s29 31.167 29 60.5c0 28.667 -9.83301 49.167 -29.5 61.5s-51.5 18.5 -95.5 18.5h-81z" />
    <glyph glyph-name="macron" unicode="&#xaf;" horiz-adv-x="291" 
d="M195 725c-2 -23.333 -3.66699 -72.165 -5 -146.498s-2 -145.5 -2 -213.5c0 -54.667 0.166992 -117.834 0.5 -189.501s2.5 -130.167 6.5 -175.5c-14.667 2.66699 -31 4 -49 4s-34.333 -1.33301 -49 -4c2 23.333 3.66699 73 5 149s2 148 2 216
c0 54 -0.166992 116.167 -0.5 186.5s-2.5 128.166 -6.5 173.499c14.667 -2.66699 31 -4 49 -4s34.333 1.33301 49 4zM9 868.001c0 15.333 5 28.001 15 38.001s22.667 15 38 15c14.667 0 27.334 -5 38.001 -15s16 -22.667 16 -38c0 -14.667 -5.33301 -27.334 -16 -38.001
s-23.334 -16 -38.001 -16c-15.333 0 -28 5 -38 15s-15 23 -15 39zM171 868.002c0 15.333 5 28.001 15 38.001s22.667 15 38 15c14.667 0 27.334 -5 38.001 -15s16 -22.667 16 -38c0 -14.667 -5.33301 -27.334 -16 -38.001s-23.334 -16 -38.001 -16c-15.333 0 -28 5 -38 15
s-15 23 -15 39z" />
    <glyph glyph-name="degree" unicode="&#xb0;" horiz-adv-x="349" 
d="M175 751c40 0 73.834 -14.168 101.501 -42.501s41.5 -62.166 41.5 -101.499s-13.833 -73.166 -41.5 -101.499s-61.834 -42.5 -102.501 -42.5s-74.667 13.667 -102 41s-41 61.666 -41 102.999c0 40 14 74 42 102s62 42 102 42zM282.001 606.999
c0 29.333 -10.333 54.666 -31 75.999s-46 32 -76 32c-29.333 0 -54.666 -10.667 -75.999 -32s-32 -46.666 -32 -75.999c0 -30 10.667 -55.333 32 -76s46.666 -31 75.999 -31c30 0 55.333 10.333 76 31s31 46 31 76z" />
    <glyph glyph-name="plusminus" unicode="&#xb1;" horiz-adv-x="883" 
d="M467 605v-181h285v-50h-285v-180h-50v180h-286v50h286v181h50zM752 77v-50h-621v50h621z" />
    <glyph glyph-name="twosuperior" unicode="&#xb2;" horiz-adv-x="291" 
d="M195 725c-2 -23.333 -3.66699 -72.165 -5 -146.498s-2 -145.5 -2 -213.5c0 -54.667 0.166992 -117.834 0.5 -189.501s2.5 -130.167 6.5 -175.5c-14.667 2.66699 -31 4 -49 4s-34.333 -1.33301 -49 -4c2 23.333 3.66699 73 5 149s2 148 2 216
c0 54 -0.166992 116.167 -0.5 186.5s-2.5 128.166 -6.5 173.499c14.667 -2.66699 31 -4 49 -4s34.333 1.33301 49 4z" />
    <glyph glyph-name="threesuperior" unicode="&#xb3;" horiz-adv-x="262" 
d="M77 685c0 15.333 5 28.001 15 38.001s22.667 15 38 15c14.667 0 27.334 -5 38.001 -15s16 -22.667 16 -38c0 -14.667 -5.33301 -27.334 -16 -38.001s-23.334 -16 -38.001 -16c-15.333 0 -28 5 -38 15s-15 23 -15 39zM176 500.001
c0 -33.333 -0.833984 -78.001 -2.50098 -134.001s-2.5 -90.333 -2.5 -103c0 -40.667 0.833008 -92.5 2.5 -155.5s2.5 -98.833 2.5 -107.5c-5.33301 1.33301 -12.166 2.33301 -20.499 3s-16.5 1 -24.5 1c-16 0 -30.333 -1.33301 -43 -4c0 37.333 0.833008 87.333 2.5 150
s2.5 100.334 2.5 113.001c0 37.333 -0.333008 67.333 -1 90c-2.66699 91.333 -4 140.333 -4 147c12.667 -2.66699 27 -4 43 -4h23c10.667 2 18 3.33301 22 4z" />
    <glyph glyph-name="acute" unicode="&#xb4;" horiz-adv-x="530" 
d="M209 568h-35l150 155c10 10 18.833 17.5 26.5 22.5s15.5 7.5 23.5 7.5c12 0 21.333 -3.33301 28 -10s10 -15.667 10 -27c0 -14.667 -10.667 -28.667 -32 -42z" />
    <glyph glyph-name="mu" unicode="&#xb5;" horiz-adv-x="575" 
d="M106 550l72.999 0.000976562l-65 -307c-2 -9.33301 -4 -22 -6 -38s-3 -27.333 -3 -34c0 -40 10 -71 30 -93s49 -33 87 -33c88.667 0 148.667 72.333 180 217l63 288h72l-85 -399c-8 -35.333 -12 -58.333 -12 -69c0 -12 2.5 -21.167 7.5 -27.5s13.167 -9.5 24.5 -9.5l22 5
l-10 -58c-16 -4 -31 -6 -45 -6c-47.333 0 -71 25.333 -71 76v8c-14 -26.667 -34.333 -47.334 -61 -62.001s-57.667 -22 -93 -22c-65.333 0 -111.666 26.667 -138.999 80l-60 -288h-72z" />
    <glyph glyph-name="paragraph" unicode="&#xb6;" horiz-adv-x="530" 
d="M487 730l-67 0.000976562v-730h-42v730h-97v-730h-42v405c-60 0 -107.667 16.667 -143 50s-53 76.666 -53 129.999s18.5 96.833 55.5 130.5s86.5 50.5 148.5 50.5h240v-36z" />
    <glyph glyph-name="periodcentered" unicode="&#xb7;" horiz-adv-x="290" 
d="M91 352c0 15.333 5 28.001 15 38.001s22.667 15 38 15c14.667 0 27.334 -5 38.001 -15s16 -22.667 16 -38c0 -14.667 -5.33301 -27.334 -16 -38.001s-23.334 -16 -38.001 -16c-15.333 0 -28 5 -38 15s-15 23 -15 39z" />
    <glyph glyph-name="periodcentered" unicode="&#x2219;" horiz-adv-x="290" 
d="M91 352c0 15.333 5 28.001 15 38.001s22.667 15 38 15c14.667 0 27.334 -5 38.001 -15s16 -22.667 16 -38c0 -14.667 -5.33301 -27.334 -16 -38.001s-23.334 -16 -38.001 -16c-15.333 0 -28 5 -38 15s-15 23 -15 39z" />
    <glyph glyph-name="cedilla" unicode="&#xb8;" horiz-adv-x="536" 
d="M131 293l278.998 -0.000976562v18c0 52.667 -11.667 93.334 -35 122.001s-55.666 43 -96.999 43s-76.166 -16.5 -104.499 -49.5s-42.5 -77.5 -42.5 -133.5zM467.998 50.999c-54.667 -40.667 -114.669 -60.999 -180.002 -60.999c-74.667 0 -135 24 -181 72
s-69 110.333 -69 187c0 79.333 22.333 142.666 67 189.999s103.667 71 177 71c68 0 120.333 -19.667 157 -59s55 -96 55 -170v-25h-365c0 -73.333 15.333 -129 46 -167s74.667 -57 132 -57c60.667 0 115.334 24 164.001 72c-1.33301 -8 -2.16602 -18.167 -2.49902 -30.5
s-0.5 -19.833 -0.5 -22.5zM128.996 685c0 15.333 5 28.001 15 38.001s22.667 15 38 15c14.667 0 27.334 -5 38.001 -15s16 -22.667 16 -38c0 -14.667 -5.33301 -27.334 -16 -38.001s-23.334 -16 -38.001 -16c-15.333 0 -28 5 -38 15s-15 23 -15 39zM290.996 685.001
c0 15.333 5 28.001 15 38.001s22.667 15 38 15c14.667 0 27.334 -5 38.001 -15s16 -22.667 16 -38c0 -14.667 -5.33301 -27.334 -16 -38.001s-23.334 -16 -38.001 -16c-15.333 0 -28 5 -38 15s-15 23 -15 39z" />
    <glyph glyph-name="onesuperior" unicode="&#xb9;" horiz-adv-x="1101" 
d="M63 0c2 20.667 3.66699 97.999 5 231.999s2 265 2 393v113h20l183 -206l175 -185l163 -167l2 93c0 72.667 -0.833008 145.834 -2.5 219.501s-3.16699 151.167 -4.5 232.5c10 -2.66699 21 -4 33 -4s22.333 1.33301 31 4c0 -52 -1.16699 -134.833 -3.5 -248.5
s-3.5 -197.167 -3.5 -250.5l2 -240h-14c-32 40 -71.667 86.333 -119 139l-152 164l-257 270l-3 -138c0 -2 1.66699 -79 5 -231c1.33301 -60.667 2 -124 2 -190c-10.667 2.66699 -22 4 -34 4c-11.333 0 -21.333 -1.33301 -30 -4zM904 646.999c46 0 84 -15.667 114 -47
s45 -72.666 45 -123.999c0 -54.667 -15.667 -97.334 -47 -128.001s-72.333 -46 -123 -46c-46 0 -83 15.667 -111 47s-42 73.333 -42 126c0 50 15.5 91.167 46.5 123.5s70.167 48.5 117.5 48.5zM903 614.999c-26.667 0 -47.5 -12.168 -62.5 -36.501
s-22.5 -57.833 -22.5 -100.5c0 -51.333 6.66699 -88.166 20 -110.499s35 -33.5 65 -33.5c54.667 0 82 45.333 82 136c0 51.333 -6.16699 88.333 -18.5 111s-33.5 34 -63.5 34zM753 149.998v68h279v-68h-279z" />
    <glyph glyph-name="ordmasculine" unicode="&#xba;" horiz-adv-x="490" 
d="M121 276c0 63.333 16.1689 112.499 48.502 147.499s75.166 52.5 128.499 52.5c66 0 114 -33.333 144 -100c6.66699 32 16 62.333 28 91c-54.667 28.667 -112 43 -172 43c-79.333 0 -143 -23.667 -191 -71s-72 -110.666 -72 -189.999s22.667 -142.333 68 -189
s105.333 -70 180 -70c38 0 71.833 4.16699 101.5 12.5s56.167 21.5 79.5 39.5l-2 22l3 39c-50 -50.667 -103 -76 -159 -76c-54.667 0 -99.167 18.833 -133.5 56.5s-51.5 89.5 -51.5 155.5h102c23.333 0 45.333 -0.666992 66 -2s40.667 -3 60 -5v51
c-18.667 -1.33301 -40.834 -2.83301 -66.501 -4.5s-45.5 -2.5 -59.5 -2.5h-102z" />
    <glyph glyph-name="guillemotright" unicode="&#xbb;" horiz-adv-x="449" 
d="M18 472l22 28l171 -250l-171 -250l-22 28l125 222zM217 472l21 28l172 -250l-172 -250l-21 28l125 222z" />
    <glyph glyph-name="onequarter" unicode="&#xbc;" horiz-adv-x="346" 
d="M115 49c0 16.667 5.66699 30.667 17 42s25.333 17 42 17c16 0 29.667 -5.66699 41 -17s17 -25.333 17 -42c0 -16 -5.66699 -29.667 -17 -41s-25 -17 -41 -17c-16.667 0 -30.667 5.33301 -42 16s-17 24.667 -17 42zM115 417c0 16.667 5.66699 30.667 17 42
s25.333 17 42 17c16 0 29.667 -5.66699 41 -17s17 -25.333 17 -42c0 -16 -5.66699 -29.667 -17 -41s-25 -17 -41 -17c-16.667 0 -30.667 5.33301 -42 16s-17 24.667 -17 42zM28 202v63h297v-63h-297z" />
    <glyph glyph-name="onehalf" unicode="&#xbd;" horiz-adv-x="883" 
d="M683 521l-206 -206l202 -201l-36 -36l-201 202l-206 -206l-35 36l205 205l-202 203l35 35l203 -202l205 205z" />
    <glyph glyph-name="questiondown" unicode="&#xbf;" horiz-adv-x="262" 
d="M176 500c0 -33.333 -0.833984 -78.001 -2.50098 -134.001s-2.5 -90.333 -2.5 -103c0 -40.667 0.833008 -92.5 2.5 -155.5s2.5 -98.833 2.5 -107.5c-5.33301 1.33301 -12.166 2.33301 -20.499 3s-16.5 1 -24.5 1c-16 0 -30.333 -1.33301 -43 -4
c0 37.333 0.833008 87.333 2.5 150s2.5 100.334 2.5 113.001c0 37.333 -0.333008 67.333 -1 90c-2.66699 91.333 -4 140.333 -4 147c12.667 -2.66699 27 -4 43 -4h23c10.667 2 18 3.33301 22 4zM-4.00098 684.999c0 15.333 5 28.001 15 38.001s22.667 15 38 15
c14.667 0 27.334 -5 38.001 -15s16 -22.667 16 -38c0 -14.667 -5.33301 -27.334 -16 -38.001s-23.334 -16 -38.001 -16c-15.333 0 -28 5 -38 15s-15 23 -15 39zM157.999 685c0 15.333 5 28.001 15 38.001s22.667 15 38 15c14.667 0 27.334 -5 38.001 -15s16 -22.667 16 -38
c0 -14.667 -5.33301 -27.334 -16 -38.001s-23.334 -16 -38.001 -16c-15.333 0 -28 5 -38 15s-15 23 -15 39z" />
    <glyph glyph-name="Agrave" unicode="&#xc0;" horiz-adv-x="656" 
d="M-5 0l327.998 738.001h20l103 -254l103 -246l102 -238c-15.333 2.66699 -32.666 4 -51.999 4h-22.5c-5.66699 0 -16.167 -1.33301 -31.5 -4c-14 42.667 -27.333 80.667 -40 114c-16.667 44 -33.667 86.333 -51 127l-18 42l-130 2l-131 -2
c-9.33301 -20.667 -23.666 -55.334 -42.999 -104.001c-22.667 -57.333 -45 -117 -67 -179c-4 1.33301 -9.16699 2.33301 -15.5 3s-12.833 1 -19.5 1c-10 0 -17.833 -0.666992 -23.5 -2s-9.5 -2 -11.5 -2zM305.998 593.001l-113 -261l80 -2l142 2l-18 44z" />
    <glyph glyph-name="Agrave" unicode="&#x410;" horiz-adv-x="656" 
d="M-5 0l327.998 738.001h20l103 -254l103 -246l102 -238c-15.333 2.66699 -32.666 4 -51.999 4h-22.5c-5.66699 0 -16.167 -1.33301 -31.5 -4c-14 42.667 -27.333 80.667 -40 114c-16.667 44 -33.667 86.333 -51 127l-18 42l-130 2l-131 -2
c-9.33301 -20.667 -23.666 -55.334 -42.999 -104.001c-22.667 -57.333 -45 -117 -67 -179c-4 1.33301 -9.16699 2.33301 -15.5 3s-12.833 1 -19.5 1c-10 0 -17.833 -0.666992 -23.5 -2s-9.5 -2 -11.5 -2zM305.998 593.001l-113 -261l80 -2l142 2l-18 44z" />
    <glyph glyph-name="Aacute" unicode="&#xc1;" horiz-adv-x="629" 
d="M186 363l-3.00195 -103.998c0 -48.667 0.333008 -88.834 1 -120.501s2.33398 -61.834 5.00098 -90.501c27.333 -6 51.333 -9 72 -9c62.667 0 111.834 14.667 147.501 44s53.5 70 53.5 122c0 108.667 -68.333 163 -205 163c-6 0 -17.667 -0.833008 -35 -2.5
s-29.333 -2.5 -36 -2.5zM182.998 401.002l77.001 2.00195c103.333 0 180.333 -20 231 -60c42.667 -34 64 -80.667 64 -140c0 -138 -95.667 -207 -287 -207l-125 4c-10.667 0 -20.834 -0.166992 -30.501 -0.5s-19.5 -1.5 -29.5 -3.5c2 23.333 3.66699 73.5 5 150.5
s2 149.833 2 218.5c0 54 -0.166992 116.167 -0.5 186.5s-2.5 128.166 -6.5 173.499c13.333 0 43.333 -1 90 -3s78.334 -3 95.001 -3c15.333 0 58.666 0.666992 129.999 2s114.666 2 129.999 2l-3 -31l3 -31c-31.333 0 -63.333 1 -96 3c-97.333 6 -152 9 -164 9h-36.5
c-10.333 0 -24.166 -1 -41.499 -3c-2.66699 -27.333 -4.5 -57.333 -5.5 -90s-1.5 -92.334 -1.5 -179.001z" />
    <glyph glyph-name="Aacute" unicode="&#x411;" horiz-adv-x="629" 
d="M186 363l-3.00195 -103.998c0 -48.667 0.333008 -88.834 1 -120.501s2.33398 -61.834 5.00098 -90.501c27.333 -6 51.333 -9 72 -9c62.667 0 111.834 14.667 147.501 44s53.5 70 53.5 122c0 108.667 -68.333 163 -205 163c-6 0 -17.667 -0.833008 -35 -2.5
s-29.333 -2.5 -36 -2.5zM182.998 401.002l77.001 2.00195c103.333 0 180.333 -20 231 -60c42.667 -34 64 -80.667 64 -140c0 -138 -95.667 -207 -287 -207l-125 4c-10.667 0 -20.834 -0.166992 -30.501 -0.5s-19.5 -1.5 -29.5 -3.5c2 23.333 3.66699 73.5 5 150.5
s2 149.833 2 218.5c0 54 -0.166992 116.167 -0.5 186.5s-2.5 128.166 -6.5 173.499c13.333 0 43.333 -1 90 -3s78.334 -3 95.001 -3c15.333 0 58.666 0.666992 129.999 2s114.666 2 129.999 2l-3 -31l3 -31c-31.333 0 -63.333 1 -96 3c-97.333 6 -152 9 -164 9h-36.5
c-10.333 0 -24.166 -1 -41.499 -3c-2.66699 -27.333 -4.5 -57.333 -5.5 -90s-1.5 -92.334 -1.5 -179.001z" />
    <glyph glyph-name="Acircumflex" unicode="&#xc2;" horiz-adv-x="632" 
d="M187 361l-0.00195312 -104.998c0 -48 0.333008 -87.333 1 -118s2.33398 -60.334 5.00098 -89.001c27.333 -6 51.333 -9 72 -9c62.667 0 111.834 14.667 147.501 44s53.5 70 53.5 122c0 55.333 -16.667 95.666 -50 120.999s-85 38 -155 38zM277.998 725.002
c83.333 0 145.831 -12.832 187.498 -38.499s62.5 -67.167 62.5 -124.5c0 -46 -13.5 -83.667 -40.5 -113s-68.167 -49.333 -123.5 -60c132 -14 198 -72.333 198 -175c0 -70.667 -24 -124.667 -72 -162s-119.333 -56 -214 -56c-16 0 -38.667 0.666992 -68 2s-48.333 2 -57 2
c-9.33301 0 -18.166 -0.166992 -26.499 -0.5s-17.166 -1.5 -26.499 -3.5c2 23.333 3.66699 73.5 5 150.5s2 149.833 2 218.5c0 54 -0.166992 116.167 -0.5 186.5s-2.5 128.166 -6.5 173.499l52 -4c6 0 23.333 0.666992 52 2s54 2 76 2zM186.996 407.003l3 -0.999023
c8.66699 -1.33301 18.5 -2.33301 29.5 -3s21.167 -1 30.5 -1c63.333 0 109.5 12.833 138.5 38.5s43.5 64.167 43.5 115.5c0 44.667 -12.333 77.667 -37 99c-26.667 23.333 -68 35 -124 35c-20.667 0 -35 -0.333008 -43 -1c-15.333 -2.66699 -26.333 -4.33398 -33 -5.00098
c-2 -10 -3.83301 -32.333 -5.5 -67s-2.5 -57.667 -2.5 -69v-141z" />
    <glyph glyph-name="Acircumflex" unicode="&#x412;" horiz-adv-x="632" 
d="M187 361l-0.00195312 -104.998c0 -48 0.333008 -87.333 1 -118s2.33398 -60.334 5.00098 -89.001c27.333 -6 51.333 -9 72 -9c62.667 0 111.834 14.667 147.501 44s53.5 70 53.5 122c0 55.333 -16.667 95.666 -50 120.999s-85 38 -155 38zM277.998 725.002
c83.333 0 145.831 -12.832 187.498 -38.499s62.5 -67.167 62.5 -124.5c0 -46 -13.5 -83.667 -40.5 -113s-68.167 -49.333 -123.5 -60c132 -14 198 -72.333 198 -175c0 -70.667 -24 -124.667 -72 -162s-119.333 -56 -214 -56c-16 0 -38.667 0.666992 -68 2s-48.333 2 -57 2
c-9.33301 0 -18.166 -0.166992 -26.499 -0.5s-17.166 -1.5 -26.499 -3.5c2 23.333 3.66699 73.5 5 150.5s2 149.833 2 218.5c0 54 -0.166992 116.167 -0.5 186.5s-2.5 128.166 -6.5 173.499l52 -4c6 0 23.333 0.666992 52 2s54 2 76 2zM186.996 407.003l3 -0.999023
c8.66699 -1.33301 18.5 -2.33301 29.5 -3s21.167 -1 30.5 -1c63.333 0 109.5 12.833 138.5 38.5s43.5 64.167 43.5 115.5c0 44.667 -12.333 77.667 -37 99c-26.667 23.333 -68 35 -124 35c-20.667 0 -35 -0.333008 -43 -1c-15.333 -2.66699 -26.333 -4.33398 -33 -5.00098
c-2 -10 -3.83301 -32.333 -5.5 -67s-2.5 -57.667 -2.5 -69v-141z" />
    <glyph glyph-name="Atilde" unicode="&#xc3;" horiz-adv-x="522" 
d="M193 671c0 -16.667 -0.331055 -36.666 -0.998047 -59.999s-1.33398 -45.333 -2.00098 -66v-427c0 -34 0.5 -60 1.5 -78s2.83301 -31.333 5.5 -40c-14.667 2.66699 -31 4 -49 4s-34.333 -1.33301 -49 -4c2 23.333 3.66699 73 5 149s2 148 2 216
c0 54 -0.166992 116.167 -0.5 186.5s-2.5 128.166 -6.5 173.499c16 0 40.333 -0.833008 73 -2.5s55 -2.5 67 -2.5c25.333 0 68.166 0.833008 128.499 2.5s95.833 2.5 106.5 2.5l-2 -36l2 -34c-52.667 10.667 -138 16 -256 16h-25z" />
    <glyph glyph-name="Atilde" unicode="&#x413;" horiz-adv-x="522" 
d="M193 671c0 -16.667 -0.331055 -36.666 -0.998047 -59.999s-1.33398 -45.333 -2.00098 -66v-427c0 -34 0.5 -60 1.5 -78s2.83301 -31.333 5.5 -40c-14.667 2.66699 -31 4 -49 4s-34.333 -1.33301 -49 -4c2 23.333 3.66699 73 5 149s2 148 2 216
c0 54 -0.166992 116.167 -0.5 186.5s-2.5 128.166 -6.5 173.499c16 0 40.333 -0.833008 73 -2.5s55 -2.5 67 -2.5c25.333 0 68.166 0.833008 128.499 2.5s95.833 2.5 106.5 2.5l-2 -36l2 -34c-52.667 10.667 -138 16 -256 16h-25z" />
    <glyph glyph-name="Adieresis" unicode="&#xc4;" horiz-adv-x="771" 
d="M71 50l100 226.001l119 275c41.333 97.333 67 159.666 77 186.999h38l288 -688h59c-2 -14.667 -3.66699 -39.5 -5 -74.5s-2 -66.167 -2 -93.5h-9c-22.667 56 -43.834 89.667 -63.501 101s-62.167 17 -127.5 17h-325c-65.333 0 -108.5 -6.5 -129.5 -19.5
s-42.167 -45.833 -63.5 -98.5h-9v22c0 20.667 -0.166992 44.167 -0.5 70.5s-2.16602 51.5 -5.49902 75.5h59zM593 50.001l-225 560c-44 -94 -83 -182 -117 -264c-40.667 -97.333 -78 -196 -112 -296h454z" />
    <glyph glyph-name="Adieresis" unicode="&#x414;" horiz-adv-x="771" 
d="M71 50l100 226.001l119 275c41.333 97.333 67 159.666 77 186.999h38l288 -688h59c-2 -14.667 -3.66699 -39.5 -5 -74.5s-2 -66.167 -2 -93.5h-9c-22.667 56 -43.834 89.667 -63.501 101s-62.167 17 -127.5 17h-325c-65.333 0 -108.5 -6.5 -129.5 -19.5
s-42.167 -45.833 -63.5 -98.5h-9v22c0 20.667 -0.166992 44.167 -0.5 70.5s-2.16602 51.5 -5.49902 75.5h59zM593 50.001l-225 560c-44 -94 -83 -182 -117 -264c-40.667 -97.333 -78 -196 -112 -296h454z" />
    <glyph glyph-name="Aring" unicode="&#xc5;" horiz-adv-x="525" 
d="M189 362l0.00292969 -52c0 -23.333 1 -68.333 3 -135s3 -108.667 3 -126h22c29.333 0 68.333 1 117 3s94.667 5 138 9l-1 -32l1 -33c-13.333 1.33301 -38.5 2.33301 -75.5 3s-72.5 1 -106.5 1h-192c2 23.333 3.66699 73.333 5 150s2 149 2 217
c0 143.333 -0.333008 229.833 -1 259.5s-2.66699 62.5 -6 98.5c16 0 40.333 -0.833008 73 -2.5s55 -2.5 67 -2.5c25.333 0 68.166 0.833008 128.499 2.5s95.833 2.5 106.5 2.5l-2 -36l2 -34c-52.667 10.667 -138 16 -256 16h-25c0 -16.667 -0.333008 -36.667 -1 -60
s-1.33398 -45.333 -2.00098 -66v-138h84c14.667 0 43.667 1 87 3s74.666 3 93.999 3l-2 -30l2 -30c-62.667 6 -123 9 -181 9h-84z" />
    <glyph glyph-name="Aring" unicode="&#x415;" horiz-adv-x="525" 
d="M189 362l0.00292969 -52c0 -23.333 1 -68.333 3 -135s3 -108.667 3 -126h22c29.333 0 68.333 1 117 3s94.667 5 138 9l-1 -32l1 -33c-13.333 1.33301 -38.5 2.33301 -75.5 3s-72.5 1 -106.5 1h-192c2 23.333 3.66699 73.333 5 150s2 149 2 217
c0 143.333 -0.333008 229.833 -1 259.5s-2.66699 62.5 -6 98.5c16 0 40.333 -0.833008 73 -2.5s55 -2.5 67 -2.5c25.333 0 68.166 0.833008 128.499 2.5s95.833 2.5 106.5 2.5l-2 -36l2 -34c-52.667 10.667 -138 16 -256 16h-25c0 -16.667 -0.333008 -36.667 -1 -60
s-1.33398 -45.333 -2.00098 -66v-138h84c14.667 0 43.667 1 87 3s74.666 3 93.999 3l-2 -30l2 -30c-62.667 6 -123 9 -181 9h-84z" />
    <glyph glyph-name="AE" unicode="&#xc6;" horiz-adv-x="980" 
d="M535 725c0 -7.33301 -1.1709 -36.668 -3.50391 -88.001s-3.5 -91.666 -3.5 -120.999v-127l6 -4c26 0 133.333 113.333 322 340c6.66699 -1.33301 14.334 -2.33301 23.001 -3s17 -1 25 -1c17.333 0 33 1.33301 47 4c-22 -16.667 -55.667 -47.334 -101 -92.001l-80 -79
l-155 -154c25.333 -32 59.666 -72.333 102.999 -121l121 -133l131 -147c-23.333 3.33301 -44 5 -62 5c-12.667 0 -22.334 -0.333008 -29.001 -1s-17 -2 -31 -4c-42.667 59.333 -84 114 -124 164l-122 150c-13.333 16.667 -26.166 29.5 -38.499 38.5
s-24.166 13.5 -35.499 13.5v-93c0 -38 0.166992 -81.333 0.5 -130s2.5 -96 6.5 -142c-6.66699 1.33301 -14.334 2.33301 -23.001 3s-17 1 -25 1h-30c-9.33301 -2 -16 -3.33301 -20 -4c2 23.333 3.66699 63 5 119s2 107.333 2 154v92c-10.667 0 -22.167 -4.66699 -34.5 -14
s-25.166 -22 -38.499 -38l-122 -150c-40 -50 -81.333 -104.667 -124 -164c-18 2.66699 -31.333 4.16699 -40 4.5s-15.334 0.5 -20.001 0.5c-18 0 -38.667 -1.66699 -62 -5l131 146l121 133c38 42.667 72.333 83.334 103 122.001l-155 154l-79 78
c-45.333 44 -79.666 75 -102.999 93c6.66699 -1.33301 14.334 -2.33301 23.001 -3s17 -1 25 -1c18 0 34 1.33301 48 4c188.667 -226.667 296 -340 322 -340l5 4c0 55.333 -1.16699 122.333 -3.5 201s-3.5 123.667 -3.5 135c6.66699 -1.33301 14.834 -2.33301 24.501 -3
s17.834 -1 24.501 -1c18 0 34.333 1.33301 49 4z" />
    <glyph glyph-name="AE" unicode="&#x416;" horiz-adv-x="980" 
d="M535 725c0 -7.33301 -1.1709 -36.668 -3.50391 -88.001s-3.5 -91.666 -3.5 -120.999v-127l6 -4c26 0 133.333 113.333 322 340c6.66699 -1.33301 14.334 -2.33301 23.001 -3s17 -1 25 -1c17.333 0 33 1.33301 47 4c-22 -16.667 -55.667 -47.334 -101 -92.001l-80 -79
l-155 -154c25.333 -32 59.666 -72.333 102.999 -121l121 -133l131 -147c-23.333 3.33301 -44 5 -62 5c-12.667 0 -22.334 -0.333008 -29.001 -1s-17 -2 -31 -4c-42.667 59.333 -84 114 -124 164l-122 150c-13.333 16.667 -26.166 29.5 -38.499 38.5
s-24.166 13.5 -35.499 13.5v-93c0 -38 0.166992 -81.333 0.5 -130s2.5 -96 6.5 -142c-6.66699 1.33301 -14.334 2.33301 -23.001 3s-17 1 -25 1h-30c-9.33301 -2 -16 -3.33301 -20 -4c2 23.333 3.66699 63 5 119s2 107.333 2 154v92c-10.667 0 -22.167 -4.66699 -34.5 -14
s-25.166 -22 -38.499 -38l-122 -150c-40 -50 -81.333 -104.667 -124 -164c-18 2.66699 -31.333 4.16699 -40 4.5s-15.334 0.5 -20.001 0.5c-18 0 -38.667 -1.66699 -62 -5l131 146l121 133c38 42.667 72.333 83.334 103 122.001l-155 154l-79 78
c-45.333 44 -79.666 75 -102.999 93c6.66699 -1.33301 14.334 -2.33301 23.001 -3s17 -1 25 -1c18 0 34 1.33301 48 4c188.667 -226.667 296 -340 322 -340l5 4c0 55.333 -1.16699 122.333 -3.5 201s-3.5 123.667 -3.5 135c6.66699 -1.33301 14.834 -2.33301 24.501 -3
s17.834 -1 24.501 -1c18 0 34.333 1.33301 49 4z" />
    <glyph glyph-name="Ccedilla" unicode="&#xc7;" horiz-adv-x="633" 
d="M280 362l-95.001 -2.99902c2.66699 5.33301 4 13 4 23c0 9.33301 -1.33301 16.666 -4 21.999l83 -2c52.667 0 92.5 14.167 119.5 42.5s40.5 64.833 40.5 109.5c0 40.667 -9.33301 73.334 -28 98.001c-23.333 30.667 -59.666 46 -108.999 46
c-42.667 0 -79 -7.5 -109 -22.5s-52.667 -36.167 -68 -63.5l-34 60c24 21.333 55 37.666 93 48.999s79.333 17 124 17c71.333 0 128.5 -15.667 171.5 -47s64.5 -76.333 64.5 -135c0 -86.667 -56.333 -143.334 -169 -170.001c60 0 109.833 -16.833 149.5 -50.5
s59.5 -77.5 59.5 -131.5c0 -72.667 -24.833 -127.167 -74.5 -163.5s-121.167 -54.5 -214.5 -54.5c-43.333 0 -86.333 5 -129 15s-78.667 25.333 -108 46c4 9.33301 7.5 21 10.5 35s5.16699 27.333 6.5 40c18.667 -25.333 48.834 -47.666 90.501 -66.999
s82.167 -29 121.5 -29c60 0 106.167 15.5 138.5 46.5s48.5 74.5 48.5 130.5c0 48 -16.333 86.5 -49 115.5s-77.334 43.5 -134.001 43.5z" />
    <glyph glyph-name="Ccedilla" unicode="&#x417;" horiz-adv-x="633" 
d="M280 362l-95.001 -2.99902c2.66699 5.33301 4 13 4 23c0 9.33301 -1.33301 16.666 -4 21.999l83 -2c52.667 0 92.5 14.167 119.5 42.5s40.5 64.833 40.5 109.5c0 40.667 -9.33301 73.334 -28 98.001c-23.333 30.667 -59.666 46 -108.999 46
c-42.667 0 -79 -7.5 -109 -22.5s-52.667 -36.167 -68 -63.5l-34 60c24 21.333 55 37.666 93 48.999s79.333 17 124 17c71.333 0 128.5 -15.667 171.5 -47s64.5 -76.333 64.5 -135c0 -86.667 -56.333 -143.334 -169 -170.001c60 0 109.833 -16.833 149.5 -50.5
s59.5 -77.5 59.5 -131.5c0 -72.667 -24.833 -127.167 -74.5 -163.5s-121.167 -54.5 -214.5 -54.5c-43.333 0 -86.333 5 -129 15s-78.667 25.333 -108 46c4 9.33301 7.5 21 10.5 35s5.16699 27.333 6.5 40c18.667 -25.333 48.834 -47.666 90.501 -66.999
s82.167 -29 121.5 -29c60 0 106.167 15.5 138.5 46.5s48.5 74.5 48.5 130.5c0 48 -16.333 86.5 -49 115.5s-77.334 43.5 -134.001 43.5z" />
    <glyph glyph-name="Egrave" unicode="&#xc8;" horiz-adv-x="826" 
d="M636 593l-495.001 -593.001c-4 2.66699 -8.66699 4 -14 4l-15 -4c2 23.333 3.66699 73 5 149s2 148 2 216c0 54 -0.166992 116.167 -0.5 186.5s-2.5 128.166 -6.5 173.499c14.667 -2.66699 31 -4 49 -4s34.333 1.33301 49 4c0 -7.33301 -1.16699 -36.666 -3.5 -87.999
s-3.5 -91.666 -3.5 -120.999c0 -62.667 0.5 -118.5 1.5 -167.5s2.5 -105.5 4.5 -169.5l462 545l28 -3c12.667 0 23.334 1.33301 32.001 4c-2 -23.333 -3.66699 -72.166 -5 -146.499s-2 -145.5 -2 -213.5c0 -54.667 0.166992 -117.834 0.5 -189.501s2.5 -130.167 6.5 -175.5
c-14.667 2.66699 -31 4 -49 4s-34.333 -1.33301 -49 -4l5 168.5c1.33301 47 2 96.167 2 147.5c0 40 -0.5 83.5 -1.5 130.5s-1.83301 95.833 -2.5 146.5z" />
    <glyph glyph-name="Egrave" unicode="&#x418;" horiz-adv-x="826" 
d="M636 593l-495.001 -593.001c-4 2.66699 -8.66699 4 -14 4l-15 -4c2 23.333 3.66699 73 5 149s2 148 2 216c0 54 -0.166992 116.167 -0.5 186.5s-2.5 128.166 -6.5 173.499c14.667 -2.66699 31 -4 49 -4s34.333 1.33301 49 4c0 -7.33301 -1.16699 -36.666 -3.5 -87.999
s-3.5 -91.666 -3.5 -120.999c0 -62.667 0.5 -118.5 1.5 -167.5s2.5 -105.5 4.5 -169.5l462 545l28 -3c12.667 0 23.334 1.33301 32.001 4c-2 -23.333 -3.66699 -72.166 -5 -146.499s-2 -145.5 -2 -213.5c0 -54.667 0.166992 -117.834 0.5 -189.501s2.5 -130.167 6.5 -175.5
c-14.667 2.66699 -31 4 -49 4s-34.333 -1.33301 -49 -4l5 168.5c1.33301 47 2 96.167 2 147.5c0 40 -0.5 83.5 -1.5 130.5s-1.83301 95.833 -2.5 146.5z" />
    <glyph glyph-name="Eacute" unicode="&#xc9;" horiz-adv-x="826" 
d="M636 593l-495.001 -593.001c-3.33301 2.66699 -8 4 -14 4c-5.33301 0 -10.333 -1.33301 -15 -4c2 23.333 3.66699 73 5 149s2 148 2 216c0 54 -0.166992 116.167 -0.5 186.5s-2.5 128.166 -6.5 173.499c14.667 -2.66699 31 -4 49 -4s34.333 1.33301 49 4
c0 -7.33301 -1.16699 -36.666 -3.5 -87.999s-3.5 -91.666 -3.5 -120.999c0 -62.667 0.5 -118.5 1.5 -167.5s2.5 -105.5 4.5 -169.5l462 545l28 -3c12.667 0 23.334 1.33301 32.001 4c-2 -23.333 -3.66699 -72.166 -5 -146.499s-2 -145.5 -2 -213.5
c0 -54.667 0.166992 -117.834 0.5 -189.501s2.5 -130.167 6.5 -175.5c-14.667 2.66699 -31 4 -49 4s-34.333 -1.33301 -49 -4l5 168.5c1.33301 47 2 96.167 2 147.5c0 40 -0.5 83.5 -1.5 130.5s-1.83301 95.833 -2.5 146.5zM622.999 928.999
c-17.333 -76.667 -60.666 -115.001 -129.999 -115.001c-18.667 0 -51.334 5.33301 -98.001 16c-23.333 5.33301 -42 8 -56 8c-18.667 0 -32.5 -3.66699 -41.5 -11s-16.833 -20.666 -23.5 -39.999h-34c15.333 80 59 120 131 120c11.333 0 37.333 -4.66699 78 -14
s65.667 -14 75 -14c16 0 29 4 39 12s18.333 20.667 25 38h35z" />
    <glyph glyph-name="Eacute" unicode="&#x419;" horiz-adv-x="826" 
d="M636 593l-495.001 -593.001c-3.33301 2.66699 -8 4 -14 4c-5.33301 0 -10.333 -1.33301 -15 -4c2 23.333 3.66699 73 5 149s2 148 2 216c0 54 -0.166992 116.167 -0.5 186.5s-2.5 128.166 -6.5 173.499c14.667 -2.66699 31 -4 49 -4s34.333 1.33301 49 4
c0 -7.33301 -1.16699 -36.666 -3.5 -87.999s-3.5 -91.666 -3.5 -120.999c0 -62.667 0.5 -118.5 1.5 -167.5s2.5 -105.5 4.5 -169.5l462 545l28 -3c12.667 0 23.334 1.33301 32.001 4c-2 -23.333 -3.66699 -72.166 -5 -146.499s-2 -145.5 -2 -213.5
c0 -54.667 0.166992 -117.834 0.5 -189.501s2.5 -130.167 6.5 -175.5c-14.667 2.66699 -31 4 -49 4s-34.333 -1.33301 -49 -4l5 168.5c1.33301 47 2 96.167 2 147.5c0 40 -0.5 83.5 -1.5 130.5s-1.83301 95.833 -2.5 146.5zM622.999 928.999
c-17.333 -76.667 -60.666 -115.001 -129.999 -115.001c-18.667 0 -51.334 5.33301 -98.001 16c-23.333 5.33301 -42 8 -56 8c-18.667 0 -32.5 -3.66699 -41.5 -11s-16.833 -20.666 -23.5 -39.999h-34c15.333 80 59 120 131 120c11.333 0 37.333 -4.66699 78 -14
s65.667 -14 75 -14c16 0 29 4 39 12s18.333 20.667 25 38h35z" />
    <glyph glyph-name="Ecircumflex" unicode="&#xca;" horiz-adv-x="634" 
d="M191 386c32.667 0 143.333 113 332 339c13.333 -2.66699 29 -4 47 -4c21.333 0 37.333 1.33301 48 4c-23.333 -18 -56.666 -48.333 -99.999 -91l-79 -79l-155 -154c26.667 -34 60 -74.333 100 -121l116 -133l128 -147c-18.667 2.66699 -39.334 4 -62.001 4h-26
c-6.66699 0 -18 -1.33301 -34 -4c-42.667 59.333 -84 114 -124 164l-122 150c-28 34.667 -52.667 52 -74 52v-126c0 -28 1.16699 -70 3.5 -126s3.5 -94 3.5 -114c-14.667 2.66699 -31 4 -49 4s-34.333 -1.33301 -49 -4c2 23.333 3.66699 73 5 149s2 148 2 216
c0 54 -0.166992 116.167 -0.5 186.5s-2.5 128.166 -6.5 173.499c14.667 -2.66699 31 -4 49 -4s34.333 1.33301 49 4c-2 -22.667 -3.66699 -48.5 -5 -77.5s-2 -60.833 -2 -95.5v-162c0 -1.33301 1.66699 -2.66602 5 -3.99902z" />
    <glyph glyph-name="Ecircumflex" unicode="&#x41a;" horiz-adv-x="634" 
d="M191 386c32.667 0 143.333 113 332 339c13.333 -2.66699 29 -4 47 -4c21.333 0 37.333 1.33301 48 4c-23.333 -18 -56.666 -48.333 -99.999 -91l-79 -79l-155 -154c26.667 -34 60 -74.333 100 -121l116 -133l128 -147c-18.667 2.66699 -39.334 4 -62.001 4h-26
c-6.66699 0 -18 -1.33301 -34 -4c-42.667 59.333 -84 114 -124 164l-122 150c-28 34.667 -52.667 52 -74 52v-126c0 -28 1.16699 -70 3.5 -126s3.5 -94 3.5 -114c-14.667 2.66699 -31 4 -49 4s-34.333 -1.33301 -49 -4c2 23.333 3.66699 73 5 149s2 148 2 216
c0 54 -0.166992 116.167 -0.5 186.5s-2.5 128.166 -6.5 173.499c14.667 -2.66699 31 -4 49 -4s34.333 1.33301 49 4c-2 -22.667 -3.66699 -48.5 -5 -77.5s-2 -60.833 -2 -95.5v-162c0 -1.33301 1.66699 -2.66602 5 -3.99902z" />
    <glyph glyph-name="Edieresis" unicode="&#xcb;" horiz-adv-x="688" 
d="M83 0c-11.333 2.66699 -24.3359 4 -39.0029 4l-39 -4c10 19.333 39.667 83.666 89 192.999l139 313c48.667 114.667 79.334 192 92.001 232h41l75 -183l138 -329c52 -123.333 85.333 -198.666 100 -225.999c-13.333 1.33301 -23.666 2.33301 -30.999 3s-14 1 -20 1
c-8.66699 0 -16.667 -0.333008 -24 -1s-16.666 -1.66699 -27.999 -3l-241 610h-10l-136 -328.5c-44 -107.667 -79.333 -201.5 -106 -281.5z" />
    <glyph glyph-name="Edieresis" unicode="&#x41b;" horiz-adv-x="688" 
d="M83 0c-11.333 2.66699 -24.3359 4 -39.0029 4l-39 -4c10 19.333 39.667 83.666 89 192.999l139 313c48.667 114.667 79.334 192 92.001 232h41l75 -183l138 -329c52 -123.333 85.333 -198.666 100 -225.999c-13.333 1.33301 -23.666 2.33301 -30.999 3s-14 1 -20 1
c-8.66699 0 -16.667 -0.333008 -24 -1s-16.666 -1.66699 -27.999 -3l-241 610h-10l-136 -328.5c-44 -107.667 -79.333 -201.5 -106 -281.5z" />
    <glyph glyph-name="Igrave" unicode="&#xcc;" horiz-adv-x="930" 
d="M37 0c13.333 57.333 29.667 152.001 49 284.001s39.666 283.333 60.999 454h18l150 -298l147 -278l314 576h14l24 -232l28 -246l32 -260c-6.66699 1.33301 -14.334 2.33301 -23.001 3s-17 1 -25 1c-18 0 -34 -1.33301 -48 -4c0 86 -3.33301 164.333 -10 235
s-14.667 133.667 -24 189c-2 12.667 -9 47.667 -21 105c-46.667 -78 -91 -156.333 -133 -235c-32 -60 -61.667 -119.333 -89 -178c-23.333 -50.667 -39.666 -89.334 -48.999 -116.001h-15c-8.66699 31.333 -22 66 -40 104c-15.333 33.333 -35.666 73 -60.999 119l-165 305
c-16 -111.333 -28.667 -217 -38 -317s-14 -170.333 -14 -211c-11.333 2.66699 -24.333 4 -39 4h-26c-8 -2 -13.667 -3.33301 -17 -4z" />
    <glyph glyph-name="Igrave" unicode="&#x41c;" horiz-adv-x="930" 
d="M37 0c13.333 57.333 29.667 152.001 49 284.001s39.666 283.333 60.999 454h18l150 -298l147 -278l314 576h14l24 -232l28 -246l32 -260c-6.66699 1.33301 -14.334 2.33301 -23.001 3s-17 1 -25 1c-18 0 -34 -1.33301 -48 -4c0 86 -3.33301 164.333 -10 235
s-14.667 133.667 -24 189c-2 12.667 -9 47.667 -21 105c-46.667 -78 -91 -156.333 -133 -235c-32 -60 -61.667 -119.333 -89 -178c-23.333 -50.667 -39.666 -89.334 -48.999 -116.001h-15c-8.66699 31.333 -22 66 -40 104c-15.333 33.333 -35.666 73 -60.999 119l-165 305
c-16 -111.333 -28.667 -217 -38 -317s-14 -170.333 -14 -211c-11.333 2.66699 -24.333 4 -39 4h-26c-8 -2 -13.667 -3.33301 -17 -4z" />
    <glyph glyph-name="Iacute" unicode="&#xcd;" horiz-adv-x="812" 
d="M195 725c-2 -14.667 -3.66699 -48.666 -5 -101.999s-2 -109.666 -2 -168.999v-39c7.33301 -0.666992 30.833 -1.33398 70.5 -2.00098s89.5 -1 149.5 -1l218 2v40c0 30 -0.666992 63 -2 99c-3.33301 89.333 -5 146.666 -5 171.999c14.667 -2.66699 31 -4 49 -4
s34.333 1.33301 49 4c-2 -23.333 -3.66699 -72.166 -5 -146.499s-2 -145.5 -2 -213.5c0 -54.667 0.166992 -117.834 0.5 -189.501s2.5 -130.167 6.5 -175.5c-14.667 2.66699 -31 4 -49 4s-34.333 -1.33301 -49 -4l5 168.5c1.33301 47 2 96.167 2 147.5v50
c-8.66699 0.666992 -37.334 1.33398 -86.001 2.00098s-92.667 1 -132 1c-41.333 0 -79.666 -0.5 -114.999 -1.5s-70.333 -1.83301 -105 -2.5v-48c0 -52.667 0.166992 -111 0.5 -175s2.5 -111.333 6.5 -142c-14.667 2.66699 -31 4 -49 4s-34.333 -1.33301 -49 -4
c2 23.333 3.66699 73 5 149s2 148 2 216c0 54 -0.166992 116.167 -0.5 186.5s-2.5 128.166 -6.5 173.499c14.667 -2.66699 31 -4 49 -4s34.333 1.33301 49 4z" />
    <glyph glyph-name="Iacute" unicode="&#x41d;" horiz-adv-x="812" 
d="M195 725c-2 -14.667 -3.66699 -48.666 -5 -101.999s-2 -109.666 -2 -168.999v-39c7.33301 -0.666992 30.833 -1.33398 70.5 -2.00098s89.5 -1 149.5 -1l218 2v40c0 30 -0.666992 63 -2 99c-3.33301 89.333 -5 146.666 -5 171.999c14.667 -2.66699 31 -4 49 -4
s34.333 1.33301 49 4c-2 -23.333 -3.66699 -72.166 -5 -146.499s-2 -145.5 -2 -213.5c0 -54.667 0.166992 -117.834 0.5 -189.501s2.5 -130.167 6.5 -175.5c-14.667 2.66699 -31 4 -49 4s-34.333 -1.33301 -49 -4l5 168.5c1.33301 47 2 96.167 2 147.5v50
c-8.66699 0.666992 -37.334 1.33398 -86.001 2.00098s-92.667 1 -132 1c-41.333 0 -79.666 -0.5 -114.999 -1.5s-70.333 -1.83301 -105 -2.5v-48c0 -52.667 0.166992 -111 0.5 -175s2.5 -111.333 6.5 -142c-14.667 2.66699 -31 4 -49 4s-34.333 -1.33301 -49 -4
c2 23.333 3.66699 73 5 149s2 148 2 216c0 54 -0.166992 116.167 -0.5 186.5s-2.5 128.166 -6.5 173.499c14.667 -2.66699 31 -4 49 -4s34.333 1.33301 49 4z" />
    <glyph glyph-name="Icircumflex" unicode="&#xce;" horiz-adv-x="870" 
d="M435 -14c-121.333 0 -216.833 33.5 -286.5 100.5s-104.5 158.5 -104.5 274.5c0 114 35.667 205.333 107 274s166 103 284 103c120.667 0 215.834 -33.833 285.501 -101.5s104.5 -159.5 104.5 -275.5c0 -112 -35.833 -202.5 -107.5 -271.5
s-165.834 -103.5 -282.501 -103.5zM435 26c90.667 0 160.832 29 210.499 87s74.5 141 74.5 249c0 110 -24.167 193.5 -72.5 250.5s-119.166 85.5 -212.499 85.5c-90.667 0 -161 -29.333 -211 -88s-75 -142.667 -75 -252c0 -106.667 24.667 -188.667 74 -246s120 -86 212 -86
z" />
    <glyph glyph-name="Icircumflex" unicode="&#x41e;" horiz-adv-x="870" 
d="M435 -14c-121.333 0 -216.833 33.5 -286.5 100.5s-104.5 158.5 -104.5 274.5c0 114 35.667 205.333 107 274s166 103 284 103c120.667 0 215.834 -33.833 285.501 -101.5s104.5 -159.5 104.5 -275.5c0 -112 -35.833 -202.5 -107.5 -271.5
s-165.834 -103.5 -282.501 -103.5zM435 26c90.667 0 160.832 29 210.499 87s74.5 141 74.5 249c0 110 -24.167 193.5 -72.5 250.5s-119.166 85.5 -212.499 85.5c-90.667 0 -161 -29.333 -211 -88s-75 -142.667 -75 -252c0 -106.667 24.667 -188.667 74 -246s120 -86 212 -86
z" />
    <glyph glyph-name="Idieresis" unicode="&#xcf;" horiz-adv-x="826" 
d="M190 656c0 -47.333 -0.332031 -102.164 -0.999023 -164.497s-1.33398 -120.5 -2.00098 -174.5c0 -46 0.833008 -98.667 2.5 -158l4.5 -159c-14.667 2.66699 -31 4 -49 4s-34.333 -1.33301 -49 -4c2 23.333 3.66699 73 5 149s2 148 2 216
c0 54 -0.166992 116.167 -0.5 186.5s-2.5 128.166 -6.5 173.499c11.333 -1.33301 50.833 -2.33301 118.5 -3s129.834 -1 186.501 -1c40 0 88.167 0.333008 144.5 1s114.833 1.66699 175.5 3c-2 -23.333 -3.66699 -72.166 -5 -146.499s-2 -145.5 -2 -213.5
c0 -54.667 0.166992 -117.834 0.5 -189.501s2.5 -130.167 6.5 -175.5c-14.667 2.66699 -31 4 -49 4s-34.333 -1.33301 -49 -4c2 23.333 3.66699 67.166 5 131.499s2 126.166 2 185.499v46v45v41v36v30v26v21v17v14v12c0 26.667 -1 43.667 -3 51
c-38.667 0 -76.167 0.333008 -112.5 1s-69.5 1.33398 -99.5 2.00098c-42.667 0 -82.834 -0.333008 -120.501 -1s-72.5 -1.33398 -104.5 -2.00098z" />
    <glyph glyph-name="Idieresis" unicode="&#x41f;" horiz-adv-x="826" 
d="M190 656c0 -47.333 -0.332031 -102.164 -0.999023 -164.497s-1.33398 -120.5 -2.00098 -174.5c0 -46 0.833008 -98.667 2.5 -158l4.5 -159c-14.667 2.66699 -31 4 -49 4s-34.333 -1.33301 -49 -4c2 23.333 3.66699 73 5 149s2 148 2 216
c0 54 -0.166992 116.167 -0.5 186.5s-2.5 128.166 -6.5 173.499c11.333 -1.33301 50.833 -2.33301 118.5 -3s129.834 -1 186.501 -1c40 0 88.167 0.333008 144.5 1s114.833 1.66699 175.5 3c-2 -23.333 -3.66699 -72.166 -5 -146.499s-2 -145.5 -2 -213.5
c0 -54.667 0.166992 -117.834 0.5 -189.501s2.5 -130.167 6.5 -175.5c-14.667 2.66699 -31 4 -49 4s-34.333 -1.33301 -49 -4c2 23.333 3.66699 67.166 5 131.499s2 126.166 2 185.499v46v45v41v36v30v26v21v17v14v12c0 26.667 -1 43.667 -3 51
c-38.667 0 -76.167 0.333008 -112.5 1s-69.5 1.33398 -99.5 2.00098c-42.667 0 -82.834 -0.333008 -120.501 -1s-72.5 -1.33398 -104.5 -2.00098z" />
    <glyph glyph-name="Eth" unicode="&#xd0;" horiz-adv-x="583" 
d="M184 328l0.000976562 -149.001c0 -3.33301 1.66699 -36.666 5 -99.999c1.33301 -25.333 2 -51.666 2 -78.999c-14.667 2.66699 -31 4 -49 4s-34.333 -1.33301 -49 -4c2 23.333 3.66699 73 5 149s2 148 2 216c0 54 -0.166992 116.167 -0.5 186.5
s-2.5 128.166 -6.5 173.499l52 -4c18 0 49.667 0.666992 95 2s72.333 2 81 2c76.667 0 135.667 -16 177 -48s62 -77.333 62 -136c0 -68 -25.333 -120.833 -76 -158.5s-123.334 -56.5 -218.001 -56.5zM184.001 367.999l48 -1.99902c152 0 228 55.333 228 166
c0 55.333 -16.333 94.666 -49 117.999s-84.667 35 -156 35l-66 -3c0 -29.333 -0.833008 -70 -2.5 -122s-2.5 -84 -2.5 -96v-96z" />
    <glyph glyph-name="Eth" unicode="&#x420;" horiz-adv-x="583" 
d="M184 328l0.000976562 -149.001c0 -3.33301 1.66699 -36.666 5 -99.999c1.33301 -25.333 2 -51.666 2 -78.999c-14.667 2.66699 -31 4 -49 4s-34.333 -1.33301 -49 -4c2 23.333 3.66699 73 5 149s2 148 2 216c0 54 -0.166992 116.167 -0.5 186.5
s-2.5 128.166 -6.5 173.499l52 -4c18 0 49.667 0.666992 95 2s72.333 2 81 2c76.667 0 135.667 -16 177 -48s62 -77.333 62 -136c0 -68 -25.333 -120.833 -76 -158.5s-123.334 -56.5 -218.001 -56.5zM184.001 367.999l48 -1.99902c152 0 228 55.333 228 166
c0 55.333 -16.333 94.666 -49 117.999s-84.667 35 -156 35l-66 -3c0 -29.333 -0.833008 -70 -2.5 -122s-2.5 -84 -2.5 -96v-96z" />
    <glyph glyph-name="Ntilde" unicode="&#xd1;" horiz-adv-x="695" 
d="M651 45c-54 -39.333 -133.333 -58.999 -238 -58.999c-117.333 0 -208.333 32.667 -273 98s-97 157.666 -97 276.999c0 114 35.333 205.333 106 274s166.667 103 288 103c82.667 0 158.667 -17.333 228 -52c-11.333 -35.333 -17 -69 -17 -101
c-49.333 75.333 -121 113 -215 113c-88 0 -156.667 -29.333 -206 -88s-74 -142 -74 -250c0 -104 24.5 -185.667 73.5 -245s115.5 -89 199.5 -89c80.667 0 157.667 29.667 231 89z" />
    <glyph glyph-name="Ntilde" unicode="&#x421;" horiz-adv-x="695" 
d="M651 45c-54 -39.333 -133.333 -58.999 -238 -58.999c-117.333 0 -208.333 32.667 -273 98s-97 157.666 -97 276.999c0 114 35.333 205.333 106 274s166.667 103 288 103c82.667 0 158.667 -17.333 228 -52c-11.333 -35.333 -17 -69 -17 -101
c-49.333 75.333 -121 113 -215 113c-88 0 -156.667 -29.333 -206 -88s-74 -142 -74 -250c0 -104 24.5 -185.667 73.5 -245s115.5 -89 199.5 -89c80.667 0 157.667 29.667 231 89z" />
    <glyph glyph-name="Ograve" unicode="&#xd2;" horiz-adv-x="577" 
d="M331 675v-315c0 -54 0.166992 -116.167 0.5 -186.5s2.5 -128.166 6.5 -173.499c-14.667 2.66699 -31 4 -49 4s-34.333 -1.33301 -49 -4c2 23.333 3.66699 72.166 5 146.499s2 145.5 2 213.5v315h-31c-81.333 0 -146.333 -4.33301 -195 -13l2 30l-2 33
c22.667 0 71.667 -0.666992 147 -2s115.333 -2 120 -2c32 0 71.667 0.333008 119 1s97 1.66699 149 3l-3 -31c0 -13.333 1 -24 3 -32c-24 4.66699 -52.167 8 -84.5 10s-66.5 3 -102.5 3h-38z" />
    <glyph glyph-name="Ograve" unicode="&#x422;" horiz-adv-x="577" 
d="M331 675v-315c0 -54 0.166992 -116.167 0.5 -186.5s2.5 -128.166 6.5 -173.499c-14.667 2.66699 -31 4 -49 4s-34.333 -1.33301 -49 -4c2 23.333 3.66699 72.166 5 146.499s2 145.5 2 213.5v315h-31c-81.333 0 -146.333 -4.33301 -195 -13l2 30l-2 33
c22.667 0 71.667 -0.666992 147 -2s115.333 -2 120 -2c32 0 71.667 0.333008 119 1s97 1.66699 149 3l-3 -31c0 -13.333 1 -24 3 -32c-24 4.66699 -52.167 8 -84.5 10s-66.5 3 -102.5 3h-38z" />
    <glyph glyph-name="Oacute" unicode="&#xd3;" horiz-adv-x="709" 
d="M609 725c12 -2.66699 24.332 -4.00195 36.999 -4.00195l37 4c-11.333 -19.333 -45 -82.666 -101 -189.999l-159 -310c-55.333 -110 -92 -185 -110 -225l-38 4l-42 -4l70 115l25 45c-7.33301 16 -32.666 66.667 -75.999 152l-130 250
c-48 89.333 -79.667 143.666 -95 162.999l63 -4l59 4l74 -162l65.5 -133.5l83.5 -167.5l8 -3c9.33301 16.667 29 54.334 59 113.001l95 189c34 70.667 59 125.334 75 164.001z" />
    <glyph glyph-name="Oacute" unicode="&#x423;" horiz-adv-x="709" 
d="M609 725c12 -2.66699 24.332 -4.00195 36.999 -4.00195l37 4c-11.333 -19.333 -45 -82.666 -101 -189.999l-159 -310c-55.333 -110 -92 -185 -110 -225l-38 4l-42 -4l70 115l25 45c-7.33301 16 -32.666 66.667 -75.999 152l-130 250
c-48 89.333 -79.667 143.666 -95 162.999l63 -4l59 4l74 -162l65.5 -133.5l83.5 -167.5l8 -3c9.33301 16.667 29 54.334 59 113.001l95 189c34 70.667 59 125.334 75 164.001z" />
    <glyph glyph-name="Ocircumflex" unicode="&#xd4;" horiz-adv-x="943" 
d="M516 639c0 -28.667 -0.333984 -69.499 -1.00098 -122.499l-2 -154.5c0 -49.333 0.333008 -95.333 1 -138s1.33398 -82.334 2.00098 -119.001c80 0 146.167 25.833 198.5 77.5s78.5 114.5 78.5 188.5c0 73.333 -24 135.333 -72 186c-52 54.667 -120.333 82 -205 82z
M425.999 639.001c-84.667 0 -152.668 -26.333 -204.001 -79c-48.667 -50 -73 -113 -73 -189c0 -74.667 26 -137.667 78 -189s118.333 -77 199 -77c0 40 0.333008 82.667 1 128s1.33398 88.333 2.00098 129zM519.998 725.001l-2.99902 -46c119.333 0 213.333 -29 282 -87
c66 -55.333 99 -128.333 99 -219c0 -88 -33.333 -160.667 -100 -218c-70 -60 -163.667 -90 -281 -90l3 -65c-6 1.33301 -14 2.33301 -24 3s-18.333 1 -25 1l-49 -4l3 65c-118 0 -212 30 -282 90c-66 56.667 -99 128.667 -99 216c0 90.667 33 164 99 220
c69.333 58.667 163.333 88 282 88l-3 46c4 -1.33301 10.667 -2.33301 20 -3s19.666 -1 30.999 -1c8.66699 0 17.5 0.5 26.5 1.5s15.833 1.83301 20.5 2.5z" />
    <glyph glyph-name="Ocircumflex" unicode="&#x424;" horiz-adv-x="943" 
d="M516 639c0 -28.667 -0.333984 -69.499 -1.00098 -122.499l-2 -154.5c0 -49.333 0.333008 -95.333 1 -138s1.33398 -82.334 2.00098 -119.001c80 0 146.167 25.833 198.5 77.5s78.5 114.5 78.5 188.5c0 73.333 -24 135.333 -72 186c-52 54.667 -120.333 82 -205 82z
M425.999 639.001c-84.667 0 -152.668 -26.333 -204.001 -79c-48.667 -50 -73 -113 -73 -189c0 -74.667 26 -137.667 78 -189s118.333 -77 199 -77c0 40 0.333008 82.667 1 128s1.33398 88.333 2.00098 129zM519.998 725.001l-2.99902 -46c119.333 0 213.333 -29 282 -87
c66 -55.333 99 -128.333 99 -219c0 -88 -33.333 -160.667 -100 -218c-70 -60 -163.667 -90 -281 -90l3 -65c-6 1.33301 -14 2.33301 -24 3s-18.333 1 -25 1l-49 -4l3 65c-118 0 -212 30 -282 90c-66 56.667 -99 128.667 -99 216c0 90.667 33 164 99 220
c69.333 58.667 163.333 88 282 88l-3 46c4 -1.33301 10.667 -2.33301 20 -3s19.666 -1 30.999 -1c8.66699 0 17.5 0.5 26.5 1.5s15.833 1.83301 20.5 2.5z" />
    <glyph glyph-name="Otilde" unicode="&#xd5;" horiz-adv-x="593" 
d="M22 0l212.995 321.001l26 38l-19 34l-197 332c15.333 -2.66699 34 -4 56 -4c6.66699 0 14 0.166992 22 0.5s19 1.5 33 3.5c62 -120.667 107.333 -204 136 -250l24 -38l25 37c36.667 54 85.334 137.667 146.001 251c10.667 -2.66699 23.334 -4 38.001 -4
c4 0 9 0.166992 15 0.5s14 1.5 24 3.5l-97 -141c-36 -48 -59.667 -83 -71 -105l-38 -58l-18 -27l23 -37l216 -357c-8 1.33301 -17 2.33301 -27 3s-20 1 -30 1h-25c-6.66699 0 -18 -1.33301 -34 -4c-27.333 55.333 -52.666 103.666 -75.999 144.999l-75 129l-26 42l-25 -37
c-17.333 -24.667 -38.666 -58.667 -63.999 -102c-28 -48 -60.333 -107 -97 -177c-5.33301 1.33301 -11.5 2.33301 -18.5 3s-13.5 1 -19.5 1c-15.333 0 -28.666 -1.33301 -39.999 -4z" />
    <glyph glyph-name="Otilde" unicode="&#x425;" horiz-adv-x="593" 
d="M22 0l212.995 321.001l26 38l-19 34l-197 332c15.333 -2.66699 34 -4 56 -4c6.66699 0 14 0.166992 22 0.5s19 1.5 33 3.5c62 -120.667 107.333 -204 136 -250l24 -38l25 37c36.667 54 85.334 137.667 146.001 251c10.667 -2.66699 23.334 -4 38.001 -4
c4 0 9 0.166992 15 0.5s14 1.5 24 3.5l-97 -141c-36 -48 -59.667 -83 -71 -105l-38 -58l-18 -27l23 -37l216 -357c-8 1.33301 -17 2.33301 -27 3s-20 1 -30 1h-25c-6.66699 0 -18 -1.33301 -34 -4c-27.333 55.333 -52.666 103.666 -75.999 144.999l-75 129l-26 42l-25 -37
c-17.333 -24.667 -38.666 -58.667 -63.999 -102c-28 -48 -60.333 -107 -97 -177c-5.33301 1.33301 -11.5 2.33301 -18.5 3s-13.5 1 -19.5 1c-15.333 0 -28.666 -1.33301 -39.999 -4z" />
    <glyph glyph-name="Odieresis" unicode="&#xd6;" horiz-adv-x="826" 
d="M726 725c0 -36.667 -0.666992 -75.667 -2 -117c-3.33301 -104 -5 -169.333 -5 -196c0 -40.667 0.666992 -106.667 2 -198s2 -145 2 -161h59c-6 -33.333 -9 -67 -9 -101l3 -69h-10c-18.667 47.333 -37 78.666 -55 93.999s-45.667 23 -83 23
c-17.333 0 -55.333 -0.666992 -114 -2s-94 -2 -106 -2c-34 0 -70.333 0.5 -109 1.5s-79.334 1.83301 -122.001 2.5c-30 0 -54 -1.33301 -72 -4c2 23.333 3.66699 73.5 5 150.5s2 149.833 2 218.5c0 54 -0.166992 116.167 -0.5 186.5s-2.5 128.166 -6.5 173.499
c6 -1.33301 14.333 -2.33301 25 -3s18.667 -1 24 -1c9.33301 0 18.833 0.5 28.5 1.5s16.5 1.83301 20.5 2.5c0 -0.666992 -1.16699 -51.167 -3.5 -151.5s-3.5 -174.166 -3.5 -221.499c0 -38 0.333008 -83.333 1 -136s1.66699 -107 3 -163h431c0 25.333 0.666992 92 2 200
s2 162.667 2 164c0 36.667 -0.666992 77.334 -2 122.001c-3.33301 112 -5 174 -5 186c17.333 -2.66699 33.666 -4 48.999 -4c4.66699 0 10.334 0.166992 17.001 0.5s17.334 1.5 32.001 3.5z" />
    <glyph glyph-name="Odieresis" unicode="&#x426;" horiz-adv-x="826" 
d="M726 725c0 -36.667 -0.666992 -75.667 -2 -117c-3.33301 -104 -5 -169.333 -5 -196c0 -40.667 0.666992 -106.667 2 -198s2 -145 2 -161h59c-6 -33.333 -9 -67 -9 -101l3 -69h-10c-18.667 47.333 -37 78.666 -55 93.999s-45.667 23 -83 23
c-17.333 0 -55.333 -0.666992 -114 -2s-94 -2 -106 -2c-34 0 -70.333 0.5 -109 1.5s-79.334 1.83301 -122.001 2.5c-30 0 -54 -1.33301 -72 -4c2 23.333 3.66699 73.5 5 150.5s2 149.833 2 218.5c0 54 -0.166992 116.167 -0.5 186.5s-2.5 128.166 -6.5 173.499
c6 -1.33301 14.333 -2.33301 25 -3s18.667 -1 24 -1c9.33301 0 18.833 0.5 28.5 1.5s16.5 1.83301 20.5 2.5c0 -0.666992 -1.16699 -51.167 -3.5 -151.5s-3.5 -174.166 -3.5 -221.499c0 -38 0.333008 -83.333 1 -136s1.66699 -107 3 -163h431c0 25.333 0.666992 92 2 200
s2 162.667 2 164c0 36.667 -0.666992 77.334 -2 122.001c-3.33301 112 -5 174 -5 186c17.333 -2.66699 33.666 -4 48.999 -4c4.66699 0 10.334 0.166992 17.001 0.5s17.334 1.5 32.001 3.5z" />
    <glyph glyph-name="multiply" unicode="&#xd7;" horiz-adv-x="765" 
d="M80 725c3.33301 -0.666992 10.333 -1.50098 21 -2.50098s19.667 -1.5 27 -1.5c4.66699 0 10.834 0.166992 18.501 0.5s17.834 1.5 30.501 3.5c0 -24 -0.333008 -44.333 -1 -61c-3.33301 -82 -5 -123.667 -5 -125c0 -71.333 19.333 -126.333 58 -165
c34.667 -34.667 80.667 -52 138 -52c41.333 0 83.666 14.667 126.999 44c59.333 40.667 89 96.667 89 168c0 38.667 -0.333008 71.834 -1 99.501s-2.66699 58.167 -6 91.5c14.667 -2.66699 31 -4 49 -4s34.333 1.33301 49 4c-2 -23.333 -3.66699 -72.166 -5 -146.499
s-2 -145.5 -2 -213.5c0 -54.667 0.166992 -117.834 0.5 -189.501s2.5 -130.167 6.5 -175.5c-14.667 2.66699 -31 4 -49 4s-34.333 -1.33301 -49 -4c2 69.333 3.66699 132.166 5 188.499s2 123.833 2 202.5c-22.667 -36 -56.334 -65.167 -101.001 -87.5
s-96.334 -33.5 -155.001 -33.5c-81.333 0 -143.666 26 -186.999 78c-35.333 42.667 -53 92.667 -53 150c0 31.333 -1.16699 70.833 -3.5 118.5s-3.5 83.834 -3.5 108.501z" />
    <glyph glyph-name="multiply" unicode="&#x427;" horiz-adv-x="765" 
d="M80 725c3.33301 -0.666992 10.333 -1.50098 21 -2.50098s19.667 -1.5 27 -1.5c4.66699 0 10.834 0.166992 18.501 0.5s17.834 1.5 30.501 3.5c0 -24 -0.333008 -44.333 -1 -61c-3.33301 -82 -5 -123.667 -5 -125c0 -71.333 19.333 -126.333 58 -165
c34.667 -34.667 80.667 -52 138 -52c41.333 0 83.666 14.667 126.999 44c59.333 40.667 89 96.667 89 168c0 38.667 -0.333008 71.834 -1 99.501s-2.66699 58.167 -6 91.5c14.667 -2.66699 31 -4 49 -4s34.333 1.33301 49 4c-2 -23.333 -3.66699 -72.166 -5 -146.499
s-2 -145.5 -2 -213.5c0 -54.667 0.166992 -117.834 0.5 -189.501s2.5 -130.167 6.5 -175.5c-14.667 2.66699 -31 4 -49 4s-34.333 -1.33301 -49 -4c2 69.333 3.66699 132.166 5 188.499s2 123.833 2 202.5c-22.667 -36 -56.334 -65.167 -101.001 -87.5
s-96.334 -33.5 -155.001 -33.5c-81.333 0 -143.666 26 -186.999 78c-35.333 42.667 -53 92.667 -53 150c0 31.333 -1.16699 70.833 -3.5 118.5s-3.5 83.834 -3.5 108.501z" />
    <glyph glyph-name="Oslash" unicode="&#xd8;" horiz-adv-x="1046" 
d="M971 725c0 -36.667 -0.666992 -75.6689 -2 -117.002c-3.33301 -104 -5 -169.333 -5 -196c0 -51.333 0.833008 -117.666 2.5 -198.999l4.5 -217c-28.667 2.66699 -61.334 4 -98.001 4c-16.667 0 -48.5 -0.666992 -95.5 -2s-78.167 -2 -93.5 -2
c-81.333 2.66699 -138.333 4 -171 4c-29.333 0 -70.5 -0.666992 -123.5 -2s-92.5 -2 -118.5 -2c-86 2.66699 -145.333 4 -178 4c-30 0 -54 -1.33301 -72 -4c2 23.333 3.66699 73.5 5 150.5s2 149.833 2 218.5c0 54 -0.166992 116.167 -0.5 186.5s-2.5 128.166 -6.5 173.499
c6 -1.33301 14.333 -2.33301 25 -3s18.667 -1 24 -1c9.33301 0 18.833 0.5 28.5 1.5s16.5 1.83301 20.5 2.5c0 -0.666992 -1.16699 -51.167 -3.5 -151.5s-3.5 -174.166 -3.5 -221.499c0 -38 0.333008 -83.333 1 -136s1.66699 -107 3 -163h334
c0 26.667 0.666992 81.5 2 164.5s2 132.167 2 147.5c0 54 -0.166992 116.167 -0.5 186.5s-2.5 128.166 -6.5 173.499c6 -1.33301 14.333 -2.33301 25 -3s18.667 -1 24 -1c9.33301 0 18.833 0.5 28.5 1.5s16.5 1.83301 20.5 2.5c0 -0.666992 -1.16699 -51.167 -3.5 -151.5
s-3.5 -174.166 -3.5 -221.499c0 -38 0.333008 -83.333 1 -136s1.66699 -107 3 -163h334c0 25.333 0.666992 92 2 200s2 162.667 2 164c0 36.667 -0.666992 77.334 -2 122.001c-3.33301 112 -5 174 -5 186c17.333 -2.66699 33.666 -4 48.999 -4
c4.66699 0 10.334 0.166992 17.001 0.5s17.334 1.5 32.001 3.5z" />
    <glyph glyph-name="Oslash" unicode="&#x428;" horiz-adv-x="1046" 
d="M971 725c0 -36.667 -0.666992 -75.6689 -2 -117.002c-3.33301 -104 -5 -169.333 -5 -196c0 -51.333 0.833008 -117.666 2.5 -198.999l4.5 -217c-28.667 2.66699 -61.334 4 -98.001 4c-16.667 0 -48.5 -0.666992 -95.5 -2s-78.167 -2 -93.5 -2
c-81.333 2.66699 -138.333 4 -171 4c-29.333 0 -70.5 -0.666992 -123.5 -2s-92.5 -2 -118.5 -2c-86 2.66699 -145.333 4 -178 4c-30 0 -54 -1.33301 -72 -4c2 23.333 3.66699 73.5 5 150.5s2 149.833 2 218.5c0 54 -0.166992 116.167 -0.5 186.5s-2.5 128.166 -6.5 173.499
c6 -1.33301 14.333 -2.33301 25 -3s18.667 -1 24 -1c9.33301 0 18.833 0.5 28.5 1.5s16.5 1.83301 20.5 2.5c0 -0.666992 -1.16699 -51.167 -3.5 -151.5s-3.5 -174.166 -3.5 -221.499c0 -38 0.333008 -83.333 1 -136s1.66699 -107 3 -163h334
c0 26.667 0.666992 81.5 2 164.5s2 132.167 2 147.5c0 54 -0.166992 116.167 -0.5 186.5s-2.5 128.166 -6.5 173.499c6 -1.33301 14.333 -2.33301 25 -3s18.667 -1 24 -1c9.33301 0 18.833 0.5 28.5 1.5s16.5 1.83301 20.5 2.5c0 -0.666992 -1.16699 -51.167 -3.5 -151.5
s-3.5 -174.166 -3.5 -221.499c0 -38 0.333008 -83.333 1 -136s1.66699 -107 3 -163h334c0 25.333 0.666992 92 2 200s2 162.667 2 164c0 36.667 -0.666992 77.334 -2 122.001c-3.33301 112 -5 174 -5 186c17.333 -2.66699 33.666 -4 48.999 -4
c4.66699 0 10.334 0.166992 17.001 0.5s17.334 1.5 32.001 3.5z" />
    <glyph glyph-name="Ugrave" unicode="&#xd9;" horiz-adv-x="1071" 
d="M971 725c0 -36.667 -0.667969 -75.667 -2.00098 -117c-3.33301 -104 -5 -169.333 -5 -196c0 -40.667 0.666992 -106.667 2 -198s2 -145 2 -161h59c-6 -33.333 -9 -67 -9 -101l3 -69h-10c-18.667 47.333 -37 78.666 -55 93.999s-45.667 23 -83 23
c-16.667 0 -48.5 -0.666992 -95.5 -2s-78.167 -2 -93.5 -2c-81.333 2.66699 -138.333 4 -171 4c-29.333 0 -70.5 -0.666992 -123.5 -2s-92.5 -2 -118.5 -2c-86 2.66699 -145.333 4 -178 4c-30 0 -54 -1.33301 -72 -4c2 23.333 3.66699 73.5 5 150.5s2 149.833 2 218.5
c0 54 -0.166992 116.167 -0.5 186.5s-2.5 128.166 -6.5 173.499c6 -1.33301 14.333 -2.33301 25 -3s18.667 -1 24 -1c9.33301 0 18.833 0.5 28.5 1.5s16.5 1.83301 20.5 2.5c0 -0.666992 -1.16699 -51.167 -3.5 -151.5s-3.5 -174.166 -3.5 -221.499
c0 -38 0.333008 -83.333 1 -136s1.66699 -107 3 -163h334c0 26.667 0.666992 81.5 2 164.5s2 132.167 2 147.5c0 54 -0.166992 116.167 -0.5 186.5s-2.5 128.166 -6.5 173.499c6 -1.33301 14.333 -2.33301 25 -3s18.667 -1 24 -1c9.33301 0 18.833 0.5 28.5 1.5
s16.5 1.83301 20.5 2.5c0 -0.666992 -1.16699 -51.167 -3.5 -151.5s-3.5 -174.166 -3.5 -221.499c0 -38 0.333008 -83.333 1 -136s1.66699 -107 3 -163h334c0 25.333 0.666992 92 2 200s2 162.667 2 164c0 36.667 -0.666992 77.334 -2 122.001c-3.33301 112 -5 174 -5 186
c17.333 -2.66699 33.666 -4 48.999 -4c4.66699 0 10.334 0.166992 17.001 0.5s17.334 1.5 32.001 3.5z" />
    <glyph glyph-name="Ugrave" unicode="&#x429;" horiz-adv-x="1071" 
d="M971 725c0 -36.667 -0.667969 -75.667 -2.00098 -117c-3.33301 -104 -5 -169.333 -5 -196c0 -40.667 0.666992 -106.667 2 -198s2 -145 2 -161h59c-6 -33.333 -9 -67 -9 -101l3 -69h-10c-18.667 47.333 -37 78.666 -55 93.999s-45.667 23 -83 23
c-16.667 0 -48.5 -0.666992 -95.5 -2s-78.167 -2 -93.5 -2c-81.333 2.66699 -138.333 4 -171 4c-29.333 0 -70.5 -0.666992 -123.5 -2s-92.5 -2 -118.5 -2c-86 2.66699 -145.333 4 -178 4c-30 0 -54 -1.33301 -72 -4c2 23.333 3.66699 73.5 5 150.5s2 149.833 2 218.5
c0 54 -0.166992 116.167 -0.5 186.5s-2.5 128.166 -6.5 173.499c6 -1.33301 14.333 -2.33301 25 -3s18.667 -1 24 -1c9.33301 0 18.833 0.5 28.5 1.5s16.5 1.83301 20.5 2.5c0 -0.666992 -1.16699 -51.167 -3.5 -151.5s-3.5 -174.166 -3.5 -221.499
c0 -38 0.333008 -83.333 1 -136s1.66699 -107 3 -163h334c0 26.667 0.666992 81.5 2 164.5s2 132.167 2 147.5c0 54 -0.166992 116.167 -0.5 186.5s-2.5 128.166 -6.5 173.499c6 -1.33301 14.333 -2.33301 25 -3s18.667 -1 24 -1c9.33301 0 18.833 0.5 28.5 1.5
s16.5 1.83301 20.5 2.5c0 -0.666992 -1.16699 -51.167 -3.5 -151.5s-3.5 -174.166 -3.5 -221.499c0 -38 0.333008 -83.333 1 -136s1.66699 -107 3 -163h334c0 25.333 0.666992 92 2 200s2 162.667 2 164c0 36.667 -0.666992 77.334 -2 122.001c-3.33301 112 -5 174 -5 186
c17.333 -2.66699 33.666 -4 48.999 -4c4.66699 0 10.334 0.166992 17.001 0.5s17.334 1.5 32.001 3.5z" />
    <glyph glyph-name="Uacute" unicode="&#xda;" horiz-adv-x="675" 
d="M232 364l-3.00195 -103.998c0 -48.667 0.333008 -88.834 1 -120.501s2.33398 -61.834 5.00098 -90.501c27.333 -6 51.333 -9 72 -9c62.667 0 111.834 14.667 147.501 44s53.5 70 53.5 122c0 108.667 -68.333 163 -205 163c-6 0 -17.667 -0.833008 -35 -2.5
s-29.333 -2.5 -36 -2.5zM235.998 725.002c-2 -24 -3.66602 -67.332 -4.99902 -129.999s-2 -127.334 -2 -194.001c12 2 23.833 3.33301 35.5 4s25.5 1 41.5 1c80.667 0 144 -10 190 -30c70.667 -30.667 106 -84.667 106 -162c0 -70.667 -24 -124.667 -72 -162
s-119.333 -56 -214 -56c-16.667 0 -35.834 0.5 -57.501 1.5s-44.834 1.83301 -69.501 2.5h-25c-7.33301 0 -16 -1.33301 -26 -4c2 23.333 3.66699 73.5 5 150.5s2 149.833 2 218.5c0 40 -0.5 86.5 -1.5 139.5s-1.83301 110.167 -2.5 171.5
c-42.667 0 -84.667 -4.66699 -126 -14l2 30l-2 33c12 0 32 -0.666992 60 -2s49 -2 63 -2c27.333 0 47.833 0.333008 61.5 1s25.834 1.66699 36.501 3z" />
    <glyph glyph-name="Uacute" unicode="&#x42a;" horiz-adv-x="675" 
d="M232 364l-3.00195 -103.998c0 -48.667 0.333008 -88.834 1 -120.501s2.33398 -61.834 5.00098 -90.501c27.333 -6 51.333 -9 72 -9c62.667 0 111.834 14.667 147.501 44s53.5 70 53.5 122c0 108.667 -68.333 163 -205 163c-6 0 -17.667 -0.833008 -35 -2.5
s-29.333 -2.5 -36 -2.5zM235.998 725.002c-2 -24 -3.66602 -67.332 -4.99902 -129.999s-2 -127.334 -2 -194.001c12 2 23.833 3.33301 35.5 4s25.5 1 41.5 1c80.667 0 144 -10 190 -30c70.667 -30.667 106 -84.667 106 -162c0 -70.667 -24 -124.667 -72 -162
s-119.333 -56 -214 -56c-16.667 0 -35.834 0.5 -57.501 1.5s-44.834 1.83301 -69.501 2.5h-25c-7.33301 0 -16 -1.33301 -26 -4c2 23.333 3.66699 73.5 5 150.5s2 149.833 2 218.5c0 40 -0.5 86.5 -1.5 139.5s-1.83301 110.167 -2.5 171.5
c-42.667 0 -84.667 -4.66699 -126 -14l2 30l-2 33c12 0 32 -0.666992 60 -2s49 -2 63 -2c27.333 0 47.833 0.333008 61.5 1s25.834 1.66699 36.501 3z" />
    <glyph glyph-name="Ucircumflex" unicode="&#xdb;" horiz-adv-x="846" 
d="M183 364l-3.00195 -103.998c0 -48.667 0.333008 -88.834 1 -120.501s2.33398 -61.834 5.00098 -90.501c27.333 -6 51.333 -9 72 -9c62.667 0 111.834 14.667 147.501 44s53.5 70 53.5 122c0 108.667 -68.333 163 -205 163c-6 0 -17.667 -0.833008 -35 -2.5
s-29.333 -2.5 -36 -2.5zM186.998 725.002c-2 -24 -3.66504 -67.3311 -4.99805 -129.998s-2 -127.334 -2 -194.001c12 2 23.833 3.33301 35.5 4s25.5 1 41.5 1c80.667 0 144 -10 190 -30c70.667 -30.667 106 -84.667 106 -162c0 -70.667 -24 -124.667 -72 -162
s-119.333 -56 -214 -56c-16.667 0 -35.834 0.5 -57.501 1.5s-44.834 1.83301 -69.501 2.5h-25c-7.33301 0 -16 -1.33301 -26 -4c2 23.333 3.66699 73.5 5 150.5s2 149.833 2 218.5c0 54 -0.166992 116.167 -0.5 186.5s-2.5 128.166 -6.5 173.499
c14.667 -2.66699 31 -4 49 -4s34.333 1.33301 49 4zM752 725.004c-2 -23.333 -3.66699 -72.165 -5 -146.498s-2 -145.5 -2 -213.5c0 -54.667 0.166992 -117.834 0.5 -189.501s2.5 -130.167 6.5 -175.5c-14.667 2.66699 -31 4 -49 4s-34.333 -1.33301 -49 -4
c2 23.333 3.66699 73 5 149s2 148 2 216c0 54 -0.166992 116.167 -0.5 186.5s-2.5 128.166 -6.5 173.499c14.667 -2.66699 31 -4 49 -4s34.333 1.33301 49 4z" />
    <glyph glyph-name="Ucircumflex" unicode="&#x42b;" horiz-adv-x="846" 
d="M183 364l-3.00195 -103.998c0 -48.667 0.333008 -88.834 1 -120.501s2.33398 -61.834 5.00098 -90.501c27.333 -6 51.333 -9 72 -9c62.667 0 111.834 14.667 147.501 44s53.5 70 53.5 122c0 108.667 -68.333 163 -205 163c-6 0 -17.667 -0.833008 -35 -2.5
s-29.333 -2.5 -36 -2.5zM186.998 725.002c-2 -24 -3.66504 -67.3311 -4.99805 -129.998s-2 -127.334 -2 -194.001c12 2 23.833 3.33301 35.5 4s25.5 1 41.5 1c80.667 0 144 -10 190 -30c70.667 -30.667 106 -84.667 106 -162c0 -70.667 -24 -124.667 -72 -162
s-119.333 -56 -214 -56c-16.667 0 -35.834 0.5 -57.501 1.5s-44.834 1.83301 -69.501 2.5h-25c-7.33301 0 -16 -1.33301 -26 -4c2 23.333 3.66699 73.5 5 150.5s2 149.833 2 218.5c0 54 -0.166992 116.167 -0.5 186.5s-2.5 128.166 -6.5 173.499
c14.667 -2.66699 31 -4 49 -4s34.333 1.33301 49 4zM752 725.004c-2 -23.333 -3.66699 -72.165 -5 -146.498s-2 -145.5 -2 -213.5c0 -54.667 0.166992 -117.834 0.5 -189.501s2.5 -130.167 6.5 -175.5c-14.667 2.66699 -31 4 -49 4s-34.333 -1.33301 -49 -4
c2 23.333 3.66699 73 5 149s2 148 2 216c0 54 -0.166992 116.167 -0.5 186.5s-2.5 128.166 -6.5 173.499c14.667 -2.66699 31 -4 49 -4s34.333 1.33301 49 4z" />
    <glyph glyph-name="Udieresis" unicode="&#xdc;" horiz-adv-x="629" 
d="M186 364l-3.00195 -103.998c0 -48.667 0.333008 -88.834 1 -120.501s2.33398 -61.834 5.00098 -90.501c27.333 -6 51.333 -9 72 -9c62.667 0 111.834 14.667 147.501 44s53.5 70 53.5 122c0 108.667 -68.333 163 -205 163c-6 0 -17.667 -0.833008 -35 -2.5
s-29.333 -2.5 -36 -2.5zM189.998 725.002c-2.66699 -49.333 -4.49805 -98.999 -5.49805 -148.999s-1.5 -108.333 -1.5 -175c12 2 23.833 3.33301 35.5 4s25.5 1 41.5 1c80.667 0 144 -10 190 -30c70.667 -30.667 106 -84.667 106 -162c0 -70.667 -24 -124.667 -72 -162
s-119.333 -56 -214 -56c-16.667 0 -35.834 0.5 -57.501 1.5s-44.834 1.83301 -69.501 2.5h-25c-7.33301 0 -16 -1.33301 -26 -4c2 23.333 3.66699 73.5 5 150.5s2 149.833 2 218.5c0 54 -0.166992 116.167 -0.5 186.5s-2.5 128.166 -6.5 173.499
c14.667 -2.66699 31 -4 49 -4s34.333 1.33301 49 4z" />
    <glyph glyph-name="Udieresis" unicode="&#x42c;" horiz-adv-x="629" 
d="M186 364l-3.00195 -103.998c0 -48.667 0.333008 -88.834 1 -120.501s2.33398 -61.834 5.00098 -90.501c27.333 -6 51.333 -9 72 -9c62.667 0 111.834 14.667 147.501 44s53.5 70 53.5 122c0 108.667 -68.333 163 -205 163c-6 0 -17.667 -0.833008 -35 -2.5
s-29.333 -2.5 -36 -2.5zM189.998 725.002c-2.66699 -49.333 -4.49805 -98.999 -5.49805 -148.999s-1.5 -108.333 -1.5 -175c12 2 23.833 3.33301 35.5 4s25.5 1 41.5 1c80.667 0 144 -10 190 -30c70.667 -30.667 106 -84.667 106 -162c0 -70.667 -24 -124.667 -72 -162
s-119.333 -56 -214 -56c-16.667 0 -35.834 0.5 -57.501 1.5s-44.834 1.83301 -69.501 2.5h-25c-7.33301 0 -16 -1.33301 -26 -4c2 23.333 3.66699 73.5 5 150.5s2 149.833 2 218.5c0 54 -0.166992 116.167 -0.5 186.5s-2.5 128.166 -6.5 173.499
c14.667 -2.66699 31 -4 49 -4s34.333 1.33301 49 4z" />
    <glyph glyph-name="Yacute" unicode="&#xdd;" horiz-adv-x="709" 
d="M564 407c0 74 -26.668 140.002 -80.001 198.002c-57.333 62 -128 93 -212 93c-47.333 0 -93 -12.667 -137 -38c-29.333 -16.667 -51.333 -34.334 -66 -53.001l-7 1c-5.33301 30.667 -12.666 58 -21.999 82c73.333 32 149.333 48 228 48
c117.333 0 212.333 -32.333 285 -97c76.667 -68 115 -160.333 115 -277s-33.167 -208.834 -99.5 -276.501s-157.5 -101.5 -273.5 -101.5c-44 0 -87.333 5 -130 15s-77.667 25.333 -105 46c2.66699 10 5.5 22.5 8.5 37.5s5.16699 27.167 6.5 36.5
c22 -24 46.333 -43.667 73 -59c42.667 -24 88.667 -36 138 -36c84 0 151.333 30.167 202 90.5s76 141.5 76 243.5h-231c-24.667 0 -51.5 -0.666992 -80.5 -2s-55.167 -2.33301 -78.5 -3c2 7.33301 3 17 3 29l-3 28c12.667 -1.33301 32.667 -2.5 60 -3.5s60.333 -1.5 99 -1.5
h231z" />
    <glyph glyph-name="Yacute" unicode="&#x42d;" horiz-adv-x="709" 
d="M564 407c0 74 -26.668 140.002 -80.001 198.002c-57.333 62 -128 93 -212 93c-47.333 0 -93 -12.667 -137 -38c-29.333 -16.667 -51.333 -34.334 -66 -53.001l-7 1c-5.33301 30.667 -12.666 58 -21.999 82c73.333 32 149.333 48 228 48
c117.333 0 212.333 -32.333 285 -97c76.667 -68 115 -160.333 115 -277s-33.167 -208.834 -99.5 -276.501s-157.5 -101.5 -273.5 -101.5c-44 0 -87.333 5 -130 15s-77.667 25.333 -105 46c2.66699 10 5.5 22.5 8.5 37.5s5.16699 27.167 6.5 36.5
c22 -24 46.333 -43.667 73 -59c42.667 -24 88.667 -36 138 -36c84 0 151.333 30.167 202 90.5s76 141.5 76 243.5h-231c-24.667 0 -51.5 -0.666992 -80.5 -2s-55.167 -2.33301 -78.5 -3c2 7.33301 3 17 3 29l-3 28c12.667 -1.33301 32.667 -2.5 60 -3.5s60.333 -1.5 99 -1.5
h231z" />
    <glyph glyph-name="Thorn" unicode="&#xde;" horiz-adv-x="1060" 
d="M236 329l-100.999 0.00195312c0 -50 0.166992 -107 0.5 -171s2.5 -116.667 6.5 -158c-14.667 2.66699 -31 4 -49 4s-34.333 -1.33301 -49 -4c2 23.333 3.66699 73 5 149s2 148 2 216c0 54 -0.166992 116.167 -0.5 186.5s-2.5 128.166 -6.5 173.499
c14.667 -2.66699 31 -4 49 -4s34.333 1.33301 49 4c-2 -22 -3.66699 -67.833 -5 -137.5s-2 -136.834 -2 -201.501h100c0 106.667 36.167 192 108.5 256s166.166 96 281.499 96c120.667 0 215.834 -33.833 285.501 -101.5s104.5 -159.5 104.5 -275.5
c0 -112 -35.833 -202.5 -107.5 -271.5s-165.834 -103.5 -282.501 -103.5c-116 0 -209.833 30.833 -281.5 92.5s-107.5 145.167 -107.5 250.5zM625.001 26.002c90.667 0 160.832 29 210.499 87s74.5 141 74.5 249c0 110 -24.167 193.5 -72.5 250.5
s-119.166 85.5 -212.499 85.5c-90.667 0 -161 -29.333 -211 -88s-75 -142.667 -75 -252c0 -106.667 24.667 -188.667 74 -246s120 -86 212 -86z" />
    <glyph glyph-name="Thorn" unicode="&#x42e;" horiz-adv-x="1060" 
d="M236 329l-100.999 0.00195312c0 -50 0.166992 -107 0.5 -171s2.5 -116.667 6.5 -158c-14.667 2.66699 -31 4 -49 4s-34.333 -1.33301 -49 -4c2 23.333 3.66699 73 5 149s2 148 2 216c0 54 -0.166992 116.167 -0.5 186.5s-2.5 128.166 -6.5 173.499
c14.667 -2.66699 31 -4 49 -4s34.333 1.33301 49 4c-2 -22 -3.66699 -67.833 -5 -137.5s-2 -136.834 -2 -201.501h100c0 106.667 36.167 192 108.5 256s166.166 96 281.499 96c120.667 0 215.834 -33.833 285.501 -101.5s104.5 -159.5 104.5 -275.5
c0 -112 -35.833 -202.5 -107.5 -271.5s-165.834 -103.5 -282.501 -103.5c-116 0 -209.833 30.833 -281.5 92.5s-107.5 145.167 -107.5 250.5zM625.001 26.002c90.667 0 160.832 29 210.499 87s74.5 141 74.5 249c0 110 -24.167 193.5 -72.5 250.5
s-119.166 85.5 -212.499 85.5c-90.667 0 -161 -29.333 -211 -88s-75 -142.667 -75 -252c0 -106.667 24.667 -188.667 74 -246s120 -86 212 -86z" />
    <glyph glyph-name="germandbls" unicode="&#xdf;" horiz-adv-x="630" 
d="M469 353v-194c0 -52 -2.33301 -105 -7 -159c14.667 2.66699 31 4 49 4s34.333 -1.33301 49 -4c-2 23.333 -3.66699 73 -5 149s-2 148 -2 216c0 54 0.166992 116.167 0.5 186.5s2.5 128.166 6.5 173.499l-47 -4c-15.333 0 -44.5 0.666992 -87.5 2s-70.167 2 -81.5 2
c-159.333 0 -239 -57.333 -239 -172c0 -105.333 70.667 -170.666 212 -195.999l-91 -118l-102.5 -128.5l-88.5 -110.5c7.33301 1.33301 17 2.33301 29 3s23 1 33 1l62 -4l82.5 117l49.5 66l115 148c12 16 26.333 24 43 24zM469 386l-35 -2c-158 0 -237 52 -237 156
c0 96.667 61 145 183 145l82 -3c2.66699 -19.333 4.5 -37 5.5 -53s1.5 -35 1.5 -57v-186z" />
    <glyph glyph-name="germandbls" unicode="&#x42f;" horiz-adv-x="630" 
d="M469 353v-194c0 -52 -2.33301 -105 -7 -159c14.667 2.66699 31 4 49 4s34.333 -1.33301 49 -4c-2 23.333 -3.66699 73 -5 149s-2 148 -2 216c0 54 0.166992 116.167 0.5 186.5s2.5 128.166 6.5 173.499l-47 -4c-15.333 0 -44.5 0.666992 -87.5 2s-70.167 2 -81.5 2
c-159.333 0 -239 -57.333 -239 -172c0 -105.333 70.667 -170.666 212 -195.999l-91 -118l-102.5 -128.5l-88.5 -110.5c7.33301 1.33301 17 2.33301 29 3s23 1 33 1l62 -4l82.5 117l49.5 66l115 148c12 16 26.333 24 43 24zM469 386l-35 -2c-158 0 -237 52 -237 156
c0 96.667 61 145 183 145l82 -3c2.66699 -19.333 4.5 -37 5.5 -53s1.5 -35 1.5 -57v-186z" />
    <glyph glyph-name="agrave" unicode="&#xe0;" horiz-adv-x="510" 
d="M78 394l-0.00390625 60.0029c26 18 53 31.833 81 41.5s57.333 14.5 88 14.5c56.667 0 99.834 -14.5 129.501 -43.5s44.5 -73.167 44.5 -132.5v-247c0 -15.333 1.33301 -27 4 -35s9.33398 -12 20.001 -12c9.33301 0 17.5 1.16699 24.5 3.5s13.5 5.16602 19.5 8.49902
l8 -24c-16 -10 -30 -17.167 -42 -21.5s-22.667 -6.5 -32 -6.5c-22.667 0 -39.334 3 -50.001 9c-18.667 10 -29.667 29 -33 57l-37 -32c-14 -12 -30.333 -21.667 -49 -29c-25.333 -10 -52.666 -15 -81.999 -15c-38.667 0 -71.667 12 -99 36s-41 55.333 -41 94
c0 51.333 18.333 88.666 55 111.999c26.667 16.667 73.334 30 140.001 40c46.667 6.66699 77.167 14.167 91.5 22.5s21.5 24.5 21.5 48.5c0 40 -10.833 71.167 -32.5 93.5s-52.167 33.5 -91.5 33.5c-34.667 0 -64.667 -9.66699 -90 -29
c-19.333 -14.667 -31.666 -30.334 -36.999 -47.001h-11zM339.996 263.003l-79 -16c-52.667 -10.667 -89.667 -24.334 -111 -41.001s-32 -40.667 -32 -72c0 -33.333 8.33301 -58.666 25 -75.999s39.667 -26 69 -26c40 0 71.333 16.167 94 48.5s34 75.5 34 129.5v53z" />
    <glyph glyph-name="agrave" unicode="&#x430;" horiz-adv-x="510" 
d="M78 394l-0.00390625 60.0029c26 18 53 31.833 81 41.5s57.333 14.5 88 14.5c56.667 0 99.834 -14.5 129.501 -43.5s44.5 -73.167 44.5 -132.5v-247c0 -15.333 1.33301 -27 4 -35s9.33398 -12 20.001 -12c9.33301 0 17.5 1.16699 24.5 3.5s13.5 5.16602 19.5 8.49902
l8 -24c-16 -10 -30 -17.167 -42 -21.5s-22.667 -6.5 -32 -6.5c-22.667 0 -39.334 3 -50.001 9c-18.667 10 -29.667 29 -33 57l-37 -32c-14 -12 -30.333 -21.667 -49 -29c-25.333 -10 -52.666 -15 -81.999 -15c-38.667 0 -71.667 12 -99 36s-41 55.333 -41 94
c0 51.333 18.333 88.666 55 111.999c26.667 16.667 73.334 30 140.001 40c46.667 6.66699 77.167 14.167 91.5 22.5s21.5 24.5 21.5 48.5c0 40 -10.833 71.167 -32.5 93.5s-52.167 33.5 -91.5 33.5c-34.667 0 -64.667 -9.66699 -90 -29
c-19.333 -14.667 -31.666 -30.334 -36.999 -47.001h-11zM339.996 263.003l-79 -16c-52.667 -10.667 -89.667 -24.334 -111 -41.001s-32 -40.667 -32 -72c0 -33.333 8.33301 -58.666 25 -75.999s39.667 -26 69 -26c40 0 71.333 16.167 94 48.5s34 75.5 34 129.5v53z" />
    <glyph glyph-name="aacute" unicode="&#xe1;" horiz-adv-x="544" 
d="M132 410c41.333 66.667 98.332 100 170.999 100c66 0 118.333 -21.667 157 -65s58 -102.666 58 -177.999c0 -82.667 -21.667 -149.5 -65 -200.5s-100 -76.5 -170 -76.5c-66 0 -120 17 -162 51c-56 45.333 -84 116.666 -84 213.999c0 192.667 31.667 319.667 95 381
c58 56.667 175.667 85 353 85c-4.66699 -10.667 -7 -31 -7 -61c-17.333 2 -34.5 4.16699 -51.5 6.5s-39.167 3.5 -66.5 3.5c-81.333 0 -138.666 -17.667 -171.999 -53c-37.333 -39.333 -56 -108.333 -56 -207zM278.999 470c-50 0 -88.333 -20.668 -115 -62.001
s-40 -101.666 -40 -180.999c0 -133.333 48.333 -200 145 -200c50 0 89 20.5 117 61.5s42 99.833 42 176.5c0 67.333 -12.667 118.333 -38 153s-62.333 52 -111 52z" />
    <glyph glyph-name="aacute" unicode="&#x431;" horiz-adv-x="544" 
d="M132 410c41.333 66.667 98.332 100 170.999 100c66 0 118.333 -21.667 157 -65s58 -102.666 58 -177.999c0 -82.667 -21.667 -149.5 -65 -200.5s-100 -76.5 -170 -76.5c-66 0 -120 17 -162 51c-56 45.333 -84 116.666 -84 213.999c0 192.667 31.667 319.667 95 381
c58 56.667 175.667 85 353 85c-4.66699 -10.667 -7 -31 -7 -61c-17.333 2 -34.5 4.16699 -51.5 6.5s-39.167 3.5 -66.5 3.5c-81.333 0 -138.666 -17.667 -171.999 -53c-37.333 -39.333 -56 -108.333 -56 -207zM278.999 470c-50 0 -88.333 -20.668 -115 -62.001
s-40 -101.666 -40 -180.999c0 -133.333 48.333 -200 145 -200c50 0 89 20.5 117 61.5s42 99.833 42 176.5c0 67.333 -12.667 118.333 -38 153s-62.333 52 -111 52z" />
    <glyph glyph-name="acircumflex" unicode="&#xe2;" horiz-adv-x="497" 
d="M26 0c1.33301 11.333 2.33105 45.167 2.99805 101.5s1 109.833 1 160.5c0 48.667 -0.666992 90.5 -2 125.5s-2.66602 75.833 -3.99902 122.5c24 -2.66699 52.667 -4 86 -4c20 0 42.333 0.333008 67 1s51 1.66699 79 3c64 0 113 -10.333 147 -31s51 -50.334 51 -89.001
c0 -33.333 -13.333 -60 -40 -80c-22 -16.667 -50.333 -27 -85 -31v-4c59.333 -10.667 99.333 -26.667 120 -48c18 -18.667 27 -43.667 27 -75c0 -53.333 -24 -94.666 -72 -123.999c-41.333 -25.333 -89.666 -38 -144.999 -38c-56 0 -108.333 22 -157 66
c-18 -14 -36.667 -32.667 -56 -56h-20zM252.998 32.001c30 0 58.334 9.99902 85.001 29.999c30 22.667 45 50.334 45 83.001c0 30.667 -12.167 56.5 -36.5 77.5s-53.5 31.5 -87.5 31.5c-12 0 -24.5 -0.166992 -37.5 -0.5s-24.833 -1.5 -35.5 -3.5l3 23l-3 23
c6 -1.33301 15.667 -2.33301 29 -3s24.333 -1 33 -1c75.333 0 113 30.333 113 91c0 25.333 -10 45.833 -30 61.5s-49 23.5 -87 23.5c-22.667 0 -43.834 -1.5 -63.501 -4.5s-41.167 -7.83301 -64.5 -14.5c-5.33301 -48 -8 -89.667 -8 -125v-143c0 -50.667 15 -89 45 -115
c26 -22.667 59.333 -34 100 -34z" />
    <glyph glyph-name="acircumflex" unicode="&#x432;" horiz-adv-x="497" 
d="M26 0c1.33301 11.333 2.33105 45.167 2.99805 101.5s1 109.833 1 160.5c0 48.667 -0.666992 90.5 -2 125.5s-2.66602 75.833 -3.99902 122.5c24 -2.66699 52.667 -4 86 -4c20 0 42.333 0.333008 67 1s51 1.66699 79 3c64 0 113 -10.333 147 -31s51 -50.334 51 -89.001
c0 -33.333 -13.333 -60 -40 -80c-22 -16.667 -50.333 -27 -85 -31v-4c59.333 -10.667 99.333 -26.667 120 -48c18 -18.667 27 -43.667 27 -75c0 -53.333 -24 -94.666 -72 -123.999c-41.333 -25.333 -89.666 -38 -144.999 -38c-56 0 -108.333 22 -157 66
c-18 -14 -36.667 -32.667 -56 -56h-20zM252.998 32.001c30 0 58.334 9.99902 85.001 29.999c30 22.667 45 50.334 45 83.001c0 30.667 -12.167 56.5 -36.5 77.5s-53.5 31.5 -87.5 31.5c-12 0 -24.5 -0.166992 -37.5 -0.5s-24.833 -1.5 -35.5 -3.5l3 23l-3 23
c6 -1.33301 15.667 -2.33301 29 -3s24.333 -1 33 -1c75.333 0 113 30.333 113 91c0 25.333 -10 45.833 -30 61.5s-49 23.5 -87 23.5c-22.667 0 -43.834 -1.5 -63.501 -4.5s-41.167 -7.83301 -64.5 -14.5c-5.33301 -48 -8 -89.667 -8 -125v-143c0 -50.667 15 -89 45 -115
c26 -22.667 59.333 -34 100 -34z" />
    <glyph glyph-name="atilde" unicode="&#xe3;" horiz-adv-x="438" 
d="M396 105l-2 -61.998c-25.333 -18 -52.5 -31.333 -81.5 -40s-66.167 -13 -111.5 -13c-50.667 0 -90.667 11.667 -120 35s-44 54.666 -44 93.999c0 52.667 20 90 60 112c16.667 9.33301 59 22.333 127 39c34 8 58.333 22.333 73 43c12 16.667 18 37.334 18 62.001
c0 22.667 -8.66699 41.667 -26 57c-20.667 18.667 -49.667 28 -87 28c-34.667 0 -64.667 -9.66699 -90 -29c-19.333 -14.667 -31.666 -30.334 -36.999 -47.001h-11v60c26 18 53.333 31.833 82 41.5s58.334 14.5 89.001 14.5c56 0 99 -14.333 129 -43
c23.333 -22 35 -47.333 35 -76c0 -51.333 -20.667 -88 -62 -110c-4.66699 -2.66699 -53.334 -18.667 -146.001 -48c-16.667 -5.33301 -31.834 -16.5 -45.501 -33.5s-20.5 -35.167 -20.5 -54.5c0 -30 10.667 -55 32 -75s48 -30 80 -30c30 0 57.5 6.16699 82.5 18.5
s50.5 31.166 76.5 56.499z" />
    <glyph glyph-name="atilde" unicode="&#x433;" horiz-adv-x="438" 
d="M396 105l-2 -61.998c-25.333 -18 -52.5 -31.333 -81.5 -40s-66.167 -13 -111.5 -13c-50.667 0 -90.667 11.667 -120 35s-44 54.666 -44 93.999c0 52.667 20 90 60 112c16.667 9.33301 59 22.333 127 39c34 8 58.333 22.333 73 43c12 16.667 18 37.334 18 62.001
c0 22.667 -8.66699 41.667 -26 57c-20.667 18.667 -49.667 28 -87 28c-34.667 0 -64.667 -9.66699 -90 -29c-19.333 -14.667 -31.666 -30.334 -36.999 -47.001h-11v60c26 18 53.333 31.833 82 41.5s58.334 14.5 89.001 14.5c56 0 99 -14.333 129 -43
c23.333 -22 35 -47.333 35 -76c0 -51.333 -20.667 -88 -62 -110c-4.66699 -2.66699 -53.334 -18.667 -146.001 -48c-16.667 -5.33301 -31.834 -16.5 -45.501 -33.5s-20.5 -35.167 -20.5 -54.5c0 -30 10.667 -55 32 -75s48 -30 80 -30c30 0 57.5 6.16699 82.5 18.5
s50.5 31.166 76.5 56.499z" />
    <glyph glyph-name="adieresis" unicode="&#xe4;" horiz-adv-x="581" 
d="M438 71v6.00098c-37.333 -58 -93.666 -87 -168.999 -87c-68 0 -121.5 23 -160.5 69s-58.5 111.333 -58.5 196c0 81.333 19.167 144.166 57.5 188.499s92.166 66.5 161.499 66.5c74.667 0 133 -35 175 -105c0 18 -0.333008 34.167 -1 48.5s-1.66699 29.833 -3 46.5
c14 -2.66699 29 -4 45 -4c14 0 26 1.33301 36 4c0 -20 -0.833008 -59.5 -2.5 -118.5s-2.5 -98.5 -2.5 -118.5c0 -32.667 0.5 -68.167 1.5 -106.5s2.16699 -73.5 3.5 -105.5c0 -94.667 -15.333 -170 -46 -226c-42 -76.667 -110 -115 -204 -115
c-32.667 0 -60.334 2.66699 -83.001 8c-35.333 8.66699 -67.666 24.667 -96.999 48c10.667 28.667 18.334 66 23.001 112c16 -41.333 38.5 -73 67.5 -95s64.833 -33 107.5 -33c43.333 0 76.666 11.667 99.999 35c32.667 32.667 49 90 49 172v114zM295 470.001
c-50 0 -88.333 -20.668 -115 -62.001s-40 -101.666 -40 -180.999c0 -133.333 48.333 -200 145 -200c50 0 89 20.5 117 61.5s42 99.833 42 176.5c0 67.333 -12.667 118.333 -38 153s-62.333 52 -111 52z" />
    <glyph glyph-name="adieresis" unicode="&#x434;" horiz-adv-x="581" 
d="M438 71v6.00098c-37.333 -58 -93.666 -87 -168.999 -87c-68 0 -121.5 23 -160.5 69s-58.5 111.333 -58.5 196c0 81.333 19.167 144.166 57.5 188.499s92.166 66.5 161.499 66.5c74.667 0 133 -35 175 -105c0 18 -0.333008 34.167 -1 48.5s-1.66699 29.833 -3 46.5
c14 -2.66699 29 -4 45 -4c14 0 26 1.33301 36 4c0 -20 -0.833008 -59.5 -2.5 -118.5s-2.5 -98.5 -2.5 -118.5c0 -32.667 0.5 -68.167 1.5 -106.5s2.16699 -73.5 3.5 -105.5c0 -94.667 -15.333 -170 -46 -226c-42 -76.667 -110 -115 -204 -115
c-32.667 0 -60.334 2.66699 -83.001 8c-35.333 8.66699 -67.666 24.667 -96.999 48c10.667 28.667 18.334 66 23.001 112c16 -41.333 38.5 -73 67.5 -95s64.833 -33 107.5 -33c43.333 0 76.666 11.667 99.999 35c32.667 32.667 49 90 49 172v114zM295 470.001
c-50 0 -88.333 -20.668 -115 -62.001s-40 -101.666 -40 -180.999c0 -133.333 48.333 -200 145 -200c50 0 89 20.5 117 61.5s42 99.833 42 176.5c0 67.333 -12.667 118.333 -38 153s-62.333 52 -111 52z" />
    <glyph glyph-name="aring" unicode="&#xe5;" horiz-adv-x="536" 
d="M131 293l278.998 -0.000976562v18c0 52.667 -11.667 93.334 -35 122.001s-55.666 43 -96.999 43s-76.166 -16.5 -104.499 -49.5s-42.5 -77.5 -42.5 -133.5zM467.998 50.999c-54.667 -40.667 -114.669 -60.999 -180.002 -60.999c-74.667 0 -135 24 -181 72
s-69 110.333 -69 187c0 79.333 22.333 142.666 67 189.999s103.667 71 177 71c68 0 120.333 -19.667 157 -59s55 -96 55 -170v-25h-365c0 -73.333 15.333 -129 46 -167s74.667 -57 132 -57c60.667 0 115.334 24 164.001 72c-1.33301 -8 -2.16602 -18.167 -2.49902 -30.5
s-0.5 -19.833 -0.5 -22.5z" />
    <glyph glyph-name="aring" unicode="&#x435;" horiz-adv-x="536" 
d="M131 293l278.998 -0.000976562v18c0 52.667 -11.667 93.334 -35 122.001s-55.666 43 -96.999 43s-76.166 -16.5 -104.499 -49.5s-42.5 -77.5 -42.5 -133.5zM467.998 50.999c-54.667 -40.667 -114.669 -60.999 -180.002 -60.999c-74.667 0 -135 24 -181 72
s-69 110.333 -69 187c0 79.333 22.333 142.666 67 189.999s103.667 71 177 71c68 0 120.333 -19.667 157 -59s55 -96 55 -170v-25h-365c0 -73.333 15.333 -129 46 -167s74.667 -57 132 -57c60.667 0 115.334 24 164.001 72c-1.33301 -8 -2.16602 -18.167 -2.49902 -30.5
s-0.5 -19.833 -0.5 -22.5z" />
    <glyph glyph-name="ae" unicode="&#xe6;" horiz-adv-x="790" 
d="M357 500c12.667 -2.66699 27 -3.99902 43 -3.99902h23c10.667 2 18 3.33301 22 4v-4c-1.33301 -16 -2.5 -34.833 -3.5 -56.5s-1.5 -43.167 -1.5 -64.5v-73c0 -12 6 -18 18 -18c34 0 107.667 72 221 216c13.333 -2.66699 29 -4 47 -4h26c9.33301 2 16 3.33301 20 4
c-17.333 -12 -37.333 -28 -60 -48c-20 -17.333 -45.667 -41 -77 -71l-96 -90l249 -291c-8 1.33301 -17.5 2.33301 -28.5 3s-21.167 1 -30.5 1c-20.667 0 -39 -1.33301 -55 -4c-129.333 174.667 -204 262 -224 262c-6.66699 0 -10 -4.66699 -10 -14
c0 -42.667 0.833008 -91.834 2.5 -147.501s2.5 -89.167 2.5 -100.5c-5.33301 1.33301 -12.166 2.33301 -20.499 3s-16.5 1 -24.5 1c-16 0 -30.333 -1.33301 -43 -4c0 38.667 0.833008 87.334 2.5 146.001s2.5 92.667 2.5 102s-3.33301 14 -10 14
c-8.66699 0 -31.834 -21.667 -69.501 -65s-89.167 -109 -154.5 -197c-16 2.66699 -34.333 4 -55 4h-24.5c-6.33301 0 -17.833 -1.33301 -34.5 -4l249 291l-96 90c-30 28.667 -55.333 52 -76 70c-23.333 20.667 -43.666 37 -60.999 49c15.333 -2.66699 30.666 -4 45.999 -4
c18 0 33.667 1.33301 47 4c54 -68.667 103 -123.334 147 -164.001c37.333 -34.667 62 -52 74 -52s18 6 18 18c0 28.667 -0.833008 66.667 -2.5 114s-2.5 75.333 -2.5 84z" />
    <glyph glyph-name="ae" unicode="&#x436;" horiz-adv-x="790" 
d="M357 500c12.667 -2.66699 27 -3.99902 43 -3.99902h23c10.667 2 18 3.33301 22 4v-4c-1.33301 -16 -2.5 -34.833 -3.5 -56.5s-1.5 -43.167 -1.5 -64.5v-73c0 -12 6 -18 18 -18c34 0 107.667 72 221 216c13.333 -2.66699 29 -4 47 -4h26c9.33301 2 16 3.33301 20 4
c-17.333 -12 -37.333 -28 -60 -48c-20 -17.333 -45.667 -41 -77 -71l-96 -90l249 -291c-8 1.33301 -17.5 2.33301 -28.5 3s-21.167 1 -30.5 1c-20.667 0 -39 -1.33301 -55 -4c-129.333 174.667 -204 262 -224 262c-6.66699 0 -10 -4.66699 -10 -14
c0 -42.667 0.833008 -91.834 2.5 -147.501s2.5 -89.167 2.5 -100.5c-5.33301 1.33301 -12.166 2.33301 -20.499 3s-16.5 1 -24.5 1c-16 0 -30.333 -1.33301 -43 -4c0 38.667 0.833008 87.334 2.5 146.001s2.5 92.667 2.5 102s-3.33301 14 -10 14
c-8.66699 0 -31.834 -21.667 -69.501 -65s-89.167 -109 -154.5 -197c-16 2.66699 -34.333 4 -55 4h-24.5c-6.33301 0 -17.833 -1.33301 -34.5 -4l249 291l-96 90c-30 28.667 -55.333 52 -76 70c-23.333 20.667 -43.666 37 -60.999 49c15.333 -2.66699 30.666 -4 45.999 -4
c18 0 33.667 1.33301 47 4c54 -68.667 103 -123.334 147 -164.001c37.333 -34.667 62 -52 74 -52s18 6 18 18c0 28.667 -0.833008 66.667 -2.5 114s-2.5 75.333 -2.5 84z" />
    <glyph glyph-name="ccedilla" unicode="&#xe7;" horiz-adv-x="460" 
d="M285 267c49.333 -8.66699 86.333 -22.165 111 -40.498s37 -45.833 37 -82.5c0 -47.333 -23 -84.833 -69 -112.5s-102.333 -41.5 -169 -41.5c-34.667 0 -66 3.5 -94 10.5s-52.333 16.167 -73 27.5l27 81c18.667 -24 41.167 -43.667 67.5 -59s54.166 -23 83.499 -23
c50 0 86.667 13.667 110 41c16 18.667 24 39.667 24 63c0 34.667 -12.167 62.5 -36.5 83.5s-55.166 31.5 -92.499 31.5l-69 -4l2 23l-2 23l69 -4c30.667 0 55 7 73 21c22 17.333 33 42.666 33 75.999c0 28 -10.167 50.833 -30.5 68.5s-47.166 26.5 -80.499 26.5
c-32.667 0 -61 -7 -85 -21c-19.333 -11.333 -35.333 -26 -48 -44l-9 1l-19 55c25.333 14.667 52 25.5 80 32.5s57.333 10.5 88 10.5c53.333 0 97.666 -9.33301 132.999 -28c42.667 -22.667 64 -56 64 -100c0 -34.667 -13 -61.334 -39 -80.001
c-20 -14.667 -48.667 -25 -86 -31v-4z" />
    <glyph glyph-name="ccedilla" unicode="&#x437;" horiz-adv-x="460" 
d="M285 267c49.333 -8.66699 86.333 -22.165 111 -40.498s37 -45.833 37 -82.5c0 -47.333 -23 -84.833 -69 -112.5s-102.333 -41.5 -169 -41.5c-34.667 0 -66 3.5 -94 10.5s-52.333 16.167 -73 27.5l27 81c18.667 -24 41.167 -43.667 67.5 -59s54.166 -23 83.499 -23
c50 0 86.667 13.667 110 41c16 18.667 24 39.667 24 63c0 34.667 -12.167 62.5 -36.5 83.5s-55.166 31.5 -92.499 31.5l-69 -4l2 23l-2 23l69 -4c30.667 0 55 7 73 21c22 17.333 33 42.666 33 75.999c0 28 -10.167 50.833 -30.5 68.5s-47.166 26.5 -80.499 26.5
c-32.667 0 -61 -7 -85 -21c-19.333 -11.333 -35.333 -26 -48 -44l-9 1l-19 55c25.333 14.667 52 25.5 80 32.5s57.333 10.5 88 10.5c53.333 0 97.666 -9.33301 132.999 -28c42.667 -22.667 64 -56 64 -100c0 -34.667 -13 -61.334 -39 -80.001
c-20 -14.667 -48.667 -25 -86 -31v-4z" />
    <glyph glyph-name="egrave" unicode="&#xe8;" 
d="M414 0c1.33301 4 2.5 10.1689 3.5 18.502s1.5 17.166 1.5 26.499v18c-2 11.333 -3 18.666 -3 21.999c-34.667 -63.333 -91.334 -95 -170.001 -95c-111.333 0 -167 57.667 -167 173v100c0 37.333 -0.333008 67.333 -1 90c-2.66699 91.333 -4 140.333 -4 147
c12.667 -2.66699 27 -4 43 -4h23c10.667 2 18 3.33301 22 4c0 -33.333 -0.833008 -78 -2.5 -134s-2.5 -90.333 -2.5 -103c0 -92 8.66699 -152.333 26 -181s49 -43 95 -43c60 0 100.333 24.667 121 74c13.333 31.333 20 81.333 20 150c0 41.333 -0.333008 86.833 -1 136.5
s-2 83.167 -4 100.5c12.667 -2.66699 27 -4 43 -4h23c10.667 2 18 3.33301 22 4c0 -33.333 -0.833008 -78 -2.5 -134s-2.5 -90.333 -2.5 -103c0 -40.667 0.833008 -92.5 2.5 -155.5s2.5 -98.833 2.5 -107.5c-5.33301 1.33301 -12.166 2.33301 -20.499 3s-16.5 1 -24.5 1
c-16 0 -30.333 -1.33301 -43 -4z" />
    <glyph glyph-name="egrave" unicode="&#x438;" 
d="M414 0c1.33301 4 2.5 10.1689 3.5 18.502s1.5 17.166 1.5 26.499v18c-2 11.333 -3 18.666 -3 21.999c-34.667 -63.333 -91.334 -95 -170.001 -95c-111.333 0 -167 57.667 -167 173v100c0 37.333 -0.333008 67.333 -1 90c-2.66699 91.333 -4 140.333 -4 147
c12.667 -2.66699 27 -4 43 -4h23c10.667 2 18 3.33301 22 4c0 -33.333 -0.833008 -78 -2.5 -134s-2.5 -90.333 -2.5 -103c0 -92 8.66699 -152.333 26 -181s49 -43 95 -43c60 0 100.333 24.667 121 74c13.333 31.333 20 81.333 20 150c0 41.333 -0.333008 86.833 -1 136.5
s-2 83.167 -4 100.5c12.667 -2.66699 27 -4 43 -4h23c10.667 2 18 3.33301 22 4c0 -33.333 -0.833008 -78 -2.5 -134s-2.5 -90.333 -2.5 -103c0 -40.667 0.833008 -92.5 2.5 -155.5s2.5 -98.833 2.5 -107.5c-5.33301 1.33301 -12.166 2.33301 -20.499 3s-16.5 1 -24.5 1
c-16 0 -30.333 -1.33301 -43 -4z" />
    <glyph glyph-name="eacute" unicode="&#xe9;" 
d="M414 0c1.33301 4 2.5 10.1689 3.5 18.502s1.5 17.166 1.5 26.499v18c-2 11.333 -3 18.666 -3 21.999c-34.667 -63.333 -91.334 -95 -170.001 -95c-111.333 0 -167 57.667 -167 173v100c0 37.333 -0.333008 67.333 -1 90c-2.66699 91.333 -4 140.333 -4 147
c12.667 -2.66699 27 -4 43 -4h23c10.667 2 18 3.33301 22 4c0 -33.333 -0.833008 -78 -2.5 -134s-2.5 -90.333 -2.5 -103c0 -92 8.66699 -152.333 26 -181s49 -43 95 -43c60 0 100.333 24.667 121 74c13.333 31.333 20 81.333 20 150c0 41.333 -0.333008 86.833 -1 136.5
s-2 83.167 -4 100.5c12.667 -2.66699 27 -4 43 -4h23c10.667 2 18 3.33301 22 4c0 -33.333 -0.833008 -78 -2.5 -134s-2.5 -90.333 -2.5 -103c0 -40.667 0.833008 -92.5 2.5 -155.5s2.5 -98.833 2.5 -107.5c-5.33301 1.33301 -12.166 2.33301 -20.499 3s-16.5 1 -24.5 1
c-16 0 -30.333 -1.33301 -43 -4zM147 558.002c12.667 70.667 45.999 106 99.999 106c14.667 0 31 -2.33301 49 -7c41.333 -10.667 65 -16 71 -16c14.667 0 25.334 3.16699 32.001 9.5s12.667 18.833 18 37.5h26c-12 -73.333 -45.667 -110 -101 -110c-12 0 -27 2.33301 -45 7
c-46 12 -70.667 18 -74 18c-22.667 0 -39 -15 -49 -45h-27z" />
    <glyph glyph-name="eacute" unicode="&#x439;" 
d="M414 0c1.33301 4 2.5 10.1689 3.5 18.502s1.5 17.166 1.5 26.499v18c-2 11.333 -3 18.666 -3 21.999c-34.667 -63.333 -91.334 -95 -170.001 -95c-111.333 0 -167 57.667 -167 173v100c0 37.333 -0.333008 67.333 -1 90c-2.66699 91.333 -4 140.333 -4 147
c12.667 -2.66699 27 -4 43 -4h23c10.667 2 18 3.33301 22 4c0 -33.333 -0.833008 -78 -2.5 -134s-2.5 -90.333 -2.5 -103c0 -92 8.66699 -152.333 26 -181s49 -43 95 -43c60 0 100.333 24.667 121 74c13.333 31.333 20 81.333 20 150c0 41.333 -0.333008 86.833 -1 136.5
s-2 83.167 -4 100.5c12.667 -2.66699 27 -4 43 -4h23c10.667 2 18 3.33301 22 4c0 -33.333 -0.833008 -78 -2.5 -134s-2.5 -90.333 -2.5 -103c0 -40.667 0.833008 -92.5 2.5 -155.5s2.5 -98.833 2.5 -107.5c-5.33301 1.33301 -12.166 2.33301 -20.499 3s-16.5 1 -24.5 1
c-16 0 -30.333 -1.33301 -43 -4zM147 558.002c12.667 70.667 45.999 106 99.999 106c14.667 0 31 -2.33301 49 -7c41.333 -10.667 65 -16 71 -16c14.667 0 25.334 3.16699 32.001 9.5s12.667 18.833 18 37.5h26c-12 -73.333 -45.667 -110 -101 -110c-12 0 -27 2.33301 -45 7
c-46 12 -70.667 18 -74 18c-22.667 0 -39 -15 -49 -45h-27z" />
    <glyph glyph-name="ecircumflex" unicode="&#xea;" horiz-adv-x="515" 
d="M170 500l-0.000976562 -4c-1.33301 -16 -2.5 -34.833 -3.5 -56.5s-1.5 -43.167 -1.5 -64.5v-73c0 -12 6 -18 18 -18c34 0 107.667 72 221 216c13.333 -2.66699 29 -4 47 -4h26c9.33301 2 16 3.33301 20 4c-17.333 -12 -37.333 -28 -60 -48
c-20 -17.333 -45.667 -41 -77 -71l-96 -90l249 -291c-8 1.33301 -17.5 2.33301 -28.5 3s-21.167 1 -30.5 1c-20.667 0 -39 -1.33301 -55 -4c-129.333 174.667 -204 262 -224 262c-6.66699 0 -10 -4.66699 -10 -14c0 -42.667 0.833008 -91.834 2.5 -147.501
s2.5 -89.167 2.5 -100.5c-5.33301 1.33301 -12.166 2.33301 -20.499 3s-16.5 1 -24.5 1c-16 0 -30.333 -1.33301 -43 -4c0 37.333 0.833008 87.333 2.5 150s2.5 100.334 2.5 113.001c0 37.333 -0.333008 67.333 -1 90c-2.66699 91.333 -4 140.333 -4 147
c12.667 -2.66699 27 -4 43 -4h23c10.667 2 18 3.33301 22 4z" />
    <glyph glyph-name="ecircumflex" unicode="&#x43a;" horiz-adv-x="515" 
d="M170 500l-0.000976562 -4c-1.33301 -16 -2.5 -34.833 -3.5 -56.5s-1.5 -43.167 -1.5 -64.5v-73c0 -12 6 -18 18 -18c34 0 107.667 72 221 216c13.333 -2.66699 29 -4 47 -4h26c9.33301 2 16 3.33301 20 4c-17.333 -12 -37.333 -28 -60 -48
c-20 -17.333 -45.667 -41 -77 -71l-96 -90l249 -291c-8 1.33301 -17.5 2.33301 -28.5 3s-21.167 1 -30.5 1c-20.667 0 -39 -1.33301 -55 -4c-129.333 174.667 -204 262 -224 262c-6.66699 0 -10 -4.66699 -10 -14c0 -42.667 0.833008 -91.834 2.5 -147.501
s2.5 -89.167 2.5 -100.5c-5.33301 1.33301 -12.166 2.33301 -20.499 3s-16.5 1 -24.5 1c-16 0 -30.333 -1.33301 -43 -4c0 37.333 0.833008 87.333 2.5 150s2.5 100.334 2.5 113.001c0 37.333 -0.333008 67.333 -1 90c-2.66699 91.333 -4 140.333 -4 147
c12.667 -2.66699 27 -4 43 -4h23c10.667 2 18 3.33301 22 4z" />
    <glyph glyph-name="edieresis" unicode="&#xeb;" horiz-adv-x="511" 
d="M15 0l68.001 147.999l78 180c30 72.667 52.333 130 67 172l32 -3l33 3c24.667 -68 54.667 -145.333 90 -232c41.333 -102 79.333 -191.333 114 -268c-8 1.33301 -15.333 2.33301 -22 3s-15.334 1 -26.001 1l-46 -4c-32 104.667 -83.333 238.334 -154 401.001
c-8 -7.33301 -23 -36.333 -45 -87c-18 -42 -39.333 -95.333 -64 -160l-57 -154c-8 2 -13.833 3.16699 -17.5 3.5s-9.16699 0.5 -16.5 0.5c-12 0 -23.333 -1.33301 -34 -4z" />
    <glyph glyph-name="edieresis" unicode="&#x43b;" horiz-adv-x="511" 
d="M15 0l68.001 147.999l78 180c30 72.667 52.333 130 67 172l32 -3l33 3c24.667 -68 54.667 -145.333 90 -232c41.333 -102 79.333 -191.333 114 -268c-8 1.33301 -15.333 2.33301 -22 3s-15.334 1 -26.001 1l-46 -4c-32 104.667 -83.333 238.334 -154 401.001
c-8 -7.33301 -23 -36.333 -45 -87c-18 -42 -39.333 -95.333 -64 -160l-57 -154c-8 2 -13.833 3.16699 -17.5 3.5s-9.16699 0.5 -16.5 0.5c-12 0 -23.333 -1.33301 -34 -4z" />
    <glyph glyph-name="igrave" unicode="&#xec;" horiz-adv-x="708" 
d="M36 0l71.998 500.001h29c42.667 -84.667 80.667 -156.667 114 -216c39.333 -70.667 75.333 -130.334 108 -179.001c24 41.333 58.167 103.5 102.5 186.5l108.5 208.5h29l24 -204c23.333 -193.333 35.333 -292 36 -296c-10 1.33301 -17.833 2.33301 -23.5 3
s-13.5 1 -23.5 1l-46 -4c0 52.667 -3 110 -9 172c-3.33301 35.333 -10 91 -20 167l-98 -165c-34.667 -61.333 -65.667 -119.333 -93 -174h-24c-30 58.667 -61.333 116.334 -94 173.001c-29.333 51.333 -62.666 106.666 -99.999 165.999
c-16.667 -123.333 -26.334 -198.333 -29.001 -225c-4.66699 -44 -7 -82 -7 -114c-9.33301 2.66699 -18.666 4 -27.999 4s-18.666 -1.33301 -27.999 -4z" />
    <glyph glyph-name="igrave" unicode="&#x43c;" horiz-adv-x="708" 
d="M36 0l71.998 500.001h29c42.667 -84.667 80.667 -156.667 114 -216c39.333 -70.667 75.333 -130.334 108 -179.001c24 41.333 58.167 103.5 102.5 186.5l108.5 208.5h29l24 -204c23.333 -193.333 35.333 -292 36 -296c-10 1.33301 -17.833 2.33301 -23.5 3
s-13.5 1 -23.5 1l-46 -4c0 52.667 -3 110 -9 172c-3.33301 35.333 -10 91 -20 167l-98 -165c-34.667 -61.333 -65.667 -119.333 -93 -174h-24c-30 58.667 -61.333 116.334 -94 173.001c-29.333 51.333 -62.666 106.666 -99.999 165.999
c-16.667 -123.333 -26.334 -198.333 -29.001 -225c-4.66699 -44 -7 -82 -7 -114c-9.33301 2.66699 -18.666 4 -27.999 4s-18.666 -1.33301 -27.999 -4z" />
    <glyph glyph-name="iacute" unicode="&#xed;" horiz-adv-x="590" 
d="M169 500c0 -22 -0.834961 -59.334 -2.50195 -112.001s-2.5 -85 -2.5 -97c20 -2 45.833 -3.33301 77.5 -4s49.5 -1 53.5 -1c29.333 0 55.333 0.5 78 1.5s39.667 2.16699 51 3.5c0 22.667 -0.833008 60.5 -2.5 113.5s-2.5 84.833 -2.5 95.5c12.667 -2.66699 27 -4 43 -4h23
c10.667 2 18 3.33301 22 4c0 -33.333 -0.833008 -78 -2.5 -134s-2.5 -90.333 -2.5 -103c0 -40.667 0.833008 -92.5 2.5 -155.5s2.5 -98.833 2.5 -107.5c-5.33301 1.33301 -12.166 2.33301 -20.499 3s-16.5 1 -24.5 1c-16 0 -30.333 -1.33301 -43 -4
c0 28.667 0.833008 73.5 2.5 134.5s2.5 97.5 2.5 109.5c-18.667 2 -38.5 3.33301 -59.5 4s-44.167 1 -69.5 1c-28.667 0 -62.667 -1 -102 -3c-7.33301 0 -17 -0.666992 -29 -2c0 -38 0.833008 -86.833 2.5 -146.5s2.5 -92.167 2.5 -97.5
c-5.33301 1.33301 -12.166 2.33301 -20.499 3s-16.5 1 -24.5 1c-16 0 -30.333 -1.33301 -43 -4c0 37.333 0.833008 87.333 2.5 150s2.5 100.334 2.5 113.001c0 37.333 -0.333008 67.333 -1 90c-2.66699 91.333 -4 140.333 -4 147c12.667 -2.66699 27 -4 43 -4h23
c10.667 2 18 3.33301 22 4z" />
    <glyph glyph-name="iacute" unicode="&#x43d;" horiz-adv-x="590" 
d="M169 500c0 -22 -0.834961 -59.334 -2.50195 -112.001s-2.5 -85 -2.5 -97c20 -2 45.833 -3.33301 77.5 -4s49.5 -1 53.5 -1c29.333 0 55.333 0.5 78 1.5s39.667 2.16699 51 3.5c0 22.667 -0.833008 60.5 -2.5 113.5s-2.5 84.833 -2.5 95.5c12.667 -2.66699 27 -4 43 -4h23
c10.667 2 18 3.33301 22 4c0 -33.333 -0.833008 -78 -2.5 -134s-2.5 -90.333 -2.5 -103c0 -40.667 0.833008 -92.5 2.5 -155.5s2.5 -98.833 2.5 -107.5c-5.33301 1.33301 -12.166 2.33301 -20.499 3s-16.5 1 -24.5 1c-16 0 -30.333 -1.33301 -43 -4
c0 28.667 0.833008 73.5 2.5 134.5s2.5 97.5 2.5 109.5c-18.667 2 -38.5 3.33301 -59.5 4s-44.167 1 -69.5 1c-28.667 0 -62.667 -1 -102 -3c-7.33301 0 -17 -0.666992 -29 -2c0 -38 0.833008 -86.833 2.5 -146.5s2.5 -92.167 2.5 -97.5
c-5.33301 1.33301 -12.166 2.33301 -20.499 3s-16.5 1 -24.5 1c-16 0 -30.333 -1.33301 -43 -4c0 37.333 0.833008 87.333 2.5 150s2.5 100.334 2.5 113.001c0 37.333 -0.333008 67.333 -1 90c-2.66699 91.333 -4 140.333 -4 147c12.667 -2.66699 27 -4 43 -4h23
c10.667 2 18 3.33301 22 4z" />
    <glyph glyph-name="icircumflex" unicode="&#xee;" horiz-adv-x="578" 
d="M289 -10c-73.333 0 -133.5 24.167 -180.5 72.5s-70.5 110.833 -70.5 187.5s23.833 139.167 71.5 187.5s107.5 72.5 179.5 72.5c74 0 134.333 -24 181 -72s70 -110.667 70 -188c0 -78 -23.5 -140.833 -70.5 -188.5s-107.167 -71.5 -180.5 -71.5zM289 24
c52 0 91.832 18.5 119.499 55.5s41.5 91.833 41.5 164.5c0 76 -13.667 133.667 -41 173s-67.666 59 -120.999 59c-106.667 0 -160 -75 -160 -225c0 -151.333 53.667 -227 161 -227z" />
    <glyph glyph-name="icircumflex" unicode="&#x43e;" horiz-adv-x="578" 
d="M289 -10c-73.333 0 -133.5 24.167 -180.5 72.5s-70.5 110.833 -70.5 187.5s23.833 139.167 71.5 187.5s107.5 72.5 179.5 72.5c74 0 134.333 -24 181 -72s70 -110.667 70 -188c0 -78 -23.5 -140.833 -70.5 -188.5s-107.167 -71.5 -180.5 -71.5zM289 24
c52 0 91.832 18.5 119.499 55.5s41.5 91.833 41.5 164.5c0 76 -13.667 133.667 -41 173s-67.666 59 -120.999 59c-106.667 0 -160 -75 -160 -225c0 -151.333 53.667 -227 161 -227z" />
    <glyph glyph-name="idieresis" unicode="&#xef;" horiz-adv-x="560" 
d="M170 500c-2.66699 -28 -4.1709 -47.502 -4.50391 -58.502s-0.5 -19.833 -0.5 -26.5c25.333 33.333 51.333 57.5 78 72.5s56 22.5 88 22.5c42.667 0 76.334 -14.667 101.001 -44c33.333 -40 50 -107.667 50 -203c0 -40.667 0.833008 -92.5 2.5 -155.5
s2.5 -98.833 2.5 -107.5c-5.33301 1.33301 -12.166 2.33301 -20.499 3s-16.5 1 -24.5 1c-16 0 -30.333 -1.33301 -43 -4c0 37.333 0.833008 87.333 2.5 150s2.5 100.334 2.5 113.001c0 69.333 -7.83301 118.666 -23.5 147.999s-43.5 44 -83.5 44
c-45.333 0 -78.666 -16.667 -99.999 -50s-32 -80.666 -32 -141.999c0 -40.667 0.833008 -92.5 2.5 -155.5s2.5 -98.833 2.5 -107.5c-5.33301 1.33301 -12.166 2.33301 -20.499 3s-16.5 1 -24.5 1c-16 0 -30.333 -1.33301 -43 -4c0 37.333 0.833008 87.333 2.5 150
s2.5 100.334 2.5 113.001c0 37.333 -0.333008 67.333 -1 90c-2.66699 91.333 -4 140.333 -4 147c12.667 -2.66699 27 -4 43 -4h23c10.667 2 18 3.33301 22 4z" />
    <glyph glyph-name="idieresis" unicode="&#x43f;" horiz-adv-x="560" 
d="M170 500c-2.66699 -28 -4.1709 -47.502 -4.50391 -58.502s-0.5 -19.833 -0.5 -26.5c25.333 33.333 51.333 57.5 78 72.5s56 22.5 88 22.5c42.667 0 76.334 -14.667 101.001 -44c33.333 -40 50 -107.667 50 -203c0 -40.667 0.833008 -92.5 2.5 -155.5
s2.5 -98.833 2.5 -107.5c-5.33301 1.33301 -12.166 2.33301 -20.499 3s-16.5 1 -24.5 1c-16 0 -30.333 -1.33301 -43 -4c0 37.333 0.833008 87.333 2.5 150s2.5 100.334 2.5 113.001c0 69.333 -7.83301 118.666 -23.5 147.999s-43.5 44 -83.5 44
c-45.333 0 -78.666 -16.667 -99.999 -50s-32 -80.666 -32 -141.999c0 -40.667 0.833008 -92.5 2.5 -155.5s2.5 -98.833 2.5 -107.5c-5.33301 1.33301 -12.166 2.33301 -20.499 3s-16.5 1 -24.5 1c-16 0 -30.333 -1.33301 -43 -4c0 37.333 0.833008 87.333 2.5 150
s2.5 100.334 2.5 113.001c0 37.333 -0.333008 67.333 -1 90c-2.66699 91.333 -4 140.333 -4 147c12.667 -2.66699 27 -4 43 -4h23c10.667 2 18 3.33301 22 4z" />
    <glyph glyph-name="eth" unicode="&#xf0;" horiz-adv-x="592" 
d="M169 500c-2.66699 -26.667 -4.16309 -45.834 -4.49609 -57.501s-0.5 -21.834 -0.5 -30.501c22 34 46.667 58.833 74 74.5s60.666 23.5 99.999 23.5c68.667 0 121.5 -22.167 158.5 -66.5s55.5 -109.166 55.5 -194.499c0 -80.667 -20.333 -144 -61 -190
s-94.334 -69 -161.001 -69c-72.667 0 -128 29 -166 87v-137c0 -18.667 0.833008 -55.5 2.5 -110.5s2.5 -96.167 2.5 -123.5c-12.667 2.66699 -27.334 4 -44.001 4c-16 0 -30.667 -1.33301 -44 -4c0 18.667 0.833008 78.334 2.5 179.001s2.5 195.334 2.5 284.001
c0 72.667 -0.666992 135.667 -2 189s-2.33301 100.666 -3 141.999c6.66699 -1.33301 13.167 -2.33301 19.5 -3s14.166 -1 23.499 -1c7.33301 0 14 0.333008 20 1s14.333 1.66699 25 3zM313.004 470c-50 0 -88.333 -20.668 -115 -62.001s-40 -101.666 -40 -180.999
c0 -133.333 48.333 -200 145 -200c50 0 89 20.5 117 61.5s42 99.833 42 176.5c0 67.333 -12.667 118.333 -38 153s-62.333 52 -111 52z" />
    <glyph glyph-name="eth" unicode="&#x440;" horiz-adv-x="592" 
d="M169 500c-2.66699 -26.667 -4.16309 -45.834 -4.49609 -57.501s-0.5 -21.834 -0.5 -30.501c22 34 46.667 58.833 74 74.5s60.666 23.5 99.999 23.5c68.667 0 121.5 -22.167 158.5 -66.5s55.5 -109.166 55.5 -194.499c0 -80.667 -20.333 -144 -61 -190
s-94.334 -69 -161.001 -69c-72.667 0 -128 29 -166 87v-137c0 -18.667 0.833008 -55.5 2.5 -110.5s2.5 -96.167 2.5 -123.5c-12.667 2.66699 -27.334 4 -44.001 4c-16 0 -30.667 -1.33301 -44 -4c0 18.667 0.833008 78.334 2.5 179.001s2.5 195.334 2.5 284.001
c0 72.667 -0.666992 135.667 -2 189s-2.33301 100.666 -3 141.999c6.66699 -1.33301 13.167 -2.33301 19.5 -3s14.166 -1 23.499 -1c7.33301 0 14 0.333008 20 1s14.333 1.66699 25 3zM313.004 470c-50 0 -88.333 -20.668 -115 -62.001s-40 -101.666 -40 -180.999
c0 -133.333 48.333 -200 145 -200c50 0 89 20.5 117 61.5s42 99.833 42 176.5c0 67.333 -12.667 118.333 -38 153s-62.333 52 -111 52z" />
    <glyph glyph-name="ntilde" unicode="&#xf1;" horiz-adv-x="490" 
d="M466 42c-24 -18.667 -50.5 -31.999 -79.5 -39.999s-62.833 -12 -101.5 -12c-74 0 -133.833 23.5 -179.5 70.5s-68.5 109.833 -68.5 188.5c0 79.333 24 142.666 72 189.999s111.667 71 191 71c60 0 117.333 -14.333 172 -43c-12 -28.667 -21.333 -59 -28 -91
c-30 66.667 -78 100 -144 100c-56 0 -99.5 -19.833 -130.5 -59.5s-46.5 -95.167 -46.5 -166.5c0 -69.333 16.833 -123.833 50.5 -163.5s78.5 -59.5 134.5 -59.5s109 25.333 159 76l-3 -39z" />
    <glyph glyph-name="ntilde" unicode="&#x441;" horiz-adv-x="490" 
d="M466 42c-24 -18.667 -50.5 -31.999 -79.5 -39.999s-62.833 -12 -101.5 -12c-74 0 -133.833 23.5 -179.5 70.5s-68.5 109.833 -68.5 188.5c0 79.333 24 142.666 72 189.999s111.667 71 191 71c60 0 117.333 -14.333 172 -43c-12 -28.667 -21.333 -59 -28 -91
c-30 66.667 -78 100 -144 100c-56 0 -99.5 -19.833 -130.5 -59.5s-46.5 -95.167 -46.5 -166.5c0 -69.333 16.833 -123.833 50.5 -163.5s78.5 -59.5 134.5 -59.5s109 25.333 159 76l-3 -39z" />
    <glyph glyph-name="ograve" unicode="&#xf2;" horiz-adv-x="486" 
d="M16 500c26 0 65.333 -0.667969 118 -2.00098s87.667 -2 105 -2c26.667 0 70.167 0.666992 130.5 2s92.5 2 96.5 2l-2 -29l2 -29c-29.333 5.33301 -55 9 -77 11s-56.667 3 -104 3c0 -18 -0.666992 -53 -2 -105s-2 -81.333 -2 -88c0 -40.667 0.833008 -92.5 2.5 -155.5
s2.5 -98.833 2.5 -107.5c-5.33301 1.33301 -12.166 2.33301 -20.499 3s-16.5 1 -24.5 1c-16 0 -30.333 -1.33301 -43 -4c0 37.333 0.833008 87.333 2.5 150s2.5 100.334 2.5 113.001c0 22.667 -0.666992 56 -2 100s-2 75 -2 93c-38 0 -72.833 -1.33301 -104.5 -4
s-57.834 -6 -78.501 -10c2 7.33301 3 17 3 29z" />
    <glyph glyph-name="ograve" unicode="&#x442;" horiz-adv-x="486" 
d="M16 500c26 0 65.333 -0.667969 118 -2.00098s87.667 -2 105 -2c26.667 0 70.167 0.666992 130.5 2s92.5 2 96.5 2l-2 -29l2 -29c-29.333 5.33301 -55 9 -77 11s-56.667 3 -104 3c0 -18 -0.666992 -53 -2 -105s-2 -81.333 -2 -88c0 -40.667 0.833008 -92.5 2.5 -155.5
s2.5 -98.833 2.5 -107.5c-5.33301 1.33301 -12.166 2.33301 -20.499 3s-16.5 1 -24.5 1c-16 0 -30.333 -1.33301 -43 -4c0 37.333 0.833008 87.333 2.5 150s2.5 100.334 2.5 113.001c0 22.667 -0.666992 56 -2 100s-2 75 -2 93c-38 0 -72.833 -1.33301 -104.5 -4
s-57.834 -6 -78.501 -10c2 7.33301 3 17 3 29z" />
    <glyph glyph-name="oacute" unicode="&#xf3;" horiz-adv-x="495" 
d="M220 3l-43.999 116.999l-50 120l-116 260c15.333 -2.66699 32.666 -4 51.999 -4h31c9.33301 2 16 3.33301 20 4c10.667 -38 24 -78.5 40 -121.5s40.667 -104.833 74 -185.5l37 -91l38 88c52 119.333 91.667 222.666 119 309.999c10 -2.66699 22 -4 36 -4h17
c8 2 14 3.33301 18 4c-16 -30.667 -32 -63.5 -48 -98.5l-53 -119.5l-142 -321c-28 -63.333 -47.667 -109.333 -59 -138c-17.333 -43.333 -30 -80.666 -38 -111.999c-10 2 -16.5 3.16699 -19.5 3.5s-8.5 0.5 -16.5 0.5l-37 -4c20 34 38 67 54 99
c8.66699 16.667 29.667 62.334 63 137.001z" />
    <glyph glyph-name="oacute" unicode="&#x443;" horiz-adv-x="495" 
d="M220 3l-43.999 116.999l-50 120l-116 260c15.333 -2.66699 32.666 -4 51.999 -4h31c9.33301 2 16 3.33301 20 4c10.667 -38 24 -78.5 40 -121.5s40.667 -104.833 74 -185.5l37 -91l38 88c52 119.333 91.667 222.666 119 309.999c10 -2.66699 22 -4 36 -4h17
c8 2 14 3.33301 18 4c-16 -30.667 -32 -63.5 -48 -98.5l-53 -119.5l-142 -321c-28 -63.333 -47.667 -109.333 -59 -138c-17.333 -43.333 -30 -80.666 -38 -111.999c-10 2 -16.5 3.16699 -19.5 3.5s-8.5 0.5 -16.5 0.5l-37 -4c20 34 38 67 54 99
c8.66699 16.667 29.667 62.334 63 137.001z" />
    <glyph glyph-name="ocircumflex" unicode="&#xf4;" horiz-adv-x="835" 
d="M374 257c0 66 -10.999 117.668 -32.999 155.001s-54 56 -96 56c-41.333 0 -73.833 -18.167 -97.5 -54.5s-35.5 -88.5 -35.5 -156.5c0 -58 9.66699 -106.667 29 -146c24 -48.667 59.667 -73 107 -73c37.333 0 67.666 18.667 90.999 56s35 91.666 35 162.999z
M452.001 83.001c0 -78.667 0.666992 -145.5 2 -200.5s4.33301 -109.167 9 -162.5c-5.33301 1.33301 -14.333 2.33301 -27 3s-19.667 1 -21 1h-22.5c-6.33301 0 -15.833 -1.33301 -28.5 -4c0 32 1.66699 87 5 165s5 144 5 198c-14.667 -23.333 -33 -42.666 -55 -57.999
c-28 -19.333 -58.667 -29 -92 -29c-50.667 0 -95.667 24 -135 72c-44 53.333 -66 121 -66 203c0 68.667 17 124.334 51 167.001c38 48 92.333 72 163 72c30 0 58 -11 84 -33c16 -13.333 32.667 -33 50 -59c0 47.333 -0.333008 85.666 -1 114.999
c-2.66699 117.333 -4 179.666 -4 186.999l44 -4h22c10.667 2 18 3.33301 22 4c0 -40 -0.833008 -96.333 -2.5 -169s-2.5 -117 -2.5 -133c12.667 21.333 29.667 40.333 51 57c29.333 23.333 59 35 89 35c73.333 0 127.666 -24.333 162.999 -73c30 -41.333 45 -97.333 45 -168
c0 -82 -21 -149.333 -63 -202c-38 -47.333 -82 -71 -132 -71c-34 0 -65.667 9.33301 -95 28c-23.333 15.333 -42.666 35 -57.999 59zM452.001 257.001c0 -71.333 11.999 -126.333 35.999 -165c22 -36 52 -54 90 -54c47.333 0 83 24.333 107 73c19.333 39.333 29 88 29 146
c0 68 -11.667 120.167 -35 156.5s-56 54.5 -98 54.5c-41.333 0 -73.166 -18.833 -95.499 -56.5s-33.5 -89.167 -33.5 -154.5z" />
    <glyph glyph-name="ocircumflex" unicode="&#x444;" horiz-adv-x="835" 
d="M374 257c0 66 -10.999 117.668 -32.999 155.001s-54 56 -96 56c-41.333 0 -73.833 -18.167 -97.5 -54.5s-35.5 -88.5 -35.5 -156.5c0 -58 9.66699 -106.667 29 -146c24 -48.667 59.667 -73 107 -73c37.333 0 67.666 18.667 90.999 56s35 91.666 35 162.999z
M452.001 83.001c0 -78.667 0.666992 -145.5 2 -200.5s4.33301 -109.167 9 -162.5c-5.33301 1.33301 -14.333 2.33301 -27 3s-19.667 1 -21 1h-22.5c-6.33301 0 -15.833 -1.33301 -28.5 -4c0 32 1.66699 87 5 165s5 144 5 198c-14.667 -23.333 -33 -42.666 -55 -57.999
c-28 -19.333 -58.667 -29 -92 -29c-50.667 0 -95.667 24 -135 72c-44 53.333 -66 121 -66 203c0 68.667 17 124.334 51 167.001c38 48 92.333 72 163 72c30 0 58 -11 84 -33c16 -13.333 32.667 -33 50 -59c0 47.333 -0.333008 85.666 -1 114.999
c-2.66699 117.333 -4 179.666 -4 186.999l44 -4h22c10.667 2 18 3.33301 22 4c0 -40 -0.833008 -96.333 -2.5 -169s-2.5 -117 -2.5 -133c12.667 21.333 29.667 40.333 51 57c29.333 23.333 59 35 89 35c73.333 0 127.666 -24.333 162.999 -73c30 -41.333 45 -97.333 45 -168
c0 -82 -21 -149.333 -63 -202c-38 -47.333 -82 -71 -132 -71c-34 0 -65.667 9.33301 -95 28c-23.333 15.333 -42.666 35 -57.999 59zM452.001 257.001c0 -71.333 11.999 -126.333 35.999 -165c22 -36 52 -54 90 -54c47.333 0 83 24.333 107 73c19.333 39.333 29 88 29 146
c0 68 -11.667 120.167 -35 156.5s-56 54.5 -98 54.5c-41.333 0 -73.166 -18.833 -95.499 -56.5s-33.5 -89.167 -33.5 -154.5z" />
    <glyph glyph-name="otilde" unicode="&#xf5;" horiz-adv-x="498" 
d="M232 210l-75.002 -95.001c-31.333 -39.333 -56 -77.666 -74 -114.999c-5.33301 1.33301 -11.5 2.33301 -18.5 3s-13.5 1 -19.5 1c-14 0 -27.333 -1.33301 -40 -4c28 29.333 53.333 57.666 76 84.999c12 14.667 30.333 38.334 55 71.001l70 91l-50 70l-66 89l-73 94
c16 -2.66699 34 -4 54 -4h33c10 2 17 3.33301 21 4l47 -70l86 -123l63 82c20 25.333 36.5 47.166 49.5 65.499s22.5 33.5 28.5 45.5c6.66699 -1.33301 12.667 -2.33301 18 -3s12 -1 20 -1c6.66699 0 13 0.333008 19 1s12.667 1.66699 20 3
c-53.333 -59.333 -96.666 -109.666 -129.999 -150.999l-63 -78l99 -138l29 -40c20.667 -27.333 45.334 -58.333 74.001 -93c-18 2.66699 -37 4 -57 4h-22.5c-5.66699 0 -16.167 -1.33301 -31.5 -4c-12 20 -27.333 44.333 -46 73l-57 83z" />
    <glyph glyph-name="otilde" unicode="&#x445;" horiz-adv-x="498" 
d="M232 210l-75.002 -95.001c-31.333 -39.333 -56 -77.666 -74 -114.999c-5.33301 1.33301 -11.5 2.33301 -18.5 3s-13.5 1 -19.5 1c-14 0 -27.333 -1.33301 -40 -4c28 29.333 53.333 57.666 76 84.999c12 14.667 30.333 38.334 55 71.001l70 91l-50 70l-66 89l-73 94
c16 -2.66699 34 -4 54 -4h33c10 2 17 3.33301 21 4l47 -70l86 -123l63 82c20 25.333 36.5 47.166 49.5 65.499s22.5 33.5 28.5 45.5c6.66699 -1.33301 12.667 -2.33301 18 -3s12 -1 20 -1c6.66699 0 13 0.333008 19 1s12.667 1.66699 20 3
c-53.333 -59.333 -96.666 -109.666 -129.999 -150.999l-63 -78l99 -138l29 -40c20.667 -27.333 45.334 -58.333 74.001 -93c-18 2.66699 -37 4 -57 4h-22.5c-5.66699 0 -16.167 -1.33301 -31.5 -4c-12 20 -27.333 44.333 -46 73l-57 83z" />
    <glyph glyph-name="odieresis" unicode="&#xf6;" horiz-adv-x="561" 
d="M373 85c-34.667 -63.333 -91.3311 -95.001 -169.998 -95.001c-111.333 0 -167 57.667 -167 173v100c0 37.333 -0.333008 67.333 -1 90c-2.66699 91.333 -4 140.333 -4 147c12.667 -2.66699 27 -4 43 -4h23c10.667 2 18 3.33301 22 4c0 -33.333 -0.833008 -78 -2.5 -134
s-2.5 -90.333 -2.5 -103c0 -92 8.66699 -152.333 26 -181s49 -43 95 -43c60 0 100.333 24.667 121 74c13.333 31.333 20 81.333 20 150c0 37.333 -0.333008 67.333 -1 90c-2.66699 91.333 -4 140.333 -4 147c12.667 -2.66699 27 -4 43 -4h23c10.667 2 18 3.33301 22 4
c0 -33.333 -0.833008 -78 -2.5 -134s-2.5 -90.333 -2.5 -103c0 -109.333 1.33301 -175.5 4 -198.5s10.667 -34.5 24 -34.5c11.333 0 33 4.66699 65 14l3 -4c0 -90.667 -10 -151.667 -30 -183c-22.667 -35.333 -69.334 -58.333 -140.001 -69l-9 21
c43.333 7.33301 71.666 23 84.999 47s20 72 20 144h-20c-28.667 0 -48.667 4.66699 -60 14c-15.333 12.667 -23 36.334 -23 71.001z" />
    <glyph glyph-name="odieresis" unicode="&#x446;" horiz-adv-x="561" 
d="M373 85c-34.667 -63.333 -91.3311 -95.001 -169.998 -95.001c-111.333 0 -167 57.667 -167 173v100c0 37.333 -0.333008 67.333 -1 90c-2.66699 91.333 -4 140.333 -4 147c12.667 -2.66699 27 -4 43 -4h23c10.667 2 18 3.33301 22 4c0 -33.333 -0.833008 -78 -2.5 -134
s-2.5 -90.333 -2.5 -103c0 -92 8.66699 -152.333 26 -181s49 -43 95 -43c60 0 100.333 24.667 121 74c13.333 31.333 20 81.333 20 150c0 37.333 -0.333008 67.333 -1 90c-2.66699 91.333 -4 140.333 -4 147c12.667 -2.66699 27 -4 43 -4h23c10.667 2 18 3.33301 22 4
c0 -33.333 -0.833008 -78 -2.5 -134s-2.5 -90.333 -2.5 -103c0 -109.333 1.33301 -175.5 4 -198.5s10.667 -34.5 24 -34.5c11.333 0 33 4.66699 65 14l3 -4c0 -90.667 -10 -151.667 -30 -183c-22.667 -35.333 -69.334 -58.333 -140.001 -69l-9 21
c43.333 7.33301 71.666 23 84.999 47s20 72 20 144h-20c-28.667 0 -48.667 4.66699 -60 14c-15.333 12.667 -23 36.334 -23 71.001z" />
    <glyph glyph-name="divide" unicode="&#xf7;" horiz-adv-x="482" 
d="M356 289c-18 -32 -37.002 -54.6641 -57.002 -67.9971c-28.667 -20 -67.334 -30 -116.001 -30c-34 0 -66.333 11.333 -97 34c-40 30 -60 71 -60 123c0 25.333 -0.333008 52.666 -1 81.999s-2 52.666 -4 69.999c12.667 -2.66699 28 -4 46 -4h25
c8.66699 2 14.334 3.33301 17.001 4c0 -24.667 -0.5 -48.5 -1.5 -71.5s-2.16699 -48.5 -3.5 -76.5c0 -32 10.833 -58.167 32.5 -78.5s49.834 -30.5 84.501 -30.5c34 0 62.333 9 85 27c33.333 26.667 50 70 50 130c0 13.333 -0.333008 29 -1 47s-2 35.667 -4 53
c12.667 -2.66699 27 -4 43 -4h23c10.667 2 18 3.33301 22 4c0 -33.333 -0.833008 -78 -2.5 -134s-2.5 -90.333 -2.5 -103c0 -40.667 0.833008 -92.5 2.5 -155.5s2.5 -98.833 2.5 -107.5c-5.33301 1.33301 -12.166 2.33301 -20.499 3s-16.5 1 -24.5 1
c-16 0 -30.333 -1.33301 -43 -4c0 39.333 0.833008 93.666 2.5 162.999s2.5 111.333 2.5 126z" />
    <glyph glyph-name="divide" unicode="&#x447;" horiz-adv-x="482" 
d="M356 289c-18 -32 -37.002 -54.6641 -57.002 -67.9971c-28.667 -20 -67.334 -30 -116.001 -30c-34 0 -66.333 11.333 -97 34c-40 30 -60 71 -60 123c0 25.333 -0.333008 52.666 -1 81.999s-2 52.666 -4 69.999c12.667 -2.66699 28 -4 46 -4h25
c8.66699 2 14.334 3.33301 17.001 4c0 -24.667 -0.5 -48.5 -1.5 -71.5s-2.16699 -48.5 -3.5 -76.5c0 -32 10.833 -58.167 32.5 -78.5s49.834 -30.5 84.501 -30.5c34 0 62.333 9 85 27c33.333 26.667 50 70 50 130c0 13.333 -0.333008 29 -1 47s-2 35.667 -4 53
c12.667 -2.66699 27 -4 43 -4h23c10.667 2 18 3.33301 22 4c0 -33.333 -0.833008 -78 -2.5 -134s-2.5 -90.333 -2.5 -103c0 -40.667 0.833008 -92.5 2.5 -155.5s2.5 -98.833 2.5 -107.5c-5.33301 1.33301 -12.166 2.33301 -20.499 3s-16.5 1 -24.5 1
c-16 0 -30.333 -1.33301 -43 -4c0 39.333 0.833008 93.666 2.5 162.999s2.5 111.333 2.5 126z" />
    <glyph glyph-name="oslash" unicode="&#xf8;" horiz-adv-x="810" 
d="M680 89c-26 -34.667 -51.333 -59.834 -76 -75.501s-52.334 -23.5 -83.001 -23.5c-34 0 -63.833 9.5 -89.5 28.5s-43.167 44.833 -52.5 77.5c-41.333 -70.667 -97.666 -106 -168.999 -106c-50.667 0 -89.834 14.833 -117.501 44.5s-41.5 73.167 -41.5 130.5l3 98
c0 37.333 -0.333008 67.333 -1 90c-2.66699 91.333 -4 140.333 -4 147c12.667 -2.66699 27 -4 43 -4h23c10.667 2 18 3.33301 22 4c0 -33.333 -0.833008 -78 -2.5 -134s-2.5 -90.333 -2.5 -103c0 -88 6.83301 -146 20.5 -174s42.5 -42 86.5 -42c50 0 85 21.667 105 65
c15.333 33.333 23 83.666 23 150.999c0 37.333 -0.333008 67.333 -1 90c-2.66699 91.333 -4 140.333 -4 147c12.667 -2.66699 27 -4 43 -4h23c10.667 2 18 3.33301 22 4c0 -33.333 -0.833008 -78 -2.5 -134s-2.5 -90.333 -2.5 -103c0 -88 6.5 -146 19.5 -174
s39.833 -42 80.5 -42c54 0 91.333 21.667 112 65c15.333 32 23 82.333 23 151c0 32.667 -0.666992 70.834 -2 114.501s-2.33301 84.5 -3 122.5c12.667 -2.66699 27 -4 43 -4h23c10.667 2 18 3.33301 22 4c0 -33.333 -0.833008 -78 -2.5 -134s-2.5 -90.333 -2.5 -103
c0 -40.667 0.833008 -92.5 2.5 -155.5s2.5 -98.833 2.5 -107.5c-5.33301 1.33301 -12.166 2.33301 -20.499 3s-16.5 1 -24.5 1c-16 0 -30.333 -1.33301 -43 -4c3.33301 28.667 5 58.334 5 89.001z" />
    <glyph glyph-name="oslash" unicode="&#x448;" horiz-adv-x="810" 
d="M680 89c-26 -34.667 -51.333 -59.834 -76 -75.501s-52.334 -23.5 -83.001 -23.5c-34 0 -63.833 9.5 -89.5 28.5s-43.167 44.833 -52.5 77.5c-41.333 -70.667 -97.666 -106 -168.999 -106c-50.667 0 -89.834 14.833 -117.501 44.5s-41.5 73.167 -41.5 130.5l3 98
c0 37.333 -0.333008 67.333 -1 90c-2.66699 91.333 -4 140.333 -4 147c12.667 -2.66699 27 -4 43 -4h23c10.667 2 18 3.33301 22 4c0 -33.333 -0.833008 -78 -2.5 -134s-2.5 -90.333 -2.5 -103c0 -88 6.83301 -146 20.5 -174s42.5 -42 86.5 -42c50 0 85 21.667 105 65
c15.333 33.333 23 83.666 23 150.999c0 37.333 -0.333008 67.333 -1 90c-2.66699 91.333 -4 140.333 -4 147c12.667 -2.66699 27 -4 43 -4h23c10.667 2 18 3.33301 22 4c0 -33.333 -0.833008 -78 -2.5 -134s-2.5 -90.333 -2.5 -103c0 -88 6.5 -146 19.5 -174
s39.833 -42 80.5 -42c54 0 91.333 21.667 112 65c15.333 32 23 82.333 23 151c0 32.667 -0.666992 70.834 -2 114.501s-2.33301 84.5 -3 122.5c12.667 -2.66699 27 -4 43 -4h23c10.667 2 18 3.33301 22 4c0 -33.333 -0.833008 -78 -2.5 -134s-2.5 -90.333 -2.5 -103
c0 -40.667 0.833008 -92.5 2.5 -155.5s2.5 -98.833 2.5 -107.5c-5.33301 1.33301 -12.166 2.33301 -20.499 3s-16.5 1 -24.5 1c-16 0 -30.333 -1.33301 -43 -4c3.33301 28.667 5 58.334 5 89.001z" />
    <glyph glyph-name="ugrave" unicode="&#xf9;" horiz-adv-x="865" 
d="M677 85c-25.333 -33.333 -49.998 -57.5 -73.998 -72.5s-51.333 -22.5 -82 -22.5c-34 0 -63.833 9.5 -89.5 28.5s-43.167 44.833 -52.5 77.5c-41.333 -70.667 -97.666 -106 -168.999 -106c-50.667 0 -89.834 14.833 -117.501 44.5s-41.5 73.167 -41.5 130.5l3 98
c0 37.333 -0.333008 67.333 -1 90c-2.66699 91.333 -4 140.333 -4 147c12.667 -2.66699 27 -4 43 -4h23c10.667 2 18 3.33301 22 4c0 -33.333 -0.833008 -78 -2.5 -134s-2.5 -90.333 -2.5 -103c0 -88 6.83301 -146 20.5 -174s42.5 -42 86.5 -42c50 0 85 21.667 105 65
c15.333 33.333 23 83.666 23 150.999c0 37.333 -0.333008 67.333 -1 90c-2.66699 91.333 -4 140.333 -4 147c12.667 -2.66699 27 -4 43 -4h23c10.667 2 18 3.33301 22 4c0 -33.333 -0.833008 -78 -2.5 -134s-2.5 -90.333 -2.5 -103c0 -88 6.5 -146 19.5 -174
s39.833 -42 80.5 -42c54 0 91.333 21.667 112 65c15.333 32 23 82.333 23 151c0 37.333 -0.333008 67.333 -1 90c-2.66699 91.333 -4 140.333 -4 147c12.667 -2.66699 27 -4 43 -4h23c10.667 2 18 3.33301 22 4c0 -33.333 -0.833008 -78 -2.5 -134s-2.5 -90.333 -2.5 -103
c0 -112 1.33301 -178.833 4 -200.5s10.667 -32.5 24 -32.5c11.333 0 33 4.66699 65 14l3 -4c0 -90.667 -10 -151.667 -30 -183c-22.667 -35.333 -69.334 -58.333 -140.001 -69l-9 21c43.333 7.33301 71.666 23 84.999 47s20 72 20 144h-20c-28.667 0 -48.667 4.66699 -60 14
c-15.333 12.667 -23 36.334 -23 71.001z" />
    <glyph glyph-name="ugrave" unicode="&#x449;" horiz-adv-x="865" 
d="M677 85c-25.333 -33.333 -49.998 -57.5 -73.998 -72.5s-51.333 -22.5 -82 -22.5c-34 0 -63.833 9.5 -89.5 28.5s-43.167 44.833 -52.5 77.5c-41.333 -70.667 -97.666 -106 -168.999 -106c-50.667 0 -89.834 14.833 -117.501 44.5s-41.5 73.167 -41.5 130.5l3 98
c0 37.333 -0.333008 67.333 -1 90c-2.66699 91.333 -4 140.333 -4 147c12.667 -2.66699 27 -4 43 -4h23c10.667 2 18 3.33301 22 4c0 -33.333 -0.833008 -78 -2.5 -134s-2.5 -90.333 -2.5 -103c0 -88 6.83301 -146 20.5 -174s42.5 -42 86.5 -42c50 0 85 21.667 105 65
c15.333 33.333 23 83.666 23 150.999c0 37.333 -0.333008 67.333 -1 90c-2.66699 91.333 -4 140.333 -4 147c12.667 -2.66699 27 -4 43 -4h23c10.667 2 18 3.33301 22 4c0 -33.333 -0.833008 -78 -2.5 -134s-2.5 -90.333 -2.5 -103c0 -88 6.5 -146 19.5 -174
s39.833 -42 80.5 -42c54 0 91.333 21.667 112 65c15.333 32 23 82.333 23 151c0 37.333 -0.333008 67.333 -1 90c-2.66699 91.333 -4 140.333 -4 147c12.667 -2.66699 27 -4 43 -4h23c10.667 2 18 3.33301 22 4c0 -33.333 -0.833008 -78 -2.5 -134s-2.5 -90.333 -2.5 -103
c0 -112 1.33301 -178.833 4 -200.5s10.667 -32.5 24 -32.5c11.333 0 33 4.66699 65 14l3 -4c0 -90.667 -10 -151.667 -30 -183c-22.667 -35.333 -69.334 -58.333 -140.001 -69l-9 21c43.333 7.33301 71.666 23 84.999 47s20 72 20 144h-20c-28.667 0 -48.667 4.66699 -60 14
c-15.333 12.667 -23 36.334 -23 71.001z" />
    <glyph glyph-name="uacute" unicode="&#xfa;" horiz-adv-x="553" 
d="M8 500c2.66699 0 11.665 -0.666016 26.998 -1.99902s30.333 -2 45 -2c8.66699 0 27 0.666992 55 2s48 2 60 2c0 -25.333 -1.33301 -64.333 -4 -117s-4 -92.667 -4 -120v-93c0 -46.667 13 -83 39 -109c22.667 -22.667 50.667 -34 84 -34c34 0 60.833 11 80.5 33
s29.5 57.333 29.5 106c0 44.667 -9.16699 79.167 -27.5 103.5s-45.833 36.5 -82.5 36.5c-7.33301 0 -17.666 -1.66699 -30.999 -5s-25 -8 -35 -14l-13 19c4.66699 6 14.667 12.333 30 19c21.333 9.33301 42.333 14 63 14c66.667 0 116.334 -18 149.001 -54
c26.667 -29.333 40 -66.333 40 -111c0 -59.333 -17.5 -104.833 -52.5 -136.5s-84.5 -47.5 -148.5 -47.5c-15.333 0 -33.333 3.66699 -54 11c-30 10.667 -55 27 -75 49c-10.667 -8.66699 -19.167 -15.834 -25.5 -21.501s-14.833 -15.167 -25.5 -28.5h-25
c0 24.667 0.5 64.167 1.5 118.5s2.16699 102.5 3.5 144.5c0 37.333 -0.333008 72.166 -1 104.499s-1.33398 62.833 -2.00098 91.5c-19.333 0 -37.166 -1.16699 -53.499 -3.5s-31.833 -5.16602 -46.5 -8.49902l2 23z" />
    <glyph glyph-name="uacute" unicode="&#x44a;" horiz-adv-x="553" 
d="M8 500c2.66699 0 11.665 -0.666016 26.998 -1.99902s30.333 -2 45 -2c8.66699 0 27 0.666992 55 2s48 2 60 2c0 -25.333 -1.33301 -64.333 -4 -117s-4 -92.667 -4 -120v-93c0 -46.667 13 -83 39 -109c22.667 -22.667 50.667 -34 84 -34c34 0 60.833 11 80.5 33
s29.5 57.333 29.5 106c0 44.667 -9.16699 79.167 -27.5 103.5s-45.833 36.5 -82.5 36.5c-7.33301 0 -17.666 -1.66699 -30.999 -5s-25 -8 -35 -14l-13 19c4.66699 6 14.667 12.333 30 19c21.333 9.33301 42.333 14 63 14c66.667 0 116.334 -18 149.001 -54
c26.667 -29.333 40 -66.333 40 -111c0 -59.333 -17.5 -104.833 -52.5 -136.5s-84.5 -47.5 -148.5 -47.5c-15.333 0 -33.333 3.66699 -54 11c-30 10.667 -55 27 -75 49c-10.667 -8.66699 -19.167 -15.834 -25.5 -21.501s-14.833 -15.167 -25.5 -28.5h-25
c0 24.667 0.5 64.167 1.5 118.5s2.16699 102.5 3.5 144.5c0 37.333 -0.333008 72.166 -1 104.499s-1.33398 62.833 -2.00098 91.5c-19.333 0 -37.166 -1.16699 -53.499 -3.5s-31.833 -5.16602 -46.5 -8.49902l2 23z" />
    <glyph glyph-name="ucircumflex" unicode="&#xfb;" horiz-adv-x="688" 
d="M646 500c0 -33.333 -0.833984 -78.001 -2.50098 -134.001s-2.5 -90.333 -2.5 -103c0 -40.667 0.833008 -92.5 2.5 -155.5s2.5 -98.833 2.5 -107.5c-5.33301 1.33301 -12.166 2.33301 -20.499 3s-16.5 1 -24.5 1c-16 0 -30.333 -1.33301 -43 -4
c0 37.333 0.833008 87.333 2.5 150s2.5 100.334 2.5 113.001c0 37.333 -0.333008 67.333 -1 90c-2.66699 91.333 -4 140.333 -4 147c12.667 -2.66699 27 -4 43 -4h23c10.667 2 18 3.33301 22 4zM58.999 -0.000976562l-23.001 -0.000976562
c0 22.667 0.833008 68.334 2.5 137.001s2.5 110.667 2.5 126c0 37.333 -0.333008 67.333 -1 90c-2.66699 91.333 -4 140.333 -4 147c12.667 -2.66699 27 -4 43 -4h23c10.667 2 18 3.33301 22 4c0 -33.333 -0.833008 -78 -2.5 -134s-2.5 -90.333 -2.5 -103v-93
c0 -46.667 12.667 -83 38 -109c22.667 -22.667 50.667 -34 84 -34c34 0 60.833 11 80.5 33s29.5 57.333 29.5 106c0 44.667 -9.16699 79.167 -27.5 103.5s-45.833 36.5 -82.5 36.5c-7.33301 0 -17.666 -1.66699 -30.999 -5s-25 -8 -35 -14l-13 19
c4.66699 6 14.667 12.333 30 19c21.333 9.33301 42.333 14 63 14c66.667 0 116.334 -18 149.001 -54c26.667 -29.333 40 -66.333 40 -111c0 -60 -17.333 -105.667 -52 -137s-84.334 -47 -149.001 -47c-15.333 0 -33.333 3.66699 -54 11c-30 10.667 -55 27 -75 49
c-12 -8 -21.5 -15.167 -28.5 -21.5s-15.833 -15.833 -26.5 -28.5z" />
    <glyph glyph-name="ucircumflex" unicode="&#x44b;" horiz-adv-x="688" 
d="M646 500c0 -33.333 -0.833984 -78.001 -2.50098 -134.001s-2.5 -90.333 -2.5 -103c0 -40.667 0.833008 -92.5 2.5 -155.5s2.5 -98.833 2.5 -107.5c-5.33301 1.33301 -12.166 2.33301 -20.499 3s-16.5 1 -24.5 1c-16 0 -30.333 -1.33301 -43 -4
c0 37.333 0.833008 87.333 2.5 150s2.5 100.334 2.5 113.001c0 37.333 -0.333008 67.333 -1 90c-2.66699 91.333 -4 140.333 -4 147c12.667 -2.66699 27 -4 43 -4h23c10.667 2 18 3.33301 22 4zM58.999 -0.000976562l-23.001 -0.000976562
c0 22.667 0.833008 68.334 2.5 137.001s2.5 110.667 2.5 126c0 37.333 -0.333008 67.333 -1 90c-2.66699 91.333 -4 140.333 -4 147c12.667 -2.66699 27 -4 43 -4h23c10.667 2 18 3.33301 22 4c0 -33.333 -0.833008 -78 -2.5 -134s-2.5 -90.333 -2.5 -103v-93
c0 -46.667 12.667 -83 38 -109c22.667 -22.667 50.667 -34 84 -34c34 0 60.833 11 80.5 33s29.5 57.333 29.5 106c0 44.667 -9.16699 79.167 -27.5 103.5s-45.833 36.5 -82.5 36.5c-7.33301 0 -17.666 -1.66699 -30.999 -5s-25 -8 -35 -14l-13 19
c4.66699 6 14.667 12.333 30 19c21.333 9.33301 42.333 14 63 14c66.667 0 116.334 -18 149.001 -54c26.667 -29.333 40 -66.333 40 -111c0 -60 -17.333 -105.667 -52 -137s-84.334 -47 -149.001 -47c-15.333 0 -33.333 3.66699 -54 11c-30 10.667 -55 27 -75 49
c-12 -8 -21.5 -15.167 -28.5 -21.5s-15.833 -15.833 -26.5 -28.5z" />
    <glyph glyph-name="udieresis" unicode="&#xfc;" horiz-adv-x="480" 
d="M57 0h-23.001c0 20.667 0.833008 63.167 2.5 127.5s2.5 109.5 2.5 135.5c0 37.333 -0.333008 67.333 -1 90c-2.66699 91.333 -4 140.333 -4 147c12.667 -2.66699 27 -4 43 -4h23c10.667 2 18 3.33301 22 4c0 -33.333 -0.833008 -78 -2.5 -134s-2.5 -90.333 -2.5 -103v-93
c0 -46.667 12.667 -83 38 -109c22.667 -22.667 50.667 -34 84 -34c34 0 60.833 11 80.5 33s29.5 57.333 29.5 106c0 44.667 -9.16699 79.167 -27.5 103.5s-45.833 36.5 -82.5 36.5c-7.33301 0 -17.666 -1.66699 -30.999 -5s-25 -8 -35 -14l-13 19
c4.66699 6 14.667 12.333 30 19c21.333 9.33301 42.333 14 63 14c66.667 0 116.334 -18 149.001 -54c26.667 -29.333 40 -66.333 40 -111c0 -60 -17.333 -105.667 -52 -137s-84.334 -47 -149.001 -47c-15.333 0 -33.333 3.66699 -54 11c-30 10.667 -55 27 -75 49
c-12 -8 -21.5 -15.167 -28.5 -21.5s-15.833 -15.833 -26.5 -28.5z" />
    <glyph glyph-name="udieresis" unicode="&#x44c;" horiz-adv-x="480" 
d="M57 0h-23.001c0 20.667 0.833008 63.167 2.5 127.5s2.5 109.5 2.5 135.5c0 37.333 -0.333008 67.333 -1 90c-2.66699 91.333 -4 140.333 -4 147c12.667 -2.66699 27 -4 43 -4h23c10.667 2 18 3.33301 22 4c0 -33.333 -0.833008 -78 -2.5 -134s-2.5 -90.333 -2.5 -103v-93
c0 -46.667 12.667 -83 38 -109c22.667 -22.667 50.667 -34 84 -34c34 0 60.833 11 80.5 33s29.5 57.333 29.5 106c0 44.667 -9.16699 79.167 -27.5 103.5s-45.833 36.5 -82.5 36.5c-7.33301 0 -17.666 -1.66699 -30.999 -5s-25 -8 -35 -14l-13 19
c4.66699 6 14.667 12.333 30 19c21.333 9.33301 42.333 14 63 14c66.667 0 116.334 -18 149.001 -54c26.667 -29.333 40 -66.333 40 -111c0 -60 -17.333 -105.667 -52 -137s-84.334 -47 -149.001 -47c-15.333 0 -33.333 3.66699 -54 11c-30 10.667 -55 27 -75 49
c-12 -8 -21.5 -15.167 -28.5 -21.5s-15.833 -15.833 -26.5 -28.5z" />
    <glyph glyph-name="yacute" unicode="&#xfd;" horiz-adv-x="490" 
d="M385 276c0 63.333 -16.1689 112.499 -48.502 147.499s-75.166 52.5 -128.499 52.5c-66 0 -114 -33.333 -144 -100c-6.66699 32 -16 62.333 -28 91c54.667 28.667 112 43 172 43c79.333 0 143 -23.667 191 -71s72 -110.666 72 -189.999s-22.667 -142.333 -68 -189
s-105.333 -70 -180 -70c-38 0 -71.833 4.16699 -101.5 12.5s-56.167 21.5 -79.5 39.5l2 22l-3 39c50 -50.667 103 -76 159 -76c54.667 0 99.167 18.833 133.5 56.5s51.5 89.5 51.5 155.5h-102c-23.333 0 -45.333 -0.666992 -66 -2s-40.667 -3 -60 -5v51
c18.667 -1.33301 40.834 -2.83301 66.501 -4.5s45.5 -2.5 59.5 -2.5h102z" />
    <glyph glyph-name="yacute" unicode="&#x44d;" horiz-adv-x="490" 
d="M385 276c0 63.333 -16.1689 112.499 -48.502 147.499s-75.166 52.5 -128.499 52.5c-66 0 -114 -33.333 -144 -100c-6.66699 32 -16 62.333 -28 91c54.667 28.667 112 43 172 43c79.333 0 143 -23.667 191 -71s72 -110.666 72 -189.999s-22.667 -142.333 -68 -189
s-105.333 -70 -180 -70c-38 0 -71.833 4.16699 -101.5 12.5s-56.167 21.5 -79.5 39.5l2 22l-3 39c50 -50.667 103 -76 159 -76c54.667 0 99.167 18.833 133.5 56.5s51.5 89.5 51.5 155.5h-102c-23.333 0 -45.333 -0.666992 -66 -2s-40.667 -3 -60 -5v51
c18.667 -1.33301 40.834 -2.83301 66.501 -4.5s45.5 -2.5 59.5 -2.5h102z" />
    <glyph glyph-name="thorn" unicode="&#xfe;" horiz-adv-x="731" 
d="M115 243c0 -37.333 0.832031 -85.001 2.49902 -143.001s2.5 -91.333 2.5 -100c-5.33301 1.33301 -12.166 2.33301 -20.499 3s-16.5 1 -24.5 1c-16 0 -30.333 -1.33301 -43 -4c0 37.333 0.833008 87.333 2.5 150s2.5 100.334 2.5 113.001c0 37.333 -0.333008 67.333 -1 90
c-2.66699 91.333 -4 140.333 -4 147c12.667 -2.66699 27 -4 43 -4h23c10.667 2 18 3.33301 22 4c0 -32 -0.333008 -58 -1 -78c-2.66699 -80 -4 -124 -4 -132h76c8.66699 66 36.167 119.167 82.5 159.5s102.5 60.5 168.5 60.5c74 0 134.333 -24 181 -72s70 -110.667 70 -188
c0 -78 -23.5 -140.833 -70.5 -188.5s-107.167 -71.5 -180.5 -71.5c-72 0 -131.833 23.5 -179.5 70.5s-71.5 107.833 -71.5 182.5h-76zM441.999 23.999c52 0 91.832 18.5 119.499 55.5s41.5 91.833 41.5 164.5c0 76 -13.667 133.667 -41 173s-67.666 59 -120.999 59
c-106.667 0 -160 -75 -160 -225c0 -151.333 53.667 -227 161 -227z" />
    <glyph glyph-name="thorn" unicode="&#x44e;" horiz-adv-x="731" 
d="M115 243c0 -37.333 0.832031 -85.001 2.49902 -143.001s2.5 -91.333 2.5 -100c-5.33301 1.33301 -12.166 2.33301 -20.499 3s-16.5 1 -24.5 1c-16 0 -30.333 -1.33301 -43 -4c0 37.333 0.833008 87.333 2.5 150s2.5 100.334 2.5 113.001c0 37.333 -0.333008 67.333 -1 90
c-2.66699 91.333 -4 140.333 -4 147c12.667 -2.66699 27 -4 43 -4h23c10.667 2 18 3.33301 22 4c0 -32 -0.333008 -58 -1 -78c-2.66699 -80 -4 -124 -4 -132h76c8.66699 66 36.167 119.167 82.5 159.5s102.5 60.5 168.5 60.5c74 0 134.333 -24 181 -72s70 -110.667 70 -188
c0 -78 -23.5 -140.833 -70.5 -188.5s-107.167 -71.5 -180.5 -71.5c-72 0 -131.833 23.5 -179.5 70.5s-71.5 107.833 -71.5 182.5h-76zM441.999 23.999c52 0 91.832 18.5 119.499 55.5s41.5 91.833 41.5 164.5c0 76 -13.667 133.667 -41 173s-67.666 59 -120.999 59
c-106.667 0 -160 -75 -160 -225c0 -151.333 53.667 -227 161 -227z" />
    <glyph glyph-name="ydieresis" unicode="&#xff;" horiz-adv-x="480" 
d="M454 502c0 -29.333 -0.833984 -68.501 -2.50098 -117.501s-2.5 -89.5 -2.5 -121.5c0 -40.667 0.833008 -92.5 2.5 -155.5s2.5 -98.833 2.5 -107.5c-5.33301 1.33301 -12.166 2.33301 -20.499 3s-16.5 1 -24.5 1c-16 0 -30.333 -1.33301 -43 -4
c0 37.333 0.833008 87.333 2.5 150s2.5 100.334 2.5 113.001v83c0 44 -12.333 77.333 -37 100c-20 18.667 -44.333 28 -73 28c-31.333 0 -58 -10 -80 -30c-26 -23.333 -39 -55.333 -39 -96c0 -42 11.333 -74.333 34 -97c20 -20 44.333 -30 73 -30c11.333 0 20 1 26 3l6 2
l5 -13c-17.333 -13.333 -38.333 -36.333 -63 -69l-104 -144c-2 0.666992 -8.16699 1.5 -18.5 2.5s-22.166 1.5 -35.499 1.5c-12 0 -23.667 -0.333008 -35 -1s-20 -1.66699 -26 -3c29.333 28.667 61.666 63 96.999 103l86 100l-9 2
c-33.333 7.33301 -62.333 23.666 -87 48.999c-28 29.333 -42 63 -42 101c0 48.667 18.667 86.834 56 114.501s82.333 41.5 135 41.5c30 0 55.333 -3.66699 76 -11c28 -10 51 -26.333 69 -49l49 51h20z" />
    <glyph glyph-name="ydieresis" unicode="&#x44f;" horiz-adv-x="480" 
d="M454 502c0 -29.333 -0.833984 -68.501 -2.50098 -117.501s-2.5 -89.5 -2.5 -121.5c0 -40.667 0.833008 -92.5 2.5 -155.5s2.5 -98.833 2.5 -107.5c-5.33301 1.33301 -12.166 2.33301 -20.499 3s-16.5 1 -24.5 1c-16 0 -30.333 -1.33301 -43 -4
c0 37.333 0.833008 87.333 2.5 150s2.5 100.334 2.5 113.001v83c0 44 -12.333 77.333 -37 100c-20 18.667 -44.333 28 -73 28c-31.333 0 -58 -10 -80 -30c-26 -23.333 -39 -55.333 -39 -96c0 -42 11.333 -74.333 34 -97c20 -20 44.333 -30 73 -30c11.333 0 20 1 26 3l6 2
l5 -13c-17.333 -13.333 -38.333 -36.333 -63 -69l-104 -144c-2 0.666992 -8.16699 1.5 -18.5 2.5s-22.166 1.5 -35.499 1.5c-12 0 -23.667 -0.333008 -35 -1s-20 -1.66699 -26 -3c29.333 28.667 61.666 63 96.999 103l86 100l-9 2
c-33.333 7.33301 -62.333 23.666 -87 48.999c-28 29.333 -42 63 -42 101c0 48.667 18.667 86.834 56 114.501s82.333 41.5 135 41.5c30 0 55.333 -3.66699 76 -11c28 -10 51 -26.333 69 -49l49 51h20z" />
    <glyph glyph-name="florin" unicode="&#x192;" horiz-adv-x="581" 
d="M365 382l107.998 3l-5 -37l-108 2c-24.667 -152 -46.334 -263 -65.001 -333c-24.667 -92.667 -53 -159.667 -85 -201c-34.667 -44.667 -79.667 -67 -135 -67c-17.333 0 -32 3.66699 -44 11c9.33301 20.667 18.333 46 27 76c22.667 -22.667 45.334 -34 68.001 -34
c38 0 71.333 79.333 100 238l57 311l-110 -3l8 38c11.333 0 31 -0.666992 59 -2s44.333 -2 49 -2c11.333 93.333 33.666 168.333 66.999 225c39.333 66 89 99 149 99c16.667 0 31.334 -3.33301 44.001 -10c-10 -22 -18 -47 -24 -75
c-11.333 11.333 -22.166 19.333 -32.499 24s-20.166 7 -29.499 7c-38 0 -65.667 -56 -83 -168z" />
    <glyph glyph-name="tilde" unicode="&#x2dc;" horiz-adv-x="530" 
d="M413 722c-12.667 -70.667 -45.998 -106 -99.998 -106c-10.667 0 -23.334 1.66699 -38.001 5l-57 15l-25 3c-14.667 0 -25.334 -3.16699 -32.001 -9.5s-12.667 -18.833 -18 -37.5h-26c12 73.333 45.667 110 101 110c10 0 21 -1.66699 33 -5l57 -15l29 -5
c22.667 0 39 15 49 45h27z" />
    <glyph glyph-name="endash" unicode="&#x2013;" horiz-adv-x="530" 
d="M0 229v50h530v-50h-530z" />
    <glyph glyph-name="emdash" unicode="&#x2014;" horiz-adv-x="1060" 
d="M0 229v50h1060v-50h-1060z" />
    <glyph glyph-name="quoteleft" unicode="&#x2018;" horiz-adv-x="290" 
d="M222 756l17 -8l-75 -253c-10 -32.667 -26 -49 -48 -49c-26 0 -39 13.333 -39 40c0 11.333 4.33301 25 13 41z" />
    <glyph glyph-name="quoteright" unicode="&#x2019;" horiz-adv-x="289" 
d="M96 448l-17 8l75 253c10 32.667 26 49 48 49c26 0 39 -13.333 39 -40c0 -11.333 -4.33301 -25 -13 -41z" />
    <glyph glyph-name="quotesinglbase" unicode="&#x201a;" horiz-adv-x="290" 
d="M63 -193l-17 8l75 253c10 32.667 26 49 48 49c26 0 39 -13.333 39 -40c0 -11.333 -4.33301 -25 -13 -41z" />
    <glyph glyph-name="quotedblleft" unicode="&#x201c;" horiz-adv-x="463" 
d="M221 758l17 -8l-75 -253c-10 -32.667 -26 -49 -48 -49c-26 0 -39 13.333 -39 40c0 11.333 4.33301 25 13 41zM393 758l17 -8l-75 -253c-10 -32.667 -26 -49 -48 -49c-26 0 -39 13.333 -39 40c0 11.333 4.33301 25 13 41z" />
    <glyph glyph-name="quotedblright" unicode="&#x201d;" horiz-adv-x="462" 
d="M269 448l-17 8l75 253c10 32.667 26 49 48 49c26 0 39 -13.333 39 -40c0 -11.333 -4.33301 -25 -13 -41zM97 448l-17 8l75 253c10 32.667 26 49 48 49c26 0 39 -13.333 39 -40c0 -11.333 -4.33301 -25 -13 -41z" />
    <glyph glyph-name="quotedblbase" unicode="&#x201e;" horiz-adv-x="462" 
d="M61 -192l-17 8l75 253c10 32.667 26 49 48 49c26 0 39 -13.333 39 -40c0 -11.333 -4.33301 -25 -13 -41zM235 -192l-17 8l75 253c10 32.667 26 49 48 49c26 0 39 -13.333 39 -40c0 -11.333 -4.33301 -25 -13 -41z" />
    <glyph glyph-name="dagger" unicode="&#x2020;" horiz-adv-x="524" 
d="M298 724c0 -5.33301 -1.16504 -38.833 -3.49805 -100.5s-3.5 -111.167 -3.5 -148.5h34c57.333 0 106.666 2.33301 147.999 7v-58c-27.333 4 -74 6 -140 6h-40l-2 -114c0 -1.33301 1.66699 -60.333 5 -177c1.33301 -46.667 2 -93 2 -139c-10 2.66699 -21.333 4 -34 4
c-14.667 0 -27.334 -1.33301 -38.001 -4c0 54 1.16699 119.5 3.5 196.5s3.5 116.833 3.5 119.5l-2 114h-40c-66 0 -112.667 -2 -140 -6v58c44 -4.66699 94 -7 150 -7h32c0 58 -0.666992 108 -2 150s-3 75 -5 99c8.66699 -2.66699 20 -4 34 -4z" />
    <glyph glyph-name="daggerdbl" unicode="&#x2021;" 
d="M54 0l2.99902 33.998l-3 35c60.667 0 101.667 12.667 123 38s32 71.333 32 138v13v12c0 14 -0.333008 27.833 -1 41.5s-2 26.834 -4 39.501c-28.667 0 -64 -3.33301 -106 -10v46c20.667 -2.66699 46.334 -4 77.001 -4h26l-6 94c0 73.333 18.167 129.833 54.5 169.5
s88.166 59.5 155.499 59.5c55.333 0 99 -18.333 131 -55l-51 -63c-9.33301 55.333 -41.333 83 -96 83c-78 0 -117 -51.667 -117 -155c0 -36 3 -80.333 9 -133h33h12c13.333 0 27 0.333008 41 1s28.333 2 43 4v-43c-26 2.66699 -46 4.33398 -60 5.00098s-29.333 1 -46 1h-18
v-24c0 -58.667 -8.16699 -109.5 -24.5 -152.5s-42.166 -78.167 -77.499 -105.5c32 0 107 3.33301 225 10c58.667 3.33301 105.667 5 141 5l-2 -41l2 -43c-31.333 0 -75.333 1 -132 3s-97 3 -121 3c-24.667 0 -64 -1 -118 -3s-95.667 -3 -125 -3z" />
    <glyph glyph-name="bullet" unicode="&#x2022;" horiz-adv-x="626" 
d="M159 394c0 42.667 15.001 78.667 45.001 108s66.333 44 109 44c42 0 77.833 -14.833 107.5 -44.5s44.5 -65.5 44.5 -107.5s-14.833 -78.167 -44.5 -108.5s-65.834 -45.5 -108.501 -45.5c-42 0 -78 15 -108 45s-45 66.333 -45 109z" />
    <glyph glyph-name="ellipsis" unicode="&#x2026;" horiz-adv-x="1060" 
d="M118 49c0 16.667 5.66699 30.667 17 42s25.333 17 42 17c16 0 29.667 -5.66699 41 -17s17 -25.333 17 -42c0 -16 -5.66699 -29.667 -17 -41s-25 -17 -41 -17c-16.667 0 -30.667 5.33301 -42 16s-17 24.667 -17 42zM471 49c0 16.667 5.66699 30.667 17 42s25.333 17 42 17
c16 0 29.667 -5.66699 41 -17s17 -25.333 17 -42c0 -16 -5.66699 -29.667 -17 -41s-25 -17 -41 -17c-16.667 0 -30.667 5.33301 -42 16s-17 24.667 -17 42zM824 49c0 16.667 5.66699 30.667 17 42s25.333 17 42 17c16 0 29.667 -5.66699 41 -17s17 -25.333 17 -42
c0 -16 -5.66699 -29.667 -17 -41s-25 -17 -41 -17c-16.667 0 -30.667 5.33301 -42 16s-17 24.667 -17 42z" />
    <glyph glyph-name="perthousand" unicode="&#x2030;" horiz-adv-x="1198" 
d="M202 689c46 0 84 -15.667 114 -47s45 -72.666 45 -123.999c0 -54.667 -15.667 -97.334 -47 -128.001s-72.333 -46 -123 -46c-46 0 -83 15.667 -111 47s-42 73.333 -42 126c0 50 15.5 91.167 46.5 123.5s70.167 48.5 117.5 48.5zM186 -99h-50l497 886h48zM623 339
c46 0 84 -15.667 114 -47s45 -72.666 45 -123.999c0 -54.667 -15.667 -97.334 -47 -128.001s-72.333 -46 -123 -46c-46 0 -83 15.667 -111 47s-42 73.333 -42 126c0 50 15.5 91.167 46.5 123.5s70.167 48.5 117.5 48.5zM201 657c-26.667 0 -47.5 -12.168 -62.5 -36.501
s-22.5 -57.833 -22.5 -100.5c0 -51.333 6.66699 -88.166 20 -110.499s35 -33.5 65 -33.5c54.667 0 82 45.333 82 136c0 51.333 -6.16699 88.333 -18.5 111s-33.5 34 -63.5 34zM622 306.999c-26.667 0 -47.5 -12.168 -62.5 -36.501s-22.5 -57.833 -22.5 -100.5
c0 -51.333 6.66699 -88.166 20 -110.499s35 -33.5 65 -33.5c54.667 0 82 45.333 82 136c0 51.333 -6.16699 88.333 -18.5 111s-33.5 34 -63.5 34zM1005 338.998c46 0 84 -15.667 114 -47s45 -72.666 45 -123.999c0 -54.667 -15.667 -97.334 -47 -128.001
s-72.333 -46 -123 -46c-46 0 -83 15.667 -111 47s-42 73.333 -42 126c0 50 15.5 91.167 46.5 123.5s70.167 48.5 117.5 48.5zM1004 306.998c-26.667 0 -47.5 -12.168 -62.5 -36.501s-22.5 -57.833 -22.5 -100.5c0 -51.333 6.66699 -88.166 20 -110.499s35 -33.5 65 -33.5
c54.667 0 82 45.333 82 136c0 51.333 -6.16699 88.333 -18.5 111s-33.5 34 -63.5 34z" />
    <glyph glyph-name="guilsinglleft" unicode="&#x2039;" horiz-adv-x="251" 
d="M231 28l-22 -28l-170 250l170 250l22 -28l-125 -222z" />
    <glyph glyph-name="guilsinglright" unicode="&#x203a;" horiz-adv-x="250" 
d="M18 472l22 28l170 -250l-170 -250l-22 28l125 222z" />
    <glyph glyph-name="trademark" unicode="&#x2122;" horiz-adv-x="883" 
d="M359 753v-30h-89v-245h-42v245h-91v30h222zM485 753l86 -219l81 219h60v-275h-37v242l-91 -242h-25l-97 242v-242h-37v275h60z" />
    <glyph glyph-name=".null" horiz-adv-x="0" 
 />
    <glyph glyph-name="nonmarkingreturn" horiz-adv-x="274" 
 />
    </font>
</defs>
</svg>
